<?xml version="1.0"?>
<svg xmlns="http://www.w3.org/2000/svg" id="Layer_1" data-name="Layer 1" viewBox="0 0 512 512" width="512px" height="512px"><g><title class="active-path" style="">Fuel</title><path d="M391.8,26H278.021a47.418,47.418,0,0,0-42.878,26.217L215.109,92H163.058L132.006,66a8.031,8.031,0,0,0-11.291,1.068L74.118,123a8.034,8.034,0,0,0,1.227,11.253L106,159.813V425.145A60.6,60.6,0,0,0,166.8,486H378.483C412.258,486,440,458.92,440,425.145V73.542C440,47.108,418.23,26,391.8,26ZM112.542,144.794,91.511,127.127,127.865,83.5,148.9,101.169,113.788,143.3ZM424,425.145C424,450.1,403.436,470,378.483,470H166.8A44.581,44.581,0,0,1,122,425.145V158.982L163.892,108h56.162a7.921,7.921,0,0,0,7.155-4.338l22.245-44.247A31.543,31.543,0,0,1,278.021,42H391.8C409.408,42,424,55.93,424,73.542Z" data-original="#000000" class="active-path" fill="#042D42"/><path d="M382.27,66H284.615a7.794,7.794,0,0,0-7.309,4.515l-16,35.836a7.42,7.42,0,0,0,.6,7.309,7.73,7.73,0,0,0,6.709,3.34H382.27a7.37,7.37,0,0,0,7.73-7.512V73.536A7.389,7.389,0,0,0,382.27,66ZM374,101H280.932l8.879-19H374Z" data-original="#000000" class="active-path" fill="#042D42"/><path d="M363.6,223.662a8,8,0,0,0-11.314,0L271.976,303.97l-80.308-80.308a8,8,0,0,0-11.314,11.314l80.309,80.307-78.9,78.9A8,8,0,1,0,193.077,405.5l78.9-78.9,78.9,78.9a8,8,0,1,0,11.313-11.314l-78.9-78.9L363.6,234.976A8,8,0,0,0,363.6,223.662Z" data-original="#000000" class="active-path" fill="#042D42"/></g> </svg>
