<?xml version="1.0"?>
<svg xmlns="http://www.w3.org/2000/svg" id="Layer_1" enable-background="new 0 0 512 512" height="512px" viewBox="0 0 512 512" width="512px"><g><g><path d="m510.633 147.94c-1.79-3.05-5.1-4.94-8.63-4.94l-163.971 1.02-10.82-20.51c-1.74-3.29-5.13-5.33-8.851-5.33-1.619 0-3.23.4-4.659 1.16-2.37 1.24-4.101 3.33-4.891 5.89-.79 2.54-.54 5.25.7 7.61l13.66 25.88c1.74 3.29 5.13 5.34 8.85 5.34l152.742-.95-68.461 120.63c-1.42 2.51-1.69 5.51-.74 8.229l52.201 149.73-82.373-28.878c.39-3.851.612-7.942.612-12.322v-163.205c0-21.083-17.152-38.235-38.236-38.235-7.639 0-14.755 2.26-20.733 6.134-5.488-14.401-19.434-24.664-35.738-24.664-7.638 0-14.755 2.26-20.733 6.134-5.487-14.401-19.433-24.663-35.737-24.663-19.191 0-35.12 14.214-37.826 32.666-5.52-3.097-11.878-4.872-18.646-4.872-21.083 0-38.236 17.152-38.236 38.235v59.887c-1.009.823-1.984 1.7-2.918 2.634-7.22 7.22-11.2 16.82-11.2 27.04v96.606l-75.691 27.284 52.13-149.51c1-2.86.66-5.97-.93-8.54l-73.599-119.42 152.072.05c3.72 0 7.11-2.05 8.85-5.34l67.171-127.29 11.52 21.82c1.73 3.29 5.12 5.34 8.851 5.34 1.609 0 3.22-.4 4.66-1.16 2.359-1.25 4.1-3.34 4.88-5.89.79-2.55.54-5.26-.71-7.62l-20.362-38.59c-1.73-3.29-5.12-5.33-8.84-5.33s-7.11 2.04-8.84 5.33l-73.211 138.72-163.951-.05c-3.62 0-6.97 1.96-8.73 5.12-1.77 3.16-1.68 7.04.22 10.13l80.501 130.62-57.47 164.84c-1.26 3.62-.32 7.7 2.41 10.39 1.88 1.87 4.38 2.9 7.03 2.9 1.16 0 2.3-.2 3.39-.59l93.459-33.65c.121.265.227.536.352.799 2.994 6.289 7.18 11.838 12.458 16.566 1.769 17.722 3.559 38.013 3.559 47.563v3.312c0 5.522 4.477 10 10 10h187.767c5.271 0 9.637-4.091 9.979-9.351l2.458-37.736c6.942-4.323 17.779-13.712 23.935-32.326l99.418 34.853c3.54 1.24 7.721.28 10.37-2.359 2.7-2.7 3.63-6.771 2.38-10.37l-57.55-165.05 74.771-131.72c1.748-3.101 1.727-6.931-.073-10.001zm-237.573 70.825c0-10.055 8.181-18.235 18.236-18.235s18.236 8.18 18.236 18.235v70.588c0 10.055-8.181 18.235-18.236 18.235s-18.236-8.181-18.236-18.235zm-56.471-18.53c0-10.055 8.18-18.235 18.236-18.235 10.055 0 18.235 8.18 18.235 18.235v80.789c-3.592-1.099-7.366-1.672-11.229-1.675h-25.241v-79.114zm-56.471 27.794c0-10.055 8.18-18.235 18.236-18.235 10.055 0 18.236 8.18 18.236 18.235v51.32h-32.35c-1.387.001-2.762.082-4.122.228zm205.884 172.471c0 39.153-19.735 47.981-21.487 48.688-3.985 1.202-6.457 4.646-6.728 8.811l-2.214 34.001h-27.222v-22.79c0-5.521-4.48-10-10-10-5.51 0-10 4.479-10 10v22.79h-36.47v-32.79c0-5.521-4.48-10-10-10-5.51 0-10 4.479-10 10v32.79h-64.879c-.365-8.208-1.259-19.316-2.289-30.48 3.383-.66 6.271-3.045 7.497-6.36 1.9-5.16-.75-10.92-5.91-12.83 0 0 0 0-.01-.011-.06-.02-5.84-2.35-10.98-7.659-3.96-4.16-9.231-11.16-9.31-23.9v-93.17c.02-10.04 8.2-18.22 18.24-18.24h77.591c10.03.021 18.211 8.2 18.23 18.24-.02 10.03-8.2 18.21-18.23 18.229h-42.3c-2.63 0-5.21 1.07-7.07 2.931-1.86 1.859-2.93 4.439-2.93 7.069v34.12c0 3.051 1.37 5.9 3.75 7.811 2.34 1.87 5.51 2.6 8.44 1.95.18-.04 6.867-1.42 15.027-1.42 9.84 0 19.004 2.18 24.663 5.989 3.6 2.391 6.18 5.271 8.12 9.07 2.37 4.68 3.52 10.38 3.53 17.43 0 5.511 4.49 9.99 10 9.99s10-4.479 10-9.99c0-10.12-1.91-19.029-5.69-26.479-2.601-5.181-6.19-9.721-10.66-13.5-3.93-3.33-8.46-6-13.44-7.94-7.8-3.05-16.51-4.54-26.631-4.56-2.34 0-4.73.08-7.11.25v-12.721h32.3c10.211 0 19.81-3.979 27.03-11.199 5.29-5.29 8.832-11.86 10.352-19.009 3.801 1.273 7.859 1.977 12.082 1.977 13.601 0 25.557-7.144 32.337-17.87 6.587 5.375 14.989 8.606 24.134 8.606 6.599 0 12.812-1.681 18.236-4.636v86.812zm0-120.412c0 10.055-8.181 18.235-18.236 18.235s-18.236-8.181-18.236-18.235v-42.794c0-10.055 8.181-18.235 18.236-18.235s18.236 8.18 18.236 18.235z" data-original="#000000" class="active-path" data-old_color="#000000" fill="#042D42"/><circle cx="297.359" cy="88.38" r="10" data-original="#000000" class="active-path" data-old_color="#000000" fill="#042D42"/></g></g> </svg>
