<?xml version="1.0"?>
<svg xmlns="http://www.w3.org/2000/svg" xmlns:xlink="http://www.w3.org/1999/xlink" version="1.1" id="Layer_1" x="0px" y="0px" viewBox="0 0 512 512" style="enable-background:new 0 0 512 512;" xml:space="preserve" width="512px" height="512px"><g><g>
	<g>
		<path d="M437,362h-45v-46c0-8.284-6.716-15-15-15s-15,6.716-15,15v61c0,8.284,6.716,15,15,15h60c8.284,0,15-6.716,15-15    S445.284,362,437,362z" data-original="#000000" class="active-path" data-old_color="#000000" fill="#01908C"/>
	</g>
</g><g>
	<g>
		<path d="M512,256c0-44.355-11.333-87.051-32.62-124.833c-0.705-2.672-2.118-5.052-4.042-6.921    c-10.672-17.619-23.557-34.09-38.526-49.059C388.327,26.702,324.113,0,256,0S123.673,26.702,75.188,75.188    c-14.969,14.969-27.855,31.441-38.526,49.06c-1.923,1.868-3.335,4.248-4.041,6.918C11.333,168.948,0,211.645,0,256    s11.333,87.052,32.621,124.834c0.706,2.671,2.118,5.051,4.041,6.919c10.672,17.619,23.557,34.091,38.526,49.06    C123.673,485.298,187.887,512,256,512h5.31c0.584,0,1.157-0.042,1.724-0.106c21.481-0.583,42.687-3.831,63.199-9.695    C342.187,508.626,359.353,512,377,512c74.439,0,135-60.561,135-135c0-17.647-3.374-34.813-9.802-50.767    C508.703,303.484,512,279.884,512,256z M455.547,150c14.65,27.467,23.789,58.293,25.943,91h-59.781    c-1.188-31.788-6.141-62.549-14.527-91H455.547z M481.498,271c-0.396,6.008-1.025,11.984-1.894,17.917    c-2.265-2.666-4.639-5.261-7.124-7.775c-3.571-3.612-7.31-6.99-11.188-10.142H481.498z M436.379,120h-39.668    c-6.115-15.019-13.275-29.16-21.437-42.175c-5.228-8.336-10.762-16.035-16.554-23.103C389.282,70.382,415.825,92.807,436.379,120z     M391.689,241h-60.807c-0.481-31.877-2.49-62.661-5.89-91h50.8C384.962,178.003,390.397,208.861,391.689,241z M349.858,93.764    c5.175,8.251,9.903,17.023,14.173,26.236h-43.309c-2.239-13.431-4.824-26.1-7.739-37.824c-3.802-15.296-8.048-28.48-12.723-39.529    C318.452,53.343,335.349,70.629,349.858,93.764z M227.612,89.491c5.206-20.472,11.352-37.005,17.773-47.812    C251.089,32.078,255.271,30,256,30c0.716,0,4.82,2.065,10.416,11.606c6.324,10.781,12.359,27.313,17.453,47.807    c2.374,9.551,4.517,19.785,6.422,30.587h-69.247C222.993,109.242,225.185,99.034,227.612,89.491z M294.782,150    c3.52,28.098,5.601,58.929,6.097,91h-90.755c0.513-32.016,2.663-62.849,6.296-91H294.782z M211.366,42.868    c-4.693,10.985-8.974,24.068-12.83,39.23c-2.993,11.769-5.648,24.463-7.949,37.902h-42.619c4.27-9.213,8.999-17.985,14.173-26.236    C176.551,70.788,193.316,53.58,211.366,42.868z M180.122,241h-59.811c1.292-32.139,6.728-62.997,15.897-91h49.99    C182.692,178.391,180.619,209.177,180.122,241z M186.198,362h-49.99c-9.169-28.003-14.605-58.861-15.897-91h59.811    C180.619,302.823,182.692,333.609,186.198,362z M153.28,54.722c-5.792,7.068-11.326,14.767-16.554,23.103    c-8.162,13.015-15.322,27.156-21.437,42.175H75.622C96.175,92.807,122.718,70.382,153.28,54.722z M56.453,150h48.365    c-8.386,28.451-13.338,59.212-14.526,91H30.51C32.664,208.293,41.803,177.467,56.453,150z M56.453,362    c-14.65-27.467-23.789-58.293-25.943-91h59.781c1.188,31.788,6.141,62.549,14.526,91H56.453z M75.622,392h39.667    c6.115,15.019,13.275,29.16,21.437,42.175c5.228,8.336,10.762,16.034,16.554,23.103C122.718,441.618,96.175,419.193,75.622,392z     M162.142,418.237c-5.174-8.251-9.903-17.022-14.173-26.236h42.619c2.3,13.439,4.956,26.133,7.948,37.902    c3.855,15.162,8.136,28.245,12.83,39.23C193.316,458.421,176.552,441.213,162.142,418.237z M210.125,271h82.189    c-3.89,3.135-7.643,6.491-11.232,10.081c-22.226,22.225-35.855,50.53-39.241,80.919h-25.42    C212.787,333.849,210.638,303.016,210.125,271z M256,482c-0.729,0-4.911-2.078-10.616-11.679    c-6.422-10.807-12.567-27.34-17.773-47.812c-2.427-9.542-4.618-19.751-6.568-30.509h20.801    c3.394,30.327,17.043,58.479,39.297,80.479c2.514,2.486,5.11,4.859,7.776,7.125C278.065,481.195,267.069,482,256,482z M377,482    c-58.448,0-106-47.103-106-105c0-57.458,48.542-106,106-106c57.897,0,105,47.552,105,106C482,434.897,434.898,482,377,482z" data-original="#000000" class="active-path" data-old_color="#000000" fill="#01908C"/>
	</g>
</g></g> </svg>
