<?xml version="1.0"?>
<svg xmlns="http://www.w3.org/2000/svg" height="512px" viewBox="0 0 511.99848 511" width="512px"><g><path d="m438.410156 436.082031c1.78125-1.808593 3.535156-3.644531 5.265625-5.507812 44.121094-47.480469 68.324219-108.917969 68.324219-174.085938 0-68.21875-26.507812-132.363281-74.648438-180.675781-10.363281-10.367188-21.558593-19.773438-33.445312-28.34375-19.191406-13.839844-40.476562-24.644531-62.761719-32.546875-22.9375-8.136719-47.273437-12.84375-71.574219-14.078125-14.109374-.71875-28.320312-.320312-42.363281 1.253906-57.488281 6.394532-110.730469 31.871094-152.230469 73.371094-44.285156 44.285156-70.328124 101.945312-74.398437 163.871094-1.433594 21.292968-.195313 42.792968 3.644531 63.785156 3.46875 18.9375 9.085938 37.476562 16.738282 55.140625 7.667968 17.691406 17.363281 34.492187 28.824218 49.996094 12.328125 16.679687 26.683594 31.90625 42.636719 45.167969 16.167969 13.433593 33.933594 24.914062 52.882813 34.015624 18.652343 8.957032 38.394531 15.59375 58.65625 19.761719 33.5625 6.90625 68.429687 6.992188 102.050781.394531 32.214843-6.324218 63.117187-18.976562 90.515625-37.066406 15.113281-9.980468 29.171875-21.550781 41.882812-34.453125zm-349.289062-346.472656c10.273437-10.269531 21.332031-19.464844 33.027344-27.550781h111.101562c5.621094 0 11.09375 1.085937 16.285156 3.242187 5.179688 2.140625 9.820313 5.242188 13.789063 9.207031 11.804687 11.820313 27.511719 18.328126 44.226562 18.328126h60.636719c5.523438 0 10-4.476563 10-10 0-5.523438-4.476562-10-10-10h-60.636719c-11.367187 0-22.050781-4.425782-30.082031-12.464844-5.839844-5.84375-12.671875-10.402344-20.28125-13.546875-7.613281-3.164063-15.667969-4.765625-23.9375-4.765625h-75.960938c23-10.609375 47.5625-17.40625 72.875-20.164063 21.941407-2.378906 44.238282-1.738281 66 1.941407 21.023438 3.558593 41.648438 10.113281 60.898438 19.265624 10.589844 5.035157 20.859375 10.78125 30.539062 17.40625 11.261719 7.707032 22.042969 16.191407 31.816407 25.730469 1.230469 1.195313 2.472656 2.386719 3.683593 3.601563 44.429688 44.550781 68.898438 103.71875 68.898438 166.648437 0 13.796875-1.175781 27.414063-3.480469 40.734375h-196.722656c-5.523437 0-10 4.476563-10 10 0 5.523438 4.476563 10 10 10h192.339844c-7.507813 28.390625-20.28125 55.09375-37.839844 78.914063h-69.449219c-6.542968 0-12.910156-1.265625-18.9375-3.765625-6.042968-2.5-11.445312-6.109375-16.0625-10.726563-13.128906-13.128906-30.585937-20.359375-49.152344-20.359375h-45.617187c-18.566406 0-36.023437 7.230469-49.148437 20.359375l-16.011719 16c-9.351563 9.351563-21.78125 14.5-35 14.5h-68.300781c-6.179688-7.023437-11.902344-14.355469-17.152344-21.960937h61.53125c5.523437 0 10-4.476563 10-10 0-5.523438-4.476563-10-10-10h-73.910156c-10.039063-18.210938-17.59375-37.660156-22.480469-57.921875-.03125-.164063-.054688-.332031-.09375-.496094-2.15625-8.957031-3.777344-18.066406-4.867188-27.265625-1.496093-12.679688-1.9375-25.46875-1.414062-38.226562.148437-3.621094.367187-7.25.707031-10.859376 2.710938-30.269531 11.230469-59.828124 25.066406-86.738281h114.386719c19.066406 0 36.996094 7.425781 50.484375 20.914063 8.519531 8.523437 18.496094 15.1875 29.644531 19.808594 11.132813 4.613281 22.894531 6.953124 34.96875 6.953124h108.445313c12.648437 0 22.9375 10.289063 22.9375 22.9375 0 6.125-2.382813 11.878907-6.726563 16.210938-4.320312 4.328125-10.078125 6.714844-16.210937 6.714844h-163.628906c-24.402344 0-47.347657 9.5-64.617188 26.761718l-14.210938 14.222657c-13.492187 13.480469-31.417968 20.90625-50.476562 20.90625h-33.21875c-5.523438 0-10 4.476562-10 10 0 5.523437 4.476562 10 10 10h33.21875c24.398438 0 47.347656-9.503907 64.617188-26.765625l14.210937-14.21875c13.488281-13.480469 31.414063-20.90625 50.476563-20.90625h163.632812c11.480469 0 22.261719-4.46875 30.351562-12.570313 8.113282-8.101562 12.582032-18.882812 12.582032-30.355469 0-23.675781-19.257813-42.9375-42.933594-42.9375h-108.449219c-9.433593 0-18.621093-1.828124-27.3125-5.429687-8.710937-3.609375-16.5-8.816406-23.160156-15.476563-17.265625-17.261718-40.214844-26.769531-64.625-26.769531h-102.863281c9.023437-13.945312 19.570312-27.042969 31.59375-39.066406zm306.417968 357.210937c-4.929687 3.621094-10 7.054688-15.199218 10.277344h-109.074219c-2.902344 0-5.265625-2.363281-5.265625-5.269531 0-1.890625.972656-3.140625 1.5625-3.730469.570312-.574218 1.8125-1.535156 3.703125-1.535156h124.625c-.117187.085938-.234375.171875-.351563.257812zm33.167969-29.519531c-2.953125 3.171875-5.992187 6.257813-9.117187 9.261719h-148.324219c-6.757813 0-13.105469 2.632812-17.855469 7.40625-4.777344 4.773438-7.40625 11.117188-7.40625 17.855469 0 13.9375 11.332032 25.273437 25.261719 25.273437h68.632813c-22.132813 8.394532-45.550782 13.453125-69.289063 14.929688-18.601563 1.101562-37.289063.105468-55.652344-3.089844-4.949219-.863281-9.871093-1.882812-14.75-3.0625-14.070312-3.414062-27.816406-8.136719-41.167969-14.160156-12.480468-5.632813-24.339843-12.269532-35.535156-19.867188-5.835937-3.976562-11.5-8.199218-16.957031-12.683594-.023437-.019531-.042969-.035156-.066406-.050781-2.738281-2.253906-5.433594-4.582031-8.085938-6.96875h48.527344c18.558594 0 36.011719-7.230469 49.136719-20.355469l16.011718-16.003906c9.351563-9.351562 21.785157-14.5 35.011719-14.5h45.617188c13.222656 0 25.65625 5.152344 35.007812 14.503906 6.480469 6.480469 14.070313 11.550782 22.546875 15.058594 8.464844 3.511719 17.414063 5.289063 26.59375 5.289063h52.945313c-.359375.390625-.722657.777343-1.085938 1.164062zm0 0" data-original="#000000" class="active-path" data-old_color="#000000" fill="#398F8D"/><path d="m74.945312 251.203125h42.867188c14.980469 0 27.164062-12.1875 27.164062-27.167969v-.277344c0-14.980468-12.1875-27.164062-27.164062-27.164062h-42.867188c-14.980468 0-27.164062 12.183594-27.164062 27.164062v.277344c0 14.980469 12.183594 27.167969 27.164062 27.167969zm-7.164062-27.445313c0-3.953124 3.210938-7.164062 7.164062-7.164062h42.867188c3.949219 0 7.164062 3.210938 7.164062 7.164062v.277344c0 3.953125-3.214843 7.167969-7.164062 7.167969h-42.867188c-3.953124 0-7.164062-3.214844-7.164062-7.167969zm0 0" data-original="#000000" class="active-path" data-old_color="#000000" fill="#398F8D"/><path d="m265.226562 303.398438c-1.558593-3.742188-5.285156-6.199219-9.34375-6.167969-4.089843.03125-7.789062 2.664062-9.238281 6.46875-1.542969 4.058593-.183593 8.824219 3.265625 11.457031 3.261719 2.484375 7.800782 2.722656 11.304688.59375 4.148437-2.523438 5.878906-7.875 4.011718-12.351562zm0 0" data-original="#000000" class="active-path" data-old_color="#000000" fill="#398F8D"/><path d="m271.90625 148.679688h112.03125c5.519531 0 10-4.476563 10-10 0-5.523438-4.480469-10-10-10h-112.03125c-5.523438 0-10 4.476562-10 10 0 5.523437 4.476562 10 10 10zm0 0" data-original="#000000" class="active-path" data-old_color="#000000" fill="#398F8D"/></g> </svg>
