<?xml version="1.0" encoding="utf-8"?>
<!-- Generator: Adobe Illustrator 22.1.0, SVG Export Plug-In . SVG Version: 6.00 Build 0)  -->
<svg version="1.1" id="Laag_1" xmlns="http://www.w3.org/2000/svg" xmlns:xlink="http://www.w3.org/1999/xlink" x="0px" y="0px"
	 viewBox="0 0 521 200.8" style="enable-background:new 0 0 521 200.8;" xml:space="preserve">
<style type="text/css">
	.st0{fill:#453C2C;}
	.st1{fill:#0D1418;}
	.st2{fill:#534D3D;}
	.st3{fill:#4A7383;}
	.st4{fill:#101A23;}
	.st5{fill:#11212F;}
	.st6{fill:#EAEAEA;}
	.st7{fill:#689DAF;}
	.st8{fill:#90CEDB;}
	.st9{fill:#112535;}
	.st10{fill:#112B40;}
	.st11{fill:#11334E;}
	.st12{fill:#23445C;}
	.st13{fill:#EDEDED;}
	.st14{fill:#FAFAFA;}
	.st15{opacity:0.96;}
</style>
<g>
	<path class="st0" d="M1,79.8c2.1-0.5,4.3-0.9,6.4-1.4c0.2,0.4,0.4,0.8,0.6,1.2c0.5,1,1.1,0.6,1.6,0l0,0c1.7,0.5,3.5,0.2,5,1.2
		c-1.1,0.1-2.2,0.1-3.3,0.2c-3.7,0.2-7.3,0.4-11,0.6C-0.7,80.5,1,80.5,1,79.8z"/>
	<path class="st1" d="M22.8,87.4c1.9-0.7,3.9-1.3,5.8-1.9c0.9,1.2,1.5,0.1,2.2-0.3c8-1.9,16.1-3.7,24.3-4.6c9.5-1,19-2.9,28.6-3.2
		c3.1-0.1,6.1-0.5,9.1-1.3c-4.1-0.5-8.1-1.2-12.2-1.3c-10.7-0.1-21.5-0.4-32.2,0.1c-12.3,0.6-24.6,2-36.7,4.4
		c-0.7,0.1-1.6,0.2-2.2,0.9l0,0c-0.5,0-1.1,0-1.6,0c-0.2-0.4-0.4-0.8-0.6-1.2c0.6-0.3,1.3-0.5,2-0.7c5.8-1.4,11.5-2.8,17.2-4.2
		c2.2-0.1,4.4-0.4,6.6-1c2.5-0.3,5.2,0,7.6-1.2c0.3,0.6,0.9,0.6,1.4,0.5c5.9-1,12-0.8,17.9-0.7c7.4,0.1,14.9-0.2,22.3,0.6
		c3.9,0.4,7.8,0,11.7,0.4c-2.6-1.5-5.4-2-8.3-2.4c-12.4-1.6-24.9-1.6-37.4-2.2c-2.1-0.1-4.2-1.5-6.4-0.4c-1.2-0.2-3.1,0-3.2-1.1
		c-0.1-2,2.5-0.6,3.3-1.8c2.6,0.9,5.2,1.2,8,1.1c10-0.5,19.8,0.8,29.7,1.1c2.4,0.9,4.9,1.5,7.6,1.4c-2.5-1.2-5-1.7-7.7-1.9
		c-11.5-2.1-23.3-2.9-35-4c-1.3-0.2-2.5-0.3-3.3,1c-2.2-1.3-4.7-1.5-7.1-2c0-0.3,0.1-0.6,0.1-0.9c3.3-0.1,6.5-0.3,9.8-0.4
		c3.7,0.3,7.3,0.6,11,0.4c2,0.2,4,0.3,6,0.5c0.3,0.3,0.7,0.3,1.1,0.1c1.2,0.5,2.5,0.4,3.8,0.3c3.7,0.8,7.3,0.9,11,1
		c7.3,0.7,14.5,2.6,21.8,3.5c3.5,1,7.1,2.2,10.9,2c2,0.1,4.1,0.5,6-0.5c0.7-0.4,2.2-0.2,1.3-1.9c-0.4-0.8,0.5-0.5,1-0.5
		c0.8,0.1,1.7,0.2,2.6,0.3c2.4,0.5,4.7,1.2,7.1,0.9c1.2,3,4,1.6,6.1,2.3c-1.1-1.7-2.9-2.6-4.5-3.7c0.2-1.7,1.3-1.3,2.2-0.9
		c1.4,0.6,2.9,0.9,4.4,1.1c3.2,3,7,3.6,11.1,3.5c0.8-0.1,1.5-0.4,2.8-0.8c-3.3-2.4-6.8-3.5-10.4-4.5c-2.4-1.7-5.2-1.9-7.8-2.7
		c-0.4-0.5-1.4-0.3-1.4-1.1c0-0.1,0.5-0.3,0.8-0.5c3.8,0.5,7.6,2,11.6,1.6c1.5,1.7,3.6,0.9,5.4,1.4c4.5,1.2,8.9,2.3,13.3,3.7
		c1.6,0.5,3.3,0.6,4.9-0.5c-0.3-1.4-2-1.3-2.4-2.5c2.2-0.3,3.3,1.6,4.9,2.5c0.2,0.1,0.4,0.5,0.4,0.7c-1,4,2.4,5.4,4.6,7.4
		c2.7,2.5,4.7,5.4,6.6,8.5c0.5,0.7,0.7,1.7,1.3,2.1c4.5,3.1,6.4,8.2,9.8,12.1c1.7,2,3,4.6,4.8,6.1c3.8,3.2,5.5,7.9,9.2,11
		c1.2,1.1,2.7,2,4.4,1c1.4-0.8,1.7-0.3,1.6,0.9c-0.4,3.4,2.5,5,4.1,7.3c0.5,0.7,1.2,0.3,1.4-0.5c0.2-0.7,0.4-1.4,0.6-2.1
		c0.2-0.5,0.5-0.8,1-0.7c0.4,0.1,0.4,0.4,0.4,0.8c0.3,2.9,3,5.3,5.9,5.2c0.5,0,1.2-0.1,1.3,0.1c0.9,2,3.5,2.5,4.1,3.6
		c1.4,2.5,3.9,2.9,5.8,4.1c3.3,2.1,6.6,4.1,9.4,6.9c1.6,1.7,4,2.3,5.8,3.9c4.7,4.1,8.6,9.1,13.4,13c1.1,0.9,1.8,2.3,2.6,3.5
		c0.7,1.2,1.7,2.1,2.8,2.9c3.8,2.7,7,6.2,9.7,10c0.9,1.3,1.6,2.7,3.5,2.6c1.2-0.1,1.5,0.3,1.2,1.6c-0.4,1.6-0.4,3.2,1.9,3.4
		c1.1,0.1,1.2,0.8,0.9,1.8c-0.4,1.1-0.2,2.2,0.5,3.4c0.6-1.3,1.2-2.6,1.9-4.1c1.1,1.4,0.5,2.9,0.6,4.2c0.1,1.4,0,2.7,0,4.1
		c0,0.8,0.2,1.7,1.2,1.8c1.3,0.1,1-1.1,1-1.8c0.1-2.6-0.3-5.3,2.2-8.2c-0.4,3-1.5,5.3-1.1,7.7c0.1,0.8,0.1,1.6,0.3,2.4
		c0.2,0.8,0.2,1.9,1.2,2c1.1,0.1,0.6-1.1,0.8-1.7c0.2-0.4,0.4-0.6,0.8-0.6s0.6,0.3,0.7,0.7c0.1,0.1,0.1,0.3,0.1,0.5
		c0,1.4,0.8,2.5,1.9,2.7c1.5,0.3,0.2-1.8,1.5-2.2c0.9,1.8,1.5,4.5,4.5,2.3c0.4-0.3,0.7,0.3,1,0.6c1,1,1.8,2.1,3.6,0.9
		c1.2-0.8,1.9,1.6,3.3,1.4c0,0.4,0,0.7,0,1.1c-2.3,0.1-4.3-1.2-6.6-1.2c-3.6-0.9-7.3-1.8-10.9-2.7c-2.6-0.9-5.1-1.8-7.7-2.7
		c-4.6-2.4-8.9-5.2-13.7-7.1c-1.8-1.3-3.6-2.7-5.4-4c-1.8-1.8-3.6-3.6-5.4-5.4c-2.3-1.8-3.9-4.2-6-6.2c-1.2-2-2.7-3.7-4.4-5.3
		c-1-1.7-2.5-3.1-4-4.3c-2.4-3-5.2-5.6-8.1-8.2c-0.7-1.1-1.7-1.9-2.8-2.7c-2.4-3-5.2-5.3-8.2-7.6c-3.2-3.1-6.8-5.6-10.6-7.9
		c-1.8-1.6-3.7-2.9-5.8-3.9c-1.7-1.6-3.6-2.9-5.7-3.8c-3.3-2.4-7-4.1-10.6-6.1c-4.7-3.4-10.1-5.2-15.3-7.5c-1.7-0.8-3.5-1.5-5.2-2.3
		c-7.6-3.5-15.2-7.1-23.3-9.6c-3.4-1.8-7.2-2.5-10.9-3.5c-3.6-1.2-7.3-2.4-11-3.1c-0.4-0.1-0.7-0.1-1.1-0.2c-3.3-1-6.5-1.7-9.9-2.1
		c-3.5-1.2-7.1-2-10.9-1.7c-3.7-0.7-7.4-0.4-11,0.2c-0.3,0-0.7,0.1-1,0.1c-0.9-0.1-1.8-0.1-2.7,0.3c-0.8-0.1-1.5,0-2.2,0.4
		c-0.6-0.2-1.2-0.1-1.7,0.2c-0.8,0.2-1.5,0.3-2.2,0.4c-3.7,0.3-7.3,1.2-10.8,2.6c-0.4,0.1-0.8,0.2-1.2,0.3
		c-3.6,0.9-7.3,1.8-10.9,2.7c-3.8,0.8-7.7,1.7-11.5,2.6c-7.6,0.9-14.6,3.6-21.9,5.5c-0.5,0-1.1,0-1.6,0c0.3-2.6,2.3-2.9,4.3-3.3
		c1.2,0.9,2.1,0,3-0.4c8.8-3.8,18-6.6,27.2-9.4c7-2.1,14.1-3.9,21.2-5.8c0.9-0.2,1.9-0.3,2.7-1.2c-3.4-0.3-6.6,0.6-9.8,1
		c-12.9,1.6-25.6,4-38.2,7.1c-2.9,0.7-5.7,1.5-8.6,2.4c-0.9,0.3-2.2,0.3-2,1.8c-2.6-0.5-5.1,0.2-7.6,0.6c-0.1-0.3-0.3-0.6-0.5-0.9
		c1.5,0,2.3-1.5,3.8-1.7c11.4-4.1,22.7-8.5,34.7-10.7c8.1-1.5,16.2-2.7,24.3-4.1c0.7,0,1.4,0.2,2-0.4c-0.6-0.9-1.3-0.6-2-0.5
		c-12.3,0.8-24.7,1.4-36.9,3.8c-9.5,1.9-19.1,3.4-28.3,6.4c-3.5,1.2-6.9,2.2-10.4,3.2c-0.7,0.3-1.5,0.4-1.4,1.4
		C6.8,95.5,5,95.9,3.3,95c2.4-1.8,5.5-2.1,8-3.7C15.2,89.8,19,88.3,22.8,87.4z M89.9,68.6c0,0,0.1-0.2,0.1-0.3c0,0-0.1,0-0.2,0
		s-0.3,0.1-0.4,0.2C89.5,68.6,89.7,68.6,89.9,68.6z"/>
	<path class="st2" d="M9.7,79.6c0.6-0.7,1.4-0.8,2.2-0.9c12.1-2.4,24.4-3.8,36.7-4.4c10.7-0.6,21.5-0.3,32.2-0.1
		c4.1,0.1,8.1,0.9,12.2,1.3c-3.1,0.8-6.1,1.2-9.1,1.3C74.3,77.1,64.8,79,55.3,80C47.1,80.9,39,82.8,31,84.6c0-1.1,1.2-2.5-0.3-3.2
		c-1.9-1-4-2-6.3-0.6c-0.5,0-1.1,0-1.6,0c-1.7-1.6-5.5-1.7-7.1-0.1c-0.4,0-0.7,0.1-1.1,0.1C13.1,79.8,11.3,80.1,9.7,79.6z"/>
	<path class="st2" d="M8,79.6c0.5,0,1.1,0,1.6,0C9.1,80.2,8.6,80.6,8,79.6z"/>
	<path class="st2" d="M85.6,81.4c-8.1,1.4-16.2,2.6-24.3,4.1c-12,2.1-23.3,6.6-34.7,10.7c0-1.6-1.5-1.3-2.4-1.6
		c-4.3-1.2-8.6,0-12.9,0.6c-0.9,0-1.8,0-2.7,0C8.5,94.1,9.3,94,10,93.8c3.5-1.1,7-2.1,10.4-3.2c9.2-3.1,18.8-4.5,28.3-6.4
		c12.2-2.4,24.6-3,36.9-3.8C85.6,80.7,85.6,81,85.6,81.4z"/>
	<path class="st3" d="M457.9,109.8c-3.6,3.2-6.6,0.9-9.6-0.9c-0.4-1-1.5-1.7-1.3-3c1.6,0.3,2.3,2.5,4.3,1.8c-1.7,0-1.2-4.8-4.3-1.8
		c-0.3,0.5-0.6,0-0.9,0c0.5-2,1.1-3.7,0.2-5.9c-0.6-1.7-0.3-3.9,2.5-4c1,0.1,2.5,0.9,1.5-1.4c-0.7-1.6,1.2-1.6,1.9-2.4
		c2.2,0.5,1.3,2.8,2.3,4c-0.4,0.6-0.7,1.2-0.6,2c-1.8-0.5-3.7,0.2-5.5,0c0-0.1-0.1-0.1-0.1-0.2c0,0.1,0.1,0.1,0.1,0.2
		c-0.2,1.4-0.9,2.9,0.7,3.9c0.3,0.2,0.7,0.4,1,0.3c0.4-0.1,0.4-0.5,0.2-0.9c-0.4-0.8-0.2-1.6,0.7-2c1-0.4,1.7,0.3,2,1
		c0.4,1,2,0.8,2,2c-1.7,0.5-2.3-1.2-3.4-1.8c-0.4,2.4,0.9,3.5,4,3.5c-1.5,1.1-2,2.8-3.2,4.2c2.3,1,4.5-0.2,6.4,0.2
		c1-1.3-3.7-2.1,0.1-3.3c0.1,0.7,0.1,1.7,1.1,1.4c1-0.3,1.2-1.2,1-2.2c-1-0.4-1.2,1.1-2.1,0.8c-0.2-0.7,0.4-1.1,0.6-1.6
		c0.2-0.2,0.4-0.3,0.6-0.5c1-0.1,2.1-0.2,2-1.6c-0.1-1.5-1.2-2.1-2.5-2.4l0,0c-0.1-0.5,0-1.1-0.5-1.3c-0.5-0.3-0.6,0.3-0.7,0.7
		c-0.2,0.3-0.3,0.5-0.5,0.7c-0.2,0-0.4,0-0.6,0c-0.3-0.8,0.1-1.3,0.6-1.9c0.5-0.6,0-0.7-0.5-0.7c0-1.2,0.9-1.2,1.6-1.4
		c0.8,0.1,0,2.4,1.6,1.3c0.7-0.5,0.8-1.5,0.2-2.2c-1-1.2-1.2,0.3-1.8,0.6c-1.1,0-1.8-0.4-1.7-1.7c0.2-0.6,0.4-1.2,0.6-1.8
		c0.5,0.2,1.1,0.4,1.6,0.6c1.1,0.8,2.3,1.4,2.8,2.8c0.8,2.2,1.4,4.4,0.9,6.8c-0.3,1.4-0.7,2.8-1,4.2c-1.5,0.9-0.8,3.2-2.6,4
		C459.1,109.9,458.5,109.7,457.9,109.8z"/>
	<path class="st4" d="M163.8,62.2c-2.1-2.6-4.7-4.4-7.6-4.7l0,0c0.1-0.8,0.1-1.5,0.1-2.3c0.3,0,0.7,0.1,1,0.1c0.1,0.6,0.4,0.9,1,1.1
		c5.1,2.3,10.1,4.8,15.5,6.4c1.4,0.4,1.4,1.2,1.7,2.1c1.1-0.6,2.3-0.4,3.4,0c3,0.9,5.7-0.4,8.6-0.4c-0.2,1.6,0.9,2,2.2,2.1
		c2.7,0.3,5.2,1,6.6,3.6c0.2,0.3,0.5,0.7,0.8,0.8c5,2,9.2,6.1,15,6.1c1.6,0.1,3.2,0.8,4.8,0.9c1.4,0.1,3.1,1.1,4-0.9
		c0.5,0.4,1.6,0.4,1.3,1.4c-0.3,0.8-1.2,0.8-1.9,0.8c-3.9,0.2-7.6-0.5-11.4-0.8c-0.5,0-1-0.2-1.1,0.4c-0.2,0.6,0.2,0.8,0.7,0.9
		c5.6,0.8,10.6,3.8,16.2,4.5c0.6,1.4,2,1.5,3.1,2.2c0.9,0.6,2.1,1.3,0.2,2.2c-4.2,0.5-8.2-1.1-12.3-1.4c-3.7-0.3-7.3-1.8-11.1-1.2
		c0,0.2-0.1,0.5-0.1,0.7c6,1.6,11.9,3.1,17.9,4.7c0.2,0.1,0.3,0.3,0.5,0.4c0.1,0,0.3,0,0.4,0c0.2,0.5,0.5,1,0.7,1.5
		c-0.2,2.8-2.2,1.8-3.6,1.5c-2.9-0.6-5.7,0.4-8.7,0.1c7.7,2.1,15.9,1.9,23.1,5.6c0.1,0.2,0.1,0.3,0.1,0.5c-0.2,1.4,0.2,2,1.7,2.4
		c8.3,2,16.8,3.3,25.2,4.7c1.7,0.2,3.2,1,4.8,1.6c-0.2,0.1-0.3,0.3-0.5,0.5c-9.8-1.8-19.9-2.3-29.5-5.4c-1.4-0.4-2.9-0.4-2.9-2.5
		c0-0.6-0.7-0.7-1.2-0.8c-2-0.3-4-0.6-6.8-1.1c2.1,3,4.8,3.6,7.2,4.4c6.1,2.1,12.4,3.9,18.9,4.5c3.6,0.3,4.1,3.3,4.9,5.9
		c-4.5-1.5-9.4-1.4-14-2.7c-2.5-0.7-5.1-1.1-7.7-1.6c-0.5-0.1-1.2-0.2-1.5,0.4c-0.3,0.7,0.2,1,0.6,1.4c2.2,2.2,4.5,4.2,5.6,7.3
		c0.4,1.2,1.8,1.6,2.9,2.3c4.5,2.8,8.2,6.7,12.1,10.2c4.5,4.1,9.6,7.8,13.5,12.4c5.4,6.4,12.3,11.1,18.6,16.4c2.3,1.9,4.9,4,8,4.9
		c1,0.3,1.7,1.1,2.2,1.9c2.2,4,6.3,5.9,9.6,8.5c4.4,3.5,9.6,6.1,14.4,9.1c4.9,3.1,9.4,6.9,14.4,9.9c0.9,0.5,1.8,1.4,1.6,2.3
		c-0.2,1.1-1.6,0.4-2.4,0.6c-4.5,1-9.1,0.2-13.6,0.6c-2.8,0.2-5.1-1.5-7.8-1.2c-1.4,0.2-2.1-2.2-3.3-1.4c-1.8,1.3-2.6,0.1-3.6-0.9
		c-0.3-0.3-0.6-0.9-1-0.6c-3,2.2-3.6-0.5-4.5-2.3c-1.3,0.4,0,2.5-1.5,2.2c-1.1-0.2-1.9-1.3-1.9-2.7c0-0.1-0.1-0.3-0.1-0.5
		c-0.1-0.4-0.3-0.7-0.7-0.7c-0.4,0-0.7,0.2-0.8,0.6c-0.2,0.6,0.3,1.8-0.8,1.7c-1-0.1-1-1.3-1.2-2c-0.2-0.8-0.2-1.6-0.3-2.4
		c-0.4-2.4,0.7-4.7,1.1-7.7c-2.5,2.8-2.1,5.5-2.2,8.2c0,0.7,0.3,1.9-1,1.8c-1.1,0-1.2-0.9-1.2-1.8c0-1.4,0.1-2.7,0-4.1
		c-0.1-1.3,0.6-2.8-0.6-4.2c-0.7,1.5-1.3,2.8-1.9,4.1c-0.7-1.3-0.8-2.4-0.5-3.4c0.3-0.9,0.1-1.7-0.9-1.8c-2.3-0.2-2.3-1.9-1.9-3.4
		c0.3-1.3,0-1.7-1.2-1.6c-1.9,0.1-2.6-1.3-3.5-2.6c-2.7-3.8-5.9-7.2-9.7-10c-1.1-0.8-2.1-1.7-2.8-2.9c-0.8-1.2-1.5-2.6-2.6-3.5
		c-4.8-4-8.7-8.9-13.4-13c-1.8-1.6-4.1-2.2-5.8-3.9c-2.8-2.8-6.1-4.8-9.4-6.9c-1.9-1.2-4.4-1.6-5.8-4.1c-0.6-1.1-3.2-1.7-4.1-3.6
		c-0.1-0.2-0.9-0.1-1.3-0.1c-2.9,0.1-5.7-2.3-5.9-5.2c0-0.4,0-0.7-0.4-0.8c-0.6-0.1-0.9,0.2-1,0.7c-0.2,0.7-0.4,1.4-0.6,2.1
		c-0.3,0.8-0.9,1.2-1.4,0.5c-1.6-2.3-4.4-3.9-4.1-7.3c0.1-1.2-0.3-1.7-1.6-0.9c-1.6,1-3.1,0.1-4.4-1c-3.7-3.1-5.4-7.8-9.2-11
		c-1.8-1.5-3.1-4.1-4.8-6.1c-3.4-3.9-5.3-9-9.8-12.1c-0.6-0.5-0.9-1.4-1.3-2.1c-1.9-3.1-3.9-6.1-6.6-8.5c-2.2-2-5.6-3.4-4.6-7.4
		c0-0.2-0.2-0.6-0.4-0.7C167.1,63.8,166,61.9,163.8,62.2L163.8,62.2z"/>
	<path class="st5" d="M255.9,116.7c-1.1,1.2-2.2-0.2-3.3-0.1c-0.5,0-1.1-0.5-1.6-0.4c-1.3,0.1-3.3-0.9-3.7,1.1
		c-0.4,1.8,1.7,1.4,2.7,2.1c2,1.3,3.9,2.4,5.2,5c1.5,3.1,4.4,5.8,7.2,8c4.4,3.6,9.3,6.7,12.2,11.8c1.6,2.7,4.8,3.2,7,5
		c3.4,2.8,7.5,4.6,10.8,7.6c1.6,1.4,3.7,2.2,5.2,3.8c1,1,2.3-0.7,3.4,0.1c1.8,1.3,3.7,2.6,5.5,3.9c3.1,2.3,6,4.8,9.7,6.2
		c0.6,0.2,0.9,0.8,1.1,1.4c0.2,0.8,0.8,1.3,1.6,1.2c4.4-0.6,6.5,3.3,9.4,5.2c1.9,1.2,3.9,2.4,5.8,3.7c1.7,1.2,2.8,2.8,4.2,4.2
		c1.8,1.6,4.4,1.9,6.2,3.7c1,1.1,2.4,1.8,3.4,3c0.9,1.2,2.2,1.9,4.2,1.6c3.8-0.6,7.5-1.6,11-3.4c4.3-2.8,9.4-4.3,13.1-8.2
		c4.6-2.9,8.9-6.3,12-10.9c1.4,0,1.6-1.6,2.8-1.8c0,0.2,0.1,0.5,0.1,0.8c-5.3,6.2-11,11.8-18.1,15.8c-0.7,0.4-1.5,0.6-1.9,1.4
		c-2.7,1.5-5.4,2.9-8.1,4.4c-0.8,0-1.6,0.4-2.2,0.9c-3.7,1.1-7.3,2.1-11,3.2c-3.6,0.9-7.2,1.8-10.8,2.7c-3.6,0.4-7.3,0.8-10.9,1.2
		c-3.7-0.5-7.3-0.2-11-0.2c-1.5-0.4-2.9-0.8-4.4-1.2c0-0.4,0-0.7,0-1.1c2.7-0.3,5.1,1.4,7.8,1.2c4.5-0.4,9.1,0.4,13.6-0.6
		c0.8-0.2,2.2,0.5,2.4-0.6c0.2-0.9-0.7-1.8-1.6-2.3c-5-3-9.4-6.8-14.4-9.9c-4.8-3-9.9-5.6-14.4-9.1c-3.3-2.7-7.4-4.6-9.6-8.5
		c-0.4-0.8-1.2-1.6-2.2-1.9c-3.1-0.9-5.7-3-8-4.9c-6.3-5.3-13.2-10-18.6-16.4c-3.9-4.6-9-8.3-13.5-12.4c-3.9-3.5-7.6-7.4-12.1-10.2
		c-1-0.6-2.5-1.1-2.9-2.3c-1.1-3.1-3.4-5.1-5.6-7.3c-0.3-0.4-0.9-0.8-0.6-1.4s1-0.5,1.5-0.4c2.6,0.5,5.2,0.9,7.7,1.6
		c4.6,1.2,9.4,1.2,14,2.7C256.2,115.9,256.2,116.1,255.9,116.7z"/>
	<path class="st2" d="M37.4,100.1c-0.3-1-1.9-0.9-3-1.2c-1.2-0.3-2.4-0.5-3.6-0.8c-0.1-1.5,1.1-1.5,2-1.8c2.8-0.9,5.7-1.7,8.6-2.4
		c12.6-3.2,25.3-5.5,38.2-7.1c3.2-0.4,6.4-1.3,9.8-1c-0.8,0.9-1.8,0.9-2.7,1.2c-7,1.9-14.2,3.7-21.2,5.8c-9.2,2.8-18.3,5.6-27.2,9.4
		c-0.9,0.4-1.9,1.3-3,0.4C36,101.6,38.1,101.6,37.4,100.1z"/>
	<path class="st2" d="M47.5,69.7c-2-0.9-3.8-1.7-5.5-2.5c2.2-1.1,4.2,0.3,6.4,0.4c12.5,0.5,25,0.6,37.4,2.2c2.9,0.4,5.7,0.9,8.3,2.4
		c-4-0.4-7.9,0-11.7-0.4C75,71,67.5,71.3,60.1,71.2c-5.9-0.1-12-0.3-17.9,0.7c-0.5,0.1-1.1,0.1-1.4-0.5C42.7,70.3,45,70.7,47.5,69.7
		z"/>
	<path class="st2" d="M44.7,62.1c11.7,1.1,23.4,1.8,35,4c0,0.2,0,0.3,0,0.5c-9.9-0.3-19.8-1.5-29.7-1.1c-2.7,0.1-5.4-0.3-8-1.1
		c-0.3-0.4-0.5-0.9-0.7-1.3C42,61.7,43.2,61.9,44.7,62.1z"/>
	<path class="st0" d="M147.3,59.9c2.3,0.1,4.6,0,5.5-2.7c1,0.2,1.9,0.4,2.8,0.6l0,0c2.5,1.9,5.3,3.2,8.2,4.4l0,0
		c0.4,1.2,2.2,1.1,2.4,2.5c-1.5,1.1-3.3,1-4.9,0.5c-4.4-1.4-8.9-2.5-13.3-3.7c-1.8-0.5-4,0.3-5.4-1.4c-0.1-0.1-0.1-0.2-0.1-0.3
		C144.2,59.2,145.7,60,147.3,59.9z"/>
	<path class="st0" d="M149.8,67.2c-1.3,0.4-2,0.8-2.8,0.8c-4.1,0.1-8-0.5-11.1-3.5c1.4-0.1,2.8-0.2,3.4-1.8
		C142.9,63.7,146.4,64.8,149.8,67.2z"/>
	<path class="st0" d="M133.8,68c-2.1-0.7-4.9,0.7-6.1-2.3c0.5-0.4,1.1-0.9,1.6-1.4C130.9,65.4,132.7,66.3,133.8,68z"/>
	<path class="st3" d="M34.2,61.1c-1,0.2-2.2-0.1-3.2,0.5c-2.2-0.4-4.4,0.6-6.5-0.1c0.7-1.5,2-0.9,3.1-1c1.8-0.3,3.7-0.4,5.6-0.6
		c0.4,0.1,0.7,0.2,1.1,0.3C34.2,60.5,34.2,60.8,34.2,61.1z"/>
	<path class="st0" d="M30.6,81.4c1.5,0.8,0.4,2.1,0.3,3.2c-0.7,0.4-1.3,1.5-2.2,0.3c2.1-2.8,1.9-3.2-1.7-3.7
		c-0.9-0.1-1.7-0.2-2.6-0.4C26.6,79.4,28.7,80.5,30.6,81.4z"/>
	<path class="st0" d="M87.2,68c-2.6,0.1-5.1-0.6-7.6-1.4c0-0.2,0-0.3,0-0.5C82.3,66.2,84.8,66.8,87.2,68z"/>
	<path class="st2" d="M18.1,99.3c1.9-0.6,3.1-1.5,4.7-1.5c0.1,0.3,0.3,0.6,0.5,0.9c-0.4,0.2-0.7,0.4-1.1,0.6
		C21.1,99,20,100.4,18.1,99.3z"/>
	<path class="st0" d="M87.6,80.9c-0.6,0.6-1.3,0.4-2,0.4c0-0.3,0-0.6,0-0.9C86.2,80.3,87,80,87.6,80.9z"/>
	<path class="st6" d="M61.1,60.6c0.4-0.7,0.8-0.6,1.1,0.1C61.8,60.9,61.4,60.9,61.1,60.6z"/>
	<path class="st0" d="M89.8,68.3c0-0.1,0.1,0,0.2,0c0,0.1-0.1,0.3-0.1,0.3c-0.2,0-0.3-0.1-0.5-0.1C89.5,68.4,89.6,68.3,89.8,68.3z"
		/>
	<path class="st0" d="M15.7,80.8c1.5-1.6,5.4-1.5,7.1,0.1c-0.2,0.1-0.4,0.1-0.6,0.2C20,80.4,17.8,81.1,15.7,80.8z"/>
	<path class="st2" d="M457.6,93.5c-1.8-2.7-1.7-5.9-2.8-8.8c-0.3-0.7-0.4-1.4-0.6-2.1c0.1-2.3-1-4.3-1.7-6.3
		c-2.5-7.4-4.4-15-8.5-21.8c-0.2-0.3-0.2-0.9-0.3-1.3c0-0.3,0.1-0.7,0.2-1c2.1,2.4,2.5,5.7,4.2,8.4c0.2,0.5,0.5,1.1,0.7,1.6
		c1.3,3.7,2.7,7.3,4,11c0.2,0.5,0.6,0.9,0.7,1.4c0.8,3.1,1.5,6.3,2.3,9.5c0.6,2.5,0.8,5.2,2.2,7.5C457.8,92.2,457.6,92.8,457.6,93.5
		z"/>
	<path class="st7" d="M459,95.1c0,0.1,0,0.2,0,0.3c-0.8,0.1-1.6,0.2-1.7,1.3c-1.2,1.4-1.7-0.6-2.6-0.5c-1-1.2-0.1-3.5-2.3-4
		c0-3.9-0.7-7.7-1.3-11.5c0.8,0.7,1.4,2,2.8,1.8c0.2,0.7,0.3,1.4,0.6,2.1c1.2,2.9,1.1,6.1,2.8,8.8C457.2,94.7,457.9,95.1,459,95.1z"
		/>
	<path class="st0" d="M450.6,94.7c1,2.3-0.5,1.5-1.5,1.4c0-0.5,0-1.1,0-1.6c0-0.1,0-0.3,0-0.5c2.9-2.6,1.8-5.7,1.3-8.8
		c-0.6-4-1.2-8-1.8-12c-0.6-1.9-1.2-3.8-1.8-5.7c0.2-0.3,0.4-0.6,0.6-0.9c1.9,3.5,3.1,7.2,3,11.3c0,0.9,0.5,1.9,0.8,2.8
		c0.6,3.8,1.3,7.6,1.3,11.5C451.8,93,449.8,93.1,450.6,94.7z"/>
	<path class="st8" d="M455.7,104.3c1.4-0.1,2.7-0.6,3.9-1.1c0,0.2,0,0.4,0,0.6c-0.2,0.5-0.8,0.9-0.6,1.6l0,0c-3.8,1.1,0.9,2-0.1,3.3
		c-2-0.3-4.1,0.8-6.4-0.2C453.7,107.1,454.2,105.3,455.7,104.3L455.7,104.3z"/>
	<path class="st7" d="M454.2,98.2c0,2.4,1.4,2.4,3.3,1.6l0.1,0.1c0.3,1.9-0.9,2.3-2.3,2.6c-0.1-1.2-1.6-1-2-2c-0.3-0.7-1-1.4-2-1
		s-1.1,1.1-0.7,2c0.2,0.4,0.2,0.8-0.2,0.9c-0.3,0-0.7-0.1-1-0.3c-1.6-1-0.9-2.5-0.7-3.9l0,0C450.5,98.5,452.4,97.7,454.2,98.2
		L454.2,98.2z"/>
	<path class="st8" d="M457.9,99.4c0.2-0.3,0.3-0.5,0.5-0.7c0.4,0.2,0.8,0.4,1.2,0.6l0,0c0.1,0.6-2,0.7-0.4,1.7
		c-0.1,2.3-2.9,1.6-3.5,3.3l0,0c-3.1,0-4.4-1.1-4-3.5c1.2,0.7,1.7,2.3,3.4,1.8c1.4-0.3,2.6-0.8,2.3-2.6
		C457.6,99.8,457.8,99.6,457.9,99.4z"/>
	<path class="st8" d="M457.8,97.4c-0.4,0.6-0.8,1.1-0.4,1.9l0,0c-1.2,0.2-2.2-0.4-3.2-1.1l0,0c-0.1-0.7,0.2-1.4,0.6-2
		c0.9-0.1,1.4,1.9,2.6,0.5C457.8,96.7,458.3,96.7,457.8,97.4z"/>
	<path class="st7" d="M462.3,101.7c0.1,1.4-1,1.4-2,1.6c-0.1-0.1-0.2-0.2-0.3-0.3c0.2-0.7,0.9-1.2,0.5-2c-0.3-0.6-0.8-0.1-1.2,0
		c-1.7-1.1,0.4-1.1,0.4-1.7C461,99.6,462.1,100.2,462.3,101.7z"/>
	<path class="st8" d="M447.4,105.9c3.1-3,2.5,1.8,4.3,1.8C449.7,108.3,449,106.1,447.4,105.9C447.4,105.9,447.3,105.9,447.4,105.9z"
		/>
	<path class="st8" d="M460.9,94.5c0.6,0.7,0.5,1.7-0.2,2.2c-1.5,1-0.8-1.2-1.6-1.3c0-0.1,0-0.2,0-0.3
		C459.7,94.8,459.9,93.3,460.9,94.5z"/>
	<path class="st8" d="M459,105.4c0.9,0.2,1.1-1.2,2.1-0.8c0.2,1,0,2-1,2.2C459.1,107.1,459,106.1,459,105.4L459,105.4z"/>
	<path class="st7" d="M459.1,98c0.5,0.2,0.4,0.8,0.5,1.3c-0.4-0.2-0.8-0.4-1.2-0.6C458.5,98.3,458.6,97.7,459.1,98z"/>
	<path class="st7" d="M459.9,102.9c0.1,0.1,0.2,0.2,0.3,0.3c-0.2,0.2-0.4,0.3-0.6,0.5c0-0.2,0-0.4,0-0.6
		C459.7,103.1,459.8,103.1,459.9,102.9z"/>
	<path class="st7" d="M457.3,99.9c0-0.2,0-0.3,0-0.5l0,0c0.2,0,0.4,0,0.6,0c-0.2,0.2-0.3,0.4-0.5,0.6
		C457.4,100,457.3,99.8,457.3,99.9z"/>
	<path class="st7" d="M448.6,98.3c0-0.1-0.1-0.2-0.1-0.2C448.5,98.2,448.6,98.2,448.6,98.3L448.6,98.3z"/>
	<path class="st9" d="M187.5,65.1c0.2-0.1,0.5-0.2,0.7-0.3c-0.2-0.1-0.5-0.2-0.7-0.3c0-0.8-0.4-1.4-1.1-1.7c-1.5-2.3-4.4-3-6.2-5.1
		c3.4,0.7,6.9,0.9,10.1,2.4c1.9,2.8,5.9,4.3,8.7,3.3c2.2-0.4,4,1.3,6.2,1.3c1.3,0,2.5,0.1,3.7-0.6c0.6-0.4,1.5-0.2,1.5-1.2
		c0.1-1.1-0.5-1.6-1.6-1.7c-0.2-0.2-0.3-0.3-0.5-0.5c-0.1-0.2-0.3-0.4-0.5-0.6l0,0c-0.7-1.6-1.7-2.9-3.8-2.7
		c-0.5-0.1-0.9-0.2-1.1-0.6c-2-2.7-5.1-3.2-7.8-4.5c-2.5-1.2-5-2.3-7.6-3.5c1-1.2,1.8-0.6,2.5-0.4c6,2,12.1,4.1,18.1,6.1
		c0.2,0.1,0.5,0,0.8,0h0.2h0.2c0.8,0.9,1.7,1.1,2.8,1.1c2,0.5,4.3,0.6,5.9,2.2c-1.3,0.3-2.4-0.8-4.1-0.2c3.4,1.5,6.6,3,9.8,4.3
		c0.7,0.2,1.6,0.6,2.2-0.3c0.3,0,0.5,0,0.8,0c-0.1,1.4,0.1,2.8,1.1,3.9c0,1,0.1,1.8,1.1,2.5c2.6,1.8,5.2,4,6.8,6.3
		c1.3,1.9,3.2,3.9,3.6,6.5c-3.7-1.1-7.5-2-11.1-3.5c-3.7-1.6-7.6-2.2-11.4-3.4c-0.5-0.1-1.1-0.2-1.6-0.2c-0.6,0.1-1.7-0.4-1.8,0.6
		c-0.1,0.9,1,0.8,1.6,1.1c1.7,0.7,3.7,0.9,5.2,2.1c-0.9,2-2.6,1-4,0.9c-1.6-0.2-3.2-0.9-4.8-0.9c-5.8,0-10-4.1-15-6.1
		c-0.3-0.2-0.6-0.5-0.8-0.8c-1.5-2.6-3.9-3.3-6.6-3.6c-1.3-0.1-2.4-0.5-2.2-2.1C187,64.9,187.1,64.9,187.5,65.1z"/>
	<path class="st1" d="M251.2,109.8c-6.5-0.6-12.7-2.4-18.9-4.5c-2.4-0.8-5.1-1.4-7.2-4.4c2.8,0.4,4.8,0.8,6.8,1.1
		c0.5,0.1,1.2,0.1,1.2,0.8c0,2.1,1.5,2.1,2.9,2.5c9.6,3,19.7,3.6,29.5,5.4c3.6,0.9,7.3,1.8,10.9,2.7c1.1,0.3,2.2,0.7,3.3,1
		c1.5,0.8,2.9,1.5,4.3,2.3c0.3,0.7,0.9,1,1.6,1.1c0,0.7-0.5,1-1.1,1.3c-3.3,1.4-4,3-3.4,6.6c0.3,2.3,0.1,4.7,1.2,6.8
		c0.1,3.7,2.5,6.6,3.4,10.1c-3-3.1-4.6-7-5.5-11.2c0.6-0.4,0.7-1.1,0.5-1.7c-1-3.3-0.5-6.6,0.2-9.8c0.2-1.2,0.1-1.9-1.2-2.1
		c-1.3-0.2-1.8,0.4-1.8,1.7c0.1,1.7,0.1,3.3,0.1,4.9c-1.1-1.2-0.1-2.8-0.9-4.1c-0.3-0.5-0.2-1.4-1.1-1.2c-0.8,0.1-0.7,0.9-0.7,1.5
		c0,0.9,0,1.8,0,2.7c-1-1.3-0.3-2.9-0.5-4.4c-0.1-0.9-0.1-1.9-1.3-2.1c-1.2-0.3-1.9,0.3-2,1.5c-1.2-0.7-1.7-0.2-1.6,1.1
		c-0.6-0.3-0.5-1.1-0.8-1.6c-0.2-0.3-0.3-1-0.9-0.8c-0.7,0.2-0.4,0.9-0.5,1.4c-0.4-0.4-0.8-0.9-1.4-1.5c-0.6,1.8,0.8,3.2,0,5
		c-1-1.7-2-3.4-3-5.1c-1.2,1.6,1.2,2.8-0.3,4.7c-0.6-4.5-3.6-5-6.8-5.3c0-0.1,0-0.3,0-0.5C255.4,113.1,254.9,110.2,251.2,109.8z
		 M231,103.6c0,0,0.1-0.1,0.2-0.1c-0.1-0.1-0.1-0.2-0.1-0.2s-0.1,0.1-0.2,0.1C230.9,103.5,230.9,103.6,231,103.6z"/>
	<path class="st1" d="M253.2,85.6c1.1,0.4,2.1,0.1,2.7-1.1c0.5-1,1.4-1.7,3.2-1.8c-0.5,1.1-1,2-1.4,3c-0.7,1.8,0.2,1.7,1.4,1.2
		c-0.1,0.7-0.2,1.5,0.6,1.8c1.2,0.5,0.7-1.2,1.5-1.3c-0.2,1.8,1,1.7,2.2,1.6c0.4,1.7,1.9,1.4,3.1,1.6c0.2,0,0.4,0.1,0.6,0.1
		c1,1,2,1.3,3.3,0.5c-0.1,1.1,0.4,1.9,1.4,1.9c1.2,0,0.4-1.6,1.3-2c-0.3,2.1,0.9,2.8,2.8,2.8c0,0.4-0.1,0.7-0.1,1.1
		c-1.8,0.5-3.2-1.1-4.9-1.1c-3.6-1.3-7.2-3-11-3.7c2.5,2,6.1,2.1,8.2,4.8c-1.1-0.2-2.1-0.4-3.2-0.6c-3.3-2.5-7.2-3.5-10.9-4.9
		c-6.4-2.4-12.8-4.5-19.2-6.9c-3.2-1.2-6.6-2-9.8-3.3c-1.9-0.7-2.9,0.9-4.9,1.5c3.1,1.4,5.8,1.7,8.4,2.1c1.1,0.2,2.2,0.3,3,1.1
		c-2.1,0.8-3.9-0.6-5.9-0.7c-0.8,0-1.6-0.6-2.5,0c0.3,1.2,2,0.3,2.3,1.5c-0.5,0-1-0.1-1.5-0.1c-5.7-0.7-10.6-3.8-16.2-4.5
		c-0.4-0.1-0.8-0.3-0.7-0.9c0.2-0.7,0.6-0.4,1.1-0.4c3.8,0.4,7.6,1,11.4,0.8c0.8-0.1,1.7,0,1.9-0.8c0.3-1-0.8-1-1.3-1.4
		c-1.5-1.2-3.5-1.4-5.2-2.1c-0.7-0.3-1.7-0.2-1.6-1.1c0.1-1,1.1-0.6,1.8-0.6c0.5-0.1,1.1,0,1.6,0.2c3.8,1.2,7.7,1.9,11.4,3.4
		c3.6,1.5,7.4,2.4,11.1,3.5C243.8,82.4,248.4,84,253.2,85.6z"/>
	<path class="st1" d="M227.7,95.8c8.3,1.2,16.7,2.2,24.7,5c0.6,0.2,1.1,0.6,1.7,0.9c-2.2,0.2-4.3-0.6-6.3-1.4
		c-5-2-10.5-1.3-15.6-2.8c2.8,1.6,6,2.4,9.2,3c5,1,9.8,2.5,14.5,4.2c0.8,0.3,1.6,0.4,2.4,0.4c0.7,0.4,1.5,0.7,2.2,1.1
		c0.2,0.4,0.6,0.5,1.1,0.5c2.2,1.8,5.2,1.4,7.6,2.8c0,0.2,0,0.4,0,0.6c-1.1,0.4-2.2,0-3.3,0c-1.6-0.6-3.1-1.3-4.8-1.6
		c-8.5-1.4-16.9-2.7-25.2-4.7c-1.5-0.4-1.9-1-1.7-2.4c1.2,1.2,2.7,1.8,4.3,2.1c5.5,1.1,10.9,2.1,16.4,3.2c0.5,0.1,0.9,0.2,1.4-0.5
		c-6-2.2-12.1-4-18.3-5.1c-1.2-0.2-2.5-1.4-3.8-0.1c-7.2-3.8-15.4-3.6-23.1-5.6c2.9,0.4,5.8-0.6,8.7-0.1c1.4,0.3,3.4,1.4,3.6-1.5
		C224.2,95.8,226.1,95.8,227.7,95.8z"/>
	<path class="st1" d="M221.7,91.7c-6-1.6-11.9-3.1-17.9-4.7c0-0.2,0.1-0.5,0.1-0.7c3.8-0.7,7.4,0.9,11.1,1.2
		c4.1,0.3,8.1,1.9,12.3,1.4c0.1,1.3,1.1,0.9,1.8,1c4,0.7,7.9,1.6,11.7,2.8c-0.5,0.7-1.1,0.4-1.7,0.3c-5.1-1-10.3-1.9-15.4-2.9
		c-0.5-0.1-0.9,0-1.4,0.8c11.7,2.6,23.4,5,34.4,9.5c1.9,0.5,3.7,1.1,5.5,1.6c0.2,0.4,0.7,0.5,1.1,0.5c0.4,1.3,1.6,1.3,2.6,1.6
		c2.6,0.8,4.8,2.4,6.8,4.2c-5.1-1-9.6-3.9-14.9-4.2c-0.5-0.5-1.1-1.1-1.6-1.6c0.6,0,1.2,0,1.8,0c0-0.2,0.1-0.3,0.1-0.5
		c-4.5-1.6-8.9-3.4-13.5-4.7c-6.3-1.8-12.8-3.2-19.2-4.8c-0.9-0.2-1.8-0.2-2.7-0.3c-0.1,0-0.3,0-0.4,0C222.1,92.1,222,92,221.7,91.7
		z M220.9,90.2c0-0.1-0.1-0.2-0.2-0.4c-0.1,0.1-0.4,0.1-0.4,0.2s0.1,0.2,0.2,0.4C220.7,90.3,220.9,90.3,220.9,90.2z M261.2,103.6
		c0.1,0,0.1-0.1,0.1-0.2c-0.1,0-0.2,0.1-0.4,0.1C261,103.5,261.1,103.6,261.2,103.6z M259.3,102.9c0.1,0.1,0.2,0.1,0.3,0.2
		c0-0.1,0.1-0.2,0.1-0.2c-0.1,0-0.1-0.1-0.2-0.1S259.3,102.8,259.3,102.9z"/>
	<path class="st2" d="M256.2,102.6c-0.4-0.6-1.1-0.6-1.7-0.6c-0.1,0-0.2,0-0.3,0c-0.6-0.3-1.1-0.7-1.7-0.9c-8-2.7-16.4-3.8-24.7-5
		c-1.7-0.2-3.6-0.2-4.4-2.3c-0.2-0.5-0.5-1-0.7-1.5c0.9,0.1,1.8,0.1,2.7,0.3c6.4,1.6,12.9,3,19.2,4.8c4.6,1.3,9,3.1,13.5,4.7
		c0,0.2-0.1,0.3-0.1,0.5C257.4,102.6,256.8,102.6,256.2,102.6L256.2,102.6z"/>
	<path class="st10" d="M269,104.2c0.9,0.3,1.6,1,2.7,1.2c1.9,0.3,3.5,0.9,2,3.5c-0.5,0.9-0.5,2.1,1,2.6c0.9,0.3,1.5,1,1.6,2
		c-3.6-0.9-7.3-1.8-10.9-2.7c0.2-0.1,0.3-0.3,0.5-0.5c1.1,0,2.2,0.4,3.3,0c0.2-0.1,0.5-0.2,0.7-0.3c-0.2-0.1-0.5-0.2-0.7-0.3
		c-2.3-1.4-5.4-1-7.6-2.8c-0.1-0.6-0.2-1.3-1.1-0.5c-0.7-0.4-1.5-0.7-2.2-1.1c-0.1-0.3-0.3-0.7-0.5-1.1c5.2,0.3,9.8,3.3,14.9,4.2
		c-2.1-1.8-4.2-3.3-6.8-4.2c-0.9-0.3-2.2-0.3-2.6-1.6C265.7,101.8,267.3,103.6,269,104.2z"/>
	<path class="st2" d="M227.2,86.9c-1-0.7-2.5-0.8-3.1-2.2c0.5,0,1,0.1,1.5,0.1c6.3,2.9,12.9,5.3,19.5,7.4c2.7,0.9,5.1,2.1,7.7,3.1
		c-0.1,0.2-0.1,0.5-0.2,0.7c-3.9-1.1-7.8-2.1-11.7-3.2c-3.9-1.2-7.7-2.2-11.7-2.8c-0.7-0.1-1.7,0.3-1.8-1
		C229.3,88.1,228.1,87.5,227.2,86.9z"/>
	<path class="st2" d="M234.3,101.1c1.3-1.3,2.6-0.1,3.8,0.1c6.2,1.1,12.3,2.9,18.3,5.1c-0.5,0.7-0.9,0.6-1.4,0.5
		c-5.5-1.1-10.9-2.2-16.4-3.2c-1.6-0.3-3.1-0.9-4.3-2.1C234.3,101.3,234.3,101.2,234.3,101.1z"/>
	<path class="st1" d="M164.9,58.6c4.6,1.8,9.1,4.4,14.3,4.6c2.2,1.2,4.4,0.7,6.6-0.1c0.2-0.2,0.3-0.4,0.5-0.6
		c0.7,0.4,1.1,0.9,1.1,1.7c0,0.2,0,0.4,0,0.6c-0.1,0-0.3,0-0.5,0c-2.9,0-5.7,1.4-8.6,0.4c-1.1-0.3-2.3-0.6-3.4,0
		c-0.3-0.9-0.4-1.7-1.7-2.1c-5.4-1.6-10.4-4.2-15.5-6.4c-0.6-0.2-0.9-0.5-1-1.1c1.6-0.3,2.8,1,4.3,0.9
		C161.7,58.2,163.5,58.3,164.9,58.6z"/>
	<path class="st1" d="M155.3,54.7c0.1,0.3,0.3,0.5,0.4,0.8c-0.1,0.8-0.1,1.5-0.1,2.3c-1-0.2-1.9-0.4-2.8-0.6
		c-0.8-1.7-2.6-1.3-3.8-2.2c0.2-0.3,0.4-0.7,0.6-1.1c1.2,0.2,2.5,0.3,3.8,0.5c0.4,0.1,0.7,0.1,1.1,0.1
		C154.8,54.6,155,54.6,155.3,54.7z"/>
	<path class="st1" d="M163.8,62.2c-2.9-1.2-5.7-2.5-8.2-4.4C159.1,57.8,161.7,59.6,163.8,62.2z"/>
	<path class="st2" d="M221.8,91.8c0.2,0.1,0.3,0.3,0.5,0.4C222.1,92.1,222,92,221.8,91.8z"/>
	<path class="st9" d="M271.5,118.5c0.1,0.2,0.3,0.3,0.6,0.2c0,0.1,0,0.3,0,0.5c-1.5,0.7-0.2,1.2,0.1,1.7c1.4,4.9,3.2,9.6,6.1,13.9
		c-1-3.9-2.8-7.6-2.9-11.7c0-0.9,0-1.8,0-2.7c0-0.6-0.1-1.4,0.7-1.5c0.9-0.2,0.8,0.7,1.1,1.2c0.8,1.3-0.3,2.9,0.9,4.1
		c0,0.1,0,0.3,0,0.4c0.1,0.8-0.2,1.7,0.6,2.3l0,0c0.1,0.7-0.1,1.3,0.6,1.7l0,0c0,0.7-0.2,1.3,0.5,1.7l0,0c0,0.5,0,0.9,0.5,1.1l0,0
		c0.9,4.2,2.4,8.1,5.5,11.2c-0.9-3.5-3.3-6.4-3.4-10.1c2.7,0.4,4.5,2.2,5.4,4.4c2.9,6.9,7,12.7,12.7,17.5c-0.2,1-2.1,1.4-1.2,2.7
		c0.9,1.2,2.3,1.4,3.7,0.8c2.9-1.3,6.3-0.6,9-2.4c0.4,0,0.9,0.1,1.1,0.5c0.2,0.7,0.3,1.4,0.5,2.1c0.2,0.7,0.2,1.7,1.2,1.5
		c0.9-0.2,0.4-1.2,0.5-1.9c2.4-0.3,4.6,0.4,6.2,2.1c3.5,3.7,8.5,4.6,12.5,7.3c3.9,2.7,7.9,5.3,11.6,8.2c4.1,3.2,7.9,6.6,11.7,10.1
		c2.1,1.9,3.7,4.2,6.1,5.7c-3.4,1.8-7.1,2.8-11,3.4c-2,0.3-3.2-0.4-4.2-1.6s-2.4-1.9-3.4-3c-1.8-1.8-4.4-2-6.2-3.7
		c-1.4-1.4-2.5-3-4.2-4.2c-1.9-1.3-3.9-2.5-5.8-3.7c-3-1.9-5-5.8-9.4-5.2c-0.8,0.1-1.4-0.4-1.6-1.2c-0.1-0.6-0.4-1.1-1.1-1.4
		c-3.7-1.3-6.6-3.9-9.7-6.2c-1.8-1.3-3.7-2.6-5.5-3.9c-1.2-0.8-2.4,0.9-3.4-0.1c-1.6-1.5-3.7-2.4-5.2-3.8c-3.3-3-7.4-4.8-10.8-7.6
		c-2.3-1.8-5.5-2.3-7-5c-2.9-5.2-7.8-8.2-12.2-11.8c-2.8-2.3-5.7-4.9-7.2-8c-1.3-2.6-3.2-3.6-5.2-5c-1-0.7-3.1-0.3-2.7-2.1
		c0.4-2,2.4-1,3.7-1.1c0.5,0,1.1,0.4,1.6,0.4c1.1-0.1,2.2,1.3,3.3,0.1c3.2,0.4,6.2,0.9,6.8,5.3c1.5-2-0.9-3.1,0.3-4.7
		c1,1.8,2,3.4,3,5.1c0.9-1.8-0.6-3.2,0-5c0.6,0.6,1,1.1,1.4,1.5c0,0.2,0,0.3,0,0.5c0.1,0.2,0.3,0.4,0.5,0.6
		c0.6,4.3,3.6,7.5,5.2,11.3c0.3-0.1,0.5-0.2,0.7-0.3c-1.2-3.2-2.4-6.3-3.6-9.5c-0.1-0.6,0-1.2-0.6-1.6l0,0
		C269.8,118.3,270.2,117.8,271.5,118.5L271.5,118.5z M264.7,122.5c0-0.1-0.1-0.2-0.2-0.4c-0.1,0.1-0.4,0.1-0.4,0.2s0.1,0.2,0.2,0.4
		C264.4,122.6,264.6,122.6,264.7,122.5z"/>
	<path class="st11" d="M372,178.3c-0.2,0-0.5-0.1-0.5-0.2c-0.1-2.9-3.9-2.8-4.5-5.5c-0.2-0.9-1.4-1.7-2.3-2.2
		c-3.3-1.7-5.9-3.9-8.3-6.7c-1.3-1.6-3.4-2.9-5.3-3.8c-2.9-1.5-4.8-4.5-8.3-4.8c-0.8-0.1-1.7-1.1-1.7-2.3c1.6-1.9,4.1-2.9,4.9-5.5
		l0,0c1,0,1.6-0.6,1.6-1.6l0,0c0.2-0.2,0.3-0.4,0.5-0.6l0,0c0.1-0.1,0.3-0.3,0.5-0.5l0,0c1.2,0.1,2.1-0.2,2.2-1.6l0,0
		c0.5-0.1,1.1-0.3,1.6-0.5c2.7,2.4,6.3,2.1,9.5,2.6c7.3,1.2,13.3,4.5,19,9.1c3.5,2.9,6.2,6,7.2,10.5c0.3,1.3,0.4,2.4,0,3.7
		s-0.3,2.5,0.4,3.7c-3,4.7-7.3,8-12,10.9C375.3,181.1,374.3,179,372,178.3z"/>
	<path class="st10" d="M363.4,191.2c-2.4-1.5-4.1-3.8-6.1-5.7c-3.8-3.5-7.7-6.9-11.7-10.1c-3.7-2.9-7.7-5.5-11.6-8.2
		c-4-2.7-9-3.6-12.5-7.3c-1.5-1.8-3.8-2.4-6.2-2.1c-1-0.3-1-1.7-2.2-1.7c-0.2-0.4-0.7-0.5-1.1-0.5c-3.2-0.2-6.3,0.4-9.5,0.7
		c5.7-2.4,11.3-5.3,17.6-1.6c1.5,0.9,3.2,1.7,5.1,1c0.3,0.4,0.7,0.5,1.1,0.5c0.7,0.1,1.5,0.1,2.2,0.1c3.6,1.3,6.2-0.9,8.5-3.1
		c2.9-2.8,5.6-6,8.4-9c0.9,0,1.4,0.8,2.1,1.1c0,0.2,0,0.4,0,0.6l0,0c-1,0-1.6,0.5-1.6,1.6l0,0c-3.6,2-6.7,4.5-8.8,8.2
		c0,0-0.1,0.1-0.2,0.1c0,0,0.1-0.1,0.2-0.1c1.8-0.1,2.3-2.1,3.8-2.7c0.1,1.2,0.9,2.2,1.7,2.3c3.5,0.3,5.4,3.4,8.3,4.8
		c1.8,0.9,4,2.2,5.3,3.8c2.4,2.8,5.1,5,8.3,6.7c0.9,0.4,2.1,1.3,2.3,2.2c0.6,2.6,4.5,2.5,4.5,5.5c0,0,0.3,0.2,0.5,0.2
		c2.5,0.5,3.5,2.6,4.7,4.5C372.8,186.8,367.7,188.4,363.4,191.2z M336,157.5c-1.5,0.1-2.1,1-2.9,2.6
		C334.8,159.6,335.5,158.8,336,157.5z"/>
	<path class="st12" d="M346.7,141c1.7-0.2,2.4-2,3.9-2.6c-0.1,0.9,0.2,1.8,1.2,1.7c3.7-0.4,6.7,2.2,10.4,2.1
		c3.6-0.2,7.3,0.6,10.9,1.8c5.8,1.9,10.6,5.5,14.7,9.9c3.8,4.1,3.6,9.1,2.9,14.1c-0.1,0.7-0.3,1.4,0.5,1.9c0,0.2,0,0.3,0,0.5
		c-1.2,0.2-1.5,1.8-2.8,1.8c-0.7-1.2-0.8-2.4-0.4-3.7c0.4-1.2,0.3-2.4,0-3.7c-1-4.5-3.7-7.6-7.2-10.5c-5.6-4.6-11.7-7.9-19-9.1
		c-3.2-0.6-6.7-0.2-9.5-2.6c0.1-0.4,0.9-1.2,0.2-1.3c-1.2-0.1-1.6,0.9-1.8,1.9l0,0c-1,0.1-2,0.3-2.2,1.6l0,0
		c-0.1,0.1-0.3,0.3-0.5,0.5l0,0c-0.2,0-0.4,0-0.6,0c-0.7-0.3-1.2-1.2-2.1-1.1C345.3,142.8,347.2,142.3,346.7,141z"/>
	<path class="st2" d="M391.8,169.7c0.2,0.1,0.5,0.1,0.7,0.2c-0.2,0.6-0.6,0.9-1.1,1.2c0-0.2-0.1-0.5-0.1-0.8c0-0.2,0-0.3,0-0.5
		C391.4,169.8,391.6,169.8,391.8,169.7z"/>
	<path class="st12" d="M443.4,51c0.1,0.3,0.2,0.5,0.3,0.8c0,0.3-0.1,0.7-0.2,1c-2.2-1.8-3.3-4.4-4.9-6.7c-1.6-2.3-3.5-4.1-5.8-5.6
		c-1.1-0.6-2.5-1.8-3.9-0.4c-2.5-1.6-4.8-3.6-7.7-4.4c-0.9-3.7-4.4-3.8-7-4.7c-7.8-2.5-15.9-3.8-24.1-3.3c-10,0.6-19.6,3.1-28.1,8.9
		c-3,2.1-6.1,3.8-8.8,6.3c-0.4,0.4-0.9,0.6-1.5,0.4c2-3.3,5.3-4.8,8.2-6.9c0.6-0.4,1.2-0.7,1.8-1.1c6.4-4.5,13.9-6.4,21.3-8.2
		c3.7-0.2,7.3-0.5,11-0.7c3.6,0.4,7.2,0.8,10.8,1.2c7.5,1.6,14.7,3.9,21.7,7.1c3.2,1.6,6.3,3.3,8.9,5.7
		C438.4,43.8,440.9,47.6,443.4,51z"/>
	<path class="st3" d="M443.8,54.5c4.1,6.8,6,14.4,8.5,21.8c0.6,2.1,1.7,4,1.7,6.3c-1.4,0.2-1.9-1.1-2.8-1.8
		c-0.3-0.9-0.8-1.9-0.8-2.8c0.1-4-1.2-7.7-3-11.3c-0.9-2.4-1.6-5-3.2-7.1c-3.4-7.8-7.7-14.7-15.3-19.1c1.5-1.4,2.9-0.3,3.9,0.4
		c2.3,1.4,4.2,3.3,5.8,5.6c1.6,2.2,2.7,4.9,4.9,6.7C443.6,53.6,443.6,54.1,443.8,54.5z"/>
	<path class="st2" d="M443.7,59.9c0.1-0.1,0.3-0.3,0.5-0.5c1.6,2.1,2.3,4.6,3.2,7.1c-0.2,0.3-0.4,0.6-0.6,0.9
		c-0.8-1.8-1.5-3.6-2.3-5.4C444.3,61.4,444,60.7,443.7,59.9z"/>
	<path class="st3" d="M455.7,104.3c0.5-1.7,3.4-1,3.5-3.3c0.4-0.2,0.9-0.6,1.2,0c0.4,0.7-0.3,1.3-0.5,2c-0.1,0-0.2,0.1-0.3,0.1
		C458.4,103.7,457.1,104.2,455.7,104.3z"/>
	<path class="st3" d="M454.1,98.2c0.9,0.8,1.9,1.3,3.2,1.1c0.1,0.2,0,0.3,0,0.5C455.6,100.6,454.2,100.6,454.1,98.2z"/>
	<path class="st10" d="M235.4,74.5c-1.6-2.3-4.2-4.6-6.8-6.3c-1-0.7-1.1-1.5-1.1-2.5c1.1-3.3,3.6-3.5,6.6-3.3c2.1,0.1,4.2,0.4,7-0.5
		c-2.8-0.9-4.8-0.6-6.8-0.5c-2.3,0.1-3.1-0.5-2.4-2.8c0.4-1.2-1.2-2.8-0.1-3.5c1.2-0.9,2.4,0.8,3.5,1.4c4.6,2.5,9.9,4.1,13.5,8.2
		c2,2.2,5.3,3.4,5.5,7c-2,0-4,0-6,0c-0.6,0.1-1.2,0.2-1.8,0.3c0,0.2,0,0.6,0.1,0.6c0.7,0.2,1.3,0.2,1.7-0.4c2,0.1,4.1-0.5,6,0.5
		c0.5,4.1,4.6,6.3,5.5,10.2c0.1,0.2,0.7,0.3,1,0.4c1.7,0.7,3.2,1.4,3.5,3.5c0.1,0.4,0.6,0.5,1.1,0.6c-0.7,0.5-1.5,1.1-2.2,1.6
		c-1.2,0.2-2.4,0.2-2.2-1.6c0.5-0.8,1.7-0.9,1.5-2.2c-1.6-0.4-2.1,1.8-3.6,1.7c-1.2,0.5-2.1,0.5-1.4-1.2c0.4-0.9,0.9-1.9,1.4-3
		c-1.7,0-2.6,0.7-3.2,1.8c-0.6,1.2-1.6,1.5-2.7,1.1c-4.6-1.5-9.2-3.2-13.8-4.8C238.8,78.2,236.9,76.1,235.4,74.5z M244.7,72.6
		c-1.2-0.8-2-0.7-3.5,0C242.7,73.2,243.5,73.3,244.7,72.6z M239,73.1c0.1,0.1,0.1,0.4,0.2,0.4c0.1,0,0.2-0.1,0.4-0.2
		c-0.1-0.2-0.1-0.3-0.2-0.5C239.2,72.9,239.1,72.9,239,73.1z"/>
	<path class="st2" d="M201.4,51.4c-6.6-2.4-13.3-4.7-19.9-7.1c-0.5-0.2-0.8-0.5-0.8-1v0.2c1.3,0,1.1-0.8,0.8-1.6l-0.1-0.2
		c2.6,0.1,5.2,0.4,7.8,0.3c1.8-0.1,3.4-0.9,3.5-3.1c0-0.9,0.3-1.4,1.3-0.7c4.3,3.3,9.6,4.8,14.1,7.8c4.8,3.2,9.8,6.2,13.7,10.6
		c0.7,0.7,1.1,1.4,0.9,2.4c-1.6-0.4-3.3-0.8-4.9-1.2c-1.6-1.7-3.8-1.7-5.9-2.2c-0.7-1.1-1.7-1.1-2.8-1.1h-0.2h-0.2
		C206.7,52.4,204,52.2,201.4,51.4z"/>
	<path class="st0" d="M186.1,40.3c0.4,0,0.7,0,1.1,0c0.7,0.7,1.4,0.5,2.1,0c2.2-0.5,2.8-1.6,1.6-3.7c-0.3-0.6-0.5-1.3-0.8-2
		c1.1-0.3,2.1,0.1,3.1,0.6c6.6,3.3,13.3,6.6,20,9.8c0.5,0.3,1.2,0.3,1.8,0.4l0,0c0.9,1.8,2.5,2.5,4.4,2.7l0,0c0,1.1,0.8,1.1,1.6,1.1
		l0,0c0.1,1.1,0.9,1.1,1.7,1.1c0.2,0.2,0.3,0.3,0.5,0.5c0,0.8,0.3,1.2,1.1,1.2l0,0c0.2,0.5,0.6,0.6,1.1,0.6l0,0
		c0.2,0.2,0.4,0.4,0.6,0.6l0,0c0.2,0.2,0.4,0.4,0.6,0.6l0,0c0,0.7,0.4,1.1,1.1,1.1l0,0c0.2,0.2,0.4,0.4,0.6,0.6l0,0
		c0,0.5,0.1,0.9,0.6,1.1l0,0c0.3,0.4,0.5,0.8,0.8,1.1c1.6,1.7,0.8,2.6-1.1,3.2c-0.7,0.2-1.5-0.1-2,0.6c-0.3,0-0.5,0-0.8,0
		c-0.3-1.6-2.2-1.5-3-2.6c0.2-0.9-0.2-1.7-0.9-2.4c-3.9-4.4-8.9-7.4-13.7-10.6c-4.4-3-9.8-4.5-14.1-7.8c-0.9-0.8-1.2-0.2-1.3,0.7
		c-0.1,2.3-1.7,3-3.5,3.1c-2.6,0.1-5.2-0.2-7.8-0.3C182.8,40,184.7,41.3,186.1,40.3z"/>
	<path class="st4" d="M164.4,42.1c-0.9-0.4-1.7-0.7-2.7-0.7c0-0.4-1.1-0.8,0.1-1.1c1.1-0.3,2,0.5,3.1,0.4c0.7,0,1.5,0.1,2.2,0.1
		c4.5,1.3,9,2.3,13.7,2.3c0.1,0.5,0.3,0.8,0.8,1c6.6,2.3,13.3,4.7,19.9,7.1c2.5,0.9,5.3,1.1,7.2,3.2c-0.3,0-0.6,0.1-0.8,0
		c-6-2-12.1-4.1-18.1-6.1c-0.8-0.3-1.5-0.8-2.5,0.4c2.6,1.2,5.1,2.3,7.6,3.5c2.7,1.3,5.9,1.9,7.8,4.5c-5.1-2.3-10.5-4.2-15.5-6.9
		c-0.9-0.5-1.7-0.9-2.6-0.8c-0.2,0-0.3,0-0.5,0c-1.2-1.5-2.8-1.7-4.6-1.5 M178.6,45.3c2.5,1.4,4.9,2,7.3,2.2
		C183.8,46.2,181.7,45,178.6,45.3z"/>
	<path class="st4" d="M175.3,57.7c-2.7-1.1-5.2-2.6-8.2-2.7c-1.7-1.2-3.8-1.7-5.4-3.2c1-0.1,1.9-0.2,2.8-0.3c1.7,0.4,3.3,1.2,5,0.3
		c7.7,3.7,16.1,5.2,24,8.1c1.8,0.6,3.6,1.1,5.4,1.7c2.7,1.5,5.6,1,8.5,1.1c1.1,0.1,1.3-0.7,1.2-1.6c1,0.1,1.6,0.6,1.6,1.7
		c0,1.1-0.9,0.9-1.5,1.2c-1.2,0.7-2.3,0.6-3.7,0.6c-2.2,0-4-1.8-6.2-1.3c-2.7-1.6-5.7-2.5-8.7-3.3c-3.2-1.5-6.7-1.7-10.1-2.4
		c1.8,2.1,4.6,2.8,6.2,5.1c-0.2,0.2-0.3,0.4-0.5,0.6C182.4,61.1,179.1,59,175.3,57.7z"/>
	<path class="st0" d="M190,54.8c-2.3-1.4-4.4-3.1-5.5-5.7c1,0,1.8,0.4,2.6,0.8c5,2.7,10.4,4.5,15.5,6.9c0.3,0.5,0.7,0.6,1.1,0.6
		c0.9,1.4,2.2,2.2,3.8,2.7l0,0c0.1,0.2,0.3,0.4,0.5,0.6s0.3,0.3,0.5,0.5c0.1,0.9,0,1.6-1.2,1.6c-2.8-0.1-5.8,0.4-8.5-1.1
		C196.7,58.3,193.3,56.8,190,54.8z"/>
	<path class="st4" d="M230.5,56.7c0.5,0.6,1.1,1.1,1.6,1.7c-0.7,2.3,0.1,3,2.4,2.8c2-0.1,4.1-0.3,6.8,0.5c-2.8,0.9-5,0.6-7,0.5
		c-3-0.2-5.6-0.1-6.6,3.3c-1-1.1-1.2-2.5-1.1-3.9c0.5-0.6,1.3-0.4,2-0.6c1.9-0.6,2.7-1.5,1.1-3.2c-0.3-0.3-0.5-0.7-0.8-1.1
		C229.4,56.7,230,56.7,230.5,56.7z"/>
	<path class="st3" d="M223.6,61.9c-3.2-1.4-6.4-2.8-9.8-4.3c1.7-0.6,2.8,0.5,4.1,0.2c1.6,0.4,3.3,0.8,4.9,1.2c0.8,1.1,2.7,1,3,2.6
		C225.2,62.5,224.3,62.1,223.6,61.9z"/>
	<path class="st11" d="M190.1,60c3,0.8,6,1.7,8.7,3.3C196,64.3,192,62.8,190.1,60z"/>
	<path class="st4" d="M207.5,60c-1.5-0.5-2.9-1.3-3.8-2.7C205.8,57,206.8,58.3,207.5,60z"/>
	<path class="st4" d="M209.2,54.5c1.1,0,2.2,0,2.8,1.1C210.9,55.7,209.9,55.4,209.2,54.5z"/>
	<path class="st4" d="M188,64.7c-0.2,0.1-0.5,0.2-0.7,0.3c0-0.2,0-0.4,0-0.6C187.6,64.5,187.8,64.5,188,64.7z"/>
	<path class="st4" d="M208,60.6c-0.1-0.2-0.3-0.4-0.5-0.6C207.7,60.2,207.9,60.4,208,60.6z"/>
	<path class="st10" d="M281.3,125.8c-0.6-3.6,0.1-5.2,3.4-6.6c0.6-0.2,1.1-0.5,1.1-1.3c2.6,0,4.4-1.6,5.6-3.6
		c1.7-2.7,2.8-5.6,1.5-8.9c0.2-0.2,0.4-0.4,0.6-0.6c6.1,0.4,9.3,6.8,6.2,12.1c-3.2,5.4-5.7,11.3-6.1,17.5c-0.4,7,2.9,12.6,8.9,16.5
		c0.8,0.5,1.8,0.8,1.8,2.1c-1.1,0.9-2.3,1.6-3.8,1.6c-5.7-4.8-9.8-10.7-12.7-17.5c-0.9-2.3-2.7-4.1-5.4-4.4
		C281.3,130.6,281.5,128.2,281.3,125.8z"/>
	<path class="st3" d="M278.9,112.4c-2.2-1.6-2.2-3.6-1.3-5.9c0.4-0.1,0.7-0.1,1.1-0.1c1.9-1.1,2.4-3.3,3.9-4.8c1-1-0.5-1.3-1.2-1.7
		c-1.8-1.1-3.7-2.2-5.5-3.3c0-0.3,0.1-0.6,0.1-0.9c0.3,0,0.7,0.1,1,0.2c3.7,1.7,7.1,4,10.1,6.9c0.3,0.6,0.6,0.9,1.3,0.9l0,0
		c0.2,0.7,0.6,1.2,1.2,1.6c-0.7,3.1-0.7,6.4-2.4,9.1c-0.7,1.1-1.6,2.3-3.1,2.5c-1.5-0.8-2.9-1.5-4.3-2.3
		C279.8,113.7,279.5,112.9,278.9,112.4z"/>
	<path class="st12" d="M292.8,105.5c1.3,3.3,0.2,6.2-1.5,8.9c-1.2,2-3,3.6-5.6,3.6c-0.7-0.1-1.3-0.4-1.6-1.1
		c1.5-0.3,2.4-1.4,3.1-2.5c1.7-2.8,1.7-6.1,2.4-9.1C290.6,105.4,291.7,105.4,292.8,105.5z"/>
	<path class="st12" d="M276.5,113.6c-0.1-1-0.7-1.7-1.6-2c-1.6-0.5-1.5-1.7-1-2.6c1.6-2.6-0.1-3.2-2-3.5c-1.1-0.2-1.8-0.9-2.7-1.2
		c-1.9-0.6-3.5-2.5-5.9-1.7c-0.5,0-0.9-0.1-1.1-0.5c-0.4-1.7-2.5-1.4-3.3-2.7c1.1,0,2.3,0,3.3,0.6c5.1,2,10.2,4,15.3,6
		c0,0.2,0,0.4,0,0.6c-0.9,2.2-0.9,4.3,1.3,5.9c0.7,0.5,1,1.3,1,2.1C278.7,114.2,277.6,113.9,276.5,113.6z"/>
	<path class="st0" d="M271.9,119.5c0-0.1,0-0.3,0-0.5c-0.1-0.1-0.3-0.3-0.4-0.5l0,0c0.1-1.2,0.8-1.7,2-1.5c1.2,0.2,1.2,1.2,1.3,2.1
		c0.1,1.5-0.6,3,0.5,4.4c0.1,4.1,2,7.8,2.9,11.7c-2.9-4.3-4.7-9-6.1-13.9C272,120.7,272,120.1,271.9,119.5z"/>
	<path class="st0" d="M278,119.8c0-1.2,0.5-1.9,1.8-1.7c1.4,0.2,1.5,0.9,1.2,2.1c-0.7,3.2-1.2,6.5-0.2,9.8c0.2,0.6,0.1,1.3-0.5,1.7
		l0,0c0.1-0.5-0.1-0.9-0.5-1.1l0,0c0-0.6,0.1-1.3-0.5-1.7l0,0c0-0.7,0.1-1.3-0.6-1.7l0,0c-0.1-0.8,0.2-1.7-0.6-2.3
		c0-0.1,0-0.3,0-0.4C278.1,122.9,278.1,121.3,278,119.8z"/>
	<path class="st4" d="M268.2,117.1c0.6-0.2,0.7,0.5,0.9,0.8c0.3,0.5,0.2,1.2,0.8,1.6l0,0c0.1,0.6-0.1,1.2,0.6,1.6
		c1.2,3.2,2.4,6.3,3.6,9.5c-0.3,0.1-0.5,0.2-0.7,0.3c-1.6-3.8-4.6-7-5.2-11.3c-0.1-0.2-0.3-0.4-0.5-0.6c0-0.2,0-0.3,0-0.5
		C267.7,118,267.5,117.3,268.2,117.1z"/>
	<path class="st4" d="M231.1,103.3c0.1,0,0.1,0.1,0.1,0.2s-0.1,0.1-0.2,0.1s-0.1-0.1-0.1-0.2C231,103.4,231,103.3,231.1,103.3z"/>
	<path class="st11" d="M289.4,103.5L289.4,103.5c0-0.6,0-1.1,0-1.7l0,0c0.1-0.1,0.3-0.3,0.5-0.5l0,0c0.2-0.1,0.4-0.3,0.6-0.5
		c0.1,0,0.2,0,0.3,0c0.6-0.2,1-0.6,1.2-1.2c0.2-0.3,0.4-0.6,0.6-0.9c0.3-0.2,0.7-0.4,1.1-0.6c0.4-0.3,1-0.6,0.8-1.2
		c-0.2-0.6-0.9-0.4-1.4-0.4c-0.5-0.6-1-0.6-1.6-0.1c-1.4,1-1.9,0.2-2.3-1l0,0c0.5,0,1.1,0.2,1.3-0.4c0.2-0.6-0.4-0.6-0.8-0.7
		c-2.2-1.1-3.3,0.8-4.9,1.6c-0.9,0.5-1.7,1.5-2.9,1c-1.8-0.8-2.3-2-1.5-3.8c0.2-0.4,0.6-0.8,0.3-1.2c-0.4-0.4-0.9-0.3-1.2,0.1
		c-0.7,1-1.7,1.6-2.9,1.8c-1.9,0.1-3.1-0.6-2.8-2.8c0.4-0.7,1-1.8,0.2-2.2c-1.3-0.7-1.4,1.3-2.4,1.6c-0.2,0.3-0.4,0.5-0.6,0.7l0,0
		c-1.2,0.8-2.3,0.5-3.3-0.5c0-0.6,0-1.1,0-1.7c0.7-0.7,1.3-1.5,2-2.3c-1.5-0.9-2.5,0-3.6,0.7c-0.4,0-1-0.1-1.1-0.6
		c-0.3-2.1-1.9-2.8-3.5-3.5c-0.4-0.1-0.9-0.2-1-0.4c-1-3.9-5-6.1-5.5-10.2c8.8-0.3,17.5,0,26.3,0.7c-8.7-2.2-17.5-1.7-26.3-1.8
		c-0.3-3.6-3.6-4.8-5.5-7c-3.5-4.2-8.8-5.7-13.5-8.2c-1.1-0.5-2.3-2.2-3.5-1.4c-1.1,0.7,0.5,2.3,0.1,3.5c-0.5-0.6-1.1-1.1-1.6-1.7
		c-0.2-0.8-0.4-1.7-0.8-2.5c-0.4-0.8-1.4-1.7-0.6-2.4c0.7-0.7,1.6,0.4,2.4,0.7c1.2,0.4,2.2,1.3,3.5,1.3c0.2,0.1,0.3,0.1,0.5,0.1
		c0.8,2.1,2.7,1.9,4.4,2.2l0,0c0.2,1.3,1.2,1.5,2.3,1.5c1,0.4,2.1,0.8,3.1,1.2c0,0.8,0.4,1.2,1.2,1c0.6,0,1.3,0.1,2,0.1
		c0.4,1.5,1.3,1.3,2.2,0.4c0.5,0,1,0,1.5,0c1.1,1.2,2.6,0.4,3.9,0.6c4.3-0.2,8.4,1.8,12.8,0.4c-2.4-4.5-7-7.5-10.6-11.3
		c1.6-0.2,2.7,0.9,3.9,1.6c2.9,2.9,5.9,5.6,9.3,7.8c2,1.3,4.6,0.7,6.6,2.1c0,0.4-1.5,1,0.1,1.1c2,0.2,4.2-0.5,5.7,1.5
		c0.1,0.1,0.4,0.2,0.5,0.1c3.6-1.6,7.6,0.8,11.3-1c-0.3-0.8-1-1.7-0.7-2.8c1.2-0.2,1.9,0.5,2.7,1.3c4.1,4.1,8.8,6.8,14.8,6.4
		c0.8-0.1,1.9,0.3,2.1-1.1c1.2,0.2,2.5,0.3,3.7,0.5c4.2,0.6,8-0.2,11.1-3.2c-0.1,4.9-0.1,9.8,0.5,14.7c-2.6-0.2-5.1-1.3-7.7-1.1
		c-2.5-1.8-5.5-1.5-8.3-2.1c-3.3-0.7-6.8-0.9-10.2-1.2c-0.8-0.1-1.7-0.1-1.8,1.1c-5.7-0.8-11.4-1.5-17.1-2.3c1.4,2.1,3.5,2,5.4,2.3
		c3.5,0.6,7.1,0.8,10.7,1.2c0.3,0.1,0.6,0.3,0.9,0.5c1.5,2.1,1.6,5.4,4.9,6l0,0c-0.2,2,1.4,3,2.6,3.9c1.3,1,1.1-0.4,1.2-1.1
		c0.4-0.1,1.2,0.3,1.2-0.4c0-0.6-0.7-0.6-1.2-0.7c-0.2-0.3-0.3-0.8-0.6-1.1c-0.5-0.6-0.7-1.2-0.2-1.7s1,0.1,1.4,0.4
		c2.3,1.6,5.1,1.4,7.7,2.3c2.8,1,5.1,2.6,7.5,4.2c0.3,0.2,0.3,0.6,0.1,0.9c-0.4,0.5-0.9,0.6-1.5,0.4c-1.2-0.5-2.4-1.2-3.8-1.2
		c0,0.3-0.1,0.5,0,0.6c0.7,0.7,2.7,0.4,1.9,1.9c-0.7,1.3-2.2,2.3-3.9,1.8c-0.9-0.3-1.5-1-2.7-0.2c1.9,0.9,2.1,2.1,0.6,3.5
		c-0.7,0.7-0.6,1.6-0.6,2.5c-0.1,0.1,0,0.2-0.1,0.3c-1.1,1.3-1.2,3.4-2.7,4.3c-1.7,1-3.1-1-4.8-1.1c-0.4,0-0.7-0.1-1,0.5
		c0.6,0.4,1.2,0.8,1.9,1.2c4.1,2.4,4,2.3,6.3-1.7c2.5-4.4,6.7-7.1,11.1-9.2c2.2-1,4.8,0.6,7.2,0.4c-0.8,1.7-0.2,3.6-0.8,5.3
		c-1.8,4.8-4.6,9.2-7.4,13.5c-3,4.6-6.5,9-7.7,14.5c-1,4.4-1.8,9-2,13.6c-0.1,2.6-1.8,5-1.2,7.7c-0.4,2-2.1,2.5-3.6,2.9
		c-2.5,0.7-5.2,0.9-7.9,1.4c0.1-1.3-1-1.6-1.8-2.1c-6-3.8-9.3-9.5-8.9-16.5c0.4-6.3,2.9-12.1,6.1-17.5c3.2-5.4-0.1-11.7-6.2-12.1
		C291.7,104.5,290.1,104.1,289.4,103.5z M284.8,85.4c1,2.1,3.1,2.8,5.1,2.9c1.8,0.1,2.8-1.2,2.9-3.1s-0.9-2.8-2.8-2.8
		C288,82.4,284.3,84.5,284.8,85.4z M306.2,86.7c0.8,2.4,1.5,3,4.4,3.4C309.2,89,307.9,87.9,306.2,86.7z"/>
	<path class="st4" d="M256.7,100.4c-11-4.4-22.7-6.9-34.4-9.5c0.5-0.9,1-0.9,1.4-0.8C228.8,91,234,92,239.1,93
		c0.6,0.1,1.2,0.4,1.7-0.3c3.9,1.1,7.8,2.1,11.7,3.2c0.1-0.2,0.1-0.5,0.2-0.7c-2.6-1-5-2.3-7.7-3.1c-6.6-2.1-13.2-4.4-19.5-7.4
		c-0.3-1.2-2-0.2-2.3-1.5c0.9-0.6,1.7,0,2.5,0c2,0,3.8,1.5,5.9,0.7c4.3,0.7,8,2.8,12.1,4c6.7,2,13.4,4.3,20.1,6.5
		c0.4,0.4,0.7,0.7,1.1,1.1c-0.8,0-1.5,0-2.2,0c-1.6-0.8-3.2-1.4-5.6-1.6c1.2,1.5,1.8,2.8,3.5,2.8c1-0.1,1.5,0.6,1.6,1.5
		c0,0.5,0,1.1,0,1.7c-1-0.6-2.2-0.5-3.3-0.6C257.5,98.4,256.7,98.6,256.7,100.4z M254,96.6c1.2,0.8,2.5,0.9,4.3,1.1
		c-1-1.9-2.5-1.5-3.8-1.6C254.4,96.3,254.2,96.4,254,96.6z"/>
	<path class="st2" d="M228.6,83c-2.7-0.4-5.3-0.7-8.4-2.1c2-0.6,3-2.3,4.9-1.5c3.2,1.3,6.6,2.1,9.8,3.3c6.4,2.4,12.8,4.5,19.2,6.9
		c3.7,1.4,7.7,2.4,10.9,4.9c-0.4,0-0.8,0-1.2,0c-6.7-2.2-13.4-4.4-20.1-6.5c-4.1-1.3-7.8-3.4-12.1-4C230.8,83.1,229.7,83,228.6,83z"
		/>
	<path class="st10" d="M273.7,96.6c-2-0.1-3.7-1-5.5-1.6l0,0c-2.1-2.7-5.7-2.8-8.2-4.8c3.9,0.7,7.4,2.4,11,3.7
		C271,95.7,273.6,94.9,273.7,96.6z"/>
	<path class="st0" d="M266.7,89.1c-0.5,0.1-0.4,0.3-0.1,0.6c-0.1,0.3-0.1,0.6-0.1,0.9c-1.2-0.2-2.7,0.1-3.1-1.6
		c0.7-0.5,1.5-1.1,2.2-1.6c1.1-0.8,2.1-1.6,3.6-0.7c-0.8,0.8-1.4,1.6-2,2.3C267,89,266.8,89,266.7,89.1z"/>
	<path class="st0" d="M271.8,93.1c-1,0-1.5-0.8-1.4-1.9l0,0c0.2-0.3,0.4-0.5,0.6-0.7c1-0.3,1.1-2.2,2.4-1.6c0.8,0.4,0.2,1.5-0.2,2.2
		C272.2,91.4,273,93.1,271.8,93.1z"/>
	<path class="st0" d="M276.9,95.6c-0.2-0.4-0.6-0.5-1.1-0.5l0,0c0-0.4,0.1-0.7,0.1-1.1c1.3-0.2,2.2-0.8,2.9-1.8
		c0.3-0.5,0.9-0.5,1.2-0.1c0.3,0.4-0.1,0.8-0.3,1.2C278.5,93.7,278.6,95.6,276.9,95.6z"/>
	<path class="st0" d="M259.6,88.6c-0.8-0.3-0.7-1.1-0.6-1.8c1.4,0.1,1.9-2.2,3.6-1.7c0.2,1.3-1,1.5-1.5,2.2
		C260.4,87.4,260.8,89.1,259.6,88.6z"/>
	<path class="st12" d="M275.9,94.9L275.9,94.9c0,0.3,0,0.5,0,0.8s-0.1,0.6-0.1,0.9c-0.5,0-1.1,0-1.6,0c-0.2,0-0.3,0-0.5,0
		c-0.1-1.7-2.7-0.9-2.7-2.7C272.7,93.9,274,95.6,275.9,94.9z"/>
	<path class="st0" d="M268.1,95.1L268.1,95.1c0,0.3,0,0.7,0,1c-0.5,0-1.1,0-1.6,0l0,0c-0.3-0.7-1-0.6-1.6-0.6l0,0
		c-0.4-0.4-0.7-0.7-1.1-1.1c0.4,0,0.8,0,1.2,0C266.1,94.6,267.1,94.8,268.1,95.1z"/>
	<path class="st10" d="M267.1,90.6c-0.2,0-0.4-0.1-0.6-0.1c0.1-0.3,0.1-0.6,0.1-0.9c0-0.2,0.1-0.4,0.1-0.6c0.2,0,0.3,0,0.5,0
		C267.1,89.5,267.1,90.1,267.1,90.6z"/>
	<path class="st5" d="M256.1,105.1c-4.7-1.8-9.5-3.2-14.5-4.2c-3.1-0.6-6.3-1.4-9.2-3c5.1,1.5,10.6,0.7,15.6,2.8
		c2,0.8,4.1,1.6,6.3,1.4c0.1,0,0.2,0,0.3,0c0.4,0.7,1,0.6,1.7,0.6l0,0c0.5,0.5,1.1,1.1,1.6,1.6c0.1,0.3,0.3,0.7,0.5,1.1
		C257.6,105.4,256.8,105.3,256.1,105.1z"/>
	<path class="st5" d="M260.6,106.5c0.9-0.9,1-0.2,1.1,0.5C261.2,107,260.8,106.9,260.6,106.5z"/>
	<path class="st4" d="M269.3,109.7c0.2,0.1,0.5,0.2,0.7,0.3c-0.2,0.1-0.5,0.2-0.7,0.3C269.3,110.1,269.3,109.9,269.3,109.7z"/>
	<path class="st10" d="M262.3,102c-1.9-0.5-3.7-1.1-5.5-1.6c0-1.7,0.7-2,2.1-1.1C259.7,100.6,261.8,100.3,262.3,102z"/>
	<path class="st4" d="M220.3,90c0-0.1,0.2-0.1,0.4-0.2c0.1,0.1,0.2,0.3,0.2,0.4s-0.2,0.1-0.4,0.2C220.5,90.3,220.3,90.1,220.3,90z"
		/>
	<path class="st2" d="M261.3,103.4c-0.1,0.1-0.1,0.2-0.1,0.2c-0.1,0-0.1-0.1-0.3-0.1C261,103.4,261.1,103.4,261.3,103.4z"/>
	<path class="st2" d="M259.7,102.9c0,0.1-0.1,0.1-0.1,0.2c-0.1-0.1-0.2-0.1-0.3-0.2c0.1,0,0.1-0.1,0.2-0.1
		C259.5,102.8,259.6,102.8,259.7,102.9z"/>
	<path class="st1" d="M256.2,102.6c-0.6,0-1.3,0.1-1.7-0.6C255.1,102,255.8,102,256.2,102.6z"/>
	<path class="st2" d="M177.6,61.1c0.6,0.7,1.5,1.3,1.5,2.4c-5.2-0.2-9.6-2.8-14.3-4.6c-1.3-0.6-3-0.7-3.8-2.3
		c1.9-1.1,4.4,0.4,6.1-1.5c3,0.1,5.5,1.6,8.2,2.7C175.4,59.3,176.8,59.9,177.6,61.1z"/>
	<path class="st0" d="M185.7,63.3c-2.2,0.8-4.4,1.3-6.6,0.1c0-1.1-0.9-1.7-1.5-2.4c-0.8-1-2.2-1.6-2.3-3.2
		C179.1,59,182.4,61.1,185.7,63.3z"/>
	<path class="st0" d="M149.1,55.2c-0.9,0-1.6-0.1-2.1-1c0.9-0.4,1.7-0.3,2.6-0.2C149.4,54.4,149.2,54.7,149.1,55.2z"/>
	<path class="st1" d="M320.5,142.1c0.6-1.3,1.8-2.3,2.1-3.8c2.1-2.4,2.5-5.7,4.1-8.4c4.4-7.2,8-14.8,13.6-21.3
		c1.1-1.3,2.2-2.6,3.3-3.9c1.9-0.6,1.8-3.4,4.1-3.5c1.2,0.2,2.3,0.3,3.5,0.5c1.6,2.2,4.5,2.4,6.3,4.3c-1.3,0-2.2,0.3-1.9,1.9
		c-1.2,1.8-2.4,3.7-2.8,5.9c-0.3,0.5-0.5,1-0.8,1.5c-1,0.3-1.2,1.2-1.5,2.1c-0.9-0.1-1.5,0.1-0.9,1.2c-1.5,1.4-0.5,4.1-2.8,5.1
		c0,0,0.3,0.6,0.4,0.9c0.1,0.6-0.3,0.9-0.7,1.2c-1.8-0.1-1.5,1.8-2.4,2.6c-0.2,0.1-0.2,0.2-0.2,0.4c-0.5-0.1-1-0.1-1.1,0.6
		c-0.8,0.2-1.3,0.5-1.6,1.5c-0.6,2.1-0.4,4.8-3.5,5.4c-0.3,0.1-0.7,1.6-0.5,2.2c0.5,1.2,2.3,2.5-0.9,2.2c-0.1,0-0.2,0.3-0.3,0.4
		c1.6,0.7-0.3,3.7,2.4,3.7c0.3,1.4,0,2.9-0.2,4.3c-1.2,1.4-2.4,2.9-3.6,4.3c-0.5,0-1,0-1.2-0.5c0.2-3.5,0.3-7-1.4-10.2
		c0.8,3,0.1,6.1,0.5,9.1c-0.1,1-0.4,1.9-1.1,2.7c-0.4,0-0.8,0-1.2,0c-0.9-1.9-0.3-4-0.6-6c-0.1-0.7,0.4-1.6-0.5-2.1
		c-1.3-0.4-1.3-0.2-0.9,1.9c0,2.1-0.4,4.2,0.3,6.3c0,0.5,0,1,0,1.5c-0.7,0-1.5,0-2.2,0c0-0.9,0-1.8,0-2.7c-0.1-0.6,0-1.5-0.8-1.5
		c-1.1,0-0.9,1-0.8,1.7c0,0.7,0.3,1.4,0.5,2.1c-1.9,0.7-3.5-0.1-5.1-1c-6.3-3.7-11.9-0.8-17.6,1.6c3.1-0.3,6.3-1,9.5-0.7
		c-2.7,1.8-6.1,1.2-9,2.4c-1.5,0.6-2.9,0.4-3.7-0.8c-0.9-1.3,1-1.7,1.2-2.7c1.5,0,2.7-0.7,3.8-1.6c2.6-0.4,5.3-0.7,7.9-1.4
		c1.5-0.4,3.3-0.9,3.6-2.9C318.7,147.3,318.9,144.3,320.5,142.1z M346.8,114c0.1-1.8-1-2.5-1.9-3.4c-0.6-1.1-1.7-1.9-3.3-2.5
		c0.5,1.7,1.8,2.2,2.9,3C344.8,112.3,345.7,113.1,346.8,114z M350.4,105.7c0-0.1,0-0.2,0-0.2s-0.1-0.1-0.2-0.1
		c-0.6-1.3-1.6-2.1-3-2.4c0.4,1.4,1.4,2.3,3,2.4C350.3,105.5,350.4,105.6,350.4,105.7z M333.7,121.2c-0.3-0.4-0.6-0.8-1.1-0.4
		c-0.4,0.3-0.5,1-0.1,1.4c1.2,1.1,2.1,2.7,4.1,3.1C335.7,123.9,334.7,122.5,333.7,121.2z M336,117.3c-0.2-0.3-0.6-0.5-0.9-0.1
		c-0.1,0.2-0.2,0.6-0.1,0.7c1,1.2,1.7,2.6,3.8,2.9C338,119.2,337.1,118.2,336,117.3z M339.4,111.1c1,1.6,2,3.3,3.9,4
		C342,113.7,341.5,111.6,339.4,111.1z M322.5,139.3c0.6,1.8,1.8,2.6,3.1,3.4C324.9,141.4,324.7,139.7,322.5,139.3z M320.6,154
		c0.7-1.8,1.2-2.8,1.6-3.9C321,150.8,319.8,151.6,320.6,154z"/>
	<path class="st1" d="M314.7,159.8c-1,0.2-1-0.8-1.2-1.5c-0.2-0.7-0.4-1.4-0.5-2.1c1.2,0,1.3,1.4,2.2,1.7
		C315.1,158.5,315.6,159.5,314.7,159.8z"/>
	<path class="st1" d="M272,119.6c0,0.6,0.1,1.1,0.1,1.7C271.8,120.7,270.5,120.2,272,119.6z"/>
	<path class="st1" d="M264.1,122.3c0-0.1,0.3-0.1,0.4-0.2c0.1,0.1,0.2,0.3,0.2,0.4s-0.2,0.1-0.4,0.2
		C264.2,122.5,264,122.3,264.1,122.3z"/>
	<path class="st1" d="M278,124.9c0.8,0.6,0.6,1.5,0.6,2.3C277.8,126.6,278.1,125.8,278,124.9z"/>
	<path class="st1" d="M270.5,121.2c-0.7-0.3-0.6-1-0.6-1.6C270.5,120,270.4,120.6,270.5,121.2z"/>
	<path class="st1" d="M279.2,128.8c0.6,0.4,0.5,1.1,0.5,1.7C279,130.1,279.2,129.5,279.2,128.8z"/>
	<path class="st1" d="M278.6,127.2c0.7,0.4,0.6,1.1,0.6,1.7C278.5,128.5,278.6,127.8,278.6,127.2z"/>
	<path class="st1" d="M279.7,130.5c0.4,0.2,0.5,0.6,0.5,1.1C279.8,131.4,279.7,131,279.7,130.5z"/>
	<path class="st1" d="M267.7,119c0.1,0.2,0.3,0.4,0.5,0.6C268,119.4,267.8,119.2,267.7,119z"/>
	<path class="st1" d="M271.5,118.5c0.1,0.1,0.3,0.3,0.4,0.5C271.8,118.8,271.6,118.7,271.5,118.5z"/>
	<path class="st5" d="M337.1,155.7c2-3.7,5.2-6.2,8.7-8.2c-0.8,2.6-3.3,3.7-4.9,5.5C339.4,153.6,338.9,155.5,337.1,155.7
		L337.1,155.7z"/>
	<path class="st5" d="M350.7,143.1c0.2-1.1,0.7-2.1,1.8-1.9c0.6,0.1-0.1,0.8-0.2,1.3C351.8,142.7,351.3,142.9,350.7,143.1z"/>
	<path class="st5" d="M348.6,144.7c0.2-1.2,1.2-1.4,2.2-1.6C350.7,144.5,349.8,144.8,348.6,144.7z"/>
	<path class="st5" d="M345.9,147.4c0-1,0.5-1.6,1.6-1.6C347.4,146.9,346.9,147.4,345.9,147.4z"/>
	<path class="st5" d="M347.4,145.9c0-0.2,0-0.4,0-0.6c0.2,0,0.4,0,0.6,0C347.8,145.4,347.7,145.6,347.4,145.9z"/>
	<path class="st5" d="M348.1,145.2c0.1-0.1,0.3-0.3,0.5-0.5C348.4,144.9,348.2,145.1,348.1,145.2z"/>
	<path class="st5" d="M334.5,153.5c1.2-1.4,2.4-2.9,3.6-4.3c1.3,1.6,1.6,0.1,1.7-0.7c0.1-1-0.1-2.1-0.2-3.1c0.6-0.1,1.2-0.2,1.9,0.3
		c1,0.7,0.8,0.1,0.6-0.6c2-0.2,2.1-1.7,2.2-3.1c1.1,0.3,0.9-0.6,1.1-1.1c0.2,0,0.4-0.1,0.6-0.1c0.3,0,0.6,0.1,0.9,0.1l0,0
		c0.3,1.5-1.7,1.9-1.6,3.3c-2.8,3-5.4,6.1-8.4,9c-2.3,2.2-4.8,4.3-8.5,3c0-0.5,0-1,0-1.5c0.5,0.1,1.1,1.1,1.6-0.1c0.4,0,0.8,0,1.2,0
		C332.7,155.5,333.6,154.6,334.5,153.5z"/>
	<path class="st5" d="M325.1,155.8c-0.2-0.7-0.4-1.4-0.5-2.1c-0.1-0.7-0.3-1.7,0.8-1.7c0.9,0,0.8,0.9,0.8,1.5c0,0.9,0,1.8,0,2.7
		C325.7,156.2,325.3,156.1,325.1,155.8z"/>
	<path class="st5" d="M336,157.5c-0.5,1.3-1.2,2.1-2.9,2.6C333.9,158.5,334.4,157.6,336,157.5z"/>
	<path class="st5" d="M337.1,155.7c-0.1,0-0.2,0-0.2,0.1C336.9,155.8,337,155.7,337.1,155.7L337.1,155.7z"/>
	<path class="st2" d="M392.4,168.9c0.4-0.9,0.8-1.7,1.2-2.5c1.4-1.3,3-2.4,3.5-4.3c5.3-6,8.3-12.9,7.4-21.1
		c-0.4-3.6-2.1-5.3-5.6-6.4c-3.7-1.1-7.5-1.7-11.3-2.6c0-0.4,0.1-0.9,0.1-1.3c1,1,1.7,0.6,2.2-0.4c0.3,0,0.6,0,0.9,0
		c0.1,0.6,0.2,1.3,0.8,1.2c0.8-0.2,0.2-1.1,0.5-1.7c0.2,0.1,0.5,0.1,0.8,0.1c-0.4,1.4,0,2.5,1.6,2.6c1.9,0.2,1.2-1.5,1.3-2.3
		c0.4-2.8,0.7-5.7,1.1-8.5c0.3,0,0.6,0,0.9,0c0.2,3.2-0.4,6.2-0.9,9.3c-0.2,1.4,0.2,1.8,1.5,1.6c0.8,1.4,2.2,1.8,3.7,2
		c0.8,0.1,1.2,1.7,2.3,0.7c0.1,0.3,0.1,0.6,0.2,0.9c0.1,0.8-0.4,1.8,0.4,2.5c0.9,3.6,1.2,7.3,0.2,10.9c-0.3,1.3-0.5,2.6-0.8,3.9
		c-1.4,2.4-2.8,4.7-4.2,7.1c-2.6,3.1-4.4,6.8-7.7,9.3C392.4,169.7,392.3,169.5,392.4,168.9z"/>
	<path class="st2" d="M391.7,169.7c0.1-0.2,0.3-0.3,0.5-0.5c0.1,0.2,0.2,0.4,0.2,0.7c0.1,0,0,0,0,0
		C392.2,169.9,391.9,169.8,391.7,169.7z"/>
	<path class="st3" d="M391.4,169.8c-0.9-0.5-0.6-1.2-0.5-1.9c0.7-5.1,0.9-10.1-2.9-14.1c-4.1-4.4-8.9-8-14.7-9.9
		c-3.5-1.1-7.2-1.9-10.9-1.8c-3.8,0.2-6.7-2.5-10.4-2.1c-1,0.1-1.4-0.7-1.2-1.7c0-0.2,0-0.4,0-0.6c0.8-0.2,1.5-0.4,2.2-0.6
		c1.6,2.2,4.2,1.7,6.3,2.1c5.6,1,11.4,1,16.8,2.9c5.8,2,10.5,5.6,14.6,10.1c1.8,2,2.7,4.7,2.7,7.5c0,2.4,0,4.7,0,7.1
		c-0.4,0.9-0.8,1.7-1.2,2.5c-0.1,0.2-0.3,0.3-0.5,0.5C391.6,169.8,391.4,169.8,391.4,169.8z"/>
	<path class="st5" d="M346.8,140.8L346.8,140.8c-0.1-0.9,1.2-1.3,0.7-2.3c0.2-0.1,0.2-0.3,0-0.4c0.5,0,0.9-0.1,1.2-0.5
		c0.4,0,0.8-0.1,1.2-0.1c0.2-0.1,0.5-0.1,0.8-0.1l0.1,0.2c0,0.2,0,0.4,0,0.6C349.3,138.8,348.6,140.6,346.8,140.8z"/>
	<path class="st3" d="M411.2,32.5c-3.7-1.7-7.9-1.8-11.9-2.3c-5.9-0.7-11.9-1.1-17.8,0.3c-8.4,2-16.2,5.2-23,10.6
		c-1.4,1.7-4.4,1.6-4.8,4.4c-0.8,0-1.5,0-2.2,0l-0.1-0.1c0.2-0.6,0.3-1.1,0.5-1.7l-0.1-0.1c0.6,0.2,1.1,0,1.5-0.4
		c2.6-2.5,5.8-4.3,8.8-6.3c8.5-5.8,18-8.3,28.1-8.9c8.2-0.5,16.3,0.8,24.1,3.3c2.6,0.8,6.1,1,7,4.7
		C417.9,34.7,414.4,33.8,411.2,32.5z"/>
	<path class="st0" d="M429,40.5c7.5,4.4,11.9,11.4,15.3,19.1c-0.1,0.1-0.3,0.3-0.5,0.5c-1.5-2.4-3-4.9-4.4-7.4
		c-2.9-5.4-7.3-9.3-12.6-12.2c-0.3-0.2-0.7-0.5-1-0.7c-2.7-2.7-6.3-3.2-9.7-4.1c-3.6-1.4-7.1-3.4-11.1-3.3c-3.6-1.1-7.3-1.2-11-1.2
		c-3.7-1-7.3-0.4-10.9,0.4c-4,0-7.5,1.4-11,3.1c-3.4,1.4-7,2.4-9.9,4.9c-0.3,0.3-0.7,0.5-1,0.8c-0.7,0.3-1.4,0.7-2.1,1
		c-0.3-0.1-0.5-0.3-0.7-0.5c6.8-5.4,14.6-8.6,23-10.6c5.9-1.4,11.9-1,17.8-0.3c4,0.5,8.1,0.6,11.9,2.3c3.3,1.5,6.8,2.4,10.2,3.7
		C424.2,36.8,426.5,38.7,429,40.5z"/>
	<path class="st4" d="M248.5,71.9c0-0.1,0-0.3,0-0.5c2,0,4,0,6,0c8.8,0.1,17.6-0.4,26.3,1.8c-8.7-0.7-17.5-1.1-26.3-0.7
		C252.6,71.6,250.5,72.2,248.5,71.9z"/>
	<path class="st9" d="M244.7,72.6c-1.2,0.7-2.1,0.6-3.5,0C242.7,71.9,243.5,71.8,244.7,72.6z"/>
	<path class="st9" d="M246.8,72.4c-0.1,0-0.1-0.4-0.1-0.6c0.6-0.1,1.2-0.2,1.8-0.3c0,0.1,0,0.3,0,0.5
		C248.1,72.6,247.5,72.6,246.8,72.4z"/>
	<path class="st9" d="M239.5,73.2c-0.1,0.1-0.3,0.2-0.4,0.2c-0.1,0-0.1-0.2-0.2-0.4c0.2-0.1,0.3-0.1,0.5-0.2
		C239.5,72.9,239.5,73.1,239.5,73.2z"/>
	<path class="st0" d="M180.8,43.4c0-0.7,0.2-1.2,0.8-1.6C181.8,42.6,182.1,43.4,180.8,43.4z"/>
	<path class="st12" d="M229.1,56.8L229.1,56.8c0-0.5-0.1-0.9-0.6-1.1l0,0c-0.2-0.2-0.4-0.4-0.6-0.6l0,0c0-0.7-0.4-1-1.1-1.1l0,0
		c-0.2-0.2-0.4-0.4-0.6-0.6l0,0c-0.2-0.2-0.4-0.4-0.6-0.6l0,0c-0.2-0.5-0.6-0.6-1.1-0.6l0,0c0-0.8-0.5-1.1-1.1-1.2
		c-0.2-0.2-0.3-0.3-0.5-0.5c-0.4-0.6-0.9-1-1.7-1.1l0,0c-0.3-0.7-0.8-1-1.6-1.1l0,0c-1.2-1.3-2.6-2.3-4.4-2.7l0,0
		c-0.4-0.5-0.8-1.1-1.2-1.6c0.9-0.1,2,0.4,2.8-0.5c1.5,0.4,2.9,0.7,4.4,1.1c0.4,0.4,0.7,0.7,1.1,1.1c2.4,2.3,5.4,3.7,8.3,5.2
		c1.6,0.8,3.4,1.2,4.4,2.9c-1.4,0.1-2.3-0.9-3.5-1.3c-0.8-0.2-1.7-1.3-2.4-0.7c-0.8,0.8,0.2,1.6,0.6,2.4c0.4,0.8,0.5,1.6,0.8,2.5
		C230,56.7,229.4,56.7,229.1,56.8z"/>
	<path class="st1" d="M189.5,33.3c7.1,2.6,13.7,6.2,20.5,9.4c1.3,0.6,2.4,1.6,4,1.5c0.4,0.5,0.8,1.1,1.2,1.6
		c-0.6-0.1-1.3-0.1-1.8-0.4c-6.7-3.2-13.4-6.5-20-9.8c-1.1-0.6-2-0.9-3.1-0.6c-0.2-0.4-0.5-0.8-0.8-1.2
		C189.5,33.6,189.5,33.4,189.5,33.3z"/>
	<path class="st5" d="M215.2,45.8c1.8,0.4,3.2,1.4,4.4,2.7C217.7,48.3,216.1,47.6,215.2,45.8z"/>
	<path class="st6" d="M187.4,40.7c0.7-0.6,1.4-0.6,2.1,0C188.8,41.3,188.1,41.4,187.4,40.7z"/>
	<path class="st5" d="M219.6,48.5c0.7,0.1,1.2,0.4,1.6,1.1C220.4,49.6,219.6,49.6,219.6,48.5z"/>
	<path class="st5" d="M221.2,49.6c0.8,0,1.3,0.5,1.7,1.1C222.1,50.7,221.3,50.7,221.2,49.6z"/>
	<path class="st4" d="M226.7,54c0.7,0.1,1.1,0.4,1.1,1.1C227.1,55.1,226.7,54.7,226.7,54z"/>
	<path class="st4" d="M223.4,51.1c0.6,0.2,1.1,0.4,1.1,1.2C223.7,52.3,223.4,51.9,223.4,51.1z"/>
	<path class="st4" d="M228.3,55.6c0.5,0.2,0.6,0.6,0.6,1.1C228.4,56.5,228.3,56.1,228.3,55.6z"/>
	<path class="st4" d="M224.5,52.3c0.5,0,0.9,0.2,1.1,0.6C225.1,52.9,224.7,52.8,224.5,52.3z"/>
	<path class="st4" d="M227.7,55c0.2,0.2,0.4,0.4,0.6,0.6C228.1,55.4,228,55.2,227.7,55z"/>
	<path class="st4" d="M225.5,52.8c0.2,0.2,0.4,0.4,0.6,0.6C226,53.2,225.8,53.1,225.5,52.8z"/>
	<path class="st4" d="M226.1,53.4c0.2,0.2,0.4,0.4,0.6,0.6C226.5,53.8,226.3,53.6,226.1,53.4z"/>
	<path class="st13" d="M164.3,42.1"/>
	<path class="st2" d="M180.6,51.1L180.6,51.1c0.8,0.3,1.5,0,1.7-0.8c0.2-1,1-1.2,1.8-1.2c0.2,0,0.3,0,0.5,0c1.1,2.6,3.2,4.3,5.5,5.7
		c3.1,2,6.6,3.6,8.7,6.9c-1.8-0.6-3.6-1.1-5.4-1.7c-8-2.9-16.3-4.4-24-8.1c1.5-0.4,2.8-2.5,4.7-0.8
		C175.5,53.3,178.3,53.3,180.6,51.1z"/>
	<path class="st9" d="M178.6,45.3c3.1-0.4,5.2,0.9,7.3,2.2C183.5,47.3,181.2,46.8,178.6,45.3z"/>
	<path class="st0" d="M179.5,47.5c1.7-0.1,3.4,0.1,4.6,1.5c-0.8,0-1.5,0.2-1.8,1.2c-0.2,0.8-0.9,1.1-1.7,0.9
		C182.4,49.2,180.2,48.6,179.5,47.5z"/>
	<path class="st4" d="M292.9,105.4c-1.1,0-2.1-0.1-3.2-0.1c-0.6-0.4-1-0.9-1.2-1.6c1.6,0.4,3.3,0.7,4.9,1.1
		C293.2,105,293,105.2,292.9,105.4z"/>
	<path class="st10" d="M272.8,100.3c1.7,0.5,3.3,2.3,5.3,0.7c0.6,0.1,1.1,0.3,1.7,0.5c-0.1,1.7-1.8,3-1.1,4.9
		c-0.4,0.1-0.7,0.1-1.1,0.1c0-0.2,0-0.4,0-0.6c-0.2-1.6-1.7-2.2-2.8-2.7c-4.2-1.7-8-4.1-12.5-5c-0.1-0.9-0.6-1.5-1.6-1.5
		c-1.7,0-2.3-1.3-3.5-2.8c2.4,0.2,4,0.7,5.6,1.6C265.7,98,269.1,99.4,272.8,100.3z"/>
	<path class="st4" d="M281.3,97.1c1.2,0.5,2-0.5,2.9-1c1.5-0.7,2.7-2.7,4.9-1.6c-0.2,0.4-0.4,0.7-0.6,1.1l0,0
		c-0.7,0.5-1.4,1.2-2.1,1.7c-1.9,1.4-1.5,2.4,0.5,3.2c-0.2,0.8,0.1,1.5,0.5,2.1c-0.1,0.1-0.2,0.2-0.3,0.3c-3-2.9-6.3-5.2-10.1-6.9
		c0-0.2,0-0.3,0-0.5c1.6,0.1,1.5-1.8,2.7-2.2C278.8,95.1,279.4,96.3,281.3,97.1z"/>
	<path class="st12" d="M280.3,101c0.6,0,1-0.3,1-1c0.7,0.4,2.2,0.7,1.2,1.7c-1.5,1.5-2,3.7-3.9,4.8c-0.7-1.9,1-3.2,1.1-4.9
		C279.9,101.4,280.1,101.2,280.3,101z"/>
	<path class="st10" d="M274.2,96.7c0.5,0,1.1,0,1.6,0c1.8,1.1,3.7,2.2,5.5,3.3c0,0.7-0.4,1-1,1C278.3,99.5,275.5,99,274.2,96.7z"/>
	<path class="st4" d="M287,102.9c0.1-0.1,0.2-0.2,0.3-0.3c0.4-0.2,0.7-0.3,1.1-0.5c0,0.6,0,1.1,0,1.7
		C287.8,103.8,287.4,103.4,287,102.9z"/>
	<path class="st1" d="M275.9,95.8c0-0.3,0-0.5,0-0.8c0.4,0,0.8,0.1,1.1,0.5c0,0.2,0,0.3,0,0.5C276.6,95.9,276.3,95.8,275.9,95.8z"/>
	<path class="st1" d="M262.2,99.9c0-0.5,0-1.1,0-1.7c4.5,0.8,8.4,3.2,12.5,5c1,0.4,2.5,1.1,2.8,2.7
		C272.4,103.9,267.3,101.9,262.2,99.9z"/>
	<path class="st12" d="M317.2,140.9c0.2-4.5,1-9.1,2-13.6c1.2-5.5,4.7-9.9,7.7-14.5c2.9-4.3,5.6-8.7,7.4-13.5c0.6-1.7,0-3.6,0.8-5.3
		c-0.2-1.3,0.6-1.8,1.5-2.5c2.1-1.6,2.3-3.6,0.8-5.4c-0.1-0.9,0-1.9-1.1-2.2c-0.3-0.8-0.6-1.5-1-2.5c1.3,0.2,2.4,0.3,3.5,0.4
		c0.3,1,0.6,1.8,1.9,2.3c4.8,1.8,5.8,6.6,3,10.8c-5.4,8.1-11.2,16-16.6,24.2c-4.5,6.7-6.1,14-7.4,21.6c-0.1,0.5,0,0.9,0.4,1.2
		c-1.2,2.4-1.4,5.4-4.3,6.7C315.2,145.9,316.9,143.6,317.2,140.9z"/>
	<path class="st12" d="M290.5,55.4c-0.1-0.7-0.4-1.1-1.1-1.1c-0.1-0.1-0.3-0.3-0.5-0.5c0.1-1.3-0.8-1.7-1.7-2.2
		c-2.7-2.8-5-6.1-8.7-7.7c-0.8-1.2-2-2.1-3.3-2.7c-0.9-1.3-2.3-2.2-3.8-2.7c-0.2-0.1-0.4-0.3-0.6-0.5c-1.1-1.5-2.5-2.5-4.3-2.8
		c0-0.3-0.1-0.7-0.1-1c0.6-1.4-1-2.4-0.6-3.8c1.4-0.5,1.8,2.4,3.4,0.9c1.4,0.9,2.9,1.8,4.3,2.7c0.6,0.6,1.1,1.1,1.7,1.6
		c0,0.7,0.1,1.3,0.7,1.7c4.8,3.7,9.6,7.5,14.4,11.2c0.5,0.4,1,0.4,1.5,0l0.2,0.2c-0.4,1.5,1.3,1.8,1.7,2.8c0.1,2.8,2.5,4.2,4.1,5.9
		c2.2,2.2,4.3,4.8,7.6,5.5c0.4,0,0.7,0.2,1-0.2c0.2,0,0.4-0.1,0.6-0.1c1,1.9-0.5,1.8-1.8,1.9c3.4,0.5,6.3,1.8,9.4,2.6
		c-0.2,1.4-1.3,1-2.1,1.1c-6,0.3-10.7-2.3-14.8-6.4c-0.8-0.8-1.5-1.5-2.7-1.3C293.8,58.7,293.1,56.4,290.5,55.4z"/>
	<path class="st12" d="M343.1,52c-3.1,3.6-6.8,6.9-8.8,11.5c-1.4,3.1-1.9,6.1-1.1,9.4c0.7,2.7,1.8,5.3,2.9,7.8c-1.9-1-3.9-1.2-6-1.6
		c-0.6-4.9-0.6-9.8-0.5-14.7c0.8-1.2,2.8-1.5,2.6-3.5V61c0.2-0.2,0.4-0.4,0.6-0.6l-0.1,0.1c0.2-0.2,0.4-0.4,0.6-0.6h-0.1
		c0.8,0.2,1.2-0.2,1.1-1.1h-0.1c0.3,0,0.6,0.2,0.8-0.2c0-0.1-0.2-0.3-0.3-0.4c4.7-5.2,10.1-9.6,15.5-14.1c0.4-0.3,0.8-1.1,1.6-0.6
		c-0.2,0.6-0.3,1.1-0.5,1.7C347.8,46.6,345.2,49.4,343.1,52z"/>
	<path class="st9" d="M310.9,85.1c-0.3,0.2-0.8,0.3-1.1,0.6c-0.1,0.6,0.4,0.6,0.8,0.7l0,0c-0.1,0.7,0.1,2.1-1.2,1.1
		c-1.2-1-2.8-1.9-2.6-3.9c0.2-0.1,0.5-0.2,0.7-0.3c-0.2-0.1-0.5-0.2-0.7-0.3c-0.1-0.2-0.1-0.5-0.2-0.7c-0.5,0.4,0,0.5,0.2,0.7
		c0,0.2,0,0.4,0,0.6c-3.3-0.6-3.4-3.9-4.9-6c0.8,0,1.5,0,2.2,0c0.5,1.8,1.7,2.4,3.5,2.8c5.1,1.3,10.4,1.5,15.2,3.7
		c1.8,0.8,3.1,2.2,4.9,3.1c1.8,0.8,1.8,3.2,0.5,5.1c-4-0.1-6.1,3.2-9,5c-0.9,0.5-1.6,1.4-2.4,2.1c0-0.9-0.2-1.8,0.6-2.5
		c1.4-1.4,1.3-2.6-0.6-3.5c1.2-0.8,1.9,0,2.7,0.2c1.7,0.5,3.2-0.5,3.9-1.8c0.8-1.5-1.3-1.2-1.9-1.9c0-0.1,0-0.3,0-0.6
		c1.4,0,2.6,0.7,3.8,1.2c0.6,0.2,1.1,0.1,1.5-0.4c0.3-0.3,0.3-0.6-0.1-0.9c-2.4-1.6-4.6-3.2-7.5-4.2c-2.5-0.9-5.4-0.7-7.7-2.3
		c-0.4-0.3-0.9-1-1.4-0.4c-0.5,0.5-0.3,1.1,0.2,1.7C310.5,84.3,310.7,84.7,310.9,85.1L310.9,85.1z"/>
	<path class="st3" d="M225.5,46.4c0.4,0.8,1.2,1.1,2.1,1.1c0.4,0.6,0.9,1,1.7,1c7.8,4,15.9,7.5,24.2,10.3c0.6,0.2,1.3,0.1,1.9,0.1
		c0,0.3,0.1,0.7,0.1,1c-1.1,0-2.3,0-3.3,0.5c-0.5,0-1,0-1.5,0c-0.6-0.6-1.4-0.4-2.2-0.4c-0.6,0-1.3-0.1-2-0.1c-0.1-0.7-0.5-1-1.2-1
		c-1-0.4-2.1-0.8-3.1-1.2c-0.3-1.2-1.1-1.6-2.3-1.5l0,0c-1.2-1.3-2.7-2-4.4-2.2c-0.2-0.1-0.3-0.1-0.5-0.1c-1-1.7-2.8-2.1-4.4-2.9
		c-2.9-1.5-5.9-2.9-8.3-5.2C223.4,46,224.4,46.6,225.5,46.4z"/>
	<path class="st1" d="M333.1,91.8c2.6-1.1,4.2-2.7,4-5.7c1.4,1.8,1.2,3.8-0.8,5.4c-0.9,0.7-1.7,1.2-1.5,2.5c-2.4,0.1-5-1.5-7.2-0.4
		c-4.4,2.1-8.6,4.8-11.1,9.2c-2.3,4.1-2.2,4.2-6.3,1.7c-0.6-0.4-1.3-0.8-1.9-1.2c0.3-0.6,0.6-0.5,1-0.5c1.7,0.1,3.1,2.1,4.8,1.1
		c1.5-0.9,1.6-3,2.7-4.3c0.1-0.1,0.1-0.2,0.1-0.3c0.8-0.7,1.5-1.5,2.4-2.1c2.9-1.8,5-5.1,9-5C330,92.1,331.6,92.5,333.1,91.8z"/>
	<path class="st1" d="M301.1,77.1c-3.5-0.4-7.1-0.7-10.7-1.2c-1.9-0.3-4-0.3-5.4-2.3c5.7,0.8,11.4,1.5,17.1,2.3
		c3,1.6,6.3,1.2,9.5,1.8c3.5,0.7,7,1.9,10.7,1.4c0.7,0.1,1.1,0.4,1.1,1.1c-6.5,0.2-12.8-1.6-19.1-2.7c-0.8,0-1.5,0-2.2,0
		C301.8,77.3,301.5,77,301.1,77.1z"/>
	<path class="st4" d="M256.3,58.9c2.6,0.4,5.2,0.8,7.8,1.1c0.6,0.1,1.4,0.3,1.7-0.4c0.4-0.7-0.4-1.1-0.8-1.5c-2.5-2.7-5.3-5-8.1-7.3
		c-0.6-0.5-1.2-0.9-1.2-1.7c0.7,0.2,1.4,0.4,2.1,0.6c0.2,0.2,0.4,0.3,0.6,0.5c3.6,3.8,8.1,6.7,10.6,11.3c-4.4,1.4-8.5-0.6-12.8-0.4
		c0-0.5-0.1-0.9-0.6-1.1c0-0.3-0.1-0.7-0.1-1C255.7,58.9,256,58.9,256.3,58.9z"/>
	<path class="st3" d="M262.9,50.7c2.5,0.9,4.1,3.4,6.8,4.1c2.2,3,5.8,3.7,8.8,5.4c0.3,0.1,0.5,0.3,0.7,0.4c0,0.4,0,0.7,0,1.1
		c-0.4,0-0.7,0-1.1,0c-2-1.4-4.6-0.8-6.6-2.1c-3.4-2.2-6.5-4.9-9.3-7.8C262.2,51.3,262.3,50.9,262.9,50.7z"/>
	<path class="st12" d="M258.3,50.1c-0.2-0.2-0.4-0.3-0.6-0.5c-0.4-2.2-2-2.7-3.8-2.8l0,0c0-1.1-0.8-1.1-1.6-1.1
		c-2.4-1.8-4.8-3.6-7.2-5.4c0.1-0.6,0.1-1.1,0.1-1.7c0.5,0,1.1,0,1.6,0c1,1.8,2.7,2.5,4.4,3.3c0.5,0.9,1.3,1.1,2.2,1.1
		c0.1,0.7,0.4,1,1.1,1.1c0.4,0.2,0.7,0.4,1.1,0.6c0.3,0.5,0.7,0.6,1.1,0.6c1.5,2.4,4.5,3,6.1,5.3c-0.5,0.3-0.6,0.7-0.6,1.2
		C261,51.1,259.9,50,258.3,50.1z"/>
	<path class="st10" d="M303.8,74.7c3.4,0.4,6.9,0.5,10.2,1.2c2.8,0.6,5.8,0.3,8.3,2.1c0,0.4,0,0.7,0,1.1c-3.7,0.5-7.2-0.7-10.7-1.4
		c-3.2-0.6-6.5-0.2-9.5-1.8C302.2,74.7,303.1,74.7,303.8,74.7z"/>
	<path class="st4" d="M280.4,61.9c0.6-0.4,0-0.9-0.2-1.3c0-0.2,0-0.4,0-0.6c1.3,0.1,2.4,1.2,3.8,1.1c2.6,0.9,5.1,1.6,7.8,1.6
		c1.8,0,2.3-0.8,1.6-2.6c-0.7-1.8-2.5-2.7-2.9-4.5l0.1-0.1c2.4,0.8,3.1,3.2,4.3,5c-0.3,1.1,0.3,2,0.7,2.8c-3.7,1.8-7.6-0.6-11.3,1
		c-0.1,0.1-0.4,0-0.5-0.1c-1.5-2-3.7-1.3-5.7-1.5c-1.5-0.1-0.1-0.7-0.1-1.1c0.4,0,0.7,0,1.1,0C279.5,62.1,279.9,62.3,280.4,61.9z"/>
	<path class="st9" d="M318.5,67.6c-1.2-0.1-2.5-0.3-3.7-0.5c-3.1-0.8-6-2.1-9.4-2.6c1.3-0.1,2.7,0,1.8-1.9c0.1-0.1,0.1-0.1,0.2-0.2
		c0.2,0.1,0.5,0.3,0.7,0.4c2.7,2.5,6,3,9.4,3.2c4.2,1.1,7.9,0.2,11.2-2.5c1.1-0.9,2-2.1,3.4-2.6c0.2,2-1.8,2.3-2.6,3.5
		C326.3,67.4,322.5,68.2,318.5,67.6z"/>
	<path class="st5" d="M292.8,85.2c0,1.9-1,3.2-2.9,3.1c-2.1-0.1-4.2-0.9-5.1-2.9c-0.5-0.9,3.2-3,5.2-3
		C291.9,82.4,292.9,83.3,292.8,85.2z"/>
	<path class="st9" d="M330,79.2c2,0.3,4.1,0.6,6,1.6c1,0.1,2.1-0.2,2.6,1.1c-1.1-0.1-2.2-0.3-3.5-0.4c0.4,0.9,0.7,1.7,1,2.4
		c-0.6-0.1-1.1-0.1-1.6-0.1c0.2-0.8-0.1-1.4-0.7-1.6c-3.2-1.2-6.4-2.8-10-2c-0.1,0.1-0.3,0-0.4,0c0-0.7-0.4-1-1.1-1.1
		c0-0.4,0-0.7,0-1.1C325,77.8,327.4,78.9,330,79.2z"/>
	<path class="st10" d="M290.7,96.5c0.6-0.5,1.1-0.5,1.6,0.1c-1.5,1.6-4.1,1.9-5.4,3.8c-2-0.8-2.4-1.8-0.5-3.2
		c0.8-0.5,1.4-1.1,2.1-1.7C288.8,96.8,289.4,97.6,290.7,96.5z"/>
	<path class="st0" d="M293.6,97.1c0.2,0.6-0.4,0.9-0.8,1.2c-0.5-0.1-0.9,0-1.1,0.6c-0.2,0.3-0.4,0.6-0.6,0.9
		c-0.7,0.1-1.1,0.5-1.2,1.2c-0.1,0-0.2,0-0.3,0c-0.2,0.1-0.4,0.3-0.6,0.5l0,0c-0.1,0.1-0.3,0.3-0.5,0.5l0,0
		c-0.4,0.2-0.7,0.3-1.1,0.5c-0.4-0.6-0.6-1.3-0.5-2.1c1.3-1.9,3.9-2.1,5.4-3.8C292.8,96.7,293.5,96.4,293.6,97.1z"/>
	<path class="st10" d="M306.2,86.7c1.7,1.2,3,2.3,4.4,3.4C307.7,89.6,307,89,306.2,86.7z"/>
	<path class="st12" d="M235.4,53.9c1.7,0.3,3.2,0.9,4.4,2.2C238.2,55.8,236.2,56.1,235.4,53.9z"/>
	<path class="st9" d="M252.3,60.5c1-0.5,2.2-0.5,3.3-0.5c0.5,0.2,0.6,0.6,0.6,1.1C254.9,60.9,253.4,61.6,252.3,60.5z"/>
	<path class="st12" d="M239.8,56.2c1.2-0.1,2,0.3,2.3,1.5C241,57.7,240,57.5,239.8,56.2z"/>
	<path class="st12" d="M248.5,60c0.8,0,1.6-0.3,2.2,0.4C249.8,61.3,249,61.6,248.5,60z"/>
	<path class="st9" d="M310.9,86.2c0-0.3-0.1-0.7,0-1.1l0,0c0.5,0.1,1.2,0.1,1.2,0.7C312.1,86.5,311.3,86.1,310.9,86.2L310.9,86.2z"
		/>
	<path class="st10" d="M289.7,95.1c-0.2,0.5-0.8,0.3-1.3,0.4c0.2-0.4,0.4-0.7,0.6-1.1C289.4,94.5,290,94.5,289.7,95.1z"/>
	<path class="st12" d="M245.3,58.9c0.7,0,1,0.4,1.2,1C245.7,60,245.3,59.7,245.3,58.9z"/>
	<path class="st4" d="M290,101c0.1-0.7,0.5-1.1,1.2-1.2C291,100.4,290.6,100.8,290,101z"/>
	<path class="st4" d="M291.8,98.9c0.1-0.5,0.6-0.6,1.1-0.6C292.5,98.5,292.1,98.7,291.8,98.9z"/>
	<path class="st4" d="M289,101.5c0.2-0.1,0.4-0.3,0.6-0.5C289.4,101.2,289.2,101.4,289,101.5z"/>
	<path class="st1" d="M271,90.5c-0.2,0.3-0.4,0.5-0.6,0.7C270.6,90.9,270.8,90.7,271,90.5z"/>
	<path class="st4" d="M288.5,102.1c0.1-0.1,0.3-0.3,0.5-0.5C288.8,101.7,288.6,101.9,288.5,102.1z"/>
	<path class="st12" d="M265.1,95.5L265.1,95.5c0.3,0.7,1,0.6,1.6,0.6l0,0c0.4,0.6,1,0.5,1.6,0.6c2,1.4,4.4,2,6.7,2.8
		c1.1,0.4,2.2,0.8,3.1,1.6c-2,1.6-3.6-0.3-5.3-0.7c-3.6-1-7.1-2.4-10-4.9C263.5,95.5,264.2,95.5,265.1,95.5z"/>
	<path class="st0" d="M254.5,96.1c1.3,0,2.8-0.4,3.8,1.6c-1.8-0.1-3.1-0.3-4.3-1.1C254.2,96.4,254.4,96.3,254.5,96.1z"/>
	<path class="st2" d="M254.5,96.1c-0.2,0.2-0.3,0.3-0.5,0.5C254.2,96.4,254.4,96.3,254.5,96.1z"/>
	<path class="st1" d="M268.2,96c0-0.3,0-0.7,0-1c1.8,0.6,3.5,1.5,5.5,1.6c0.2,0,0.3,0,0.5,0c1.4,2.5,4.1,2.9,6.1,4.4
		c-0.2,0.2-0.4,0.4-0.6,0.6c-0.6-0.1-1.1-0.3-1.7-0.5c-0.9-0.8-2-1.2-3.1-1.6c-2.3-0.8-4.6-1.5-6.7-2.8
		C268.2,96.5,268.2,96.3,268.2,96z"/>
	<path class="st1" d="M266.6,89c0,0.2-0.1,0.4-0.1,0.6C266.2,89.3,266.2,89.1,266.6,89z"/>
	<path class="st4" d="M266.5,96.1c-0.6,0-1.2,0.1-1.6-0.6C265.5,95.5,266.2,95.4,266.5,96.1z"/>
	<path class="st4" d="M266.6,96c0.5,0,1.1,0,1.6,0c0,0.3,0,0.5,0,0.7C267.6,96.6,266.9,96.7,266.6,96z"/>
	<path class="st3" d="M332.7,73.1c-0.8-3.3-0.2-6.3,1.1-9.4c2-4.6,5.7-7.8,8.8-11.5c2.2-2.6,4.8-5.4,8.3-6.8l0.1,0.1
		c-1.3,2.6-3.8,4.2-5.8,6.3c-4.3,4.6-7.9,9.5-9,15.9c-1.4,2.6-1.5,5.3,0,8c0.5,0.8,1.1,1.8,2.3,0.7c4.3,1.6,7.6,4.7,11.4,7.1
		c0.2,0.2,0.5,0.5,0.8,0.7c1.4,2.2,4.2,2.9,5.3,5.4c-3.3-1.1-5.2-4.2-8.1-6.1c-2.7-1.7-4.8-4.4-8.3-4.8l0,0
		c-0.2-0.2-0.4-0.3-0.6-0.5c-0.3-0.4-0.8-0.7-1.3-0.3s-0.1,0.8,0.2,1.1c0.4,0.5,0.9,0.8,1.6,0.8c0.2,0.1,0.4,0.3,0.6,0.5
		c2.1,2.9,4.8,5.1,7.7,7.1l0,0c-0.1,1,0.9,1.6,1.2,2.4c0.7,1.7,0.7,3.1-0.7,4.5c-6.9,6.6-12.2,14.5-17.3,22.5
		c-2,3.1-3.5,6.7-5.5,9.8c-2.3,3.5-2.8,7.3-3.8,11.1c0,0.1,0.2,0.3,0.3,0.4c-0.3,1.5-1.5,2.5-2.1,3.8c-0.4-0.3-0.5-0.7-0.4-1.2
		c1.4-7.6,2.9-14.9,7.4-21.6c5.4-8.1,11.2-16,16.6-24.2c2.8-4.2,1.8-9-3-10.8c-1.3-0.5-1.6-1.3-1.9-2.3c-0.5-1.3-1.6-1-2.6-1.1
		C335,78.2,333.8,75.7,332.7,73.1z"/>
	<path class="st7" d="M349.4,95.7c-2.3,1.9-4.5,3.9-6.2,6.4c-0.5,0.8-1.1,1.5,0,2.3c-1.1,1.3-2.2,2.6-3.3,3.9
		c-5.6,6.4-9.2,14.1-13.6,21.3c-1.6,2.7-2,5.9-4.1,8.4c-0.1-0.1-0.3-0.3-0.3-0.4c1-3.8,1.6-7.6,3.8-11.1c2-3.1,3.5-6.7,5.5-9.8
		c5.1-8,10.4-15.9,17.3-22.5c1.4-1.4,1.4-2.9,0.7-4.5c-0.4-0.8-1.3-1.4-1.2-2.4C352.5,89.3,353,92.7,349.4,95.7z"/>
	<path class="st8" d="M348,87.3c-0.1-0.5,0-1.3-0.3-1.7c-2.6-1.7-4-5-7.4-5.6c-0.2-0.1-0.4-0.3-0.6-0.5c0-0.4,0-0.8,0-1.2
		c3.5,0.4,5.6,3.1,8.3,4.8c2.8,1.8,4.7,4.9,8.1,6.1H356c0.1,0.6,0.5,0.8,1.1,0.6l0,0c-0.1,1.3,0.7,1.6,1.7,1.7l0,0
		c0,0.4,0.2,0.6,0.6,0.6l0,0c0,0.7-0.1,1.4-0.1,2.1c-2.6,0.2-4.9,1.4-7,2.9c-1.8,1.1-3.9,1.7-5,3.8c-2.2,0.1-2.2,3-4.1,3.5
		c-1.1-0.8-0.5-1.5,0-2.3c1.7-2.5,3.9-4.5,6.2-6.4C353,92.7,352.5,89.2,348,87.3L348,87.3z"/>
	<path class="st3" d="M339.6,143.1c-1.2-0.5-1.5,0.6-1.6,1.6c-2.7,0-0.8-3-2.4-3.7c0.1-0.1,0.2-0.4,0.3-0.4c3.2,0.3,1.4-1,0.9-2.2
		c-0.3-0.6,0.2-2.1,0.5-2.2c3.1-0.6,2.9-3.3,3.5-5.4c0.3-1,0.8-1.3,1.6-1.5c0.8,1.3,1.7,2.1,3.3,1.7c1,0.3,1.2,1.1,1.2,2.1
		c-1.2,0.6-1.5-1.3-2.6-0.7c0.1,1,1.8,1.6,0.9,3c-1.5,2,0.4,3.5,0.6,5.3c-0.2,0-0.4,0.1-0.6,0.1c-1.1-1.3-0.9-3-1.8-4.4
		c-1,1.8,0.8,3.3,0.2,5c-1.3-1-1-2.5-1.4-4.4c-0.2,1.3-0.4,2.1-0.5,2.8c-0.4,0-0.7,0-1.1,0c-0.6,0-1.4-1.1-1.7,0
		c-0.2,0.8,0.6,1.2,1.4,1l0,0c0.1,0.5,0.4,0.6,0.8,0.6c0.2-0.3,0.4-0.2,0.6,0c0.4,1.2,0.2,2.4,0.2,3.6c0.2,0.7,0.4,1.3-0.6,0.6
		c-0.6-0.5-1.2-0.4-1.9-0.3C338.6,144.5,341.1,143.8,339.6,143.1z"/>
	<path class="st3" d="M352,119.6L352,119.6c0.2,0.7,1,0.6,1.4,1c0.1,0.2,0.1,0.4,0.2,0.6c-2.8-0.4-1.5,1.1-1,2.2c0,0.1,0,0.3,0,0.5
		c0,0.1-0.1,0.3-0.1,0.5l0,0c-0.6,0.2-1.8-0.5-1.6,1c0,0.7,0,1.4,0,2.1c-1.3,2.8,0.9,5,1.1,7.6c0,0.3-0.2,0.4-0.4,0.3
		c-1.4-2.4-1.9-5-1.9-7.8c0.1-2-1.4-2.5-2.8-3.1c-0.2-0.3-0.4-0.9-0.4-0.9c2.3-0.9,1.3-3.7,2.8-5.1C350.1,118.9,350.6,120,352,119.6
		z"/>
	<path class="st3" d="M359.5,106.5c0.3,0.3,0.6,0.5,0.9,0.7c0.4,0.8-0.1,1.8-0.5,2.1c-1.2,0.8-0.6,1.7-0.4,2.6c-0.5,0-1,0-1.5,0
		c-0.9-0.3-1.7-0.7-2.5-1c-1.1-0.4-1,0.3-0.8,1c-1,0-1.4,0.3-0.9,1.3c0.2,0.4,0.4,1.1-0.4,1.2c-0.3,0-0.7-0.5-1-0.8
		c0.5-2.2,1.6-4.1,2.8-5.9C356.8,107.8,358.3,107.6,359.5,106.5z"/>
	<path class="st4" d="M353.2,97.7c-0.3,1.4,1,1.3,1.6,1.7c0.8,0.6,1.9,0.8,1.7,2.1c0,0.7,0,1.4,0,2.1c-1.8-0.4-2.8-2.1-4.2-3.1
		c-1.3-1-1.5-0.2-1.4,0.9c-1.2-0.2-2.3-0.3-3.5-0.5c1.1-2,3.2-2.6,5-3.8C352.6,97.4,352.9,97.6,353.2,97.7z"/>
	<path class="st8" d="M356.5,115.6L356.5,115.6c-0.2,0-0.3,0-0.5,0c-0.1-0.3-0.2-0.5-0.4-0.8c0,0-0.4,0.1-0.4,0.2
		c-0.1,0.6,0.3,0.7,0.7,0.8c0.1,0.2,0.1,0.4,0.2,0.5c-0.4,0.7,2.5,2.3-0.6,2.2c-0.1-0.2-0.2-0.5-0.3,0c-0.1,0-0.2,0-0.3,0
		c-1.1-1.1-2.2-2.2-3.3-3.3c0.3-0.5,0.5-1,0.8-1.5c0.3,0.3,0.7,0.8,1,0.8c0.9-0.1,0.6-0.8,0.4-1.2c-0.4-1.1-0.1-1.3,0.9-1.3
		C356.6,112.6,356.8,114.1,356.5,115.6z"/>
	<path class="st2" d="M348.5,128.5c0.7,2.9,1.1,5.9,1.2,9c-0.4,0-0.8,0.1-1.2,0.1c-0.3-2.7,1-5.7-1.7-7.8c0-0.2,0-0.5,0-0.7
		c0.6-0.5,0.1-1,0-1.5c0.2-0.4,1.2-0.3,0.7-1.1c-0.4-0.6-0.9-0.1-1.4,0H346c0.1-0.3,0.1-0.5,0.1-0.8c0.5-0.3,0.8-0.6,0.7-1.2
		c1.5,0.6,3,1.1,2.8,3.1C347.9,126.4,348.6,128.2,348.5,128.5z"/>
	<path class="st3" d="M356,120.3c-0.2,0.4-0.8,0.1-1.2,0c-0.8-0.7-1.6-1.6-2.8-0.7l0,0c-0.6-0.8-1.1-1.5-1.7-2.3
		c0.2-0.9,0.4-1.8,1.5-2.1c1.1,1.1,2.2,2.2,3.3,3.3C355.4,119.1,356.3,119.5,356,120.3z"/>
	<path class="st7" d="M358.5,105.5c-0.5,0.1-0.9,0.2-1.4,0.3c-1.8-1.8-4.7-2.1-6.3-4.3c-0.1-1.1,0.1-1.8,1.4-0.9
		c1.4,1,2.4,2.6,4.2,3.1C357.5,103.8,358,104.6,358.5,105.5z"/>
	<path class="st7" d="M346.2,127.6c-0.2,0.8,0.5,1.1,0.9,1.6c0,0.2,0,0.5,0,0.7c-1-0.1-1.1,0.5-1.2,1.2c-1.6,0.3-2.6-0.5-3.3-1.7
		c0.1-0.7,0.6-0.7,1.1-0.6c0.2,0.4,0.4,0.6,0.7,0.1c0.3-0.1,0.7-0.3,0.4-0.7c-0.2-0.3-0.4-0.1-0.6,0.1c-0.2,0-0.3,0-0.4,0
		c0.9-0.8,0.6-2.7,2.4-2.6c-0.1,0.3-0.1,0.5-0.1,0.8h0.1c0.4-0.1,1-0.6,1.4,0c0.5,0.8-0.5,0.7-0.7,1.1
		C346.6,127.6,346,127.5,346.2,127.6z"/>
	<path class="st8" d="M328,148.4c0.8-0.4,1-1.1,0.9-1.9c1,0.5,0.4,1.4,0.5,2.1c0.3,2-0.3,4.1,0.6,6c-0.4,1.2-1,0.2-1.6,0.1
		C327.7,152.6,328,150.5,328,148.4z"/>
	<path class="st3" d="M332.2,151.8c-0.4-3,0.3-6.1-0.5-9.1c1.7,3.3,1.6,6.7,1.4,10.2C332.9,152.6,332.6,152.2,332.2,151.8z"/>
	<path class="st7" d="M339.5,148.4c-0.1,0.8-0.4,2.3-1.7,0.7c0.2-1.4,0.5-2.8,0.2-4.3c0.1-1,0.4-2.1,1.6-1.6
		c1.5,0.6-1.1,1.2-0.2,2.1C339.5,146.4,339.7,147.4,339.5,148.4z"/>
	<path class="st7" d="M332.5,122.1c-0.5-0.3-0.4-1,0.1-1.4s0.8,0,1.1,0.4c1,1.4,1.9,2.8,2.9,4.2
		C334.6,124.9,333.8,123.3,332.5,122.1z"/>
	<path class="st7" d="M335,117.8c-0.1-0.1,0-0.5,0.1-0.7c0.3-0.4,0.6-0.1,0.9,0.1c1.1,1,2,2,2.8,3.6
		C336.7,120.5,336,119.1,335,117.8z"/>
	<path class="st7" d="M339.4,111.1c2.1,0.5,2.6,2.7,3.9,4C341.4,114.3,340.4,112.7,339.4,111.1z"/>
	<path class="st0" d="M359.5,106.3v0.2c-1.3,1.1-2.7,1.3-4.3,1.2c-0.3-1.6,0.6-1.9,1.9-1.9c0.5-0.1,0.9-0.2,1.4-0.3
		C358.8,105.8,359.2,106.1,359.5,106.3z"/>
	<path class="st3" d="M322.5,139.3c2.1,0.4,2.4,2.1,3.1,3.4C324.4,141.9,323.1,141.1,322.5,139.3z"/>
	<path class="st8" d="M334.2,153.4c-0.7,1.2-1.6,2.1-3.1,1.2c0.7-0.8,1-1.7,1.1-2.7c0.3,0.3,0.6,0.7,0.9,1
		C333.4,153.5,333.9,153.5,334.2,153.4z"/>
	<path class="st0" d="M320.6,154c-0.8-2.4,0.4-3.2,1.6-3.9C321.8,151.1,321.4,152.2,320.6,154z"/>
	<path class="st7" d="M350.2,105.4c-1.6-0.2-2.6-1-3-2.4C348.6,103.4,349.6,104.1,350.2,105.4L350.2,105.4z"/>
	<path class="st3" d="M344.5,111.2c-1.1-0.7-2.4-1.3-2.9-3c1.6,0.5,2.6,1.3,3.3,2.5C344.8,110.8,344.6,111,344.5,111.2z"/>
	<path class="st3" d="M344.9,110.6c0.9,0.9,2.1,1.7,1.9,3.4c-1.1-0.9-2-1.7-2.3-2.9C344.6,111,344.8,110.8,344.9,110.6z"/>
	<path class="st8" d="M349.2,118.5c-0.6-1.1,0-1.3,0.9-1.2c0.6,0.8,1.1,1.5,1.7,2.3C350.6,120,350.1,118.9,349.2,118.5z"/>
	<path class="st5" d="M329,146.5c0.1,0.8-0.1,1.5-0.9,1.9C327.6,146.3,327.7,146.1,329,146.5z"/>
	<path class="st3" d="M344.2,128.8c-0.3,0.5-0.5,0.3-0.7-0.1c0-0.1,0.1-0.3,0.2-0.4c0.2,0,0.3,0,0.4,0
		C344.2,128.5,344.2,128.7,344.2,128.8z"/>
	<path class="st7" d="M350.2,105.4c0.1,0,0.2,0,0.2,0.1c0,0.1,0,0.1,0,0.2C350.3,105.6,350.3,105.5,350.2,105.4L350.2,105.4z"/>
	<path class="st8" d="M396.1,160.7c0.6-6.5-3.2-10.7-7.7-14.4c-6.2-5.2-13.4-7.7-21.4-8.1c-3-0.1-6-1-9-1.5
		c-0.7-0.2-1.2-0.4-1.2-1.2c10-3.2,20.3-3.5,30.6-3.1c3.7,0.9,7.6,1.4,11.3,2.6c3.5,1.1,5.2,2.8,5.6,6.4c0.9,8.2-2.1,15-7.4,21.1
		C396.2,162,396.1,161.3,396.1,160.7z"/>
	<path class="st7" d="M393.5,166.8c0-2.4,0-4.7,0-7.1c0-2.8-0.8-5.5-2.7-7.5c-4.1-4.5-8.8-8.1-14.6-10.1c-5.5-1.8-11.2-1.8-16.8-2.9
		c-2.1-0.4-4.7,0.1-6.3-2.1c0.5-0.5,1.1-1.1,1.6-1.6c0.7-0.1,1.5-0.1,2.2-0.1c0,0.8,0.5,1.1,1.2,1.2c3,0.5,6,1.3,9,1.5
		c8.1,0.4,15.2,2.9,21.4,8.1c4.5,3.7,8.3,7.9,7.7,14.4c-0.1,0.7,0,1.4,0.7,1.9C396.4,164.4,394.8,165.5,393.5,166.8z"/>
	<path class="st0" d="M354.1,134.8c1.5-0.1,0.9-1.8,1.7-2.4c0.2,0.2,0.3,0.3,0.5,0.5c0.3,0.1,0.5,0.1,0.7,0.1c1.4,1.1,1.8,0.1,2.1-1
		c0.2-0.8-0.3-1.8,0.6-2.4c0.9,0.3,1.2-0.1,0.9-0.9c-0.4-1.1-0.2-2.3-0.3-3.4c0.3,0,0.7,0,1,0c0.3,1.5,0.5,3.1,0.7,4.7
		c0.3,2.1,1.7,2.6,3.4,1.3c0.6,0,1.2,0.2,1.6-0.4c0.3-0.1,0.6-0.1,0.9-0.2c2.8,1.1,3.9,0.2,3.9-3.2c0.3-0.5,0.5-1.1,0.7-1.6
		c0.4,0,0.7,0,1.1,0c0.1,0.9,0.1,1.8,0.1,2.7c0,1-0.7,2.4,0.8,2.4c1.5,0.1,0.6-1.5,0.9-2.3c0.3,0,0.5,0,0.8,0
		c0.2,0.8-0.2,1.8,0.8,2.1c0.9,0.3,1.3-0.4,1.5-1.1c0.6,0,0.8,0.4,1,0.8c0.4,0.6,1,1,1.6,0.7c1.1-0.6-0.1-1-0.2-1.5
		c-0.1-1.3-0.1-2.5,0.5-3.7c0.9,0.5,1.1,1.2,1.1,2.2c0,1-0.1,2.3,1.6,1.9c1-0.3,1.5,1.7,2.7,0.8c0.2,0,0.5,0,0.7,0v0.1
		c0,0.4-0.1,0.9-0.1,1.3c-10.4-0.4-20.6-0.1-30.6,3.1c-0.7,0.1-1.5,0.1-2.2,0.1C354.6,135.3,354.5,135.2,354.1,134.8z"/>
	<path class="st7" d="M404.2,135.4c-1.1,1-1.5-0.6-2.3-0.7c0.4-2.2,1.3-4.4,1.2-6.8c0.7-3.7,1.4-7.3,1.1-11c0.2-0.9,0.4-1.8,0.6-2.7
		c0.3,0.2,0.7,0.3,1,0.5c0.6,0.6,0.4,1.5,0.6,2.2c0,3.3,0.1,6.6-0.7,9.8c-0.2,0-0.5,0-0.8,0c0-0.1-0.1-0.2-0.1-0.3s-0.1-0.1-0.1-0.2
		c-0.4,1.9-1.2,3.7-0.6,5.7c0,0.1,0.4,0.1,0.7,0.2c0.2,0,0.4,0.1,0.5,0.1c0.1,0.8,0.3,1.6-0.4,2.2
		C404.5,134.6,404.4,134.9,404.2,135.4z"/>
	<path class="st7" d="M392.2,123.6c-0.3-0.2-0.6-0.4-0.9-0.6c0.1-2,0.3-4,0.4-6c0.1-0.4,0.2-0.7,0.3-1.1c0.7-0.1,1.3,0,1.4,0.9
		c0,4.5,0.3,8.9-0.7,13.3c-0.2-0.1-0.5-0.1-0.8-0.1c0.1-1.3,0.7-2.5,0-3.7c-0.1-0.7-0.2-1.4,0.4-1.9"/>
	<path class="st3" d="M392.2,124.3c-0.5,0.6-0.5,1.2-0.4,1.9c-0.4,1.4-0.9,2.8-1.3,4.2c-0.3,0-0.6,0-0.9,0c0.1-0.9,0.3-1.8,0.4-2.7
		c0.7-1.5,1.1-3.2,1.3-4.9c0.3,0.2,0.6,0.4,0.9,0.6C392.2,123.7,392.3,124,392.2,124.3z"/>
	<path class="st6" d="M387.5,131.1V131c0.2-1.1,0.4-2.1,0.6-3.1c0.6-0.1,1.3-0.1,1.9-0.1c-0.1,0.9-0.3,1.8-0.4,2.7
		C389.1,131.5,388.4,131.9,387.5,131.1z"/>
	<path class="st7" d="M396.9,121.7c-0.4-1.7,0.7-3.2,0.4-4.9h0.1h0.2h0.2c0,1.6,0,3.3-0.1,4.9C397.4,121.7,397.1,121.7,396.9,121.7z
		"/>
	<path class="st3" d="M404.6,136.2c-0.1-0.3-0.1-0.6-0.2-0.9c0-0.4,0.1-0.7,0.5-0.9C405,135,405,135.7,404.6,136.2z"/>
	<path class="st5" d="M352.9,137.2c-0.7,0.1-1.5,0.3-2.2,0.5c0-0.1-0.1-0.2-0.1-0.2c0.3-0.7,1.1-1.1,0.9-2c0.3,0,0.4,0,0.4-0.3
		c1,0.8,1.1-1.3,2.1-0.6c0.2,0.2,0.3,0.3,0.5,0.5c0,0.1,0.1,0.3,0.1,0.4C354.1,136,353.5,136.6,352.9,137.2z"/>
	<path class="st8" d="M349.9,137.6c-0.1-3-0.5-6-1.2-9c0-0.3-0.7-2.1,1-0.9c0,2.7,0.5,5.4,1.9,7.8c0.2,0.9-0.7,1.3-0.9,2
		C350.4,137.5,350.1,137.5,349.9,137.6z"/>
	<path class="st3" d="M347.6,138.5c-0.5-0.1-1-0.2-0.6-0.9c0.5-0.2,0.5,0.1,0.5,0.5C347.6,138.3,347.7,138.4,347.6,138.5z"/>
	<path class="st9" d="M334.2,58.8c0.2,0.8-0.2,1.2-1.1,1.1C333.3,59.3,333.7,59,334.2,58.8z"/>
	<path class="st9" d="M334.7,58.2c0.1,0.1,0.3,0.3,0.3,0.4c-0.2,0.4-0.5,0.2-0.8,0.2C334.4,58.6,334.6,58.4,334.7,58.2z"/>
	<path class="st9" d="M333.2,59.9c-0.2,0.2-0.4,0.4-0.6,0.6C332.6,60.1,332.9,59.9,333.2,59.9z"/>
	<path class="st9" d="M332.7,60.4c-0.2,0.2-0.4,0.4-0.6,0.6C332.1,60.7,332.3,60.5,332.7,60.4z"/>
	<path class="st2" d="M353.7,45.2L353.7,45.2c-3.3,3.2-6.5,6.5-9.7,9.7c-2,2.1-3,4.7-4.4,7.1c-0.3,0.5-0.6,1.1-0.9,1.6
		c-0.6,1.7-1.2,3.3-1.8,5c-0.1-0.3-0.2-0.7-0.3-1.1c1-6.4,4.7-11.3,9-15.9c1.9-2.1,4.5-3.6,5.8-6.3
		C352.1,45.3,352.8,45.3,353.7,45.2z"/>
	<path class="st2" d="M353.6,45.4L353.6,45.4c0.4-2.8,3.4-2.7,4.8-4.4c0.3,0.1,0.5,0.3,0.7,0.5C357.5,43.1,355.5,44.2,353.6,45.4z"
		/>
	<path class="st5" d="M186.4,32.8c-7.1-3.1-14.3-5.7-21.9-7c-1.9-1.1-4.2-0.5-6.1-1.5c0-0.3,0-0.6,0-0.9c1.4,0.1,2.9,0.3,4.3,0.4
		c4.2,0.9,8.3,1.7,12.5,2.5c3.2,1.3,6.7,1.1,9.9,2c0.7,1.5,2.4,1.5,3.6,2c10.4,4.4,20.9,8.8,31.4,13.2c0.5,0.2,0.8,0.7,1.2,1.1l0,0
		c-1.5-0.4-2.9-0.7-4.4-1.1c-3.8-2-7.8-3.2-11.7-4.9c-6.3-2.7-12.6-5.6-18.9-8.3c-1.2-0.5-2.5-0.7-3.9-0.8c2,1.9,5,1.9,7.1,3.7
		c0,0.2,0,0.4,0,0.6C188.4,33.5,187.4,33.2,186.4,32.8z M180.8,29.2c0.1-0.1,0.1-0.1,0.1-0.2c-0.1,0-0.2,0.1-0.4,0.1
		C180.7,29.2,180.8,29.2,180.8,29.2z"/>
	<path class="st10" d="M213.9,44.2c-1.5,0.1-2.7-0.9-4-1.5c-6.8-3.2-13.4-6.8-20.5-9.4c-2-1.8-5-1.8-7.1-3.7
		c1.4,0.1,2.7,0.3,3.9,0.8c6.3,2.7,12.6,5.6,18.9,8.3c3.9,1.6,7.9,2.9,11.7,4.9C216,44.5,215,44,213.9,44.2z"/>
	<path class="st5" d="M221.2,44.6L221.2,44.6c1.7,0,3.2,0.6,4.4,1.7l-0.1,0.1c-1.1,0.2-2.1-0.4-3.2-0.6
		C221.9,45.4,221.6,45.1,221.2,44.6z"/>
	<path class="st0" d="M180.6,51c-2.3,2.3-5.2,2.4-6.5,0.1C176.3,52.1,178.5,51,180.6,51z"/>
	<path class="st4" d="M334.5,83.7c0.6,0.1,1.1,0.1,1.6,0.1c1.2,0.4,1.1,1.3,1.1,2.2c0.3,3-1.4,4.6-4,5.7c-1.6,0.7-3.2,0.4-4.8,0.5
		c1.3-1.9,1.3-4.2-0.5-5.1c-1.8-0.8-3.1-2.3-4.9-3.1c-4.9-2.2-10.2-2.5-15.2-3.7c-1.8-0.4-3-1-3.5-2.8c6.3,1.1,12.6,3,19.1,2.7
		c0.1,0,0.2,0,0.4,0C326.9,82.9,330.1,85.2,334.5,83.7z"/>
	<path class="st11" d="M264.4,33.2L264.4,33.2c-2.3-2.3-4.8-4.2-7.7-5.5l0,0c-1.1-1.5-2.4-2.7-4.4-2.7l0,0c-1.7-2.5-4.2-3.9-7.1-4.4
		l0,0c0-0.6-0.4-0.9-0.9-1.2c-3.2-1.7-6.5-3.4-9.8-5.1c-0.6-0.3-1.3-0.1-1.9-0.2l0,0c-1.3-2.3-4-2.2-6-3.3c2.3-1.2,4.1,0.5,5.8,1.2
		c6,2.7,12,5.5,17.7,8.8c5.4,3.1,11.1,5.6,15.9,9.7c-0.4,1.4,1.2,2.4,0.6,3.8C265.9,33.9,265.1,33.6,264.4,33.2z"/>
	<path class="st10" d="M222.9,9L222.9,9c0-0.6,0.1-1.2,0.1-1.8c1,0.3,2.1,0.7,3.1,1c4.8,1.6,9.3,4,13.9,6
		c7.9,3.5,15.3,8.2,22.8,12.4c1.8,1.1,3.6,2.3,5.4,3.4c0.5,0.4,0.9,0.9,1.3,1.3c-1.6,1.5-2.1-1.4-3.4-0.9c-4.8-4-10.6-6.6-15.9-9.7
		c-5.7-3.3-11.7-6.1-17.7-8.8c-1.7-0.8-3.6-2.4-5.8-1.2C225.4,10.3,224.3,9.2,222.9,9z"/>
	<path class="st3" d="M297.2,53.1c2.7,2.6,6.3,4.3,8.2,7.8c0.1,0.5,0.4,1,1.1,0.8v-0.1c0,0.4,0,0.8,0,1.2c-0.3,0.4-0.6,0.3-1,0.2
		c-3.4-0.7-5.5-3.3-7.6-5.5c-1.6-1.7-4-3.1-4.1-5.9C295.2,51.4,295.5,53.8,297.2,53.1z"/>
	<path class="st2" d="M290.5,48.6c-4.8-3.7-9.6-7.5-14.4-11.2c-0.6-0.5-0.8-1-0.7-1.7c5.7,4.1,11.3,8.3,16.6,12.9
		C291.5,49,291,49,290.5,48.6z"/>
	<path class="st4" d="M287.4,51.8c-1,0.1-1.7-0.2-2.2-0.9c-2.1-2.3-4.8-4.1-6.6-6.7l0.1-0.1C282.4,45.8,284.7,49,287.4,51.8
		L287.4,51.8z"/>
	<path class="st2" d="M292.2,48.8c1.2,0.8,2.3,1.7,3.4,2.5l0,0c0.5,0.6,1.1,1.1,1.6,1.7c-1.7,0.9-2-1.5-3.4-1.4
		C293.4,50.5,291.7,50.3,292.2,48.8z"/>
	<path class="st4" d="M271,38.1c-2-0.1-3.3-1.2-4.4-2.7l0.1-0.1C268.5,35.6,269.9,36.6,271,38.1L271,38.1z"/>
	<path class="st4" d="M275.4,41.4c-1.9-0.2-3.3-0.8-3.9-2.6l0.1-0.1C273.1,39.2,274.4,40,275.4,41.4L275.4,41.4z"/>
	<path class="st4" d="M278.6,44.2c-1.8,0-2.8-1-3.3-2.7l0.1-0.1c1.3,0.6,2.5,1.5,3.3,2.7L278.6,44.2z"/>
	<path class="st4" d="M266.7,35.3l-0.1,0.1c-1.2-0.2-2.1-0.9-2.2-2.2c0.7,0.4,1.5,0.7,2.2,1.1C266.6,34.6,266.7,35,266.7,35.3z"/>
	<path class="st4" d="M289.1,53.9c-1-0.4-1.7-1-1.8-2.1l0.1-0.1C288.3,52.2,289.2,52.6,289.1,53.9L289.1,53.9z"/>
	<path class="st4" d="M290.6,55.6c-0.7,0-1.1-0.4-1.1-1.1l0.1-0.1c0.7,0,1,0.5,1.1,1.1L290.6,55.6z"/>
	<path class="st9" d="M307.3,62.5c-0.1,0.1-0.1,0.1-0.2,0.2c-0.2,0.1-0.4,0.1-0.6,0.1c0-0.4,0-0.8,0-1.2
		C307,61.7,307.2,62.1,307.3,62.5z"/>
	<path class="st4" d="M271.5,38.6c-0.2-0.1-0.4-0.3-0.6-0.5l0,0C271.1,38.2,271.3,38.4,271.5,38.6L271.5,38.6z"/>
	<path class="st4" d="M289.6,54.5c-0.3-0.1-0.4-0.3-0.6-0.4l0.1-0.1C289.2,54.1,289.4,54.3,289.6,54.5L289.6,54.5z"/>
	<path class="st11" d="M310.1,85.5c0-0.2,0.5-0.3,0.8-0.4c0,0.4,0,0.7,0,1.1C310.5,86.2,309.9,86.2,310.1,85.5z"/>
	<path class="st11" d="M307,83c-0.2-0.2-0.7-0.4-0.2-0.7C306.9,82.5,306.9,82.8,307,83L307,83z"/>
	<path class="st11" d="M307,83.5c0-0.2,0-0.4,0-0.6l0,0c0.2,0.1,0.5,0.2,0.7,0.3C307.5,83.3,307.2,83.4,307,83.5L307,83.5z"/>
	<path class="st5" d="M253.6,58.9c-8.3-2.8-16.3-6.3-24.2-10.3l0,0c1.6-0.2,3,0.5,4.4,1.1c5.9,2.7,11.9,5.4,18.1,7.7
		c1.2,0.5,2.5,0.4,3.7,0.5c0.2,0.3,0.4,0.7,0.6,1c-0.2,0-0.5,0.1-0.7,0.1C254.8,58.9,254.2,59,253.6,58.9z"/>
	<path class="st5" d="M225.5,46.4c1-0.1,1.8,0.1,2.2,1l-0.1,0.1C226.7,47.5,226,47.2,225.5,46.4L225.5,46.4z"/>
	<path class="st5" d="M227.7,47.5c0.7,0,1.5,0,1.6,1.1l0,0C228.6,48.6,228,48.2,227.7,47.5L227.7,47.5z"/>
	<path class="st0" d="M252.8,53.1c-6.7-8-15.5-13-24.4-18c-4.5-2.5-8.7-5.6-13.6-7.3c-1.1-0.4-1.3-1.8-2.6-1.8
		c-0.1-0.1-0.2-0.1-0.4-0.1c-0.8-1.3-1.8-2.4-3.3-3.1c0-0.2-0.1-0.4-0.1-0.6c1.8-0.5,3.4,0.7,5.1,0.5l0,0c1,2.1,3.3,2.5,5,3.3
		c7.2,3.3,13.8,7.7,20.5,11.8c0.2,0.1,0.5,0.1,0.8,0.2l0,0c4.7,3.4,9.4,6.9,14.2,10.3c0.3,0.2,0.7,0.1,1.1,0.1l0,0
		c0.2,0.2,0.4,0.4,0.6,0.6l0,0c0,0.9,0.6,1.2,1.2,1.7c2.8,2.3,5.6,4.6,8.1,7.3c0.4,0.4,1.2,0.8,0.8,1.5c-0.3,0.7-1.1,0.5-1.7,0.4
		c-2.6-0.3-5.2-0.7-7.8-1.1c-0.2-0.3-0.4-0.7-0.6-1C255.3,56,254.2,54.6,252.8,53.1z"/>
	<path class="st11" d="M255.7,49.1L255.7,49.1c-0.2-0.2-0.4-0.4-0.6-0.6l0,0c-0.4-0.5-0.7-1.1-1.1-1.6c1.8,0.2,3.4,0.6,3.8,2.8
		C257.1,49.5,256.4,49.3,255.7,49.1z"/>
	<path class="st5" d="M256.7,45.3c4.9,2.3,9.1,5.7,13.1,9.2c0,0.1-0.1,0.1-0.2,0.2c-2.6-0.7-4.3-3.1-6.8-4.1
		C261.2,48.4,258.2,47.7,256.7,45.3L256.7,45.3z"/>
	<path class="st5" d="M279.1,60.5c-0.3-0.1-0.5-0.3-0.7-0.4c-3-1.7-6.6-2.4-8.8-5.4c0.1-0.1,0.1-0.1,0.2-0.2
		c3.5,1.8,6.9,3.7,10.4,5.5c0,0.2,0,0.4,0,0.6C279.8,60.6,279.5,60.6,279.1,60.5z"/>
	<path class="st11" d="M280.4,61.9c-0.5,0.4-1,0.2-1.3-0.3c0-0.4,0-0.7,0-1.1c0.4,0.1,0.7,0.1,1.1,0.1C280.3,61,281,61.5,280.4,61.9
		z"/>
	<path class="st10" d="M239.9,38.3L239.9,38.3c-0.6-2.4-2.9-2.9-4.6-3.9c-5.1-3.2-10.2-6.3-15.7-8.8c-0.5-0.2-1.2-0.4-1.3-1.5
		c5,1.5,9.1,4.9,14,6.4l0,0c2.4,2.4,5.4,4,8.7,4.9l0,0c0.6,1.8,2.2,2.1,3.8,2.2l0,0c0.1,0.2,0.3,0.4,0.5,0.6c0,0.1,0,0.3,0,0.5
		c-0.1,0.6-0.1,1.1-0.1,1.7C243.3,39.8,242,38,239.9,38.3z"/>
	<path class="st4" d="M252.4,45.9c0.3,0.7,0.8,1.1,1.6,1.1l0,0c0.4,0.5,0.7,1.1,1.1,1.6c-0.4,0-0.8,0.1-1.1-0.1
		c-4.7-3.4-9.5-6.9-14.2-10.3c2.2-0.2,3.5,1.7,5.4,2.2C247.6,42.2,250,44,252.4,45.9z"/>
	<path class="st5" d="M246.9,38.7c1.8,0.6,3.6,1.2,4.4,3.3l0,0C249.6,41.2,247.8,40.5,246.9,38.7L246.9,38.7z"/>
	<path class="st5" d="M251.3,42c0.9-0.1,1.7,0.1,2.2,1.1l0,0C252.5,43.1,251.7,42.9,251.3,42L251.3,42z"/>
	<path class="st5" d="M245.2,37.5c0.7,0.1,1.3,0.4,1.6,1.1l0,0c-0.5,0-1.1,0-1.6,0c0-0.1,0-0.3,0-0.5
		C245.3,38,245.3,37.8,245.2,37.5z"/>
	<path class="st11" d="M254,46.9c-0.8,0-1.3-0.4-1.6-1.1C253.2,45.8,254,45.8,254,46.9z"/>
	<path class="st5" d="M253.4,43.1c0.7,0,1.1,0.3,1.1,1.1l0,0C253.9,44.1,253.5,43.8,253.4,43.1L253.4,43.1z"/>
	<path class="st5" d="M255.6,44.7c0.5,0,0.9,0.1,1.1,0.6l0,0C256.2,45.2,255.8,45.1,255.6,44.7L255.6,44.7z"/>
	<path class="st5" d="M254.5,44.2c0.5-0.1,0.9,0,1.1,0.6l0,0C255.2,44.6,254.9,44.4,254.5,44.2C254.5,44.2,254.6,44.1,254.5,44.2z"
		/>
	<path class="st2" d="M253.6,43.1c-0.5-0.9-1.2-1.2-2.2-1.1c-0.7-2.1-2.6-2.6-4.4-3.3c-0.3-0.7-0.8-1.1-1.6-1.1
		c-0.1-0.1-0.3-0.1-0.5-0.1l0,0c-0.9-1.3-2.3-1.8-3.8-2.2l0,0c-2.5-2.3-5.3-4.1-8.7-4.9l0,0c-0.1-1.1-1-1.2-1.7-1.6
		c-8.6-4.6-17.2-9-26.5-11.9c-1.4-0.4-2.5-1.7-4.1-1.2c1.2-1.1,2.6-1.9,3-3.6c0,0,0.1-0.1,0.2-0.1c1.1-0.2,0.6,2.6,2.2,1.2
		c0.7-0.5,0.3-2,1.7-2.1c0.3,0,0.5,0.1,0.8,0.2c0,0.1,0,0.3,0,0.5c-0.1,1.2-0.2,2.4,1.4,2.3c1.5-0.1,0.2-1.5,0.7-2.2
		c0.1,0,0.3-0.1,0.4,0c1.3,0.8,3.5,1.9,4.1,0.8c1-1.9-1.7-2.7-2.6-4.1c0.5-0.9-0.4-0.3-0.6-0.5c-0.4-0.3-0.7-0.7-1.1-1
		c0.2-0.8-0.5-1.3-0.7-2.2c2.7,0.2,5,1.6,7.6,2.1c1.8,1.1,3.6,1.9,5.7,2.2l0,0c1,2,3.3,2.1,4.9,3.2c0,1.1,0.7,1.7,1.5,2.1
		c9,4.6,17,10.9,25.7,16c3.6,2.1,6.8,4.5,9.9,7.1c5.6,4.8,11.1,9.8,15.8,15.5c1.5,1.8,2.5,4,3.7,6c0.4,0.7,0.4,1.5-0.3,2
		c-1.4,0.1-2.5-1-3.8-1.1c-3.5-1.8-6.9-3.7-10.4-5.5c-4-3.5-8.2-6.9-13.1-9.3c-0.2-0.4-0.6-0.5-1.1-0.5c-0.2-0.5-0.6-0.6-1.1-0.6
		C254.5,43.4,254.1,43.1,253.6,43.1z"/>
	<path class="st0" d="M232.5,14.1L232.5,14.1c3.9,2.9,8.2,4.8,12.6,6.6l0,0c2.1,1.9,4.4,3.5,7.1,4.4l0,0c1.1,1.5,2.5,2.6,4.4,2.7
		l0,0c1.9,2.8,4.5,4.6,7.7,5.5l0,0c0.2,1.3,1,2,2.2,2.2c1.1,1.4,2.5,2.5,4.4,2.7c0.1,0.1,0.3,0.3,0.5,0.5c0.6,1.9,2.1,2.5,3.8,2.8
		c0.5,1.6,1.5,2.6,3.3,2.7c1.9,2.6,4.5,4.3,6.6,6.7c0.6,0.6,1.3,1,2.2,0.9c0.1,1,0.8,1.6,1.7,2.1c0.1,0.2,0.3,0.4,0.5,0.6
		c0.1,0.7,0.4,1.1,1.1,1.1c0.4,1.9,2.2,2.8,2.9,4.5c0.7,1.9,0.2,2.6-1.6,2.6c-2.7,0-5.3-0.8-7.8-1.6c0.7-0.6,0.7-1.3,0.3-2
		c-1.2-2-2.2-4.2-3.7-6c-4.7-5.7-10.2-10.7-15.8-15.5c-3.1-2.6-6.4-5-9.9-7.1c-8.7-5.1-16.7-11.4-25.7-16c-0.8-0.5-1.5-1.1-1.5-2.1
		C229.5,12.6,230.8,14.3,232.5,14.1z"/>
	<path class="st6" d="M333.8,82.2c0.6,0.3,0.9,0.9,0.7,1.6c-4.4,1.3-7.6-0.9-10.7-3.6C327.5,79.4,330.6,81,333.8,82.2z"/>
	<path class="st0" d="M336.6,75.6c-1.5-2.6-1.4-5.3,0-8c0.1,0.3,0.2,0.7,0.3,1.1c0.2,2.6-0.9,5.6,1.9,7.6
		C337.6,77.5,337,76.5,336.6,75.6z"/>
	<path class="st7" d="M340.3,80.2c3.4,0.7,4.8,3.9,7.4,5.6c0.3,0.2,0.2,1,0.3,1.5C345.1,85.3,342.5,83.1,340.3,80.2z"/>
	<path class="st7" d="M338.1,78.8c-0.2-0.3-0.6-0.7-0.2-1.1c0.5-0.5,0.9-0.2,1.3,0.3c0.2,0.2,0.4,0.3,0.6,0.5l0,0c0,0.4,0,0.8,0,1.2
		C339.1,79.7,338.6,79.4,338.1,78.8z"/>
	<path class="st8" d="M339.9,78.6c-0.2-0.2-0.4-0.3-0.6-0.5C339.5,78.2,339.7,78.4,339.9,78.6z"/>
	<path class="st1" d="M359.3,94.2c0,0.9,0,1.8,0.7,2.5c-1.3,1.4-2-1.8-3.4-0.4c0.7,1.4,3,1.2,3.3,3.1c-0.7-0.1-0.8,0.5-1,1
		c-0.5-0.2-1-0.4-1.6-0.6c-1.3-0.9-2.4-2.1-4.2-2c-0.2-0.2-0.5-0.5-0.7-0.7C354.5,95.6,356.7,94.5,359.3,94.2z"/>
	<path class="st2" d="M359.6,92.1c0.3,0,0.7,0.1,1,0.1c0.4,0.9-0.5,1.9,0.2,2.8c0.5,1.4,2.7,1.4,2.5,3.3v-0.1
		c-0.8-0.2-1.5-0.5-2.2-0.8c0-0.6-0.5-0.7-1-0.6c-0.7-0.7-0.7-1.6-0.7-2.5C359.4,93.6,359.5,92.9,359.6,92.1z"/>
	<path class="st3" d="M357.3,90c0.9,0.3,1.8,0.5,1.7,1.7C358,91.6,357.2,91.2,357.3,90z"/>
	<path class="st3" d="M356.3,89.4c0.7-0.5,0.9,0.1,1.1,0.6C356.8,90.2,356.4,90.1,356.3,89.4z"/>
	<path class="st3" d="M358.9,91.6c0.5,0,0.7,0.1,0.6,0.6C359.1,92.3,359,92,358.9,91.6z"/>
	<path class="st5" d="M341.3,141.4c-0.1-0.5-0.2-0.9-0.8-0.6l0,0c0.5-0.2,0.3-0.6,0.2-1c0.4,0,0.7,0,1.1,0c0,0.6,0,1.1,0,1.6
		C341.6,141.2,341.4,141.1,341.3,141.4z"/>
	<path class="st7" d="M338.9,139.9c0.3-1,1.1,0,1.7,0c0.2,0.4,0.3,0.8-0.2,1C339.6,141,338.8,140.6,338.9,139.9z"/>
	<path class="st7" d="M340.4,140.8c0.6-0.3,0.7,0.1,0.8,0.6C340.8,141.4,340.5,141.3,340.4,140.8z"/>
	<path class="st6" d="M353.5,121.1c0.9,0.1,1.2,0.7,1,1.5c-0.3,1.1-1.3,0.7-2,0.8C352,122.3,350.6,120.8,353.5,121.1z"/>
	<path class="st2" d="M350.8,125.5c0.2,0.1,0.4,0.2,0.6,0.3c0.2,0.8,1.4,1.3,0.8,2.3c-0.1,0.1-0.9-0.3-1.4-0.5
		C350.8,126.9,350.8,126.2,350.8,125.5z"/>
	<path class="st6" d="M352.4,124.5c0,0.6-0.4,1.1-1,1.3c-0.2-0.1-0.4-0.2-0.6-0.3C350.6,124,351.7,124.6,352.4,124.5z"/>
	<path class="st6" d="M352.5,124c0.2,0.1,0.4,0.2,0.6,0.3c-0.2,0.1-0.5,0.1-0.7,0.2C352.4,124.3,352.4,124.1,352.5,124z"/>
	<path class="st8" d="M358,112c0.5,0,1,0,1.5,0l0,0c-0.3,1.3,0.8,2.2,1,3.3c-0.4,0.2-0.3,0.4,0.1,0.5c0.9,0.7,0.6,2.1,1.7,2.7l0,0
		c-0.1,0.2-0.1,0.3-0.2,0.5c-0.4,0-0.7,0-1,0c-0.5,0.1-0.9,0.1-1.4,0.1c-0.1-0.3-0.1-0.5-0.2-0.7c0.1-0.1,0.1-0.2,0.2-0.3
		c0,0-0.1,0-0.2,0c-0.8-0.6-0.2-1.2,0-1.8C359,114.9,357.7,113.7,358,112z"/>
	<path class="st6" d="M359.4,106.4c0.8-0.8,1-0.1,1.3,0.5c-0.1,0.1-0.2,0.2-0.3,0.3c-0.3-0.3-0.6-0.5-0.9-0.7L359.4,106.4z"/>
	<path class="st8" d="M358.6,105.5c-0.4-0.9-0.9-1.7-2-1.8c0-0.7,0-1.4,0-2.1c0.2,0,0.5,0,0.7,0c0.9,0.1,1.2,1.6,2.4,1.1l0,0
		c-0.4,1,0.6,1.2,1.1,1.7l-0.1-0.1c0.2,0.2,0.4,0.4,0.6,0.6c1.3-0.3,0.9,1.7,2.1,1.6c-0.6,2.3-1.7,0.4-2.6,0.4
		c-0.3-0.6-0.5-1.3-1.3-0.5C359.2,106.1,358.8,105.8,358.6,105.5z"/>
	<path class="st7" d="M354.8,99.6c-0.6-0.5-1.9-0.3-1.6-1.7c1.8-0.1,2.9,1.1,4.2,2c-0.1,0.6-0.1,1.1-0.2,1.7c-0.2,0-0.5,0-0.7,0
		C356.6,100.3,355.6,100,354.8,99.6z"/>
	<path class="st6" d="M356.2,115.9c-0.4-0.1-0.8-0.2-0.7-0.8c0-0.1,0.4-0.2,0.4-0.2c0.1,0.2,0.3,0.5,0.4,0.8
		C356.3,115.7,356.2,115.8,356.2,115.9z"/>
	<path class="st6" d="M356.1,115.8l0.1-0.1c0.2,0,0.3,0,0.5,0c-0.1,0.2-0.3,0.4-0.4,0.6C356.2,116.1,356.2,116,356.1,115.8z"/>
	<path class="st6" d="M355.7,118.5h-0.2h-0.2C355.4,118,355.6,118.3,355.7,118.5z"/>
	<path class="st6" d="M346.9,129.1c-0.3-0.5-1.1-0.8-0.9-1.6c0-0.1,0.6,0.1,0.9,0.1C347,128.1,347.5,128.6,346.9,129.1z"/>
	<path class="st6" d="M346.1,126.5C346.2,126.5,346.1,126.5,346.1,126.5S346.2,126.5,346.1,126.5z"/>
	<path class="st6" d="M344.7,128.2c0.3,0.4,0,0.6-0.4,0.7c-0.1-0.2-0.1-0.4-0.2-0.6C344.3,128.1,344.5,127.9,344.7,128.2z"/>
	<path class="st3" d="M343.6,141.4c0.6-0.2,0.6,0.3,0.6,0.6C343.6,142.3,343.6,141.9,343.6,141.4z"/>
	<path class="st3" d="M345.8,136c0.8,0.1,1.1,0.4,0.6,1.1C345.8,136.9,345.6,136.6,345.8,136z"/>
	<path class="st3" d="M345.3,135.4c0.7-0.3,0.7,0.2,0.6,0.6C345.3,136.1,345.3,135.8,345.3,135.4z"/>
	<path class="st3" d="M346.3,137c0.7-0.2,0.7,0.1,0.6,0.6C346.4,137.8,346.4,137.5,346.3,137z"/>
	<path class="st3" d="M405.4,132.2c-0.2,0-0.3-0.1-0.5-0.1c0-1.8,0.1-3.6,0.1-5.4c0.2,0,0.5,0,0.8,0c0,0.4,0.1,0.7,0.1,1.1
		C405.2,129.2,405.8,130.8,405.4,132.2z"/>
	<path class="st7" d="M380.5,116.7c0.9,3.1,1.6,6.1,1,9.3c-0.7,1.2-0.6,2.4-0.5,3.7c0,0.5,1.3,0.9,0.2,1.5c-0.7,0.4-1.2-0.1-1.6-0.7
		c-0.3-0.4-0.4-0.8-1-0.8c-0.1,0-0.1-0.1,0-0.2c0.6,0.1,1.1-0.2,1.1-0.8c-0.1-2.3,0.6-4.7-0.5-7c-0.1-1-0.4-2.1-0.5-3.1
		c-0.1-1.2-0.1-2.2,1.5-2.2C380.2,116.6,380.2,116.7,380.5,116.7z"/>
	<path class="st7" d="M372.6,109.2c0-0.7,0-1.5,0-2.2c2.1,2.9,2.3,6.4,2.9,9.8c0.1,4,1.4,8,0.8,12.1c-0.3,0-0.5,0-0.8,0
		c-0.2-3.6-0.4-7.1-0.7-10.6C374.5,115.2,374.1,112,372.6,109.2L372.6,109.2z"/>
	<path class="st3" d="M353.6,133.8c1-2.5-0.2-5.4,1.6-7.7c0.1,0.5,0.6,0.5,1,0.7c-0.2,1.6-0.1,3.2,0.2,4.8c-0.1,0.4-0.1,0.7-0.2,1.1
		c-0.8,0.6-0.2,2.3-1.7,2.4c-0.2-0.2-0.4-0.4-0.5-0.5l0,0C353.9,134.3,353.7,134.1,353.6,133.8z"/>
	<path class="st3" d="M367.3,131.1c-0.1-0.1-0.1-0.1-0.2-0.2c0.4-3.8,1.2-7.5,0.7-11.4c0.4,0,0.7,0.1,1.1,0.1c0,0.5,0,1.1,0,1.6
		c-0.1,0.4-0.1,0.8,0.3,1c-0.1,3-0.2,5.9-1,8.8C367.9,131.1,367.6,131.1,367.3,131.1z"/>
	<path class="st2" d="M372.6,126.1c0-3.7,0-7.3,0-11h0.2h0.2c1.1,3.6,1,7.3,0.7,11C373.4,126.1,373,126.1,372.6,126.1z"/>
	<path class="st8" d="M386.3,126.7c0.2-1.6,0.3-3.2,0.8-4.8c0.3,0,0.5,0,0.8,0c0,0.5,0.1,1,0.1,1.5l0,0c-0.2,0.2-0.3,0.4-0.4,0.6
		c-0.8,2.2-0.8,4.6-0.8,6.9c-1.2,0.9-1.6-1.1-2.7-0.8l0.1-0.2h0.2C386.4,129.7,386.2,127.9,386.3,126.7z"/>
	<path class="st2" d="M359.8,127.8c-0.5,0.1-1.4-1.4-1.4,0.5c0,1.7,0.8,3.7-1.1,5c-0.3-0.1-0.5-0.1-0.7-0.1c0.3-0.6,0.5-1.1,0.7-1.6
		c0.7-1.3,0.3-2.7,0.4-4c0.2-1.4-0.5-2.9,0.7-4.1C359.1,124.9,360.1,126.1,359.8,127.8z"/>
	<path class="st7" d="M359.4,132.2c-0.3,1.1-0.7,2.1-2.1,1c1.9-1.3,1.1-3.3,1.1-5c0-1.8,0.9-0.4,1.4-0.5c0.1,0.7,0.2,1.4,0.3,2.1
		C359.2,130.4,359.7,131.4,359.4,132.2z"/>
	<path class="st3" d="M359.8,119.1c0.5-0.1,0.9-0.1,1.4-0.1c0.1,2.1,0.3,4.3,0.5,6.5c-0.3,0-0.7,0-1,0c-0.2-0.8,0.1-1.9-0.7-2.6
		C359.9,121.6,359.8,120.3,359.8,119.1z"/>
	<path class="st3" d="M388,123.8c0,1.3,0.1,2.7,0.1,4c-0.2,1.1-0.4,2.1-0.6,3.1c-0.2,0-0.5,0-0.7,0c0-2.3,0-4.7,0.8-6.9
		C387.8,124,387.9,123.9,388,123.8z"/>
	<path class="st3" d="M367.1,131c0.1,0.1,0.1,0.1,0.2,0.2c-0.4,0.7-1,0.5-1.6,0.4c0.3-1.4-1.7-2.7-0.1-4.1
		C366.1,128.7,365.8,130.2,367.1,131z"/>
	<path class="st6" d="M356.2,132.7c0.1-0.4,0.1-0.7,0.2-1.1c0.4,0,0.7,0,1,0c-0.3,0.6-0.5,1.1-0.7,1.6
		C356.5,133,356.4,132.8,356.2,132.7z"/>
	<path class="st8" d="M393.5,116.7c-0.1-0.9-0.7-1-1.4-0.9c-0.5-1.6-0.1-2.6,1.8-2.1c-0.1,1.1-0.1,2.1-0.1,3.1
		C393.7,116.8,393.5,116.7,393.5,116.7z"/>
	<path class="st2" d="M405.9,114.7c-0.3-0.2-0.7-0.3-1-0.5c-0.3-2.3-0.1-4.6,0.1-6.9C406.2,109.6,406.1,112.1,405.9,114.7z"/>
	<path class="st8" d="M404.2,131.9c-0.6-2,0.2-3.8,0.6-5.7c0,0,0.1,0.1,0.1,0.2c0,0.1,0.1,0.2,0.1,0.3c0,1.8-0.1,3.6-0.1,5.4
		C404.6,132,404.2,132,404.2,131.9z"/>
	<path class="st3" d="M398.9,128.2c0-3.8-0.3-7.6,0.1-11.4h0.1l0.1-0.1l0.2,0.1c0,3.7,0,7.3,0,11
		C399.3,127.9,399.1,128.1,398.9,128.2z"/>
	<path class="st8" d="M398.8,112.4c0,0.9,0,1.9,0,2.8l0,0c-0.3,0.5-0.7,1.1-1,1.6h-0.2h-0.2c0-2.3-0.6-4.6,0.4-6.8
		C399.7,110,398.5,111.6,398.8,112.4z"/>
	<path class="st8" d="M398.8,115.1L398.8,115.1c0.3,0,0.5,0,0.7,0c-0.1,0.5-0.2,1.1-0.3,1.6l-0.1,0.1H399
		C399,116.3,398.9,115.7,398.8,115.1z"/>
	<path class="st6" d="M150.9,23.6c-2.4-1.3-4.9-0.8-7.3-0.8c0,0.3,0,0.5,0,0.8C146,23.6,148.5,23.6,150.9,23.6z"/>
	<path class="st14" d="M209.6,11.3v-0.2l-0.2,0.1L209.6,11.3z"/>
	<path class="st2" d="M252,57.4c-6.1-2.3-12.1-5-18.1-7.7c-1.4-0.6-2.8-1.3-4.4-1.1c0-1.1-0.8-1.1-1.6-1.1c-0.4-1-1.3-1.1-2.2-1.1
		c-1.3-1.2-2.7-1.8-4.4-1.7c-0.4-0.4-0.7-0.9-1.2-1.1c-10.5-4.4-21-8.7-31.4-13.2c-1.3-0.5-2.9-0.5-3.6-2c0.4,0,0.7-0.1,1.1-0.2
		c3.7,0.6,7.2,1.7,11,1.5c1.4,0.4,2.7,0,4-0.3s2.3,0,3.3,0.7c0.8,1.8,2.6,2.4,4.3,2.9c2.1,0.6,3-0.6,3.4-3.6c0-1.1,0.1-2.2,0.2-3.3
		c1.3,0,1.5,1.4,2.6,1.8c4.9,1.7,9.1,4.8,13.6,7.3c8.9,5,17.7,10,24.4,18c1.2,1.4,2.3,2.8,2.7,4.6C254.4,57.8,253.2,57.8,252,57.4z"
		/>
	<path class="st2" d="M158.3,24.5c-1.7,0.2-3.3-0.1-5-0.3c-0.4-0.4-1.4,0-1.3-0.9c0.1-0.6,1-0.1,1.4-0.4c1.7,0.2,3.3,0.4,5,0.6
		C158.4,23.8,158.4,24.1,158.3,24.5z"/>
	<path class="st10" d="M180.9,29c-0.1,0.1-0.1,0.1-0.1,0.2c-0.1,0-0.2-0.1-0.3-0.1C180.7,29.1,180.8,29.1,180.9,29z"/>
	<path class="st4" d="M234.6,14.4c3.3,1.6,6.5,3.4,9.8,5.1c0.6,0.2,0.9,0.6,0.9,1.2c-4.4-1.9-8.7-3.8-12.6-6.6
		C233.3,14.1,234,14,234.6,14.4z"/>
	<path class="st4" d="M222.8,9.1c1.5,0.1,2.6,1.2,3.9,1.6c2,1.1,4.7,1,6,3.3c-1.9,0.2-3.1-1.5-4.9-1.6
		C226.1,11.3,223.8,11.2,222.8,9.1z"/>
	<path class="st4" d="M264.4,33.2c-3.2-1-5.8-2.7-7.7-5.5C259.6,29.1,262.2,30.9,264.4,33.2z"/>
	<path class="st4" d="M252.4,25c-2.7-1-5-2.6-7.1-4.4C248.2,21.2,250.6,22.5,252.4,25z"/>
	<path class="st4" d="M256.8,27.7c-2-0.1-3.3-1.2-4.4-2.7C254.4,25,255.7,26.2,256.8,27.7z"/>
	<path class="st4" d="M223,7.5c0,0.6-0.1,1.2-0.1,1.8c-2.1-0.3-4-1.1-5.7-2.2c0.3-0.3,0.5-0.5,0.8-0.8c0.9,0.2,1.8,0.4,2.7,0.6
		C221.4,7,222.3,6.6,223,7.5z"/>
	<path class="st9" d="M306.5,61.5c-0.7,0.2-0.9-0.3-1.1-0.8c0.4,0.2,0.7,0.3,1.1,0.4C306.5,61.3,306.5,61.4,306.5,61.5z"/>
	<path class="st4" d="M200,15.6c1.7-0.5,2.7,0.8,4.1,1.2c9.3,2.9,17.9,7.4,26.5,11.9c0.7,0.4,1.7,0.5,1.7,1.6c-4.9-1.5-9-4.8-14-6.4
		c0,1.1,0.8,1.3,1.3,1.5c5.5,2.5,10.6,5.6,15.7,8.8c1.7,1.1,4,1.6,4.6,3.9c-0.3-0.1-0.6-0.1-0.8-0.2c-6.7-4.2-13.3-8.5-20.5-11.8
		c-1.7-0.8-4-1.2-5-3.3c1.2,0,2.3,1.1,3.9,0.7c-1.7-1.5-3.6-1.9-5.6-2.6c0.2,1.3,1.4,1.1,1.7,1.9c-1.8,0.2-3.4-1-5.1-0.5
		c-2-1.2-3.5-3.1-5.8-3.9C201.8,17.5,200.9,16.6,200,15.6z"/>
	<path class="st6" d="M211.9,26c0.2,0,0.3,0.1,0.4,0.1"/>
	<path class="st4" d="M255,48.5c0.2,0.2,0.4,0.4,0.6,0.6C255.5,48.9,255.3,48.7,255,48.5z"/>
	<path class="st4" d="M232.2,30.5c3.3,0.8,6.2,2.5,8.7,4.9C237.6,34.5,234.6,32.9,232.2,30.5z"/>
	<path class="st4" d="M240.9,35.4c1.4,0.4,2.8,0.9,3.8,2.2C243.1,37.5,241.6,37.2,240.9,35.4z"/>
	<path class="st4" d="M245.3,38.1c-0.1-0.2-0.3-0.4-0.5-0.6c0.1,0.1,0.3,0.1,0.5,0.1C245.3,37.8,245.3,38,245.3,38.1z"/>
	<path class="st0" d="M209.6,4.9c0.2,0.9,0.9,1.4,0.7,2.2c-2.2-1.6-4.3-3.2-6.5-4.8c1.6-0.9,2.9,0.4,4.3,0.2
		c3.2,1.4,6.9,1.6,9.9,3.7c-0.3,0.3-0.5,0.5-0.8,0.8C214.6,6.5,212.3,5.1,209.6,4.9z"/>
	<path class="st0" d="M211.9,8.6c-0.2-0.1-0.4-0.3-0.6-0.5C211.5,8.3,212.4,7.7,211.9,8.6z"/>
	<path class="st8" d="M361.3,100c2.3,0.3,1.7,2.5,2.6,3.9c-1.4,0.2-2.2-1.9-3.5-0.5c-0.2-0.3-0.5-0.5-0.8-0.7l0,0
		c-0.2-0.8-0.4-1.5-0.6-2.3c0.1-0.5,0.2-1.1,1-1C360.1,100.6,360.7,100.1,361.3,100z"/>
	<path class="st7" d="M356.8,96.3c1.4-1.4,2,1.8,3.4,0.4c0.5-0.1,0.9-0.1,1,0.6c-0.3,0.9-0.6,1.7,0.1,2.5c-0.6,0.3-1.2,0.8-1.3-0.4
		C359.8,97.5,357.4,97.8,356.8,96.3z"/>
	<path class="st2" d="M357.1,101.4c0.1-0.6,0.1-1.1,0.2-1.7c0.5,0.2,1.1,0.4,1.6,0.6c0.2,0.8,0.4,1.5,0.6,2.3
		C358.3,103.1,358.1,101.7,357.1,101.4z"/>
	<path class="st6" d="M355.6,125.3c0.8,0.2,0.5,0.9,0.5,1.5c-0.4-0.1-0.8-0.2-1-0.7C355.3,125.8,355.5,125.3,355.6,125.3z"/>
	<path class="st5" d="M353.5,133.8c0.2,0.3,0.3,0.5,0.5,0.8C353.4,134.6,353.5,134.2,353.5,133.8z"/>
	<path class="st6" d="M359.5,118.1c0,0,0.1,0,0.2,0c-0.1,0.1-0.1,0.2-0.2,0.3C359.5,118.3,359.5,118.2,359.5,118.1z"/>
	<path class="st7" d="M366.6,111c0-0.8-0.5-2.2,1.1-2.3c1.2,6.4,2.9,12.6,3.4,19.1c-1.2-0.6-0.9-1.7-1.2-2.7c-0.3-1,0.4-2.2-0.7-2.9
		c-0.4-0.2-0.4-0.6-0.3-1c0.5-0.5,0.4-1.1,0-1.6c-0.4,0-0.7-0.1-1.1-0.1c-0.3-0.9,0-1.9-0.6-2.7C367,114.9,366.6,112.9,366.6,111z"
		/>
	<path class="st7" d="M360.6,115.8c0-0.1-0.1-0.3-0.1-0.5c-0.3-1.1-1.3-2-1-3.3c1.7,1.2,1.7,3.4,2.8,4.9c-0.1,0.5,0.5,1.1,0,1.6
		C361.2,117.9,361.4,116.5,360.6,115.8z"/>
	<path class="st7" d="M364.2,126.2c-0.7-2.4-1.5-4.8-2.2-7.2c0.1-0.2,0.1-0.3,0.2-0.5c2.2,2.6,2.5,5.9,3.3,9
		C364.5,127.6,364.5,126.9,364.2,126.2z"/>
	<path class="st6" d="M360.5,115.2c0,0.1,0.1,0.3,0.1,0.5C360.2,115.7,360.1,115.5,360.5,115.2z"/>
	<path class="st2" d="M359.5,102.6c0.2,0.3,0.5,0.5,0.8,0.7c0.1,0.3,0.2,0.7,0.3,1C360.2,103.8,359.2,103.6,359.5,102.6z"/>
	<path class="st2" d="M360.6,104.3c0.4-0.1,0.5,0.3,0.6,0.6C361,104.7,360.8,104.4,360.6,104.3z"/>
	<path class="st2" d="M386.5,117.3c0.3,0,0.5,0,0.8,0c-0.1,1.5-0.1,3-0.2,4.5c-0.5,1.6-0.7,3.2-0.8,4.8c-0.1,1.3,0.2,3-1.9,3.3
		C385,125.8,385.7,121.6,386.5,117.3z"/>
	<path class="st8" d="M388.5,113c-0.1,0.1-0.3,0.1-0.4,0.1s-0.3,0-0.4,0c-0.2-0.6-0.1-1.3-0.7-1.7c0-1.8,0-3.6,0-5.4
		c0.5-0.4,0.9-0.9,1.5-0.1C388.5,108.2,388.4,110.6,388.5,113z"/>
	<path class="st7" d="M387.2,117.4c-0.3,0-0.5,0-0.8,0c-0.1-2.1-0.2-4.1,0.5-6.1c0.6,0.4,0.5,1.1,0.7,1.7
		C387.4,114.4,387.3,115.9,387.2,117.4z"/>
	<path class="st3" d="M372,105.4c-0.2,0.4-0.3,0.7-0.5,1.1c0.1,0.2,0.3,0.3,0.4,0.5l0,0c0,0.8-0.1,1.6,0.6,2.2l0,0
		c0.2,2,0.3,4,0.5,6h-0.2h-0.2c-0.7-3.1-1.5-6.2-2.2-9.3c0.1-1.3-0.8-2.7,0-4.1c0.9,0.1,0.9,1.1,1.4,1.5
		C371.9,104,372,104.7,372,105.4z"/>
	<path class="st2" d="M379.2,121.8c1.1,2.3,0.5,4.7,0.5,7c0,0.6-0.5,0.9-1.1,0.8C378.8,127,379,124.3,379.2,121.8z"/>
	<path class="st6" d="M372.7,107L372.7,107c0,0.7,0,1.5,0,2.2c-0.8-0.6-0.6-1.4-0.6-2.2C372.3,107,372.5,107,372.7,107z"/>
	<path class="st6" d="M368.9,119.7c0.5,0.5,0.6,1.1,0,1.6C368.9,120.7,368.9,120.2,368.9,119.7z"/>
	<path class="st6" d="M387.9,113.1c0,2.9-0.1,5.9-0.1,8.8c-0.3,0-0.5,0-0.8,0c0.1-1.5,0.1-3,0.2-4.5c0.2-1.5,0.3-2.9,0.4-4.4
		C387.7,113,387.8,113,387.9,113.1z"/>
	<path class="st7" d="M388.4,112.9c0.1,1.3,0.1,2.6,0.2,3.9c-0.5,2.1,0.7,4.4-0.6,6.5c0-0.5-0.1-1-0.1-1.5c0-2.9,0.1-5.9,0.1-8.8
		C388.1,113,388.2,113,388.4,112.9z"/>
	<path class="st7" d="M387.5,124c0.2-0.2,0.3-0.4,0.4-0.6c0.2,0.1,0.2,0.2,0.1,0.4C387.9,123.9,387.8,124,387.5,124z"/>
	<path class="st7" d="M399.4,112.4c-0.2,0-0.4-0.1-0.6-0.1c-0.4-0.8,0.9-2.3-1.1-2.4c-0.1-1.3-0.1-2.7-0.2-4c0.2-1.3-0.1-2.7,1.1-4
		c0.2,1.3,0.3,2.7,0.4,4C399.2,108.1,399.4,110.3,399.4,112.4z"/>
	<path class="st6" d="M399.6,115.2c-0.3,0-0.5,0-0.7,0c0-0.9,0-1.9,0-2.8c0.2,0,0.4,0.1,0.6,0.1
		C400.2,113.4,400.2,114.3,399.6,115.2z"/>
	<path class="st3" d="M143.6,22.8c2.5,0,4.9-0.5,7.3,0.8c-2.5,0-4.9,0-7.3,0C143.6,23.4,143.6,23.1,143.6,22.8z"/>
	<path class="st10" d="M213.5,22.8c-0.2-0.8-1.4-0.6-1.7-1.9c2,0.8,3.9,1.1,5.6,2.6C215.8,23.9,214.7,22.8,213.5,22.8L213.5,22.8z"
		/>
	<path class="st2" d="M363.3,98.3c0.1,0,0.2,0,0.3,0.1c0,0,0,0.1,0,0.2C363.5,98.5,363.4,98.4,363.3,98.3L363.3,98.3z"/>
	<path class="st7" d="M372.7,107c-0.2,0-0.4,0-0.6,0l0,0c-0.1-0.2-0.3-0.3-0.4-0.5c0.2-0.4,0.3-0.7,0.5-1.1c0.2,0.1,0.4,0.3,0.6,0.5
		C372.7,106.3,372.7,106.6,372.7,107z"/>
	<path class="st6" d="M371.7,106.5c0.1,0.2,0.3,0.3,0.4,0.5C372,106.8,371.8,106.7,371.7,106.5z"/>
	<g class="st15">
		<image style="overflow:visible;" width="124" height="124" xlink:href="61944230.png"  transform="matrix(1 0 0 1 392 40.8)">
		</image>
	</g>
</g>
</svg>
