<?xml version="1.0" encoding="utf-8"?>
<!-- Generator: Adobe Illustrator 22.1.0, SVG Export Plug-In . SVG Version: 6.00 Build 0)  -->
<svg version="1.1" id="Laag_1" xmlns="http://www.w3.org/2000/svg" xmlns:xlink="http://www.w3.org/1999/xlink" x="0px" y="0px"
	 viewBox="0 0 566.9 455.3" style="enable-background:new 0 0 566.9 455.3;" xml:space="preserve">
<style type="text/css">
	.st0{fill:#F4F4F4;}
	.st1{fill:#515A60;}
	.st2{fill:#5E6C76;}
	.st3{fill:#FFFFFF;}
	.st4{fill:#59666F;}
	.st5{fill:#7696AF;}
	.st6{fill:#94BCCF;}
	.st7{fill:#617C99;}
</style>
<g>
	<path class="st0" d="M23.7,164.9c0.4-0.2,0.9-0.4,1.3-0.6c0.6-0.3,1.2-0.6,1.8-0.9c0.5-0.3,1-0.5,1.5-0.8c0.5-0.2,0.9-0.5,1.4-0.7
		c0.9-0.5,1.7-0.9,2.5-1.4c11.6-6.8,22.9-14,34.3-21.2c1.8-1.1,3-1.4,4.4,0.4c2,2.5,4.6,3.7,7.9,3.4c0.7-0.1,1.5,0.2,2.2,0.2
		c9.7-1,17.9,2.4,25.1,8.6c1.6,1.4,2.9,1.3,4.6,0c3.4-2.7,7-5.1,10.8-7.8c2,10.1,4,19.8,5.7,29.5c0.4,2.3,1,2.4,2.9,1.5
		c4.2-2,8.6-3.8,12.8-5.8c1.4-0.7,2.2-0.9,2.9,1c4.4,12.6,9,25.1,13.6,37.6c0.6,1.5,0.1,2-1.2,2.4c-6.4,2-12.7,3.9-19,6.1
		c-2,0.7-2.3-0.2-2.6-1.7c-1-4.5-2.1-9-3.4-14.5c-2.8,6.3-5.3,11.7-7.7,17.2c-1.3-0.3-1.4-1.4-1.9-2.3c-4-7-7.9-14-11.7-21
		c-0.9-1.7-1.9-2.2-3.9-2.3c-6.4-0.4-12.4,0.8-18,4c-1.8,1-3.3,0.9-4.8-0.4c-6.7-5.6-14.3-7.7-22.9-6.6c-2,0.2-3-0.6-4-2.3
		c-2.1-3.6-4.5-7-6.6-10.6c-0.8-1.2-1.3-1.4-2.3-0.2c-1.1,1.3-2.3,2.5-3.4,3.7c-3.5,3.8-3.5,3.8-8.2,1.9c2.4,4.2,5.8,7.6,9,11.2
		c4.5,5.1,7.3,11.7,13.4,15.4c0.4,0.3,0.6,1.1,0.7,1.7c0.3,4.6,3.1,7.7,6.3,10.3c7.2,6,14.7,11.8,22,17.7c1.7,1.4,3.9,2.1,5.1,4
		c3.7,3.8,7.7,7.1,12.9,8.8c0.7,0.2,1.2,0.7,1.6,1.4c0.9,1.5,2.1,2.9,2.7,4.5c3.6,8.9,11.4,12.3,19.6,14.8c5.1,1.5,10,3.2,14.8,5.5
		c3.9,1.9,6.1,5.4,8.4,8.9c3.3,2.6,5.4,6.2,7.9,9.5c4.5,6,9.8,11.5,13.7,17.9c1.1,1.3,2.3,2.6,3.4,4c0.5,0.3,0.6,0.7,0.6,1.2
		c0,1.9,0,3.8,0,5.7c0,1.7,0.1,3.3,0.1,5c0.5,0.7,1,1.3,1.4,2.1c2,4.6,5,7.8,10.4,8.4c2.9,0.3,4.5,3.1,6.4,5.1c4,3,7.5,6.4,9.5,11.2
		c2.1,4.8,5.3,9,6.9,14.1c2.6,3.5,5.2,7.3,5.6,11.6c0.6,5.1,3.1,8.8,6.4,12.4c4.4,5.1,8.5,10.6,12.1,16.2
		c4.3,6.1,9.5,11.4,14.8,16.6c0.2,0.2,0.4,0.4,0.6,0.7c0.4,0.8,0.9,1.6,1.3,2.4c4.2,4.4,8.6,8.6,12.4,13.4c1.5,1.5,2.8,3.6,5.5,2.9
		c-3.6-6.7-7.3-13.5-10.9-20.2c-0.1-0.3-0.2-0.5-0.4-0.8c-0.3-0.4-0.6-0.7-0.6-1.1c0-0.1,0-0.2,0-0.2c0-0.1,0-0.1,0.1-0.2
		c0,0-0.1,0.1-0.1,0.1c-0.1-0.1-0.1-0.2-0.2-0.3c0.2-0.1,0.3-0.1,0.5-0.2h0c0,0,0,0,0,0c0.2,0.5,0.4,1,0.7,1.5
		c0.2,0.2,0.4,0.5,0.6,0.7c3.5,4.1,7,8.2,10.4,12.4c1.2,1.5,2.5,1.7,4.1,1.5c1.8-0.3,1.3-2,1.4-3c0.1-2.6,1.2-3.2,3.5-2.4
		c1.4,0.4,2.8,0.6,4.9,1.1c-3.6-3.9-6.7-7.4-10-10.6c-3.1-2.9-4.9-6.3-5.7-10.4c-0.5-2.7-1.4-5.4-2.3-9c4.2,3.4,6.3,1.3,8-1.7
		c0.9-1.7,2.1-2.2,3.7-0.9c0.1,0.1,0.2,0.1,0.3,0.1c1.8,0.7,3.8,3.2,5.1,2.2c1.9-1.5,2.9-4.3,3.1-6.9c0.6-6.8,1.1-13.7,1.6-20.6
		c0.3-4,0.6-8.1,0.9-12.1c1.2-0.3,1.5,0.7,1.9,1.3c5.3,5.9,10.7,11.7,15.7,17.8c2.1,2.5,2.9,1.9,4.5-0.3c3.7-5.2,7.6-10.2,11.4-15.3
		c-5-2.6-9.2-6.1-12.4-10.7c-2.7-3.9-1.5-9.4,2.1-12.4c4.3-3.5,8.9-6.8,12-12.5c2.3,6.6,7.2,11.1,10.3,16.6c0.9-0.4,1.3-1.3,1.7-2.1
		c4.1-7.7,10.5-12.8,18.1-16.5c7.6-3.7,14.8-8,20.8-14.1c1.1-1.1,2-2.1,2.3-3.6c0.4-3.9,1.5-7.6-1.3-11.5c-2-2.7-2.6-6.5-3.5-10
		c-0.8-2.9-2.1-4.6-5.3-4.3c-0.8,0.1-1.6-0.2-2.4-0.3c1,9.4,7.2,17.6,5.5,27.7c-1.5-0.7-1.7-1.8-2.2-2.6
		c-11.7-20.4-23.2-40.9-34.3-61.7c-2-3.7-2.5-8-3.1-12c-2.9-18.2-10.2-34.9-17.1-51.7c-0.6-1.5-1.3-1.7-2.8-1.3
		c-5.5,1.5-11.1,2.7-16.7,4.2c-1.7,0.5-2.9,0.2-4.3-0.9c-7.3-5.4-14.6-10.7-22-16.1c-1.2-0.9-2.2-1.9-3-3.1c-5-7.2-9.9-14.4-15-21.6
		c-5.5-7.7-13.2-12.8-20.8-18.2c-1-0.7-2-1.5-2.7,0.7c-0.3,1.2-1.7,0.1-2.3-0.3c-6.1-4.4-11.9-9.1-15.7-15.8
		c-1.4-0.6-2.3,0.5-3.3,1.1c-1.7,1.1-3.4,2-5.4,1.8c-0.1,0.8,0.5,1.3,0.8,1.9c6.6,11,14,21.4,20.4,32.5c2.1,3.7,4.7,7,7.1,10.5
		c0.4,0,0.7,0,1.1,0c2-0.7,3.9-1,4.3,1.9c2.9,6.5,5.9,13,8.8,19.5c0.5,1.1,0.7,2.4,1.9,3.1c9.8-0.7,9.9-0.7,13.3,8.4
		c2.3,6.1,5.1,12,7.9,17.8c0.1,0.1,0.1,0.3,0.1,0.4c0.2,0.3,0.3,0.6,0.5,0.8c0.1,0.1,0.1,0.3,0.1,0.4c0.2,0.3,0.3,0.6,0.5,0.8
		c0.1,0.1,0.1,0.3,0.1,0.4c0.2,0.3,0.3,0.6,0.5,0.8c0.1,0.1,0.1,0.3,0.1,0.4c0.2,0.3,0.3,0.6,0.5,0.8c1.1,2.3,2.2,4.6,3.3,6.9
		c0.2,0.4,0.4,0.8,0.6,1.3c0.2,0.4,0.4,0.8,0.6,1.3c0.2,0.4,0.4,0.8,0.6,1.3c0.2,0.4,0.4,0.8,0.6,1.3c0.2,0.4,0.4,0.8,0.6,1.3
		c0.2,0.4,0.4,0.8,0.6,1.3c0.2,0.4,0.4,0.8,0.6,1.3c7.5,16.7,20.5,29.5,30.9,44.1c0.2,0.2,0.4,0.3,1,0.7c-0.3-3.4-0.5-6.4-0.7-9.5
		c0.2-0.1,0.4-0.2,0.6-0.3c2.7,3.6,5.1,7.3,8,10.8c2.1,2.6,3.2,5.2,2.8,8.5c-0.1,0.9-0.1,1.9,0,2.8c1.5,7.6-1.7,13.5-6.8,18.7
		c-0.4,0.6-0.9,1.2-1.3,1.9c-0.2,0.2-0.3,0.4-0.5,0.7c-0.3,0.5-0.6,1-1,1.5l0-0.1c-0.3,0.3-0.6,0.6-1,0.9c-0.3,0.2-0.7,0.4-1,0.7
		c-7.6,4.8-15.1,9.7-22.7,14.5c-0.7,0.4-1.3,0.8-2,1.3c-0.9,2.6-0.4,5.3-0.4,8c-0.1,5.9-0.1,11.8-0.2,17.6c0.2,1,0.7,2.1-0.6,2.8
		c-3.7,3.3-7.6,6.1-11.9,8.4c-3.5,1.8-5.4,1-6.2-2.7c-0.8-3.9-2.1-7.6-3.5-11.3c-0.9-2.4-0.8-4.4,0.7-6.7c2.1-3.2,2.2-7.1,1.8-10.8
		c-0.2-1.5-0.5-3.1-0.4-4.6c0.5-4.5-0.4-8.6-3.1-12.3c-0.9-1.2-0.8-2.4-0.3-3.8c0.7-1.7,1.1-3.6,1.7-5.3c0.5-0.6,1-0.4,1.5,0
		c0,0,0,0,0,0c0,0,0,0,0,0c-2.7-14.6-7.1-28.7-11.8-43c-3.4,3.3-6.4,6-5.7,11.5c1.3,10.6,1.7,21.4,2.4,32.1c0.1,0.9,0.1,1.9,0.2,2.8
		c0.4,8.4,0.4,8.5-7.7,10c-2,0.4-3.1,1.1-3.3,3.2c-0.1,1.4-0.2,2.9-1.2,4.4c-4.1-3.5-8.3-7-12.3-10.5c-1.3-1.1-0.9-2.7-1.1-4.1
		c-0.2-1.2-0.3-2.4-0.4-3.7c-4.1,1.5-4.1,1.5-5.4-2.7c-1.7-5.3-3.4-10.7-5.2-16.1c-1.3-4.1-1.3-4.1,0.9-8.6c2,3.7,3.9,7.2,5.8,10.7
		c0.2-0.1,0.4-0.1,0.5-0.2c-0.3-2.9-0.6-5.9-1-8.8c-0.5-4-0.9-8.1,0.2-12.1c1.6-5.7-0.1-11.1-1.3-16.6c-2-9.6-4.3-19.1-6-28.7
		c-1.4-8.1-4.1-15.6-7.6-23c-8.1-17-15.8-34.2-23.7-51.3c-0.4-0.9-0.9-1.9-1.7-3.5c-0.6,2.4-1.2,4-1.5,5.7c-0.3,1.3-0.9,1.7-2.1,1.5
		c-2.6-0.6-5.3-1-7.9-1.7c-2.8-0.8-5-2-5.6-5.4c-0.5-2.9-2.8-5.1-4.7-7.3c-3-3.5-6.1-6.8-9.1-10.3c-1.9,0.4-3.3-0.8-4.9-1.3
		c-9.7-1.5-19,0.5-28.3,2.7c-2.2,0.5-4.5,0.6-6.8,0.8c-2.6,0.1-4.7-0.4-6.6-2.6c-3.1-3.4-7.7-4.4-12-5.6c-1.9-0.5-3.4-1.4-4.8-2.7
		c-4.5-4-9.1-8-14-11.5c-1.8-1.3-3.4-1.6-5.5-0.7c-5.5,2.3-11,4.4-16.5,6.7c-0.9,0.4-1.9,0.7-2.8,0.9h0c-9.6,14.3-18,29.4-25,45.4
		C21.8,165.7,22.7,165.3,23.7,164.9z M346.3,298.7c4,7.4,8,14.8,12,22.1c0.9,1.7,0,3-0.8,4.7c-4-9-7.9-17.8-11.8-26.5
		C345.9,298.8,346.1,298.7,346.3,298.7z M313.8,221.3c1.3,2.1,2.5,4.2,3.8,6.3c5.7,9.5,11.2,19,17,28.3c1.9,3,2.5,6,1.6,10.1
		c-7.9-15.2-15.5-29.8-23.1-44.4C313.3,221.6,313.5,221.4,313.8,221.3z M311.4,237.7c0.2-0.1,0.4-0.2,0.6-0.3
		c3.1,6,6.2,11.9,9.3,17.9c2.7,5.3,5.4,10.6,8.2,15.8c1.3,2.4,1.7,4.6,0.6,7.6C323.8,264.8,317.6,251.2,311.4,237.7z M170.3,235.2
		c11.3,20.2,22.5,40.4,33.8,60.6c1,1.8,1.6,3.4,0.5,5.2c-0.8,1.4-0.5,2.7,0.2,4.1c4.9,10.4,9.7,20.8,14.5,31.2c2.3,5,2.2,7.3-0.6,13
		c-3.2-6.3-6.1-12.6-9.4-18.7c-7.7-14.7-15.7-29.1-24.3-43.3c-7.3-12.1-10.9-25.4-13.6-39c-1-4.8-1.8-9.6-2.7-14.5
		C169.9,233.8,170,234.6,170.3,235.2z M-58.3,204.6C-58.2,204.6-58.2,204.6-58.3,204.6L-58.3,204.6
		C-58.3,204.6-58.3,204.7-58.3,204.6z"/>
	<path class="st1" d="M279.4,435.7c0.1-2.6,1.2-3.2,3.5-2.4c1.4,0.4,2.8,0.6,4.9,1.1c-3.6-3.9-6.7-7.4-10-10.6
		c-3.1-2.9-4.9-6.3-5.7-10.4c-0.5-2.7-1.4-5.4-2.3-9c4.2,3.4,6.3,1.3,8-1.7c0.9-1.7,2.1-2.2,3.7-0.9c0.1,0.1,0.2,0.1,0.3,0.1
		c1.8,0.7,3.8,3.2,5.1,2.2c1.9-1.5,2.9-4.3,3.1-6.9c0.6-6.8,1.1-13.7,1.6-20.6c0.3-4,0.6-8.1,0.9-12.1c1.2-0.3,1.5,0.7,1.9,1.3
		c5.3,5.9,10.7,11.7,15.7,17.8c2.1,2.5,2.9,1.9,4.5-0.3c3.7-5.2,7.6-10.2,11.4-15.3c4.7-5.9,8.3-12.4,12-18.9
		c0.9-0.4,1.3-1.3,1.7-2.1c4.1-7.7,10.5-12.8,18.1-16.5c7.6-3.7,14.8-8,20.8-14.1c1.1-1.1,2-2.1,2.3-3.6c2.6,0.6,3.4-1.6,4.5-3.1
		c5.1-7.1,10.1-14.3,15-21.5c5.4-8,11.4-15.4,18.9-21.5c5.2-4.2,10.4-8.4,15-13.2c8.7-9,16.8-18.5,23.2-29.3
		c2.3-3.8,5.1-7.3,8.7-10.1c5.9-4.7,11.2-10,15.7-16c1.3-1.8,2.7-3.7,4.9-4.7c5.1-2.6,10.3-5.1,15.2-8c3.9-2.2,8.3-3.6,11.6-6.6
		c5-4.6,10.8-7.3,17.3-8.9c5.6-1.4,10.6-3.7,14.7-7.7c4.5,9.9,8.5,20,11.9,30.4c-5.6,0.2-11.1,0-16.7-1.2c-1-0.2-2-0.2-3.1,0.2
		c-10.8,3.6-20.9,8.5-29.7,15.7c-6.9,5.6-14,10.4-22.5,13.2c-1.5,0.5-2.7,1.5-3.7,2.7c-5,5.8-10,11.6-15,17.4
		c-6.2,4-11.1,9.3-14.5,15.8c-4.1,4.9-7.3,10.5-10.7,15.9c-2.6,3.9-5.9,6-10.3,6.6c-2.9,0.4-5.8-0.1-8.7-0.1c-1.1,0-2.1,0-3.2,0.8
		c-2.8,2.1-5.7,4-8.6,5.9c-1.2,0-1.8,0.9-2.4,1.7c-1.4,1.8-2.7,3.6-4.2,5.3c-5.9,6.9-10.6,14.7-15.3,22.4c-1.4,0.8-2,2.3-2.9,3.6
		c-4.9,6.7-7.4,13.9-4.6,22.1c0.5,1.4,0.2,2.6-0.7,3.7c-2.4,2-3.1,5.7-6.2,7.1c-2.4,1.1-4.8,2.5-7.3,3.4c-3.4,1.2-4.7,3.9-5.5,6.9
		c-0.6,2.3-0.7,4.7-1,7c-3,3.4-6.8,6-10.3,8.8c-4.9,3.9-8.4,8.3-7.8,14.9c0.1,4.4-1.6,7.7-5.5,10c-4.8,2.9-8.8,6.8-11.5,11.9
		c-1,0.6-1.7,1.5-2.4,2.4c-2.4,3.1-4.2,6.7-7.9,8.7c-2.5,1.3-5.2,2-7.5,3.8c-1.6,0.3-2.5,1.3-3,2.8c-0.5,1.4-0.9,3.2-2.4,3.9
		c-4.7,2.1-7.2,6.5-10.8,9.7c-3.6,1-7.2,2.6-10.8-0.3c-1.1-0.8-2.4,0.1-3.5,0.7c-1.4,0.7-2.7,1.2-3.7-0.5
		c-3.6-6.7-7.3-13.5-10.9-20.2c0.2-0.2,0.4-0.3,0.7-0.5c3.5,4.1,7,8.2,10.4,12.4c1.2,1.5,2.5,1.7,4.1,1.5
		C279.9,438.4,279.4,436.7,279.4,435.7z"/>
	<path class="st2" d="M8.1,61.9c-0.2,0-0.4,0-0.6,0C7.7,61.9,7.9,61.9,8.1,61.9C8.1,61.9,8.1,61.9,8.1,61.9z M8.3,62L8.3,62
		l-0.2-0.1C8.1,61.9,8.2,61.9,8.3,62C8.2,61.9,8.2,62,8.3,62z M65.1,113.1c2.1-0.9,3.7-0.6,5.5,0.7c4.9,3.5,9.5,7.4,14,11.5
		c1.4,1.3,2.9,2.1,4.8,2.7c4.3,1.2,8.9,2.2,12,5.6c2,2.1,4,2.7,6.6,2.6c2.3-0.1,4.6-0.3,6.8-0.8c9.3-2.1,18.7-4.1,28.3-2.7
		c0.1-0.1,0.4-0.3,0.4-0.5c2.1-8.1,9.4-11.5,14.9-16.5c4.4-4.1,9.2-7.9,13.7-11.8c0.5-0.4,1.3-0.9,0.9-1.8c-0.3-0.7-1-0.5-1.6-0.6
		c-6.1-1.1-6.1-1.1-2.7-6.3c3.6-5.4,8.4-9.8,12.6-14.7c4-4.7,8.2-9.1,12.3-13.7c0.9-1,1.7-2.1,2-3.5l0,0c-5.8,2.3-11.2,5.4-16.8,8.3
		c-1,0.5-2.2,1.9-3.4,0.9c-1-0.8-0.1-2.1,0.2-3.2c1.6-7,1.7-6.9-5.4-5.7c-5,0.9-10,1.8-15.3,2.1c13.5-12.2,26.9-24.3,40.6-36.7
		c-1.8-0.6-2.7,0.3-3.6,0.8c-10.7,5.4-21.3,10.9-32,16.3c-1.2,0.6-2.5,1.1-3.7,1.6c-0.1,0.1-0.3,0.1-0.4,0.2
		c0.1-0.1,0.3-0.2,0.4-0.3c0.4-1.7,1.7-2.6,2.8-3.7c10.8-10.1,21.7-20.1,32.5-30.2c0.3-0.3,0.4-0.6,0.6-1c-1.1-0.8-1.7,0-2.3,0.4
		c-20.4,11.3-40.8,22.6-61.2,33.9c-5.6,3.1-11.1,6.2-16.7,9.3c-0.8,0.4-1.7,1.3-2.6,0.7c-1.1-0.8-0.3-1.9-0.1-2.9
		c0.1-0.3,0.1-0.6,0.2-1c-24.7,18.9-46.3,41.8-63.8,67.6c0.9-0.2,1.9-0.5,2.8-0.9C54.1,117.5,59.7,115.4,65.1,113.1z"/>
	<path class="st3" d="M8.2,61.9L8.2,61.9l0,0.1L8.2,61.9C8.2,61.9,8.1,61.9,8.2,61.9L8.2,61.9z"/>
	<path class="st0" d="M8.1,61.9L8.1,61.9L8.3,62C8.2,62,8.2,61.9,8.1,61.9C8.2,61.9,8.1,61.9,8.1,61.9z"/>
	<path class="st2" d="M499.2,105c0.2,2.1,1,3.1,3.1,3.6c1.8,0.4,3.6,0.9,5.4,1.3c1.6,0.4,3.2,0.8,4.8,1.2c1.2,0.3,2.5,0.6,3.7,0.9
		c-5.9-8-12.1-15.7-18.8-23.1C498,94.4,498.7,99.7,499.2,105z M427.2,27.5c-2,0.5-4,0.8-6,0.7C423.1,28.2,425.1,28,427.2,27.5z
		 M227.7,129.9c0.6,0.4,1.9,1.6,2.3,0.3c0.6-2.2,1.7-1.4,2.7-0.7c7.6,5.3,15.3,10.5,20.8,18.2c5.1,7.1,10,14.4,15,21.6
		c0.8,1.2,1.8,2.3,3,3.1c7.3,5.3,14.7,10.7,22,16.1c1.4,1,2.6,1.3,4.3,0.9c5.5-1.5,11.1-2.7,16.7-4.2c1.5-0.4,2.2-0.1,2.8,1.3
		c6.9,16.8,14.2,33.5,17.1,51.7c0.6,4.1,1.1,8.3,3.1,12c11.1,20.7,22.6,41.3,34.3,61.7c0.5,0.8,0.7,1.9,2.2,2.6
		c1.7-10-4.6-18.3-5.5-27.7c0.8,0.1,1.7,0.4,2.4,0.3c3.2-0.4,4.5,1.4,5.3,4.3c0.9,3.4,1.5,7.2,3.5,10c2.8,3.9,1.7,7.6,1.3,11.5
		c2.6,0.6,3.4-1.6,4.5-3.1c5.1-7.1,10.1-14.3,15-21.5c5.4-8,11.4-15.4,18.9-21.5c5.2-4.2,10.4-8.4,15-13.2
		c8.7-9,16.8-18.5,23.2-29.3c2.3-3.8,5.1-7.3,8.7-10.1c5.9-4.7,11.2-10,15.7-16c1.3-1.8,2.7-3.7,4.9-4.7c5.1-2.6,10.3-5.1,15.2-8
		c3.9-2.2,8.3-3.6,11.6-6.6c5-4.6,10.8-7.3,17.3-8.9c5.6-1.4,10.6-3.7,14.7-7.7c-2.8-6.2-5.9-12.3-9.1-18.2c-0.4,1-0.8,2.1-1.1,3.1
		c-0.7,1.9-1.9,1.6-3.3,1.2c-11.6-3.6-23.5-6.6-34.5-12c-4.6-2.3-9.3-4.1-13.9-6.4c-2.3-1.1-4-0.8-5.4,1.2c-1.7,2.4-3.9,4.3-5.9,6.5
		c-1.3,1.4-2.5,1.6-4,0.3c-4.7-4-9.5-7.8-14.1-11.8c-1.8-1.5-2.8-1.3-3.8,0.7c-1.3,2.6-2.7,5.1-4.2,7.7c-1.6,2.8-2,2.8-3.6,0.2
		c-8.1-13.1-16.2-26.3-24.3-39.4c-4.6-7.4-9.2-14.9-13.8-22.3c-0.3,0-0.6,0.1-0.8,0.1c0,4.3-0.3,8.5,0.1,12.7
		c0.5,4.6,0.5,9.2,0.4,13.7c0,2.5,0.7,4.4,2.6,6c2.2,1.9,4.3,3.9,6.5,5.8c1.3,1.2,1.8,2.5,1.2,4.2c-1.4,3.9,0,7.4,2,10.7
		c1.4,2.4,2.5,4.9,3.1,7.8c0.8,4.4,2.6,8.6,5.3,12.2c0.7,0.9,1.6,1.8,1.9,2.9c1.1,5.4,4.6,9.2,8.2,13c3.4,3.6,4.7,8.3,6.4,12.7
		c2.1,5.4,3.8,11,5.6,16.6c0.7,2.4,1.9,4,4.1,5.2c2.4,1.2,4.7,2.7,7.1,4c1.5,0.8,2,1.7,0.7,3.1c-2.2,2.4-4.3,4.8-6.4,7.3
		c-5.1,5.8-10.1,11.6-15.2,17.4c-0.5,0.5-1.1,0.9-1.7,1.4c0.3,1.4-0.8,1.2-1.5,1.3c-5.4,0.6-10.8,1.2-15.7-2.1c-1-0.6-2-1.1-3.1-1.5
		c-18.5-6.3-30.1-21.2-42.9-34.6c-0.3-0.1-0.6-0.3-0.3-0.6c0.1-0.1,0.5,0.1,0.7,0.1c5.2,3.4,10.4,6.8,15.7,10.1
		c0.7,0.5,1.5,1.5,2.4,0.9c0.8-0.6,0.4-1.8,0.2-2.6c-1.4-7.2-3.8-14-6.1-20.9c-0.3-0.9-1-1.8-0.6-2.9c0,0,0,0,0,0c0,0-0.1,0-0.1,0
		c0,0,0.1,0,0.1-0.1c0,0,0,0,0,0.1c0,0,0,0,0,0c0,0,0,0,0,0c7.2,9.1,14.3,18.2,21.5,27.4c0.8,1,1.8,2,2.8,2.9
		c-0.1-5.6-1.3-11-4.6-15.5c-4.6-6.2-10-11.7-14.6-17.9c-5.7-7.6-7.3-16.4-6.6-25.7c0.3-4.5-1-8.7-2.4-12.8
		c-0.6-1.6-1.9-1.4-3.1-0.7c-2.4,1.3-4.7,2.7-7,4c-4,2.4-5.5,1.8-6-2.8c-1.3-11.6-2.5-23.2-3.7-34.8c-0.4-3.4-0.8-6.8-1.3-10.2
		c-0.5-3.2-3-5.2-5-7.4c-4.3-4.7-4.5-4.8,0.1-8.8c9.4-8,19.1-15.7,29.4-22.8c3.2-2.2,3.4-2.1,3.7,1.9c0.1,1.5,0.7,2.3,2.1,2.6
		c8.5,1.9,8.9,3.6,9.1-6.4c0.1-2.8,0.2-5.6,1.1-9.4c8.7,16.5,17.1,32.4,25.4,48.2h0.8c3.3-15.6,6.5-31.2,9.8-46.7
		c0.3,0,0.5,0,0.7-0.1c6.4,22.2,12.9,44.5,19.3,66.7c0.2,0.1,0.4,0.1,0.7,0.2c1.3-3.4,2.7-6.8,4-10.2c3-7.9,6.1-15.8,9-23.7
		c0.9-2.6,2-3.1,4.6-1.8c4.2,2.1,8.4,4.1,12.6,6.1c1.1,0.5,2.1,1,3.2,1.4c-20.5-21-44.2-38.9-70.3-52.8c-1.1-0.1-2.2-0.4-3.3-0.8
		c-3-1.1-5.3-0.3-7.3,1.8c-2.3,2.2-4.6,4.2-8.2,3.1c-1.3-0.4-2.3,0.6-3.2,1.6c-8.9,9.9-19.2,17.7-31.4,23.1
		c-11,4.9-21.7,10.2-32.6,15.2c-1.3,0.6-2.5,1.7-3.3-0.7c-0.5-1.7-1.9-0.6-2.9-0.2c-8.1,3.3-16.2,6.6-24.3,10
		c-2.7,1.1-5.2,2-8.1,0.8c-1.8-0.8-3.5,0.1-5.1,0.8c-13.8,6.4-27.6,12.7-41.3,19.5c-5.9,2.9-12.3,4-18.5,5.5
		c-4.6,1.1-9.1,2.1-13.6,3.7c-1.6,0.6-3.4,1.1-4.4,2.7C215.8,120.8,221.5,125.6,227.7,129.9z"/>
	<path class="st1" d="M109.4,54.1c0.1-0.3,0.1-0.6,0.2-1c26.6-20.3,56.8-36.1,89.6-46.2h0c56.6,0,113.1,0,169.7,0h0
		c17.6,5.4,34.5,12.5,50.5,21.1c-1.1-0.1-2.2-0.4-3.3-0.8c-3-1.1-5.3-0.3-7.3,1.8c-2.3,2.2-4.6,4.2-8.2,3.1
		c-1.3-0.4-2.3,0.6-3.2,1.6c-8.9,9.9-19.2,17.7-31.4,23.1c-11,4.9-21.7,10.2-32.6,15.2c-1.3,0.6-2.5,1.7-3.3-0.7
		c-0.5-1.7-1.9-0.6-2.9-0.2c-8.1,3.3-16.2,6.6-24.3,10c-2.7,1.1-5.2,2-8.1,0.8c-1.8-0.8-3.5,0.1-5.1,0.8
		c-13.8,6.4-27.6,12.7-41.3,19.5c-5.9,2.9-12.3,4-18.5,5.5c-4.6,1.1-9.1,2.1-13.6,3.7c-1.6,0.6-3.4,1.1-4.4,2.7
		c-1.4-0.6-2.3,0.5-3.3,1.1c-1.7,1.1-3.4,2-5.4,1.8c-0.3,0-0.6,0.1-0.9,0.1c-1.8-0.3-3.6-0.6-5.4-0.8c-0.9-1.4-2-1.1-3.2-0.4
		c-0.4,0-0.7,0-1.1,0c-2.9-0.4-5.5,0.3-8.1,1.6c-12,6-24,11.7-36.6,16.5c-1.9,0.4-3.3-0.8-4.9-1.3c0.1-0.1,0.4-0.3,0.4-0.5
		c2.1-8.1,9.4-11.5,14.9-16.5c4.4-4.1,9.2-7.9,13.7-11.8c0.5-0.4,1.3-0.9,0.9-1.8c-0.3-0.7-1-0.5-1.6-0.6c-6.1-1.1-6.1-1.1-2.7-6.3
		c3.6-5.4,8.4-9.8,12.6-14.7c4-4.7,8.2-9.1,12.3-13.7c0.9-1,1.7-2.1,2-3.5c0.1-0.1,0.3-0.1,0.4-0.2c-0.1,0.1-0.3,0.1-0.4,0.2
		c-5.8,2.3-11.2,5.4-16.8,8.3c-1,0.5-2.2,1.9-3.4,0.9c-1-0.8-0.1-2.1,0.2-3.2c1.6-7,1.7-6.9-5.4-5.7c-5,0.9-10,1.8-15.3,2.1
		c13.5-12.2,26.9-24.3,40.6-36.7c-1.8-0.6-2.7,0.3-3.6,0.8c-10.7,5.4-21.3,10.9-32,16.3c-1.2,0.6-2.5,1.1-3.7,1.6l0,0
		c0.4-1.7,1.7-2.6,2.8-3.7c10.8-10.1,21.7-20.1,32.5-30.2c0.3-0.3,0.4-0.6,0.6-1c-1.1-0.8-1.7,0-2.3,0.4
		c-20.4,11.3-40.8,22.6-61.2,33.9c-5.6,3.1-11.1,6.2-16.7,9.3c-0.8,0.4-1.7,1.3-2.6,0.7C108.4,56.2,109.2,55.1,109.4,54.1z"/>
	<path class="st2" d="M148.2,134c12.5-4.7,24.6-10.4,36.6-16.5c2.6-1.3,5.2-2,8.1-1.6c-1.8,2.8-3.6,5.6-5.4,8.5
		c-0.2,0.3-0.3,0.5-0.5,0.8c-0.1,0.1-0.4,0.3-0.4,0.3c0.2,0.5,0.4,0.2,0.7,0c0.2-0.1,0.5-0.3,0.7-0.4c4.8-2.6,9.7-5.3,14.5-7.9
		c0.3,0,0.6-0.1,0.8-0.1c-0.2,0.8,0.5,1.3,0.8,1.9c6.6,11,14,21.4,20.4,32.5c2.1,3.7,4.7,7,7.1,10.5c-2.3-0.2-4.9,1-6.6-1.5
		c-3.1-4.8-6.6-9.3-8.8-14.7c-1.9-4.7-4.2-9.2-6.4-14c-1.2,1.1-0.9,2.3-1,3.4c-0.4,6.2,0.7,12.3,0.6,18.4c0,1,0.5,2.3-0.7,2.8
		c-1,0.5-1.6-0.7-2.3-1.3c-2.1-1.6-4.1-3.3-6.1-4.9c-0.6-0.5-1.3-1.4-2.1-0.8c-0.9,0.6-0.3,1.5,0.1,2.3c2.2,5,4.3,9.9,6.5,14.9
		c1.1,2.5,1.5,4.8,0.9,7.5c-1,4.7-2.9,9.2-3.2,14c-0.3,4.7-0.3,5,4.2,6.1c4.8,1.1,6.7,3.8,7.3,8.6c0.6,4.7,0.7,9.7,3.2,13.9
		c5.3,9.2,11,18.2,16.6,27.2c0.3,0.5,0.5,1.5,1.7,1.2c0.6-3.1,0.5-6.4,0.2-9.5c-0.5-5.1,0.8-8.4,6.2-9.6c1.8-0.4,3.4-1.5,5.2-2.2
		c3.4-1.4,3.6-1.8,2.2-5.4c-2.8-7.5-5.7-15-8.5-22.5c-0.3-0.8-0.8-1.6-0.1-2.4c0.8-0.9,1.7-0.1,2.6,0.2c1.6,0.7,3.3,1.4,4.9,2
		c0.7,0.3,1.4,0.7,2.1,0.2c0.8-0.7,0.2-1.6-0.1-2.3c-0.7-2.4-2.6-4.3-2.4-7c9.8-0.7,9.9-0.7,13.3,8.4c2.3,6.1,5.1,11.9,7.9,17.8
		c-1.6-0.4-1.6-2.5-3.4-3.3c0.2,1.2,0.3,2,0.5,2.8c2.1,8.7,4.2,17.4,6.4,26.1c1.5,5.9,1.5,6-4.6,4.9c-2.1-0.4-2.7,0.4-2.4,2.3
		c0.3,1.9,0.6,3.7,1,5.5c1.1,4.9,0.9,5.2-4,4.3c-0.9-0.2-2.1-0.9-2.6,0.6c-1,3,1.7,8.2,4.7,8.8c2.1,0.4,3.2,1.2,3.4,3.6
		c0.3,2.8,0.4,5.6,0.4,8.4c0,4.8,0,4.8,4.8,5.4c4.1,0.5,5.2,2.3,2.7,5.3c-3.9,4.6-2.8,9.4-1.7,14.4c0.5,2.4,1.6,2.6,3.4,1.2
		c2.4-1.8,4.9-3.5,7.3-5.3c1.8-1.3,2.7-1,3.7,1.1c3.4,6.9,8.5,11.9,16.5,13.3c1.8,0.3,3.8,0.4,4.9,2.4c-7.6,4.8-15.2,9.7-22.7,14.5
		c-0.9,0-1.6,0.3-2,1.3c-0.9,2.6-0.4,5.3-0.4,8c-0.1,5.9-0.1,11.8-0.2,17.6c-0.6,0.9-0.7,1.8-0.6,2.8c-3.7,3.3-7.6,6.1-11.9,8.4
		c-3.5,1.8-5.4,1-6.2-2.7c-0.8-3.9-2.1-7.6-3.5-11.3c-0.9-2.4-0.8-4.4,0.7-6.7c2.2-3.2,2.2-7.1,1.8-10.8c-0.2-1.5-0.5-3.1-0.4-4.6
		c0.5-4.5-0.4-8.6-3.2-12.3c-0.9-1.2-0.8-2.4-0.3-3.8c0.7-1.7,1.1-3.6,1.7-5.3c0.3,0.1,0.6,0.2,0.9,0.3c0.4,1.9,0.9,3.9,1.3,5.8
		c0.4-2.2,0.1-4.2-0.7-6l0.1,0.1c-2.6-14.6-7.1-28.7-11.8-43c-3.4,3.3-6.4,6-5.7,11.6c1.3,10.6,1.7,21.4,2.5,32.1
		c0.1,0.9,0.1,1.9,0.2,2.8c0.4,8.4,0.4,8.5-7.7,10c-2,0.4-3.1,1.1-3.3,3.2c-0.1,1.4-0.2,2.9-1.2,4.4c-4.1-3.5-8.3-7-12.3-10.5
		c-1.3-1.1-0.9-2.7-1.1-4.1c-0.2-1.2-0.3-2.4-0.4-3.7c-4.1,1.5-4.1,1.5-5.4-2.7c-1.7-5.3-3.5-10.7-5.2-16.1
		c-1.3-4.2-1.3-4.2,0.9-8.6c2,3.7,3.9,7.2,5.8,10.7c0.2-0.1,0.4-0.1,0.5-0.2c-0.3-2.9-0.6-5.9-1-8.8c-0.5-4-0.9-8.1,0.2-12.1
		c1.6-5.7-0.1-11.2-1.3-16.6c-2-9.6-4.3-19.1-6-28.7c-1.4-8.1-4-15.6-7.6-23c-8.1-17-15.8-34.2-23.7-51.3c-0.4-0.9-0.9-1.8-1.7-3.5
		c-0.6,2.4-1.2,4-1.5,5.7c-0.3,1.3-0.8,1.8-2.1,1.5c-2.6-0.6-5.3-1-7.9-1.7c-2.8-0.8-5-2-5.6-5.4c-0.5-2.9-2.8-5.1-4.7-7.3
		C154.3,140.8,151.2,137.4,148.2,134z"/>
	<path class="st2" d="M11.5,190.3c2.7-8.2,5.9-16.3,9.3-24.2v0c1-0.4,1.9-0.8,2.9-1.3c0.4-0.2,0.9-0.4,1.3-0.6
		c0.6-0.3,1.2-0.6,1.8-0.9c0.5-0.3,1-0.5,1.5-0.8c0.5-0.2,0.9-0.5,1.4-0.7c0.9-0.5,1.7-0.9,2.5-1.4c11.6-6.8,22.9-14,34.3-21.2
		c1.8-1.1,3-1.4,4.4,0.4c2,2.5,4.6,3.7,7.9,3.4c0.7-0.1,1.5,0.2,2.2,0.2c9.7-1,17.9,2.4,25.1,8.6c1.6,1.4,2.9,1.3,4.6,0
		c3.4-2.7,7-5.1,10.8-7.8c2,10.1,4,19.8,5.7,29.5c0.4,2.3,1,2.4,2.9,1.5c4.2-2,8.6-3.8,12.8-5.8c1.4-0.7,2.2-0.9,2.9,1
		c4.4,12.6,9,25.1,13.6,37.6c0.6,1.5,0.1,2-1.2,2.4c-6.4,2-12.7,3.9-19,6.1c-2,0.7-2.3-0.2-2.6-1.7c-1-4.5-2.1-9-3.4-14.5
		c-2.8,6.3-5.3,11.7-7.7,17.2c-1.3-0.3-1.4-1.4-1.9-2.3c-4-7-7.9-14-11.7-21c-0.9-1.7-1.9-2.2-3.9-2.3c-6.4-0.4-12.4,0.8-18,4
		c-1.8,1-3.3,0.9-4.8-0.4c-6.7-5.6-14.3-7.7-22.9-6.6c-2,0.2-3-0.6-4-2.3c-2.1-3.6-4.5-7-6.6-10.6c-0.8-1.2-1.3-1.4-2.3-0.2
		c-1.1,1.3-2.3,2.5-3.4,3.7c-3.5,3.8-3.5,3.8-8.2,1.9c-0.5-0.1-1.1-0.2-1.6-0.3c-2.7-2.4-5-1.2-7.3,0.7c-4.7,2.4-9.7,4.4-14.1,7.3
		C13.8,189.5,12.6,190,11.5,190.3z"/>
	<path class="st2" d="M-58.3,204.6L-58.3,204.6C-58.2,204.6-58.2,204.6-58.3,204.6C-58.3,204.7-58.3,204.6-58.3,204.6z"/>
	<path class="st4" d="M310,314.7c-1.1-1.9-3.1-2.1-4.9-2.4c-8-1.3-13.1-6.3-16.5-13.3c-1-2.1-1.9-2.5-3.7-1.1
		c-2.4,1.8-4.9,3.5-7.3,5.3c-1.8,1.4-2.9,1.2-3.4-1.2c-1.1-5-2.2-9.8,1.7-14.4c2.6-3.1,1.4-4.8-2.7-5.3c-4.8-0.6-4.8-0.6-4.8-5.4
		c0-2.8-0.1-5.6-0.4-8.4c-0.3-2.4-1.4-3.2-3.4-3.6c-3-0.6-5.8-5.8-4.7-8.8c0.5-1.5,1.7-0.8,2.6-0.6c4.8,0.9,5.1,0.6,4-4.3
		c-0.4-1.8-0.7-3.7-1-5.5c-0.3-1.9,0.3-2.7,2.4-2.3c6.1,1.1,6.1,1,4.6-4.9c-2.1-8.7-4.3-17.4-6.4-26.1c-0.2-0.8-0.3-1.6-0.5-2.8
		c1.8,0.8,1.8,3,3.4,3.3c0.1,0.1,0.1,0.3,0.1,0.4c0.2,0.3,0.3,0.6,0.5,0.8c0.1,0.1,0.1,0.3,0.1,0.4c0.2,0.3,0.3,0.6,0.5,0.8
		c0.1,0.1,0.1,0.3,0.1,0.4c0.2,0.3,0.3,0.5,0.5,0.8c0.1,0.1,0.1,0.3,0.1,0.4c0.2,0.3,0.3,0.5,0.5,0.8c1.1,2.3,2.2,4.6,3.2,6.9
		c-0.5,0.8,0,1.1,0.6,1.3c0.2,0.4,0.4,0.8,0.6,1.3c-0.5,0.8,0,1.1,0.6,1.3c0.2,0.4,0.4,0.8,0.6,1.3c-0.5,0.7,0,1.1,0.6,1.3
		c0.2,0.4,0.4,0.8,0.6,1.3c-0.5,0.7,0,1.1,0.6,1.3c7.5,16.7,20.5,29.5,30.9,44.1c0.2,0.2,0.4,0.3,1,0.7c-0.3-3.4-0.5-6.4-0.8-9.5
		c0.2-0.1,0.4-0.2,0.6-0.3c2.6,3.6,5.1,7.3,8,10.8c2.1,2.6,3.2,5.2,2.8,8.5c-0.1,0.9-0.1,1.9,0,2.8c1.5,7.6-1.7,13.5-6.8,18.6
		c-0.9,0.3-1.3,0.9-1.3,1.8c-0.2,0.2-0.3,0.4-0.5,0.7c-0.7,0.2-1.1,0.7-1,1.5c0,0,0-0.1,0-0.1c-0.3,0.3-0.6,0.6-1,0.9
		C310.6,314.2,310.3,314.5,310,314.7z"/>
	<path class="st4" d="M247.7,186.6c-0.1,2.7,1.7,4.6,2.4,7c0.2,0.8,0.9,1.6,0.1,2.3c-0.6,0.5-1.4,0.1-2.1-0.2
		c-1.6-0.6-3.3-1.4-4.9-2c-0.8-0.3-1.7-1.1-2.6-0.2c-0.7,0.7-0.2,1.6,0.1,2.4c2.8,7.5,5.6,15,8.5,22.5c1.4,3.6,1.2,3.9-2.2,5.4
		c-1.7,0.7-3.4,1.8-5.2,2.2c-5.4,1.2-6.7,4.6-6.2,9.6c0.3,3.1,0.4,6.4-0.2,9.5c-1.2,0.3-1.4-0.6-1.7-1.2c-5.6-9-11.3-18-16.6-27.2
		c-2.4-4.2-2.6-9.2-3.2-13.9c-0.6-4.8-2.5-7.5-7.3-8.6c-4.5-1.1-4.5-1.4-4.2-6.1c0.3-4.8,2.2-9.3,3.2-14c0.6-2.7,0.2-5.1-0.9-7.5
		c-2.3-4.9-4.4-9.9-6.5-14.9c-0.3-0.7-0.9-1.6-0.1-2.3c0.9-0.6,1.5,0.3,2.1,0.8c2,1.6,4,3.3,6.1,4.9c0.7,0.5,1.3,1.8,2.3,1.3
		c1.1-0.5,0.6-1.9,0.7-2.8c0.1-6.1-1-12.2-0.6-18.4c0.1-1.1-0.3-2.3,1-3.4c2.2,4.8,4.5,9.3,6.4,14c2.2,5.4,5.6,10,8.8,14.7
		c1.7,2.6,4.3,1.3,6.6,1.5c0.4,0,0.7,0,1.1,0c1.4,0.6,2.9,1.3,4.3,1.9c2.9,6.5,5.9,13,8.8,19.5C246.3,184.6,246.6,185.9,247.7,186.6
		z"/>
	<path class="st2" d="M218.7,349.2c-3.2-6.3-6.1-12.6-9.3-18.7c-7.7-14.7-15.7-29.1-24.3-43.3c-7.3-12.1-10.9-25.4-13.6-39
		c-1-4.8-1.8-9.6-2.7-14.5c1.1,0,1.2,0.9,1.5,1.4c11.3,20.2,22.5,40.4,33.8,60.6c1,1.8,1.6,3.3,0.5,5.2c-0.8,1.4-0.5,2.7,0.2,4.1
		c4.9,10.4,9.7,20.8,14.5,31.2C221.6,341.2,221.5,343.5,218.7,349.2z"/>
	<path class="st2" d="M337.9,349.1c-3.7,6.5-7.3,13-12,18.9c-5-2.6-9.2-6.1-12.4-10.7c-2.7-3.9-1.5-9.4,2.2-12.4
		c4.3-3.5,8.9-6.8,12-12.5C329.9,339.1,334.8,343.5,337.9,349.1z"/>
	<path class="st2" d="M336.2,266.1c-7.9-15.2-15.5-29.8-23.1-44.4c0.2-0.1,0.5-0.3,0.7-0.4c1.3,2.1,2.5,4.2,3.8,6.3
		c5.7,9.5,11.2,19,17,28.3C336.5,259,337.1,262,336.2,266.1z"/>
	<path class="st2" d="M330.1,278.7c-6.3-13.9-12.5-27.4-18.7-41c0.2-0.1,0.4-0.2,0.6-0.3c3.1,6,6.2,11.9,9.3,17.9
		c2.7,5.3,5.4,10.6,8.2,15.8C330.8,273.4,331.2,275.7,330.1,278.7z"/>
	<path class="st2" d="M346.3,298.7c4,7.4,7.9,14.8,12,22.2c0.9,1.7,0,3-0.8,4.7c-4-9-7.9-17.8-11.8-26.5
		C345.9,298.8,346.1,298.7,346.3,298.7z"/>
	<path class="st2" d="M237,164c-1.4-0.6-2.9-1.3-4.3-1.9C234.7,161.3,236.6,161,237,164z"/>
	<path class="st4" d="M284.1,358.9c-0.1-1,0-2,0.6-2.8C284.9,357.1,285.4,358.2,284.1,358.9z"/>
	<path class="st5" d="M180.3,328.5c-1.1-1.6-1-3.3-0.1-5C180.2,325.2,180.2,326.9,180.3,328.5z"/>
	<path class="st4" d="M285.3,330.5c0.3-0.9,1.1-1.2,2-1.3C286.6,329.6,285.9,330,285.3,330.5z"/>
	<path class="st2" d="M313.4,311c0.1-0.9,0.4-1.6,1.3-1.8C314.3,309.8,313.9,310.4,313.4,311z"/>
	<path class="st2" d="M279,233.4c-0.6-0.2-1.1-0.5-0.6-1.3C278.6,232.6,278.8,233,279,233.4z"/>
	<path class="st2" d="M277.8,230.9c-0.7-0.2-1.1-0.5-0.6-1.3C277.4,230.1,277.6,230.5,277.8,230.9z"/>
	<path class="st2" d="M276.6,228.4c-0.7-0.2-1.1-0.5-0.6-1.3C276.1,227.6,276.4,228,276.6,228.4z"/>
	<path class="st2" d="M275.3,225.9c-0.7-0.2-1.1-0.5-0.6-1.3C274.9,225.1,275.1,225.5,275.3,225.9z"/>
	<path class="st2" d="M311.9,313.2c-0.1-0.8,0.3-1.2,1-1.5C312.6,312.2,312.3,312.7,311.9,313.2z"/>
	<path class="st1" d="M262.3,422.5c0.2,0.5,0.4,1,0.7,1.5c-0.2,0.1-0.3,0.3-0.5,0.4C262,423.9,261.7,423.2,262.3,422.5
		C262.3,422.5,262.3,422.5,262.3,422.5z"/>
	<path class="st5" d="M180.1,317.9c-0.2-0.4-0.4-0.8-0.6-1.2C180,317,180.1,317.4,180.1,317.9z"/>
	<path class="st6" d="M264.4,309.8L264.4,309.8c-0.3,0-0.4,0-0.6,0.2c-0.3-0.1-0.6-0.2-0.9-0.3C263.4,309,263.9,309.4,264.4,309.8z"
		/>
	<path class="st1" d="M263,424c0.2,0.2,0.4,0.5,0.5,0.7c-0.2,0.2-0.4,0.3-0.7,0.5c-0.1-0.3-0.2-0.5-0.3-0.8
		C262.7,424.3,262.9,424.2,263,424z"/>
	<path class="st7" d="M254.6,426.8c-0.2-0.2-0.4-0.4-0.6-0.7C254.2,426.3,254.4,426.6,254.6,426.8z"/>
	<path class="st2" d="M310.9,314c0.3-0.3,0.6-0.6,1-0.9C311.6,313.4,311.3,313.7,310.9,314z"/>
	<path class="st2" d="M271.5,217.8c-0.2-0.3-0.3-0.5-0.5-0.8C271.1,217.2,271.3,217.5,271.5,217.8z"/>
	<path class="st2" d="M270.8,216.5c-0.2-0.3-0.3-0.5-0.5-0.8C270.5,216,270.7,216.3,270.8,216.5z"/>
	<path class="st2" d="M270.2,215.3c-0.2-0.3-0.3-0.6-0.5-0.8C269.9,214.7,270,215,270.2,215.3z"/>
	<path class="st2" d="M269.6,214c-0.2-0.3-0.3-0.6-0.5-0.8C269.2,213.5,269.4,213.8,269.6,214z"/>
	<path class="st1" d="M262.3,422.5c-0.1,0.2-0.2,0.3-0.4,0.5c-0.1-0.1-0.1-0.2-0.2-0.3C262,422.7,262.2,422.6,262.3,422.5
		C262.3,422.5,262.3,422.5,262.3,422.5z"/>
	<path class="st1" d="M156.4,47.6c-0.1,0.1-0.3,0.1-0.4,0.2C156.1,47.7,156.2,47.7,156.4,47.6C156.3,47.6,156.4,47.6,156.4,47.6z"/>
	<polygon class="st0" points="8.2,62 8.2,61.9 8.2,61.9 8.3,62 	"/>
	<path class="st0" d="M29.1,181.5c2.3-1.8,4.6-3.1,7.3-0.7C33.9,181,31.5,181.2,29.1,181.5z"/>
	<path class="st1" d="M354.2,74.8c9.4-8,19.1-15.7,29.4-22.8c3.2-2.2,3.4-2.1,3.7,1.9c0.1,1.5,0.7,2.3,2.1,2.6
		c8.5,1.9,8.9,3.6,9.1-6.4c0.1-2.8,0.2-5.6,1.1-9.4c8.7,16.5,17.1,32.4,25.4,48.2h0.8c3.3-15.6,6.5-31.2,9.8-46.7
		c0.3,0,0.5,0,0.7-0.1c6.4,22.2,12.9,44.5,19.3,66.7c0.2,0.1,0.4,0.1,0.7,0.2c1.3-3.4,2.7-6.8,4-10.2c3-7.9,6.1-15.8,9-23.7
		c0.9-2.6,2-3.1,4.6-1.8c4.2,2.1,8.4,4.1,12.6,6.1c1.1,0.5,2.1,1,3.2,1.4c1.1,0.5,2.3,1,3.5,1.5c3,1.3,3.9,3.3,4.2,6.2
		c0,0.1,0,0.3,0,0.5c0.6,5.3,1.3,10.6,1.8,16c0.2,2.1,1,3.1,3.1,3.6c1.8,0.4,3.6,0.9,5.4,1.3c1.6,0.4,3.2,0.8,4.8,1.2
		c1.2,0.3,2.5,0.6,3.7,0.9c7.4,10.1,14.2,20.8,20.2,31.9c-0.4,1-0.8,2.1-1.1,3.1c-0.7,1.9-1.9,1.6-3.3,1.2
		c-11.6-3.6-23.5-6.6-34.5-12c-4.6-2.3-9.3-4.1-13.9-6.4c-2.3-1.1-4-0.8-5.4,1.2c-1.7,2.4-3.9,4.3-5.9,6.5c-1.3,1.4-2.5,1.6-4,0.3
		c-4.7-4-9.5-7.8-14.1-11.8c-1.8-1.5-2.8-1.3-3.8,0.7c-1.3,2.6-2.7,5.1-4.2,7.7c-1.6,2.8-2,2.8-3.6,0.2
		c-8.1-13.1-16.2-26.3-24.3-39.4c-4.6-7.4-9.2-14.9-13.8-22.3c-0.3,0-0.6,0.1-0.8,0.1c0,4.3-0.3,8.5,0.1,12.7
		c0.5,4.6,0.5,9.2,0.4,13.7c0,2.5,0.7,4.4,2.6,6c2.2,1.9,4.3,3.9,6.5,5.8c1.3,1.2,1.8,2.5,1.2,4.2c-1.4,3.9,0,7.4,2,10.7
		c1.4,2.4,2.5,4.9,3.1,7.8c0.8,4.4,2.6,8.6,5.3,12.2c0.7,0.9,1.6,1.8,1.9,2.9c1.1,5.4,4.6,9.2,8.2,13c3.4,3.6,4.7,8.3,6.4,12.7
		c2.1,5.4,3.8,11,5.6,16.6c0.7,2.4,1.9,4,4.1,5.2c2.4,1.2,4.7,2.7,7.1,4c1.5,0.8,2,1.7,0.7,3.1c-2.2,2.4-4.3,4.8-6.4,7.3
		c-5.1,5.8-10.1,11.6-15.2,17.4c-0.5,0.5-1.1,0.9-1.7,1.4c-2.1-1.8-4.3-3.5-6.4-5.3c-6.8-5.7-13.6-11.4-20.4-17.2
		c-0.1-5.6-1.3-11-4.6-15.5c-4.6-6.2-10-11.7-14.6-17.9c-5.7-7.6-7.3-16.4-6.6-25.7c0.3-4.5-1-8.7-2.4-12.8
		c-0.6-1.6-1.9-1.4-3.1-0.7c-2.4,1.3-4.7,2.7-7,4c-4,2.4-5.5,1.8-6-2.8c-1.3-11.6-2.5-23.2-3.7-34.8c-0.4-3.4-0.8-6.8-1.3-10.2
		c-0.5-3.2-3-5.2-5-7.4C349.8,78.9,349.5,78.8,354.2,74.8z"/>
	<path class="st0" d="M408.5,207.2c6.8,5.7,13.6,11.4,20.4,17.2c2.1,1.8,4.3,3.6,6.4,5.3c0.3,1.4-0.8,1.2-1.5,1.3
		c-5.4,0.6-10.8,1.2-15.7-2.1c-0.9-0.6-2-1.1-3.1-1.5c-18.5-6.3-30.1-21.2-42.9-34.6c0.1-0.1,0.3-0.3,0.4-0.4
		c5.2,3.4,10.4,6.8,15.7,10.1c0.7,0.5,1.5,1.5,2.4,0.8c0.8-0.6,0.4-1.8,0.2-2.6c-1.4-7.2-3.8-14-6.1-20.9c-0.3-1-1-1.9-0.6-3l-0.1,0
		c7.2,9.2,14.4,18.3,21.6,27.5C406.6,205.4,407.6,206.3,408.5,207.2z"/>
	<path class="st0" d="M372.2,192.8c-0.3-0.1-0.5-0.2-0.3-0.5c0.1-0.1,0.5,0.1,0.7,0.1C372.4,192.6,372.3,192.7,372.2,192.8z"/>
	<path class="st0" d="M384.2,176.9c-0.1,0-0.1,0-0.2,0C384.1,176.9,384.1,176.9,384.2,176.9C384.1,176.9,384.2,176.9,384.2,176.9z"
		/>
	<path class="st0" d="M202.5,117.1c-4.8,2.6-9.7,5.3-14.5,7.9c-0.2-0.2-0.3-0.5-0.5-0.7c1.8-2.8,3.6-5.6,5.4-8.5c0.4,0,0.7,0,1.1,0
		c1,0.5,2.1,0.5,3.2,0.4C198.9,116.6,200.7,116.9,202.5,117.1z"/>
	<path class="st2" d="M197.1,116.3c-1.1,0.1-2.2,0.1-3.2-0.4C195,115.2,196.1,115,197.1,116.3z"/>
	<path class="st2" d="M195.8,63.2c0.1-0.1,0.3-0.1,0.4-0.2C196.1,63.1,195.9,63.2,195.8,63.2C195.8,63.3,195.8,63.2,195.8,63.2z"/>
	<path class="st6" d="M264.3,309.7c0.9,1.9,1.1,3.9,0.7,6c-0.4-1.9-0.9-3.9-1.3-5.8C264,309.8,264.1,309.7,264.3,309.7z"/>
	<path class="st0" d="M187.3,125.5c-0.2,0.2-0.5,0.4-0.7,0c0,0,0.3-0.2,0.4-0.3C187.1,125.3,187.2,125.4,187.3,125.5z"/>
	<path class="st0" d="M188,125.1c-0.2,0.1-0.5,0.3-0.7,0.4c-0.1-0.1-0.2-0.2-0.3-0.4c0.2-0.3,0.3-0.5,0.5-0.8
		C187.6,124.6,187.8,124.8,188,125.1z"/>
</g>
</svg>
