<svg id="Laag_1" data-name="Laag 1" xmlns="http://www.w3.org/2000/svg" xmlns:xlink="http://www.w3.org/1999/xlink" viewBox="0 0 262.38 100"><defs><style>.cls-1{fill:url(#Naamloos_verloop_68);}.cls-2{fill:#5c4042;}.cls-3{fill:#784341;opacity:0.66;}.cls-4{opacity:0.35;}.cls-5{fill:#af272c;}</style><radialGradient id="Naamloos_verloop_68" cx="134.67" cy="50" r="101.58" gradientTransform="matrix(0.49, -0.87, 2.53, 1.5, -60.95, 91.62)" gradientUnits="userSpaceOnUse"><stop offset="0" stop-color="#706f6f"/><stop offset="0.15" stop-color="#7e7d7d"/><stop offset="0.43" stop-color="#a4a3a3"/><stop offset="0.82" stop-color="#e0e0e0"/><stop offset="1" stop-color="#fff"/></radialGradient></defs><title>meter</title><path class="cls-1" d="M248.57,100H13.81A14,14,0,0,1,0,85.83V14.17A14,14,0,0,1,13.81,0S99.65,3.31,128.29,3.33C158.37,3.35,248.57,0,248.57,0a14,14,0,0,1,13.81,14.17V85.83A14,14,0,0,1,248.57,100Z"/><rect class="cls-2" x="27.33" y="21.78" width="207.33" height="56.89" rx="5.67" ry="5.67"/><rect class="cls-3" x="33.92" y="21.78" width="34.53" height="52.8"/><rect class="cls-3" x="73.42" y="21.78" width="34.53" height="52.8"/><rect class="cls-3" x="114.42" y="21.78" width="34.53" height="52.8"/><rect class="cls-3" x="155.67" y="21.78" width="34.53" height="52.8"/><rect class="cls-3" x="196.67" y="21.78" width="34.53" height="52.8"/><g class="cls-4"><path class="cls-5" d="M40.89,52.81,39.78,66.27l-5.51,5L36,51.6l2-2ZM61.45,72.26H35l5.51-5.05H56.93Zm-25-26.37L38.24,26.1l4.56,5L41.61,44.6l-3.38,3.17Zm22.89.33,2.36,2.52-2.83,2.53H41.3l-2.18-2.53,2.69-2.52Zm6.16-21-5.38,5.05H43.82l-4.57-5.05ZM64.19,51.6,62.46,71.31l-4.49-5,1.12-13.46,3.42-3.16Zm-4.38-7L61,31.15l5.44-5L64.69,45.89l-2,1.88Z"/><path class="cls-5" d="M81.74,52.81,80.63,66.27l-5.51,5L76.85,51.6l2-2ZM102.3,72.26H75.88l5.52-5.05H97.78Zm-25-26.37L79.09,26.1l4.55,5L82.46,44.6l-3.38,3.17Zm22.89.33,2.36,2.52-2.83,2.53H82.15L80,48.74l2.7-2.52Zm6.16-21L101,30.28H84.67L80.1,25.23ZM105,51.6l-1.73,19.71-4.49-5,1.11-13.46,3.43-3.16Zm-4.39-7,1.18-13.45,5.44-5-1.73,19.78-2,1.88Z"/><path class="cls-5" d="M122.59,52.81l-1.12,13.46-5.51,5L117.7,51.6l2-2Zm20.55,19.45H116.73l5.52-5.05h16.38ZM118.2,45.89l1.74-19.79,4.55,5L123.31,44.6l-3.39,3.17Zm22.89.33,2.35,2.52-2.82,2.53H123l-2.18-2.53,2.69-2.52Zm6.16-21-5.38,5.05H125.52l-4.58-5.05ZM145.88,51.6l-1.73,19.71-4.48-5,1.11-13.46,3.42-3.16Zm-4.38-7,1.18-13.45,5.44-5-1.73,19.78-2,1.88Z"/><path class="cls-5" d="M163.43,52.81l-1.11,13.46-5.51,5,1.73-19.71,2-2ZM184,72.26H157.58l5.51-5.05h16.38ZM159.05,45.89l1.73-19.79,4.56,5L164.16,44.6l-3.39,3.17Zm22.89.33,2.35,2.52-2.83,2.53H163.84l-2.18-2.53,2.69-2.52Zm6.16-21-5.39,5.05H166.37l-4.58-5.05ZM186.73,51.6,185,71.31l-4.49-5,1.12-13.46,3.42-3.16Zm-4.38-7,1.18-13.45,5.44-5-1.74,19.78-2,1.88Z"/><path class="cls-5" d="M204.28,52.81l-1.11,13.46-5.51,5,1.73-19.71,2-2Zm20.56,19.45H198.43l5.51-5.05h16.38Zm-25-26.37,1.74-19.79,4.55,5L205,44.6l-3.38,3.17Zm22.89.33,2.36,2.52-2.83,2.53H204.69l-2.19-2.53,2.7-2.52Zm6.16-21-5.38,5.05H207.21l-4.57-5.05ZM227.58,51.6l-1.73,19.71-4.49-5,1.11-13.46,3.43-3.16Zm-4.38-7,1.18-13.45,5.44-5-1.74,19.78-2,1.88Z"/></g></svg>