<?xml version="1.0" encoding="utf-8"?>
<!-- Generator: Adobe Illustrator 22.1.0, SVG Export Plug-In . SVG Version: 6.00 Build 0)  -->
<svg version="1.1" id="Laag_1" xmlns="http://www.w3.org/2000/svg" xmlns:xlink="http://www.w3.org/1999/xlink" x="0px" y="0px"
	 viewBox="0 0 384.4 293.7" style="enable-background:new 0 0 384.4 293.7;" xml:space="preserve">
<style type="text/css">
	.st0{fill:#090B0C;}
	.st1{fill:#0B233C;}
	.st2{fill:#0C2A48;}
	.st3{fill:#051A2F;}
	.st4{fill:#0D3052;}
	.st5{fill:#091F36;}
	.st6{fill:#000D1F;}
	.st7{fill:#071D33;}
	.st8{fill:#02162B;}
	.st9{fill:#001124;}
	.st10{fill:#0E345B;}
	.st11{fill:#EEF2F8;}
	.st12{fill:#0F3A64;}
	.st13{fill:#114273;}
	.st14{fill:#103E6C;}
</style>
<g>
	<path class="st0" d="M355.7,132.7c1.7-0.3,2.3,0.7,3,1.3c17.2,17.5,22.1,35.7,13.2,59.5c-0.9,2.4-1.6,5-0.7,7.8
		c3.4,11,8.2,21.4,11.1,32.6c0.6,2.2,1,4.6,1.2,6.9c1.6,13.6,1.6,27-4.5,39.7c-2.4,5-4.4,10.6-10.6,12c-8.8,2-17.4,2-25.3-3.5
		c-4.7-3.3-9.5-6.4-14.1-9.9c-6.7-5.1-14.5-8.2-22-12c-16.8-8.7-34.4-16.1-50.5-26c-4.3-2.6-7.6-6.3-11.1-9.8
		c-1.2-1.2-2.4-1.9-4.1-2.1c-24.1-2.9-45.5-12.9-65.5-26c-6.9-4.5-12.4-10.7-14.8-18.9c-0.3-1-0.4-2-0.4-3c-0.1-5.5,0.5-6.1,5.8-6.3
		c9.9-0.4,19.9-0.9,30.4-1.3c-11.3-11.7-22.8-22-36.9-29.2c-9.9-5.1-20-9.8-31.4-10.4c-14.5-0.8-28.1,2.4-40.6,9.8
		c-1.6,0.9-3,2.1-4.4,3.2c-7.7,5.9-6.4,12.6-2.4,19.5c1.5,2.5,3.5,4.6,5.7,6.6c5.6,5.1,9.5,11.2,10.7,18.8c0.8,5.1-0.6,9.8-2.8,14.3
		c-0.4,0.8-1,1.6-2.1,1.6c-1.2-0.1-1.1-1.1-1.4-2c-0.8-2.4-2.7-3.5-5.1-3.7c-3-0.2-4.8-1.7-5.6-4.6c-0.9-3.1-3-4.9-6.1-5.6
		c-2.9-0.6-5.7-1.3-8.6-2c-4.7-1.1-7.9-3.8-9.4-8.5c-0.2,0-0.4,0-0.5,0.1c-5.7,8.2-12.9,10.5-23,7.5c-10.6-3.2-19.9,2.3-22.7,13.3
		c0,0.2-0.3,0.3-0.4,0.4c-7.5-11.7-4.2-30.2,6.7-38.5c5.4-4.2,11.1-7,18-8c6.4-0.9,11.9-3.8,16.4-8.9c7.9-9,15.1-18.5,22.2-28
		c11.6-15.7,25.5-29.3,41-41c12.6-9.5,27-16,42.6-19.7c17.8-4.2,35.6-7.4,53.9-6.5c13.6,0.7,26.9,3.2,39.9,7.1
		c1.6,0.5,2.7,0.5,3.6-1.2c1.6-3,4.6-4.9,7.5-6.4c16.2-8.3,19.5-22.7,19-39.1c-0.1-3.1-0.7-6.2-1.1-9.3c-0.4-2.7,0.9-3.4,3.2-3.1
		c5.7,0.7,10.6,3.1,14.4,7.5c7.5,8.7,10.3,19,10.1,30.3c-0.1,9-1.2,17.9-1.8,26.9c-0.6,8.6-0.7,17.2-1,25.7
		c-0.1,4.2,1.2,7.5,4.6,10.6c13,11.8,23.5,25.5,31.8,40.9c1.2,2.2,2.7,4.3,4,6.4c0.5,0.9,1,1.5,2.1,0.6c3.4-2.8,6.5-5.8,8.8-9.6
		C356.7,137.5,357,135.1,355.7,132.7z M362.6,141.9L362.6,141.9c0-0.5-0.1-0.9-0.6-1.2c-3-3.9-3-3.9-5,0.4c-0.1,0.3-0.3,0.5-0.4,0.8
		c-1.9,2.2-3.6,4.6-5.8,6.4c-4.1,3.5-4.2,3.4-1.3,7.9c0.3,0.5,0.7,1,1,1.5c1,1.6,1.3,3.6,2.9,4.9c0.8,2.2,1.8,4.2,3.1,6.1
		c0.4,1.6,1.4,2.9,2.3,4.2c3.6,7.7,7.7,15.2,10.6,24.1c2.5-7.9,4.2-15,4.7-22.3s-0.6-14.4-4-21c-0.5-2.2-1.7-4.1-3.2-5.8l0,0
		c0-0.2-0.1-0.4-0.1-0.6c-0.8-1.9-1.8-3.7-3.5-4.9l0,0C363,142.3,362.8,142.1,362.6,141.9z M330.5,129.7L330.5,129.7
		c0.1-0.5-0.2-0.9-0.6-1.3c-0.1-0.2-0.3-0.4-0.4-0.6c-0.3-0.4-0.5-0.8-0.8-1.2l0,0c-2.1-3.2-4.8-6-7.2-8.9
		c-8.5-10.6-18-20.2-28.6-28.6c-7.5-6-15.3-11.4-23-17.1c-3.5-2.9-6.9-5.9-11.2-7.6c-4.5-1.8-8.9-3.7-13.7-4.7
		c-6.1-1.4-12-3.3-18.3-3.4c-4-0.7-8.1-1.3-12.1-2c-4.2-1-8.5-0.4-12.8-0.5c-10.1,1.1-20.4,1.1-30.4,3.6c-7.9,1.8-16.1,2.8-23.8,5.7
		c-4.1,1.5-8.5,2.4-12,5.3c-0.9,0.4-1.9,0.7-2.8,1.1c-5.9,2.7-11.5,5.8-16.7,9.7c-0.2,0-0.4,0-0.6,0c-0.2,0.2-0.4,0.4-0.6,0.6
		c-6,4-11.5,8.6-16.4,13.9c-3,1.6-5.1,4.2-7.2,6.7c-4.6,4.6-9.1,9.2-12.8,14.6c-3.9,4.1-6.9,8.9-10.3,13.4
		c-4.3,6.1-9.3,11.6-14,17.3c-5.5,6.6-12,11.9-21,12.4c-6.6,0.4-11.5,3.4-16,7.9c-0.2,0.2-0.4,0.4-0.6,0.6c-0.5,0-0.9,0.1-1.2,0.6
		c-2.3,1.5-3.8,3.6-4.8,6c-3,7-2.8,14.3-2.1,21.7c0.1,1.5-0.2,3.3,1.2,4.6c1.3-2.1,2.5-4.4,4.1-6.3c3.7-4.4,8-7.8,14.1-7.1
		c2.6,0.3,5.1,1.2,7.6,1.8c6.1,1.6,16.8,0.2,19.4-8.5c1.2-1.7,2-2.3,3,0.3c0.8,2.3,1.4,5,4.3,5.8c1.1,1.7,3,1.8,4.7,2.4
		c3.2,1.1,6.8,1,9.9,2.5c2.6,2,4.8,4.2,5.9,7.4c0.5,1.5,1.8,2.1,3.3,2.3c1.2,0.2,2.4,0.4,3.5,0.6c0.5,0.8,1.1,1.4,1.9,1.8
		c0.1,1.1,0.6,2.2,1.7,2.2c1,0,1.6-1.2,1.9-2.1c1.7-5.2,1.7-10.4-0.4-15.6c-2.3-5.6-6.2-9.8-10.4-13.9c-5-4.9-8.2-10.6-7.9-17.9
		c0.6-0.9,0.7-2,0.7-3.1l0,0c0.5-0.3,0.6-0.7,0.6-1.2l0,0c0.4-0.4,0.8-0.8,1.2-1.2c0-0.2,0-0.3,0-0.5c8.3-9.3,19.4-13.3,31.1-16.2
		c9.6-2.4,19.3-0.6,28.9-2.2c4.1,0.2,8.2,0,12.3,0.6c10.4,1.3,20.5,3.9,30.2,8c1.7,0.8,3.5,1.5,5.2,2.4c13.8,6.8,25.7,16,36.8,26.6
		c2.5,2.4,4.9,4,8.7,3.9c5.4,0,10.1,2.2,14.1,6c4,3.9,7.3,8.6,11.1,12.7c0.4,0.6,0.8,1.2,1.2,1.8c0.2,0.2,0.4,0.4,0.6,0.6
		c3.9,4.4,7.9,8.9,11.8,13.3c0.8,0.9,1.7,1.8,2.9,2.2c2.5,0.9,4.2,2.8,5.8,4.7c3.8,4.4,3.2,9.9-1.4,13.6c-1.5,1.2-0.9,2.2,0.1,3.3
		c2.9,3,5.9,6.1,9.3,8.6c5.1,3.8,10.5,7.1,16.6,9.1c5.3,1.7,10.6,3.3,15.2,6.9c8.2,6.5,15.9,13.6,24,20.2c4,3.9,8.1,7.9,12.1,11.8
		c2.7,2.6,5.9,4.1,9.7,3.9c5.1-0.3,10.1-5.5,11.6-12c0.1-0.1,0.1-0.2,0.2-0.3c-0.1,0.1-0.2,0.1-0.3,0.2c-3.5,1-6.9,0.9-10-1.3
		c-1.5-1-3-2-4.5-2.9c-1.3-1.4-2.6-2.7-3.8-4.1c-1.5-1.9-4-3-4.7-5.6c2.5,0.5,3.4,3.2,5.5,4.2c0.5,1.1,1.6,1.6,2.4,2.4
		c2.4,2.7,5.3,4.5,8.6,5.9c2.9,1.2,5.5,1,7.8-1c0.7-1.3,1.4-2.6,1.2-4.2c1.7-2.3,2.4-5,2.4-7.8c0.5-0.3,0.6-0.8,0.6-1.3
		c0-0.4,0-0.8,0-1.2c0.2-0.2,0.4-0.4,0.5-0.6c1-3.5,0-6.9-0.1-10.3c0.1-3.1-0.2-6.1-1.1-9.1c0-0.2,0-0.4,0-0.6c0-0.6,0-1.2,0.1-1.8
		c0-2.5-0.6-5-1.7-7.2c-1-3.3-2-6.6-3.1-9.9c-0.1-0.5-0.1-1-0.2-1.5c-4.3-13-9-25.9-15.1-38.2c-5.3-10.6-11-20.9-17-31
		c-3.5-6-6.7-12.2-10.8-17.8v0.1c-0.2-0.4-0.4-0.8-0.7-1.2c-0.2-0.2-0.3-0.4-0.5-0.6c-0.3-0.4-0.5-0.8-0.8-1.2
		c-0.2-0.2-0.3-0.4-0.5-0.6C330.9,130.1,330.7,129.9,330.5,129.7z M197.5,212.3L197.5,212.3c0.6,0.8,1.4,1.1,2.4,1.2
		c2.8,1.7,5.6,3.4,8.9,3.7c0.2,0.8,0.8,1,1.5,1.3c4.2,1.4,8.4,2.9,12.5,4.3c7.6,2.6,15.4,4.3,23.5,4.5c9.2,0.3,18.5,0,27.6-1.7
		c2.1,0.2,3.6-0.8,4.8-2.4c0.1-0.2,0.1-0.4,0.1-0.6l0,0c1.9-4.5-0.8-8.7-4.5-11.2c-3.4-2.4-6.5-5-9.5-7.8c-0.3-0.3-0.7-0.7-1-1
		s-0.6-0.5-0.8-0.8c-0.7-1.8-2.3-2.9-3.6-4.1c-1.5-2.1-3-4.2-4.9-6c-2.9-3.6-5.7-7.3-8.7-10.8c-3.9-4.4-8.7-6.9-14.8-6.9
		c-4.5,0-9,1.1-13.5,1.1c-9,0-17.9,1-26.9,0.8c-3-0.1-6-0.2-9,0.6c-5.3,0-10.7,0.2-16-0.1c-2.9-0.1-3.2,1.5-3.1,3.5
		c0.1,3.5,1.1,6.7,3.2,9.6c4.1,5.7,8.6,10.8,15.3,13.7c2.3,2.7,5.6,3.8,8.5,5.5c1.5,1.1,3.1,2,4.9,2.4c0.2,0.2,0.4,0.4,0.6,0.6
		c0.5,0,1.1,0,1.6,0C196.9,211.9,197.2,212.1,197.5,212.3z M268.5,50.2c-2.5,1.5-5,3-7.5,4.3c-2,1-3.8,2.2-5.3,4
		c-1,1.2-1.3,2.1,0.7,2.8c3.3,1,6.3,2.6,9,4.7c1.5,1.7,3.3,2.8,5.4,3.7c1.1,1.8,3.1,2.7,4.9,3.6c1.4,1.3,2.7,2.8,4.7,3.2
		c0.3,1.3,1.5,1.7,2.4,2.3c2.2,1.7,3.8,4.2,6.7,4.8c3,5.1,8.6,7.2,12.7,11.3c-0.4-2.3-0.4-4.4-0.3-6.5c0.9-9.6,0.9-19.2,2-28.8
		c1.1-9,1.4-18.1,0.8-27.2c-0.4-5.6-1.5-11-4.3-15.9c-2-3.6-4.1-7.1-7.7-9.4c-1.3-1.2-2.6-2.5-4.3-3.1c-1.3-1-2.7-1.2-4.2-1.2
		c-2.1-1-3.4-0.9-2.7,2c0.8,3.6,1.3,7.3,1.5,11.1c0.3,7.5-1.4,14.6-3.7,21.6c-1.6,3-3.2,5.9-5.4,8.5
		C272.1,47.3,270.1,48.5,268.5,50.2z M358,292c-8.6-8.2-16.9-16-25.5-23.4c-9.3-8-17.9-16.5-30.8-19.3
		c-10.8-2.3-18.9-10.2-26.2-18.3c-1.8-1.9-3.6-2.7-6-2.5c-7.5,0.8-15,0.8-23,0.9c4.9,5.6,10.5,9.8,16.8,13.1
		c13.8,7.1,27.9,13.7,41.5,21.2c9.1,5,18.8,8.7,27.4,14.8c4.3,3,8.6,6,13.1,8.7C349,289.5,353,291.6,358,292z M139.1,133.2
		c1.9,0.6,3.8,1.2,5.7,1.9c19.2,6.8,35.6,18.1,49.4,32.9c4.1,4.3,7.9,6.3,13.8,5.7c5.2-0.5,10.6-0.1,16.1-0.9
		C200.3,149.3,173.4,133,139.1,133.2z"/>
	<path class="st1" d="M116.1,79.4c5.2-3.9,10.9-7,16.7-9.7c0.9-0.4,1.8-0.8,2.8-1.1c0.5,1.8,2,1.1,3,1.1c7.7-0.1,15.4-1.6,23.2-1.2
		c2.8,0.1,5.5,0.5,7.9,1.8c6.4,3.6,13.1,6.7,19.9,9.3c3.7,1.4,7.2,3.1,10.9,4.5c8.9,3.4,18.1,6.2,26.9,9.9
		c6.9,2.9,13.6,6.2,20.1,9.9c12.7,7.3,24.2,16.2,34.4,26.7c6.9,7.1,12.8,14.9,18.4,23.1c4.3,6.3,9.1,12.2,13.1,18.7
		c5.4,8.7,11,17.3,17.1,25.6c7.1,9.6,13.5,19.7,21.6,28.5c1.8,2,3.2,4.4,4.8,6.6c5.8,8,12.4,15.3,18.7,22.9c1.9,2.3,3.2,5.2,6.4,6.2
		c0,0.4,0,0.8,0,1.2c-0.5,0.3-0.6,0.8-0.6,1.3c0,2.8-0.8,5.5-2.4,7.8c-1.4-2.1-2.7-4.2-4.2-6.3c-4.7-6.4-9.4-12.8-14.2-19.1
		c-4.2-5.5-8.5-11-12.8-16.4c-5-6.3-10-12.6-14.9-18.9c0-0.8-0.5-1.3-0.9-1.8c-7.3-8.8-14.4-17.8-21.9-26.5
		c-4.4-5.1-8.3-10.6-13.3-15.3c-8.6-8-17.1-16.1-26.6-23.1c-10-7.5-20.3-14.5-30.7-21.4c-7.6-5-15.8-9-24.2-12.3
		c-11.3-4.5-23.4-6.4-35.1-9.5c-5.6-1.5-11.3-3-16.6-5.3c-4.6-2-9.4-3.3-14-5.5c-6.7-3.2-14.1-4.9-20.6-8.6
		C124.9,80,120.7,79.3,116.1,79.4z"/>
	<path class="st2" d="M382,262.1c-3.2-1-4.5-3.9-6.4-6.2c-6.3-7.6-12.9-14.9-18.7-22.9c-1.6-2.2-3-4.6-4.8-6.6
		c-8.2-8.8-14.5-19-21.6-28.5c-6.1-8.2-11.7-16.8-17.1-25.6c-4-6.5-8.8-12.4-13.1-18.7c-5.6-8.1-11.5-16-18.4-23.1
		c-10.2-10.6-21.7-19.5-34.4-26.7c-6.5-3.7-13.2-7-20.1-9.9c-8.8-3.7-17.9-6.5-26.9-9.9c-3.7-1.4-7.2-3-10.9-4.5
		c-6.8-2.7-13.5-5.7-19.9-9.3c-2.3-1.3-5.1-1.7-7.9-1.8c-7.8-0.4-15.5,1.1-23.2,1.2c-1.1,0-2.6,0.7-3-1.1c3.5-2.9,7.9-3.8,12-5.3
		c7.7-2.9,15.8-3.8,23.8-5.7c3.6,0.8,7.3,0,10.9,0.2c1.8,0.1,3.4,0.1,4.7,1.3c1.5,1.3,3.2,2,4.9,2.9c6.5,3.3,13.2,5.9,20,8.6
		c5,2,9.8,4.6,15,6.3c8,2.6,15.2,6.8,22.5,10.7c3.9,2.1,7.6,4.5,11.3,6.9c4.1,2.6,8,5.4,11.5,8.6c5.4,4.8,10.6,9.7,15.4,15.2
		c5.8,6.6,11,13.6,15.8,20.9c4.6,7,8.9,14.1,12.7,21.5c5,9.6,10.5,18.9,16.2,28.1c4.1,6.7,8,13.5,12.4,20
		c4.9,7.5,10.5,14.5,15.9,21.7c5.1,6.7,10.6,13.2,16.2,19.5c2.7,3.1,6.3,5.8,5.3,10.8c0,0.2,0.3,0.5,0.5,0.7
		C382.4,261.7,382.2,261.9,382,262.1z"/>
	<path class="st3" d="M78.5,115.2c3.7-5.4,8.2-10,12.8-14.6c3.2,0.6,6.3,0.3,9.6,0.1c8-0.6,15.9,0.9,23.6,2.7
		c8.1,1.8,16,4.8,23.8,7.7c6.7,2.5,13.5,4.9,20.5,6.3c9.2,1.8,18.6,2.8,27.9,4.4c8.7,1.5,16.9,4.2,24.6,8.6
		c8.7,4.9,17,10.4,25.2,16.1c12,8.5,25.1,15.3,36.7,24.4c8.1,6.3,15.8,13.1,23.5,19.9c5,4.5,9.8,9.3,14.1,14.6
		c5,6,10.2,11.9,15.1,18c5.4,6.8,10.5,14,15.9,20.9c6.6,8.3,12.6,17,18.5,25.8c1.4,2.1,1.1,3.4-1.7,3.6c-2-0.1-3.7-1-5.4-1.9
		c-0.2-0.6-0.4-1.2-0.6-1.8c3.2-0.2,1.5-2,0.8-3.1c-4.6-7.4-9.7-14.6-14.9-21.6c-6-8-12.3-15.9-18.8-23.5
		c-3.7-4.3-7.6-8.6-11.4-12.8c-1.4-1.5-1.8-0.6-1.8,0.9c-1.5-0.9-1.7-2.6-2.5-4c-4.4-7.4-9.7-13.5-19.3-13.7
		c0.6-1.9,0.3-3.3-1.7-4.4c-1.7-0.9-3-2.3-4.6-3.5c-7.3-5.5-15-10.4-22.9-15.1c-8.1-4.8-16.3-9.7-24.2-14.9
		c-8.8-5.8-17.2-12.2-26.9-16.7c-10.5-4.9-21.6-7.2-33-7.7c-7.8-0.3-15.4-1.3-23-3c-9.7-2.2-19-6.1-28.6-9
		c-14-4.2-28.2-6.1-42.8-2.9C84.3,115.6,81.4,116.8,78.5,115.2z"/>
	<path class="st4" d="M382.6,261.4c-0.2-0.2-0.5-0.5-0.5-0.7c1-5-2.6-7.7-5.3-10.8c-5.6-6.3-11-12.8-16.2-19.5
		c-5.4-7.1-10.9-14.2-15.9-21.7c-4.3-6.5-8.2-13.4-12.4-20c-5.7-9.2-11.2-18.5-16.2-28.1c-3.8-7.4-8.2-14.6-12.7-21.5
		c-4.8-7.3-10-14.3-15.8-20.9c-4.8-5.4-10.1-10.4-15.4-15.2c-3.5-3.2-7.4-6.1-11.5-8.6c-3.7-2.3-7.4-4.8-11.3-6.9
		c-7.3-3.9-14.5-8-22.5-10.7c-5.1-1.7-9.9-4.2-15-6.3c-6.7-2.7-13.5-5.4-20-8.6c-1.7-0.9-3.4-1.5-4.9-2.9c-1.3-1.2-2.9-1.2-4.7-1.3
		c-3.6-0.1-7.3,0.6-10.9-0.2c10-2.5,20.2-2.5,30.4-3.6c0.1,0.3,0.2,0.8,0.3,0.8c3.4,0.4,6.1,2.6,9.2,3.7c15,5.4,30,10.6,44,18.5
		c6.8,3.9,13.4,8,19.7,12.8c6.3,4.8,11.6,10.5,16.5,16.6c5.6,7,11.3,13.9,16.2,21.4c9.2,13.9,16.1,29.1,22.8,44.3
		c6.2,14.1,13.8,27.3,21.8,40.4c8.7,14,20,25.8,30.2,38.7C382.6,254.6,383.6,258,382.6,261.4z"/>
	<path class="st5" d="M116.1,79.4c4.6-0.1,8.8,0.6,13,3c6.5,3.7,13.9,5.4,20.6,8.6c4.5,2.2,9.4,3.5,14,5.5c5.3,2.3,11,3.8,16.6,5.3
		c11.7,3.1,23.8,4.9,35.1,9.5c8.4,3.4,16.6,7.3,24.2,12.3c10.4,6.9,20.7,13.9,30.7,21.4c9.5,7.1,18,15.1,26.6,23.1
		c4.9,4.6,8.9,10.2,13.3,15.3c7.4,8.7,14.6,17.7,21.9,26.5c0.5,0.6,0.9,1.1,0.9,1.8c-0.8,0-1.3-0.4-1.8-0.9
		c-4-3.7-6.8-8.4-11.1-11.8c-4.5-3.5-7.7-8.5-11.7-12.7c-3.1-3.3-6.6-6.3-9.7-9.5c-3.8-4-7.7-7.7-12.1-10.9
		c-8.1-6-16.5-11.5-25-16.9c-13.3-8.3-25.5-18.3-39.6-25.5c-7.7-3.9-15.8-6.4-24.2-8.2c-9.6-2.1-19.5-3-29-5.3
		c-11.5-2.8-22.3-7.5-33.7-10.8c-11.9-3.5-23.7-7.2-36.4-5.1c4.9-5.3,10.4-10,16.4-13.9c0.2-0.2,0.4-0.4,0.6-0.6
		C115.7,79.4,115.9,79.4,116.1,79.4z"/>
	<path class="st6" d="M181.7,176.5c3-0.7,6-0.7,9-0.6c9,0.2,17.9-0.7,26.9-0.8c4.5,0,8.9-1.1,13.5-1.1c6.1,0,10.9,2.5,14.8,6.9
		c3,3.5,5.8,7.2,8.7,10.8c-0.3,4.4,2.6,7.2,4.9,10.3c-0.2,1.9,1.4,3.1,2,4.6c1.1,2.5,0.7,3.8-1.9,4.4c-2.7,0.7-5.4,1.3-8.3,1.3
		c-8,0.1-15.9-0.6-23.8-1.2c-10.6-0.8-19.8-4.2-28-11c-5.9-4.9-11.3-10.1-16.9-15.3c-1.5-1.4-2.8-3.3-3.5-5.2
		c-0.5-1.5,2.4-1.2,2.7-2.8C181.7,176.7,181.7,176.6,181.7,176.5z"/>
	<path class="st7" d="M98.5,93.9c12.7-2.1,24.5,1.6,36.4,5.1c11.3,3.3,22.2,8,33.7,10.8c9.6,2.3,19.4,3.2,29,5.3
		c8.4,1.8,16.5,4.3,24.2,8.2c14.1,7.1,26.3,17.1,39.6,25.5c8.5,5.3,17,10.8,25,16.9c4.4,3.3,8.3,7,12.1,10.9
		c3.1,3.3,6.6,6.2,9.7,9.5c4,4.2,7.2,9.2,11.7,12.7c4.4,3.5,7.2,8.1,11.1,11.8c0.5,0.5,1.1,0.9,1.8,0.9c5,6.3,10,12.6,14.9,18.9
		c4.3,5.5,8.6,10.9,12.8,16.4c4.8,6.3,9.5,12.7,14.2,19.1c1.5,2,2.8,4.2,4.2,6.3c0.2,1.6-0.5,2.9-1.2,4.2c-3.2-0.4-6.5-0.8-9.2-3
		c2.8-0.2,3.1-1.5,1.7-3.6c-5.9-8.8-11.9-17.5-18.5-25.8c-5.4-6.9-10.5-14-15.9-20.9c-4.9-6.1-10.1-12-15.1-18
		c-4.3-5.2-9.1-10.1-14.1-14.6c-7.7-6.8-15.4-13.6-23.5-19.9c-11.7-9.1-24.8-15.9-36.7-24.4c-8.1-5.8-16.5-11.2-25.2-16.1
		c-7.7-4.4-15.9-7.1-24.6-8.6c-9.3-1.6-18.7-2.6-27.9-4.4c-7-1.4-13.8-3.8-20.5-6.3c-7.8-2.9-15.7-5.8-23.8-7.7
		c-7.7-1.8-15.6-3.3-23.6-2.7c-3.2,0.2-6.4,0.5-9.6-0.1C93.4,98.1,95.5,95.5,98.5,93.9z"/>
	<path class="st6" d="M258.2,192.9c-0.4-0.6-0.8-1.2-1.2-1.8c0-0.4,0-0.8-0.1-1.2c-0.2-0.9-1-1.8-0.2-2.5c0.9-0.7,1.9,0.1,2.8,0.5
		c2.9,1.4,5.8,2.8,8.6,4.4c7.3,4.1,14.9,7.7,21.1,13.5c0.6,1.7,1.3,3.4,1.8,5.1c1.3,4.6,4.1,7.8,8.2,10.3c3.7,2.2,8.1,2.3,11.9,4.1
		c0.1,0.5,0.2,0.9,0.7,1.2c5,3,8.7,7.3,12.6,11.6c4.4,4.9,8,10.3,11.7,15.7c3.8,5.5,7.5,11.2,10,17.5c1.7,4.3,1.6,4.4-2.9,4.3
		c-8.1-6.6-15.7-13.8-24-20.2c-4.6-3.6-9.9-5.2-15.2-6.9c-6.2-2-11.5-5.2-16.6-9.1c-3.4-2.5-6.4-5.6-9.3-8.6c-1-1-1.7-2-0.1-3.3
		c4.6-3.7,5.2-9.2,1.4-13.6c-1.6-1.9-3.3-3.8-5.8-4.7c-1.2-0.4-2-1.3-2.9-2.2c-3.9-4.4-7.9-8.9-11.8-13.3
		C258.6,193.3,258.4,193.1,258.2,192.9z"/>
	<path class="st8" d="M78.5,115.2c2.9,1.7,5.8,0.4,8.5-0.2c14.6-3.2,28.8-1.4,42.8,2.9c9.6,2.9,18.8,6.8,28.6,9
		c7.5,1.7,15.2,2.7,23,3c11.4,0.5,22.5,2.8,33,7.7c9.7,4.5,18.1,10.9,26.9,16.7c7.9,5.2,16,10.1,24.2,14.9
		c7.9,4.7,15.6,9.6,22.9,15.1c1.5,1.2,2.9,2.6,4.6,3.5c2,1.1,2.3,2.5,1.7,4.4c-2.6,0-5.3,0.3-7.9-0.5c0.2-1.8-0.7-2.9-2.2-3.9
		c-8.6-6-17.3-11.8-26.5-16.7c-12.4-6.6-23.6-15-35.5-22.2c-6.6-4-13.3-7.3-20.7-9.6c-6-1.8-12.1-1.9-18.1-2.7c-2-0.2-2.6,1-2.5,2.9
		c-9.7-4-19.7-6.6-30.2-8c-4.1-0.5-8.2-0.4-12.3-0.6c-0.3-1.7-1.7-1-2.7-1.2c-4.4-0.6-8.8-0.3-13.2-0.1c-9.7,0.4-19.1,2.4-28.2,5.7
		c-3.1,1.1-5.7,3.5-9.2,3.5c0-0.2,0-0.4,0-0.6c2.3-2.6,5.7-3.2,8.5-4.9c0.5-0.1,1,0,1.5-0.2c8.6-3.7,17.5-5.9,26.9-6
		c1.5,0,3.2-0.1,5-1.4c-3.2-0.6-5.9-0.2-8.6-0.3c0.1-1.4-0.6-2-1.9-2.5c-4.4-1.9-9.2-1.5-13.7-1.5c-8.8,0-17.5,1.3-25.9,4.3
		c-2.9,1-5.8,2.2-8.9,2.8C71.6,124.1,74.6,119.2,78.5,115.2z"/>
	<path class="st9" d="M68.2,128.5c3.1-0.5,6-1.8,8.9-2.8c8.4-2.9,17.1-4.3,25.9-4.3c4.5,0,9.3-0.4,13.7,1.5c1.4,0.6,2,1.1,1.9,2.5
		c-0.2,0-0.4,0-0.6,0c-0.9-0.3-2.1-1.4-2.5,0.6c-4.3,1-8.5,2-12.8,3c-3.1,0.8-7.9,3.1-9.1,4.2c-2.8,1.7-6.3,2.2-8.5,4.9
		c-1.4,0.2-2.3,1-2.4,2.4l0,0c-3.7,0.6-6.6,2.9-8.3,5.9c-4.7,7.9-10.5,15-15,23c-0.5,0.8-0.8,2.2-2,1.8c-1.4-0.5-0.8-1.9-0.6-2.9
		c1.1-6,3.4-11.5,7.3-16.3c2.7-3.3,6.2-6.1,7.7-10.3c0-0.1,0.1-0.2,0.1-0.3c0,0.1-0.1,0.2-0.1,0.2c-3.1,0.9-4.3,3.9-6.1,6
		c-5.4,6.2-9,13.5-10.2,21.8c-0.2,1.1,0,2.2,0.6,3.2c0.6,1.5,0.4,2.8-0.7,4.1c-0.5,0.7-1.6,1.5-0.5,2.5c-2.6,8.8-13.3,10.1-19.4,8.5
		c0.5-1,1.4-1.5,2.4-1.7c2.8-0.4,3-1.9,1.9-4c-1-1.7-0.8-3.6-0.4-5.3c1-4.1,0.6-8.2-2.6-10.9c-3.5-2.9-7.9-4.1-12.7-2.3
		c-2.2,0.8-4.1,2.7-6.7,2.3c4.4-4.4,9.4-7.5,16-7.9c9-0.5,15.5-5.9,21-12.4C59,140.2,63.9,134.6,68.2,128.5z M81,135.5
		c-2.1,0.4-4,1.1-5.2,2.9C77.9,137.9,79.9,137.4,81,135.5z"/>
	<path class="st9" d="M181.1,139.5c-0.1-1.8,0.5-3.1,2.5-2.9c6.1,0.7,12.1,0.9,18.1,2.7c7.4,2.2,14.2,5.6,20.7,9.6
		c11.9,7.3,23.2,15.6,35.5,22.2c9.2,4.9,18,10.7,26.5,16.7c1.5,1,2.4,2.1,2.2,3.9c-2.7,0-2.9,1.5-1.7,3.3c2.3,3.2,3.8,6.7,4.1,10.7
		c-6.2-5.7-13.8-9.4-21.1-13.5c-2.8-1.6-5.7-3-8.6-4.4c-0.8-0.4-1.9-1.2-2.8-0.5c-0.8,0.7,0,1.7,0.2,2.5c0.1,0.4,0.1,0.8,0.1,1.2
		c-3.8-4.1-7.1-8.7-11.1-12.7c-3.9-3.8-8.7-6.1-14.1-6c-3.8,0-6.2-1.6-8.7-3.9c-11-10.6-23-19.8-36.8-26.6
		C184.6,141,182.8,140.2,181.1,139.5z"/>
	<path class="st10" d="M382.5,251.1c-10.1-12.9-21.5-24.7-30.2-38.7c-8.1-13-15.6-26.3-21.8-40.4c-6.7-15.2-13.6-30.4-22.8-44.3
		c-4.9-7.5-10.7-14.4-16.2-21.4c-4.9-6.1-10.2-11.9-16.5-16.6s-12.9-8.9-19.7-12.8c-13.9-7.9-29-13.1-44-18.5
		c-3.1-1.1-5.8-3.2-9.2-3.7c-0.1,0-0.2-0.5-0.3-0.8c4.3,0.1,8.5-0.6,12.8,0.5c-0.1,2.6,2.1,2.6,3.7,3.2
		c14.6,5.6,29.1,11.2,42.8,18.9c13.9,7.7,26.7,16.9,37.7,28.3c7.5,7.7,13.8,16.2,19.2,25.5c8.3,14.4,14.3,30,20.9,45.2
		c4.9,11.2,10.1,22.3,16.7,32.7c5.4,8.5,11.2,16.7,17.9,24.3c2.3,2.6,4,6.2,7.9,7.2c0,0.6,0,1.2-0.1,1.8c-0.1,0.1-0.2,0.1-0.2,0.2
		c0,0.1,0.1,0.3,0.2,0.4C382.3,245,382.6,248,382.5,251.1z"/>
	<path class="st11" d="M358,292c-5-0.5-9-2.5-12.8-4.8c-4.5-2.7-8.8-5.7-13.1-8.7c-8.5-6-18.3-9.8-27.4-14.8
		c-13.6-7.5-27.7-14.1-41.5-21.2c-6.3-3.2-11.9-7.4-16.8-13.1c7.9-0.1,15.5-0.1,23-0.9c2.4-0.2,4.3,0.5,6,2.5
		c7.3,8.1,15.4,16,26.2,18.3c13,2.7,21.5,11.3,30.8,19.3C341.1,276,349.4,283.8,358,292z"/>
	<path class="st12" d="M381.4,239.6c-3.9-1-5.6-4.5-7.9-7.2c-6.7-7.5-12.5-15.7-17.9-24.3c-6.6-10.4-11.8-21.5-16.7-32.7
		c-6.7-15.2-12.7-30.7-20.9-45.2c-5.3-9.3-11.7-17.9-19.2-25.5C287.7,93.4,275,84.2,261,76.5c-13.7-7.6-28.2-13.3-42.8-18.9
		c-1.6-0.6-3.8-0.6-3.7-3.2c4,0.7,8.1,1.3,12.1,2c6.1,3.3,12.1,6.7,18.4,9.8c6.1,3,12.4,5.9,18.2,9.5c4.5,2.8,9.2,5.3,13.8,8
		c0.2,0,0.4,0,0.6,0c0.7,2.5,2.7,3.4,4.9,4.2c0.3,0.5,0.7,0.6,1.2,0.6c0,0.8,0.4,1.2,1.2,1.2c3,2.4,6.1,4.9,9.1,7.3
		c1,1.3,1.8,2.7,3.6,3c0.2,0.2,0.4,0.4,0.6,0.6c1.2,1.3,2.2,2.6,3.5,3.8c7.8,7,14,15.6,20.8,23.5c6.5,7.6,9.6,17.2,13.2,26.4
		c4.9,12.3,9.8,24.5,15.2,36.6c4.4,9.7,10.1,18.7,16.2,27.3c3.7,5.1,7.3,10.4,12.5,14.3C380.9,234.7,381.4,237.1,381.4,239.6z"/>
	<path class="st11" d="M139.1,133.2c34.3-0.2,61.1,16.1,85,39.5c-5.5,0.8-10.9,0.4-16.1,0.9c-5.8,0.6-9.7-1.4-13.8-5.7
		c-13.9-14.7-30.2-26-49.4-32.9C142.9,134.4,141,133.8,139.1,133.2z"/>
	<path class="st9" d="M181.7,176.5c0,0.1,0,0.2,0,0.3c-0.3,1.6-3.2,1.3-2.7,2.8c0.7,1.9,2,3.8,3.5,5.2c5.5,5.2,11,10.5,16.9,15.3
		c8.2,6.8,17.5,10.3,28,11c7.9,0.6,15.8,1.3,23.8,1.2c2.9,0,5.6-0.6,8.3-1.3c2.6-0.7,3-1.9,1.9-4.4c-0.7-1.5-2.2-2.7-2-4.6
		c0.6,0.2,1.2,0.4,1.8,0.6c2,1.8,2.8,4.8,5.5,6c0,0.2,0,0.4,0,0.5c-0.4,1.9-2.1,2.1-3.4,2.5c-5.3,1.5-10.5,2.3-16.2,2.1
		c-6.1-0.3-12.3,0.4-18.4,0.1c-13.7-0.5-26.8-3.6-39.6-8.1c-2.6-0.9-5.2-2.1-8-2.5c-6.7-2.8-11.2-8-15.3-13.7
		c-2.1-2.9-3.1-6.1-3.2-9.6c-0.1-2,0.2-3.7,3.1-3.5C171,176.7,176.4,176.5,181.7,176.5z"/>
	<path class="st9" d="M343.2,275.4c4.5,0.1,4.6,0,2.9-4.3c-2.5-6.3-6.2-12-10-17.5c-3.7-5.4-7.3-10.8-11.7-15.7
		c-3.8-4.3-7.6-8.6-12.6-11.6c-0.5-0.3-0.7-0.7-0.7-1.2c0.6,0.1,1.2,0.1,1.8,0.3c6.1,2.3,6.1,2.4,6.2-4c1.7,0.2,2.9,1.3,4,2.5
		c10.2,10.8,19,22.6,27.3,34.8c0.9,1.3,1.6,2.8,1.4,4.5c-0.4,0.1-1,0.1-0.7,0.6c0.5,1,1.5,1.3,2.5,1.2l0,0c0.7,2.6,3.1,3.7,4.7,5.6
		c1.2,1.4,2.5,2.8,3.8,4.1c-0.2,1.5,0.1,3,0.7,4.4c1.8,3.8,2.6,7.8,2.3,12c-3.9,0.2-7-1.3-9.7-3.9
		C351.2,283.3,347.2,279.4,343.2,275.4z M334.9,249.7c1.7,1.3,2.6,2.1,4.2,3.4C338.5,250.7,337.7,249.6,334.9,249.7z"/>
	<path class="st6" d="M17.2,166.2c2.6,0.4,4.5-1.5,6.7-2.3c4.9-1.8,9.2-0.7,12.7,2.3c3.2,2.6,3.6,6.7,2.6,10.9
		c-0.4,1.7-0.6,3.5,0.4,5.3c1.2,2.1,0.9,3.6-1.9,4c-1,0.1-1.9,0.6-2.4,1.7c-2.5-0.6-5-1.5-7.6-1.8c-6.2-0.7-10.5,2.8-14.1,7.1
		c-1.6,1.9-2.7,4.2-4.1,6.3c-1.4-1.3-1-3.1-1.2-4.6c-0.7-7.3-0.8-14.7,2.1-21.7c1-2.5,2.6-4.5,4.8-6c1,0.9,1.1,0.1,1.2-0.6
		C16.8,166.6,17,166.4,17.2,166.2z"/>
	<path class="st13" d="M333.5,133.9c4.1,5.6,7.3,11.8,10.8,17.8c6,10.2,11.7,20.5,17,31c6.1,12.3,10.8,25.2,15.1,38.2
		c0.2,0.5,0.2,1,0.2,1.5c-2.3,1-3-1.2-3.8-2.2c-10.7-13.9-18.5-29.4-24.9-45.6c-3.6-9.1-6.8-18.3-10.5-27.3
		C335.8,143,332.7,139,333.5,133.9z"/>
	<path class="st14" d="M333.5,133.9c-0.8,5.1,2.2,9.1,4,13.4c3.7,9,6.9,18.3,10.5,27.3c6.4,16.2,14.2,31.8,24.9,45.6
		c0.8,1.1,1.5,3.3,3.8,2.2c1,3.3,2,6.6,3.1,9.9c-5.2-3.9-8.9-9.1-12.5-14.3c-6.1-8.6-11.8-17.6-16.2-27.3
		c-5.4-12-10.3-24.3-15.2-36.6c-3.7-9.1-6.7-18.8-13.2-26.4c-6.8-7.9-13-16.5-20.8-23.5c-1.3-1.1-2.3-2.5-3.5-3.8
		c1.5-0.2,2.3,0.9,3.3,1.8c7.1,6.4,12.9,14.1,19.7,20.9c2,2,4.2,3.8,7.4,3.4l0,0c0,0.6,0.2,1,0.8,1.2c0.1,0.2,0.3,0.4,0.4,0.6
		c0,0.5,0.1,1,0.6,1.3l0,0c0.2,0.2,0.5,0.4,0.7,0.6c0.2,0.2,0.3,0.4,0.5,0.6c0,0.6,0.1,1,0.8,1.2c0.2,0.2,0.3,0.4,0.5,0.6
		C332.9,133.3,333,133.7,333.5,133.9L333.5,133.9z"/>
	<path class="st12" d="M288.5,4c1.7,0.6,3,1.9,4.3,3.1c0.6,4.5,4.1,7.6,5.7,11.8c2.5,6.8,5.1,13.5,5.2,20.8
		c0.1,6.3-1.1,12.4-2.3,18.5c-1.4,7-2.3,14-3.7,21c-0.8,4.1-1.5,4.3-5.7,4.1c-0.8,0-1.6,0.3-2.3,0.4c-2.9-0.7-4.5-3.1-6.7-4.8
		c1.3-0.4,2.7-0.8,4-1.3c1.7-0.6,3.1-1.7,3.4-3.5c0.9-7.6,1.5-15.2,2.6-22.7c0.7-5.5,2.1-10.9,5.2-15.6c1.7-2.5,2.4-5.2,1.8-7.6
		c-1.6-6.4-3.6-12.8-8-18C290.4,8.3,288,6.9,288.5,4z"/>
	<path class="st10" d="M288.5,4c-0.5,2.9,1.9,4.4,3.4,6.1c4.4,5.3,6.3,11.6,8,18c0.6,2.4-0.2,5.1-1.8,7.6
		c-3.1,4.6-4.5,10.1-5.2,15.6c-1,7.6-1.6,15.2-2.6,22.7c-0.2,1.8-1.7,2.9-3.4,3.5c-1.3,0.5-2.7,0.8-4,1.3c-1-0.6-2.1-1-2.4-2.3
		c1.3-2.2,4.1-3.4,4.4-6.3c1.3-11.6,2.9-23.1,2.4-34.8c-0.1-3.4,1-6.6,2.1-9.6c0.6-1.8,0.7-4,2.6-5.3c1.8-1.4,1.9-3.4,0.9-5.2
		c-2.4-4.5-5-8.9-8.6-12.6C285.8,2.8,287.3,3,288.5,4z"/>
	<path class="st2" d="M284.3,2.8c3.7,3.7,6.2,8.1,8.6,12.6c1,1.8,0.9,3.8-0.9,5.2c-1.8,1.3-1.9,3.6-2.6,5.3c-1.1,3-2.3,6.2-2.1,9.6
		c0.5,11.7-1.1,23.2-2.4,34.8c-0.3,2.9-3.2,4.1-4.4,6.3c-2-0.4-3.3-1.9-4.7-3.2c2-1.1,3.1-2.9,3.6-5c2.6-9.3,2.9-18.8,1.9-28.3
		c-0.1-1.3-0.8-2-1.9-2.5c2.3-7,4-14.2,3.7-21.6c-0.2-3.7-0.7-7.4-1.5-11.1C280.9,1.9,282.1,1.8,284.3,2.8z"/>
	<path class="st8" d="M351.7,263.3c0.2-1.7-0.5-3.2-1.4-4.5c-8.4-12.2-17.1-24.1-27.3-34.8c-1.1-1.2-2.3-2.3-4-2.5
		c-0.1-4-2.2-7.5-2.5-11.5c0-1.5,0.5-2.4,1.8-0.9c3.9,4.2,7.7,8.5,11.4,12.8c6.6,7.6,12.8,15.5,18.8,23.5c5.2,7,10.3,14.1,14.9,21.6
		c0.6,1,2.4,2.9-0.8,3.1c-1.2-0.2-2.2-2-3.6-0.6c-2.1-1.1-2.9-3.7-5.5-4.2l0,0C352.9,264.5,352.3,263.9,351.7,263.3z"/>
	<path class="st13" d="M328.6,126.7c-3.2,0.4-5.4-1.4-7.4-3.4c-6.7-6.8-12.6-14.4-19.7-20.9c-1-0.9-1.8-2-3.3-1.8
		c-0.2-0.2-0.4-0.4-0.6-0.6c-0.5-1.9-1.6-3-3.6-3c-3-2.4-6.1-4.9-9.1-7.3c0-0.8-0.4-1.2-1.2-1.2c-0.5,0-0.9-0.1-1.2-0.6
		c-0.7-2.5-2.7-3.4-4.9-4.2c-0.2,0-0.4,0-0.6,0c-0.1-1.3-1.1-1.8-1.9-2.5c-3.3-3.1-7.3-5.2-10.9-7.8c-0.6-0.4-1.3-0.9-1-1.7
		c0.4-1.1,1.2-0.2,1.8-0.1c1.6,0.2,3.1,1.7,4.8,0.6c7.7,5.7,15.5,11.2,23,17.1c10.6,8.4,20.2,18,28.6,28.6
		C323.8,120.8,326.5,123.5,328.6,126.7z"/>
	<path class="st13" d="M370,153.7c3.5,6.6,4.5,13.7,4,21s-2.2,14.4-4.7,22.3c-2.9-8.9-6.9-16.4-10.6-24.1c0.8-0.5,1.8-0.7,2.2-1.4
		C365,166.1,367.9,160.1,370,153.7z"/>
	<path class="st8" d="M54.9,179.5c-1.1-1.1,0-1.9,0.5-2.5c1.1-1.3,1.3-2.6,0.7-4.1c2.6,0.4,4-1,5.3-3.1c3.8-6.1,7.3-12.4,11.7-18.2
		c0.2,0.5,0.6,1,0.5,1.4c-1.6,4.6-0.7,9.2,0.1,13.9c0.7,4.1-0.2,7.6-3.8,10.3c-2.1,1.5-3.5,3.8-4.5,6.3c-0.5,1.4-1.6,2.3-3.2,2.2
		c-2.9-0.8-3.4-3.5-4.3-5.8C56.9,177.2,56,177.8,54.9,179.5z"/>
	<path class="st3" d="M62.1,185.6c1.7,0.1,2.7-0.8,3.2-2.2c0.9-2.5,2.4-4.7,4.5-6.3c3.6-2.7,4.5-6.2,3.8-10.3
		c-0.8-4.6-1.7-9.2-0.1-13.9c0.1-0.4-0.3-0.9-0.5-1.4c1.8-4.4,4.6-7.8,9.1-9.7c0,1.4-1.2,2-1.8,3c-0.8,1.4-2.3,2.5-1.8,4.4
		c0,0.2,0,0.3,0,0.5c-0.8,0-1.2,0.4-1.2,1.2l0,0c-0.5,0.3-0.6,0.7-0.6,1.2l0,0c-1.7,0.8-2.6,2.5-2.6,4.1c-0.1,3-0.1,6,0.6,8.9
		c1.3,5.2,3.8,9.9,6.9,14.3c0.3,0.7,0.4,1.6,0.8,2.2c1.5,2.6,0.6,4.4-1.5,6.1c-1.3,1.1-3.2,1.2-4.2,2.6c-3.1-1.5-6.7-1.4-9.9-2.5
		C65.1,187.4,63.2,187.3,62.1,185.6z"/>
	<path class="st13" d="M289.6,83.7c0.8-0.1,1.6-0.4,2.3-0.4c4.2,0.3,4.8,0.1,5.7-4.1c1.4-7,2.3-14,3.7-21c1.3-6.1,2.4-12.3,2.3-18.5
		c-0.1-7.3-2.7-14-5.2-20.8c-1.5-4.2-5.1-7.3-5.7-11.8c3.6,2.3,5.7,5.9,7.7,9.4c2.8,4.9,3.9,10.4,4.3,15.9
		c0.7,9.1,0.3,18.2-0.8,27.2c-1.1,9.6-1.2,19.2-2,28.8c-0.2,2.1-0.1,4.2,0.3,6.5C298.2,90.9,292.6,88.8,289.6,83.7z"/>
	<path class="st14" d="M269.8,72c-1.8,1.2-3.2-0.4-4.8-0.6c-0.6-0.1-1.4-0.9-1.8,0.1c-0.3,0.8,0.4,1.2,1,1.7
		c3.6,2.6,7.6,4.8,10.9,7.8c0.8,0.8,1.8,1.2,1.9,2.5c-4.6-2.7-9.2-5.2-13.8-8c-5.9-3.6-12.1-6.5-18.2-9.5
		c-6.2-3.1-12.3-6.5-18.4-9.8c6.3,0,12.3,2,18.3,3.4c4.7,1.1,9.2,3,13.7,4.7C263,66.1,266.3,69.2,269.8,72z"/>
	<path class="st13" d="M274,225.6c-9.1,1.7-18.4,1.9-27.6,1.7c-8-0.2-15.9-2-23.5-4.5c0.3-0.2,0.7-0.6,1-0.6
		c7.2,0.4,14.4,0.4,21.6,0.5c6.5,0.1,12.6-0.8,18.6-3.5c1.2-0.5,2.5-0.8,3.8-1c4-0.6,6.3,1.6,5.7,5.5
		C273.4,224.4,273.7,225,274,225.6z"/>
	<path class="st12" d="M274,225.6c-0.3-0.6-0.6-1.2-0.5-2c0.6-3.9-1.7-6.1-5.7-5.5c-1.3,0.2-2.6,0.5-3.8,1
		c-5.9,2.6-12.1,3.6-18.6,3.5c-7.2-0.1-14.4-0.1-21.6-0.5c-0.3,0-0.6,0.4-1,0.6c-4.2-1.4-8.4-2.9-12.5-4.3c-0.7-0.2-1.4-0.4-1.5-1.3
		c6.8,2.5,14,2.5,21.1,2.4c1.4,0,2.8,0,4.2,0.2c9.3,0.8,18.4,0.8,27.3-2.4c3.5-1.2,7-2.7,10.8-1.6c0.7,0.2,1-0.5,1.1-1.1
		c2.8,2,4.8,4.5,5.5,7.9l0,0c-0.1,0-0.2,0.1-0.2,0.1c0,0.1,0.1,0.3,0.1,0.4C277.6,224.8,276.1,225.8,274,225.6z"/>
	<path class="st1" d="M279.4,37.5c1,0.5,1.7,1.3,1.9,2.5c1,9.6,0.7,19-1.9,28.3c-0.6,2-1.6,3.9-3.6,5c-1.8-1-3.7-1.8-4.9-3.6
		c1,0,1.6-0.6,2.1-1.5c3-6.4,3.6-13.2,3.4-20c0-1.3-0.8-2.3-2.4-2.1C276.1,43.4,277.8,40.4,279.4,37.5z"/>
	<path class="st8" d="M181.1,203.2c2.8,0.4,5.4,1.6,8,2.5c12.8,4.5,26,7.6,39.6,8.1c6.1,0.2,12.3-0.4,18.4-0.1
		c5.7,0.2,10.9-0.6,16.2-2.1c1.4-0.4,3-0.7,3.4-2.5c0.8,0.6,1.6,1.2,2.4,1.9c-0.1,1.2-0.7,1.8-2,1.9c-1.2,0.1-2.4,0.4-3.5,0.6
		c-4.5,1.1-9,2.3-13.8,1.8c-0.8-0.1-1.3,0.4-1.4,1.2c-2.1,0.7-3.9-1.6-6.1-0.6c-1.1-0.4-2.4-1.5-3,0.6c-0.4,0-0.8,0-1.2,0
		c-1.3-1.1-2.9-1.2-4.6-1.2c-4.3,0-8.7-0.1-13,0.1c-1.7,0.1-3.3-1.6-4.9-0.1c-0.8-0.2-1.6-0.4-2.4-0.6c-3.4-1.2-6.8-2.2-10.3-2.4
		c-1.2,0-2.4-1.4-3.6,0c-0.6,0-1.2,0-1.8,0l0,0c-0.3-0.2-0.5-0.4-0.8-0.6c-0.5,0-1.1,0-1.6,0c0-0.5-0.1-0.9-0.6-1.2
		c-1.5-0.9-2.8-2.6-4.9-1.8C186.6,207,183.4,205.9,181.1,203.2z"/>
	<path class="st13" d="M76.1,155.3c-0.3,7.3,2.9,13,7.9,17.9c4.2,4.1,8.1,8.3,10.4,13.9c2.1,5.2,2.2,10.4,0.4,15.6
		c-0.3,0.9-0.9,2.1-1.9,2.1c-1.1,0-1.5-1.1-1.7-2.2c1.6-7.4-0.1-14.1-4.3-20.2c-3.2-4.8-8.2-8.4-9.8-14.2
		C76.1,164,74.5,159.7,76.1,155.3z"/>
	<path class="st5" d="M76.7,190.5c1-1.4,2.9-1.5,4.2-2.6c2.1-1.7,3-3.5,1.5-6.1c-0.4-0.7-0.5-1.5-0.8-2.2c0.9,0,1.5,0.6,2,1.1
		c5,4.9,6.6,11.1,7,17.8c0.1,1,0.2,2.1-1.2,2.3c-1.2-0.2-2.4-0.5-3.5-0.6c-1.5-0.2-2.8-0.7-3.3-2.3
		C81.5,194.7,79.2,192.5,76.7,190.5z"/>
	<path class="st3" d="M273.9,46c1.6-0.1,2.3,0.8,2.4,2.1c0.1,6.9-0.4,13.7-3.4,20c-0.4,0.9-1,1.5-2.1,1.5c-2-0.9-3.9-2-5.4-3.7
		c4.7-3.7,4.5-9,4.8-14.1c0.1-1.1-0.8-1.6-1.8-1.7C270.1,48.5,272.1,47.3,273.9,46z"/>
	<path class="st8" d="M268.5,50.2c1,0.1,1.8,0.6,1.8,1.7c-0.3,5.2-0.1,10.5-4.8,14.1c-2.7-2.1-5.8-3.7-9-4.7
		c-2.1-0.7-1.7-1.6-0.7-2.8c1.4-1.8,3.3-2.9,5.3-4C263.5,53.2,266,51.7,268.5,50.2z"/>
	<path class="st2" d="M78.5,149.3c-0.5-1.9,1-3,1.8-4.4c0.6-1,1.8-1.6,1.8-3c0.2-0.4,0.4-0.8,0.6-1.2l0,0c1.2-0.1,1.9-0.9,2.4-1.8
		c3.5,0,6.1-2.4,9.2-3.5c9.2-3.3,18.5-5.3,28.2-5.7c4.4-0.2,8.8-0.5,13.2,0.1c1,0.1,2.4-0.5,2.7,1.2c-9.6,1.6-19.3-0.2-28.9,2.2
		C97.9,136,86.9,140,78.5,149.3z"/>
	<path class="st4" d="M273.4,214.7c-0.1,0.7-0.4,1.3-1.1,1.1c-3.9-1.1-7.3,0.4-10.8,1.6c-8.9,3.1-18.1,3.2-27.3,2.4
		c-1.4-0.1-2.8-0.2-4.2-0.2c-7.1,0.1-14.3,0.2-21.1-2.4c-3.4-0.3-6.1-2-8.9-3.7l0,0c1.2-0.5,2.4,1,3.6,0c0.4,0,0.8,0,1.2,0
		c0.1,0.8,0.5,1.2,1.2,1.2c0.4,0,0.8,0,1.2,0c1.1,0.9,2.3,1.2,3.6,1.2c0.4,0,0.8,0,1.2,0c0.3,0.2,0.6,0.5,1,0.6
		c5.8,1.7,11.8,1.2,17.8,1.2c0.8,1.1,1.6,0.3,2.4,0c4.9,1.2,9.8,0.4,14.8,0.6c0.8,0,1.3-0.5,1.6-1.2c0.4,0,0.8,0,1.2,0
		c3.5,1.3,7.7,0.5,9.7-1.8c0.8,0,1.6,0,2.4,0c1.5-0.4,3-0.5,4.5-0.7c1.5-0.1,3.3,0.2,4.1-1.8C272.3,213.3,273.3,213.6,273.4,214.7z"
		/>
	<path class="st4" d="M356.5,168.7c-1.3-1.9-2.3-4-3.1-6.1c1.3-0.1,2.1-0.8,2.9-1.8c4.2-5.4,6.2-11.6,6.9-18.2
		c1.7,1.3,2.7,3,3.5,4.9c-0.1,0.1-0.2,0.2-0.2,0.2c0.1,0.1,0.2,0.3,0.3,0.4l0,0C366,156.2,362.3,163,356.5,168.7z"/>
	<path class="st1" d="M363.2,142.5c-0.7,6.7-2.7,12.9-6.9,18.2c-0.8,1-1.6,1.7-2.9,1.8c-1.6-1.2-1.9-3.2-2.9-4.9
		c1.2,0.1,2.1-0.5,2.8-1.4c3-3.6,4.1-7.9,5-12.3c0.3-1.3-0.9-1.6-1.7-2.1c0.1-0.3,0.3-0.5,0.4-0.8c2-4.3,2-4.3,5-0.4
		c0,0.5,0.1,0.9,0.6,1.2l0,0C362.8,142.1,363,142.3,363.2,142.5L363.2,142.5z"/>
	<path class="st8" d="M365,291.2c0.3-4.2-0.5-8.2-2.3-12c-0.7-1.4-0.9-2.9-0.7-4.4c1.5,1,3,1.9,4.5,2.9c3.1,2.2,6.5,2.3,10,1.3
		l0.1,0.1C375.1,285.7,370.2,290.9,365,291.2z"/>
	<path class="st12" d="M356.5,168.7c5.9-5.7,9.5-12.5,10.4-20.7c1.5,1.7,2.6,3.6,3.2,5.8c-2.1,6.4-5,12.3-9,17.8
		c-0.5,0.7-1.5,1-2.2,1.4C357.9,171.6,356.9,170.3,356.5,168.7z"/>
	<path class="st3" d="M356.5,141.9c0.9,0.5,2,0.8,1.7,2.1c-0.9,4.4-1.9,8.8-5,12.3c-0.7,0.9-1.6,1.5-2.8,1.4c-0.3-0.5-0.7-1-1-1.5
		c-3-4.5-2.8-4.3,1.3-7.9C352.9,146.5,354.6,144.1,356.5,141.9z"/>
	<path class="st2" d="M89.4,200.8c1.5-0.2,1.3-1.3,1.2-2.3c-0.5-6.7-2.1-12.9-7-17.8c-0.6-0.6-1.2-1.1-2-1.1
		c-3-4.4-5.5-9.1-6.9-14.3c-0.8-2.9-0.7-5.9-0.6-8.9c0.1-1.7,0.9-3.3,2.6-4.1c0,1.1-0.1,2.1-0.7,3.1c-1.6,4.5,0,8.7,1.2,12.8
		c1.6,5.8,6.5,9.5,9.8,14.2c4.1,6.1,5.8,12.9,4.3,20.2C90.5,202.2,89.9,201.6,89.4,200.8z"/>
	<path class="st13" d="M273.4,214.7c-0.1-1.1-1-1.4-1.8-1.8c-0.2-1.4-1.1-1.8-2.4-1.8c-0.8-0.6-1.6-1.2-2.4-1.9c0-0.2,0-0.4,0-0.5
		c0.4-2-2.4-2.9-1.9-5c3,2.8,6.1,5.5,9.5,7.8c3.7,2.5,6.4,6.8,4.5,11.2C278.2,219.2,276.2,216.7,273.4,214.7z"/>
	<path class="st10" d="M368.6,273.6c2.6,2.2,5.9,2.6,9.2,3c-2.4,2.1-4.9,2.3-7.8,1c-3.3-1.4-6.2-3.2-8.6-5.9c0.6,0,1.2,0,1.8,0
		C364.9,272.7,366.6,273.5,368.6,273.6z"/>
	<path class="st8" d="M261.2,202.6c-0.6-0.2-1.2-0.4-1.8-0.6c-2.3-3.1-5.2-6-4.9-10.3c1.9,1.8,3.4,3.9,4.9,6
		C259,199.7,261,200.8,261.2,202.6z"/>
	<path class="st2" d="M261.2,202.6c-0.3-1.8-2.2-2.9-1.8-4.9c1.4,1.2,3,2.3,3.6,4.1c0.3,0.3,0.6,0.5,0.8,0.8c0.3,0.3,0.7,0.7,1,1
		c-0.6,2.1,2.2,3,1.9,5C264,207.4,263.2,204.4,261.2,202.6z"/>
	<path class="st7" d="M363.2,271.8c-0.6,0-1.2,0-1.8,0c-0.8-0.8-1.9-1.3-2.4-2.4c1.5-1.4,2.4,0.4,3.6,0.6
		C362.8,270.6,363,271.2,363.2,271.8z"/>
	<path class="st1" d="M189.6,208.7c2.1-0.8,3.4,0.9,4.9,1.8c0,0.2,0,0.4,0,0.6C192.7,210.6,191,209.8,189.6,208.7z"/>
	<path class="st4" d="M197.5,212.3c0.6,0,1.2,0,1.8,0c0.2,0.4,0.4,0.8,0.6,1.2l0,0C198.9,213.4,198.1,213.1,197.5,212.3z"/>
	<path class="st9" d="M16.6,166.8c-0.1,0.8-0.2,1.5-1.2,0.6C15.7,166.9,16.1,166.8,16.6,166.8z"/>
	<path class="st2" d="M77.3,151c0-0.8,0.4-1.2,1.2-1.2C78.1,150.2,77.7,150.6,77.3,151z"/>
	<path class="st13" d="M332.4,132.2c-0.6-0.2-0.7-0.7-0.8-1.2C331.9,131.3,332.2,131.7,332.4,132.2z"/>
	<path class="st4" d="M194.4,211.1c0-0.2,0-0.4,0-0.6c0.5,0.3,0.6,0.7,0.6,1.2C194.8,211.5,194.6,211.3,194.4,211.1z"/>
	<path class="st13" d="M333.5,134c-0.5-0.2-0.6-0.7-0.7-1.2C333.1,133.2,333.3,133.6,333.5,134z"/>
	<path class="st13" d="M330.5,129.7c-0.6-0.2-0.6-0.7-0.6-1.3C330.3,128.8,330.5,129.2,330.5,129.7z"/>
	<path class="st13" d="M329.4,127.9c-0.6-0.1-0.8-0.6-0.8-1.2C328.9,127.1,329.2,127.5,329.4,127.9z"/>
	<path class="st2" d="M381.4,264.6c0-0.5,0.1-1,0.6-1.3C382,263.8,381.9,264.3,381.4,264.6z"/>
	<path class="st4" d="M362.6,141.9c-0.5-0.2-0.6-0.7-0.6-1.2C362.4,141,362.6,141.4,362.6,141.9z"/>
	<path class="st2" d="M76.7,152.2c0-0.5,0.1-1,0.6-1.2C77.3,151.5,77.2,152,76.7,152.2z"/>
	<path class="st4" d="M363.2,142.5c-0.2-0.2-0.4-0.4-0.6-0.6C362.8,142.1,363,142.3,363.2,142.5z"/>
	<path class="st13" d="M331.2,130.3c-0.2-0.2-0.5-0.4-0.7-0.6C330.7,129.9,330.9,130.1,331.2,130.3z"/>
	<path class="st4" d="M196.7,211.7c0.3,0.2,0.5,0.4,0.8,0.6C197.2,212.1,196.9,211.9,196.7,211.7z"/>
	<path class="st13" d="M263.9,202.6c-0.3-0.3-0.6-0.5-0.8-0.8C263.3,202,263.6,202.3,263.9,202.6z"/>
	<path class="st13" d="M278.8,223.2c0-0.1-0.1-0.3-0.1-0.4l0.2-0.1C278.9,222.8,278.9,223,278.8,223.2z"/>
	<path class="st9" d="M258.2,192.9c0.2,0.2,0.4,0.4,0.6,0.6C258.6,193.3,258.4,193.1,258.2,192.9z"/>
	<path class="st12" d="M381.3,242c-0.1-0.1-0.1-0.3-0.2-0.4c0,0,0.1-0.1,0.2-0.2C381.4,241.6,381.4,241.8,381.3,242z"/>
	<path class="st1" d="M115.5,79.4c-0.2,0.2-0.4,0.4-0.6,0.6C115.1,79.8,115.3,79.6,115.5,79.4z"/>
	<path class="st12" d="M366.9,148c-0.1-0.1-0.2-0.2-0.3-0.4c0,0,0.1-0.1,0.2-0.2C366.8,147.6,366.8,147.8,366.9,148z"/>
	<path class="st8" d="M376.5,279c0.1-0.1,0.2-0.1,0.3-0.2C376.7,278.9,376.7,279,376.5,279C376.6,279.1,376.5,279,376.5,279z"/>
	<path class="st0" d="M316.4,209.9c0.3,3.9,2.3,7.5,2.5,11.5c-0.1,6.3-0.1,6.3-6.2,4c-0.5-0.2-1.2-0.2-1.8-0.3
		c-3.8-1.8-8.2-1.9-11.9-4.1c-4.1-2.4-6.9-5.6-8.2-10.3c-0.5-1.7-1.2-3.4-1.8-5.1c-0.3-4-1.8-7.4-4.1-10.7c-1.3-1.8-1-3.3,1.7-3.3
		c2.6,0.9,5.3,0.6,7.9,0.5c9.5,0.2,14.8,6.4,19.3,13.7C314.7,207.3,314.9,209,316.4,209.9z M286.2,193.2c-0.2,0.2-0.4,0.3-0.6,0.5
		c4.6,3.8,4.3,9.3,5.8,14.2c2.3,7.4,6.7,12.2,14.3,14.1c3,0.8,5.9,1.9,8.9,3c0.9,0.3,1.7,1.2,2.8,0.3c0.9-0.8,0.7-1.7,0.5-2.8
		c-1.2-8.4-4.5-15.9-9.9-22.4c-2.8-3.4-6.2-5.8-10.7-6.3C293.6,193.4,289.9,193.4,286.2,193.2z"/>
	<path class="st0" d="M118,125.5c0.2,0,0.4,0,0.6,0c2.7,0.1,5.4-0.3,8.6,0.3c-1.8,1.3-3.6,1.3-5,1.4c-9.4,0.1-18.3,2.3-26.9,6
		c-0.4,0.2-1,0.1-1.5,0.2c1.1-1.2,5.9-3.5,9.1-4.2c4.3-1,8.5-2,12.8-3C116.4,126,117.3,126.4,118,125.5z"/>
	<path class="st0" d="M85.2,138.9c-0.6,0.9-1.2,1.7-2.4,1.8c0.1-1.5,1-2.2,2.4-2.4C85.2,138.5,85.2,138.7,85.2,138.9z"/>
	<path class="st0" d="M82.8,140.7c-0.2,0.4-0.4,0.8-0.6,1.2c-4.5,1.9-7.3,5.4-9.1,9.7c-4.4,5.7-7.9,12-11.7,18.2
		c-1.3,2.1-2.7,3.5-5.3,3.1c-0.6-1-0.7-2.1-0.6-3.2c1.2-8.3,4.8-15.5,10.2-21.8c1.8-2.1,3-5.1,6.1-6l0,0c-1.5,4.2-5,7-7.7,10.3
		c-3.9,4.8-6.3,10.3-7.3,16.3c-0.2,1-0.8,2.4,0.6,2.9c1.2,0.4,1.6-0.9,2-1.8c4.5-8,10.3-15.1,15-23
		C76.2,143.6,79.1,141.3,82.8,140.7z"/>
	<path class="st0" d="M81,135.5c-1.1,1.9-3.1,2.5-5.2,2.9C77,136.5,78.9,135.9,81,135.5z"/>
	<path class="st8" d="M118,125.5c-0.7,0.8-1.6,0.5-2.5,0.6C115.9,124.1,117.1,125.2,118,125.5z"/>
	<path class="st0" d="M71.8,141.9c0-0.1,0.1-0.2,0.1-0.2S71.9,141.8,71.8,141.9C71.9,141.9,71.8,141.9,71.8,141.9z"/>
	<path class="st14" d="M277.6,83.6c2.1,0.8,4.2,1.8,4.9,4.2C280.3,87.1,278.3,86.1,277.6,83.6z"/>
	<path class="st14" d="M294,97c2.1,0,3.2,1.1,3.6,3C295.8,99.7,295,98.3,294,97z"/>
	<path class="st14" d="M283.7,88.5c0.8,0,1.2,0.4,1.2,1.2C284.1,89.7,283.7,89.3,283.7,88.5z"/>
	<path class="st0" d="M334.9,249.7c2.8-0.1,3.5,1,4.2,3.4C337.6,251.8,336.6,251,334.9,249.7z"/>
	<path class="st0" d="M351.7,263.3c0.6,0.6,1.2,1.2,1.8,1.8c-1.1,0.1-2.1-0.2-2.5-1.2C350.7,263.4,351.3,263.4,351.7,263.3z"/>
	<path class="st5" d="M233.3,217.8c-0.8,0.3-1.6,1.1-2.4,0c-0.4-1.8-1.9-1.1-2.9-1.2c-4.1-0.2-8.3,0.6-12.3-1.2
		c1.6-1.5,3.2,0.2,4.9,0.1c4.3-0.2,8.7-0.1,13-0.1c1.6,0,3.2,0.1,4.6,1.2C236.8,218,234.7,216.3,233.3,217.8z"/>
	<path class="st1" d="M233.3,217.8c1.4-1.4,3.5,0.2,4.9-1.2c0.4,0,0.8,0,1.2,0c1-0.1,2.2,0.4,3-0.6c2.1-1,4,1.3,6.1,0.6
		c0.5,0,1,0.1,1.2,0.6c-0.3,0.7-0.9,1.2-1.6,1.2C243.2,218.2,238.2,219,233.3,217.8z"/>
	<path class="st1" d="M215.7,215.3c3.9,1.9,8.2,1,12.3,1.2c1.1,0.1,2.5-0.6,2.9,1.2c-6,0-12,0.4-17.8-1.2c-0.4-0.1-0.7-0.4-1-0.6
		c0.4-0.4,0.8-0.8,1.2-1.2C214.1,214.9,214.9,215.1,215.7,215.3z"/>
	<path class="st5" d="M249.7,217.2c-0.3-0.5-0.7-0.6-1.2-0.6c0.1-0.8,0.6-1.3,1.4-1.2c4.7,0.4,9.2-0.7,13.8-1.8
		c-0.2,0.6-0.4,1.2-0.6,1.8c-0.8,0-1.6,0-2.4,0c-3.2,0.6-6.5,1.2-9.7,1.8C250.5,217.2,250.1,217.2,249.7,217.2z"/>
	<path class="st1" d="M263,215.3c0.2-0.6,0.4-1.2,0.6-1.8c1.2-0.2,2.4-0.5,3.5-0.6c1.2-0.1,1.8-0.7,2-1.9c1.3,0,2.2,0.4,2.4,1.8
		c-0.8,1.9-2.6,1.6-4.1,1.8C266,214.8,264.5,215,263,215.3z"/>
	<path class="st5" d="M213.3,214.7c-0.4,0.4-0.8,0.8-1.2,1.2c-0.4,0-0.8,0-1.2,0c-0.8-1.7-2.1-1.7-3.6-1.2c-0.4,0-0.8,0-1.2,0
		c0-0.8-0.4-1.2-1.2-1.2c-0.4,0-0.8,0-1.2,0c-0.2-0.4-0.4-0.8-0.6-1.2C206.5,212.6,209.9,213.6,213.3,214.7z"/>
	<path class="st1" d="M203,212.3c0.2,0.4,0.4,0.8,0.6,1.2c-1.2,1-2.4-0.5-3.6,0c-0.2-0.4-0.4-0.8-0.6-1.2
		C200.5,210.9,201.7,212.3,203,212.3z"/>
	<path class="st5" d="M242.4,215.9c-0.9,1-2,0.5-3,0.6C240,214.4,241.3,215.6,242.4,215.9z"/>
	<path class="st1" d="M250.9,217.2c3.2-0.6,6.5-1.2,9.7-1.8C258.6,217.6,254.4,218.4,250.9,217.2z"/>
	<path class="st1" d="M207.2,214.7c1.5-0.5,2.8-0.5,3.6,1.2C209.5,215.9,208.3,215.6,207.2,214.7z"/>
	<path class="st1" d="M204.8,213.5c0.8,0,1.2,0.4,1.2,1.2C205.2,214.7,204.8,214.3,204.8,213.5z"/>
	<path class="st11" d="M286.2,193.2c3.7,0.2,7.4,0.2,11,0.6c4.4,0.5,7.9,3,10.7,6.3c5.4,6.5,8.7,14,9.9,22.4c0.2,1,0.3,2-0.5,2.8
		c-1,0.9-1.8,0-2.8-0.3c-2.9-1-5.9-2.2-8.9-3c-7.6-1.9-12-6.7-14.3-14.1c-1.5-4.9-1.1-10.5-5.8-14.2
		C285.8,193.5,286,193.4,286.2,193.2z"/>
</g>
</svg>
