<?xml version="1.0" encoding="utf-8"?>
<!-- Generator: Adobe Illustrator 22.1.0, SVG Export Plug-In . SVG Version: 6.00 Build 0)  -->
<svg version="1.1" id="Laag_1" xmlns="http://www.w3.org/2000/svg" xmlns:xlink="http://www.w3.org/1999/xlink" x="0px" y="0px"
	 viewBox="0 0 421 245" style="enable-background:new 0 0 421 245;" xml:space="preserve">
<style type="text/css">
	.st0{fill:#1E1E1E;}
	.st1{fill:#F1C730;}
	.st2{fill:#D8B32B;}
	.st3{fill:#F8E397;}
	.st4{fill:#C7A528;}
	.st5{fill:#B17E20;}
	.st6{fill:#A4741D;}
	.st7{fill:#B27E20;}
	.st8{fill:#A67620;}
	.st9{fill:#F7E296;}
	.st10{fill:#B07D20;}
	.st11{fill:#D3B98A;}
	.st12{fill:#D7BC8B;}
	.st13{fill:#DEB72C;}
	.st14{fill:#D7B22B;}
	.st15{fill:#EBC22F;}
	.st16{fill:#D5BC8D;}
	.st17{fill:#A2731D;}
	.st18{fill:#D3B98B;}
	.st19{fill:#BDA77F;}
	.st20{fill:#D1AD2B;}
	.st21{fill:#AE7C22;}
	.st22{fill:#DEB82E;}
	.st23{fill:#AB7B24;}
	.st24{fill:#D6BA88;}
	.st25{fill:#D3B887;}
	.st26{fill:#C0A980;}
	.st27{fill:#EED98C;}
	.st28{fill:#D3BE74;}
	.st29{fill:#BA9A28;}
	.st30{fill:#ECC32F;}
	.st31{fill:#A67720;}
	.st32{fill:#CAB287;}
	.st33{fill:#C0AA81;}
	.st34{fill:#B09C77;}
	.st35{fill:#D8BE8F;}
	.st36{fill:#D3AE2A;}
	.st37{fill:#1F1E1E;}
	.st38{fill:#3D3721;}
	.st39{fill:#423B21;}
	.st40{fill:#373220;}
	.st41{fill:#343020;}
	.st42{fill:#302C1F;}
	.st43{fill:#373428;}
	.st44{fill:#473E21;}
	.st45{fill:#3F3921;}
	.st46{fill:#3A3520;}
	.st47{fill:#27251F;}
	.st48{fill:#2B281F;}
	.st49{fill:#353020;}
	.st50{fill:#3E3820;}
	.st51{fill:#B07E21;}
	.st52{fill:#D0B688;}
	.st53{fill:#422E23;}
	.st54{fill:#352D1F;}
	.st55{fill:#B17D20;}
	.st56{fill:#B07D21;}
	.st57{fill:#B17E21;}
	.st58{fill:#B17D21;}
	.st59{fill:#D5BA8C;}
	.st60{fill:#352D20;}
	.st61{fill:#D4BA8B;}
	.st62{fill:#372B22;}
	.st63{fill:#362620;}
	.st64{fill:#3A281F;}
	.st65{fill:#CDB384;}
	.st66{fill:#372A27;}
	.st67{fill:#2A2422;}
	.st68{fill:#3A291F;}
	.st69{fill:#D4BA8A;}
	.st70{fill:#30231F;}
	.st71{fill:#8995A1;}
	.st72{fill:#142D44;}
	.st73{fill:#173047;}
	.st74{fill:#12293F;}
	.st75{fill:#142D45;}
</style>
<g>
	<path class="st0" d="M79,93.9c13-5.3,26.5-8.7,40.5-10c1.6-0.2,3-0.8,3.3-2.5c0.7-3.7,2.9-5.5,6.6-5.5c2.5-0.1,3.5-1.6,3.5-3.9
		c0-3,0-6,0.1-9c0.2-5.5,2.9-9.4,8.3-10.4c4.2-0.7,5-2.8,4.8-6.5c-0.2-4.7-0.1-9.3-0.1-14c0-2.6-0.8-4.9-3.3-6.3
		c-2.6-1.4-3.2,1.1-4.8,2.1c-3,1.9-6.5,1.4-9.7,0.6c-3-0.7-2.1-3.8-2.2-6c-0.1-2-0.2-4,0-6c0.2-2.5-1.3-6.2,2.1-7
		c3.6-0.8,7.9-2.3,11,1.9c0.6,0.9,1.5,1.5,2.5,1.4c4.2-0.4,7.7,1.9,11.4,3.3c5.7,1,6.6,5.5,7.5,10.1c-1,5.6-1,11.2-0.9,16.8
		c0,1.5,0.1,3,0.9,4.3c0.6,1,1.4,1.9,2.8,1.7c1.3-0.2,2-1.1,2.2-2.3c0.4-2.8,0.7-5.7-0.5-8.3c-2.1-4.5-1.6-9-0.9-13.5
		c0.5-0.7,1.1-1.1,2.1-1c3.8,0,7.7,0,11.5,0.1c2.2,0.1,5.4-1.1,6,1.9c0.7,3.2,1.7,6.9-1,10c-2.1,2.4-3.6,11.6-2.2,14.5
		c1.2,2.4,3.4,1.7,5.3,1.7c9.5,0,18.8,1.4,27,6.1c7.1,4,13.6,9,20.1,13.9c3.8,2.9,7.6,4.5,12.4,4c4.3-0.5,7.1,1.5,7.8,5.8
		c0.3,2.2,1.4,3.1,3.5,3.4c15.3,2.2,30.5,5,45.2,10.1c1.9,0.7,3.6-0.2,5.3-0.8c10.6-3.7,21.4-6.3,32.4-8.1
		c10.9-1.8,16,1.7,18.1,12.4c1.3,6.4,0.2,12.6-0.7,18.8c-0.4,2.6,0.4,4,2.5,5.3c6,3.7,11.8,7.4,17.7,11.2c0.8-0.1,1.6,0.1,2.2,0.6
		c1.5,1,1.6,2.8,3.5,5c-0.2-7.9,0.4-14.9,0.8-21.8c0.2-3.8-0.7-7.6,0.8-11.3c0.8-0.9,1.7-1.3,2.7-0.4c3.7,1.4,7.8,1.4,11.3,3.8
		c10.4,7.4,12.5,20,5,30.7c-1.7,2.5-3.1,4,0,6.8c3.9,3.5,4.1,10.6,0.1,14c-3.5,3.1-1.7,4.7,0,7.2c7.9,11.5,4.5,25.8-7.4,31.9
		c-0.7,0.4-1.5,0.8-2.3,1c-7.5,2.5-8.7,1.7-8.7-6.3c0-8.7,0-17.3,0-26c0-1.9,0.4-4.4-2.3-4.9c-3.2-0.5-2.5,2.5-3,4.2
		c-1,3.9-3,6.9-6.5,9c-4.6,2.7-9,5.6-13.6,8.4c-2.2,1.3-3.2,2.7-2.8,5.6c0.9,7.2,2.2,14.5,0.3,21.8c-1.7,7-4.6,9.5-11.7,9.7
		c-12.9,0.4-25-3.6-37-7.6c-4.3-1.4-8.2-1.4-12.6,0c-18.2,5.9-36.9,8.2-55.9,9.6c-30.6,2.3-61.2,2.4-91.8,1.7
		c-22.6-0.5-45.3-1.6-66.6-10.8c-2.1-0.9-4.2-1.9-6.4-2.9c-3.8-1.7-7.2-3.9-10.6,1.2c-1.7,2.6-5.4,2.2-8.3,0.7
		c-5.6,0.2-14.4-6.1-15.3-11c-1.2-2.7-1.8-5.7,0-8.1c2.2-3,0.7-4.7-1.3-6.8c-21.2-21.6-21-47.9,0.1-69.4c7.8-8,16.8-14.1,26.5-19.3
		c2.6-1.4,5.2-2.9,7.8-4.3C75,93.6,76.6,92.8,79,93.9z"/>
	<path class="st1" d="M196.9,222.8c-31.9,0-64,1.8-95.6-4.8c-13.7-2.8-26.2-8.7-38.2-15.5c-1.8-1-3.1-1.8-1.8-4.4
		c10.8-21.2,12.9-43.4,7.7-66.5c-0.1-0.5,0-1,0-1.5c1.7-1.2,3.1-0.2,4.6,0.6c11.1,5.8,26.3-1.2,31.9-9.4c4.6-6.7,1.8-13.6-6.3-14.9
		c-10.9-1.7-19.8,2.6-27.3,10.3c-0.7,0.9-1.4,1.9-1.7,3.1c-0.5,1.7-1.2,3.3-3.3,3.4c-1.3-3-2.5-6-3.8-9c0.6-2.4,2.3-3.8,4.4-5.1
		c20.9-12.6,43.6-18.1,67.8-19.5c25-1.5,49.9-1,74.8-0.7c26.7,0.3,53.4,1.5,79.5,8.6c6.7,1.8,13.4,3.8,19.9,6.4
		c1.5,0.6,3.2,0.9,4.1,2.5c-6.4,11.2-10.6,23.1-12,36c-0.3,3.2-1,5.4-5,4.7c-2.4-0.5-3.7,0.8-3.6,3.4c0.1,2.8,0.1,5.6,0,8.5
		c0,2,0.9,3.1,2.9,3.3c3.4,1,5.1,3.5,5.8,6.8c1.1,5,2.2,9.9,3.2,14.9c1,3.2-1.1,4.8-3.4,6.4c-15.3,10.7-32.6,17.4-50.4,22.5
		c-19.2,5.4-38.7,9.8-57.9,8.7C194.4,221.4,194.8,221.5,196.9,222.8z"/>
	<path class="st1" d="M59.3,116.3c11.9,26.4,11.1,52.7-0.9,78.9c-1.2,2.6-2.2,3.1-4.7,1.2c-8.9-7-17.3-14.4-21.9-25.2
		c-6.9-21.9,5.1-38.9,19.7-50.7c0.7-0.2,1.5-0.2,1.9-0.9C54.8,117.3,56.6,116,59.3,116.3z"/>
	<path class="st2" d="M196.9,222.8c-3.2-1.6-6.9-0.2-11.5-1.4c22.3-1.4,42.9-4.7,63.1-10.3c18.5-5.2,36.4-12,52.4-23
		c1.6-1.1,3.5-2,4.1-4.1c2.6,6.1,4.7,12.5,8.3,18c2,3-0.4,3.3-2.2,4c-15.2,6.1-30.9,10.5-47.1,12.8
		C241.8,221.8,219.4,222.9,196.9,222.8z"/>
	<path class="st3" d="M313.7,106.4c-18.6-6.6-37.6-11.1-57.3-12.9c-14.4-1.3-28.9-2.2-43.3-2.4c-21-0.3-41.9-0.2-62.9,0
		c-31,0.2-60.5,6-87,23.1c-3.2-5.8-3.2-5.8,2.5-9C85.5,93.8,107,88,129.8,87c38.2-1.6,76.5-1.6,114.7,1.1c22.8,1.6,45.1,6.2,66.3,15
		C312,103.6,315,103.3,313.7,106.4z"/>
	<path class="st4" d="M328,162.2c8.4-0.1,16.9-0.1,25.3-0.2c1.9,0,4,0.4,5.6-1.2c5,2,7.9,6.4,11.2,10.2c0.8,0.9,0.7,2.2,0,3.3
		c-12.7,8.8-25.8,16.8-40,23c-4.4-0.1-6-5.3-10.2-5.8c-1.2-1-2.3-2.2-3.4-3.2c-0.5-3.7-4.6-5.6-4.7-9.5
		C316.2,172.3,320.6,165.8,328,162.2z"/>
	<path class="st2" d="M370.1,174.3c-2.2-3.6-5.6-6-8.4-9c-1.2-1.3-2.5-2.6-2.9-4.5C358.7,147,358.7,147,345,147c-3,0-6-0.1-9-0.2
		c-1.6-1.3-2-2.9-1.5-4.9c2-7.6,1.5-15-1.2-22.3c-0.4-1.1-0.4-2.3,0.1-3.4c1.5-1.8,3-0.5,4.3,0.1c3.6,1.6,6.9,3.6,10.3,5.5
		c8.7,4.2,16.6,9.6,24.5,15c2.4,1.6,3.2,3.5,3.2,6.2c0,7.6,0,15.2,0,22.9C375.8,170,374.1,172.9,370.1,174.3z"/>
	<path class="st5" d="M208,60.9c5.9,0.6,9.1,5.6,13.7,9.3c-4.4,0-8.8,0-13.2,0c6.6,3.5,14.4-0.7,20.5,5.2c-29.6,0-59.2,0-88.8,0
		c-1.2-1.1-1.1-2.2,0.1-3.3c20.4,0,40.9,0,61.3,0c0-0.7,0-1.5,0-2.2c-18.1,0-36.3,0-54.4,0c-0.8-1-1.2-2.2-1.8-3.5
		c-1,1.2-0.9,2.7-2,3.4c-1,0-2.1,0-3.1,0c-2.8-2.2-2.4-4.9-1.3-7.7c1.1-2.8,3.3-4.2,6.2-4.2c17.6,0.2,35.2-0.7,52.8,0.6
		C201.3,58.9,204.6,60,208,60.9z"/>
	<path class="st3" d="M67,123.2c0.6-1.4,1.2-2.9,1.9-4.3c1.6-0.5,2-1.5,1.4-3c7.7-9.7,17.8-13.6,29.8-11.8c8.2,1.3,12.1,8.2,9,15.4
		c-5.6,13.2-29.5,21.5-40.1,10.5C68,127.9,67.2,125.6,67,123.2z"/>
	<path class="st1" d="M334.1,115.8c5.3,10,4.5,20.5,1.9,31c-9.3,0.1-18.6,0.1-27.8,0.2c-1.9,0-3.1-0.2-2.7-2.7
		c1.8-12.9,5.1-25.3,12.5-36.2c5.7,0.3,10,4.1,15.1,5.8c0.4,0.1,0.7,0.2,1.1,0.2C334.6,114.7,334.6,115.3,334.1,115.8z"/>
	<path class="st6" d="M332,217.8c-7.5-1.3-14.8-3.5-22-6c0.1-1.4,1.3-1.5,2.1-1.8c12.5-5,24.7-10.7,36.4-17.4
		c3.6-2.1,4.6-1.1,4.7,2.6c0.1,2.6,0.4,5.3,0.6,7.9c-3.7,8.2-11.6,10.7-19,13.9C333.9,217.3,332.8,217.1,332,217.8z"/>
	<path class="st7" d="M353.2,98.2c1.5,6,0.5,11.9-0.3,17.8c-0.3,2.3-1.6,2.2-3.2,1.3c-10.3-6.1-21.3-10.8-32-16.1
		c0-2.1,1.4-3.2,3.2-4c6.4-2.7,13.1-4.1,20-5.2C346.5,91.2,350.4,93.7,353.2,98.2z"/>
	<path class="st8" d="M129.2,79.5c4.6-1,9.3-0.2,13.9-0.2c32.3-0.1,64.6,0,96.9,0c1.5,0,3,0,4.5,0c2.1,0.1,4.3,0.4,4.3,3
		c0,3.3-2.7,1.7-4.1,1.6c-31.9-2.3-63.9-1.8-95.8-1.8c-3.8,0-7.6,0.2-11.5,0.4c-1.4-1.6-3.3-1-5-1.1C131,81.4,129.4,81.7,129.2,79.5
		z"/>
	<path class="st9" d="M59.3,116.3c-1.3,2-3.2,3-5.2,4.1c-0.3,0.7-0.8,1.1-1.6,1.1c-5,5.6-10.5,10.6-14.4,17.1
		c-5,8.2-7.3,17-6.3,26.6c0.2,2,0.1,4,0.1,6c-6.2-12.1-5.2-24,1-35.7c5.5-10.4,14.1-17.9,23.8-24.8
		C57.7,112.8,58.5,114.6,59.3,116.3z"/>
	<path class="st10" d="M402.8,133.3c-1.9,5.1-5.4,8.6-10.5,10.5c-2.2,0.8-3.9,0.9-3.9-2.3c0.1-10.1,0.1-20.1,0.2-30.2
		c3.2,2.6,6.3,5.3,9.4,8C402.2,123.1,402.8,128.1,402.8,133.3z"/>
	<path class="st11" d="M208,60.9c-19.2-1.7-38.4-0.7-57.6-1c-9.7-0.1-10.1,0.4-10.3,9.9c-2.3,0.5-3.6,0.1-3.7-2.8
		c-0.3-8,2.2-11,10.3-10.8c16.4,0.3,32.9-1,49.2,0.8C200.1,57.4,204.4,58.1,208,60.9z"/>
	<path class="st10" d="M389,165.1c8.4,0.3,12,5.7,14,12.9c0.2,4.3-0.8,8.2-4,11.4c-2.3,2.3-5,3.3-8.1,2.3c-3.2-1.1-2.5-4-2.4-6.3
		C388.8,178.6,387.8,171.8,389,165.1z"/>
	<path class="st12" d="M297.3,154.5c-0.6-2.6,0.4-3.5,3.1-3.5c17.1,0.1,34.2,0.1,51.3,0c2.7,0,3.6,1,3.1,3.5c-1.2,2.2-3.2,2-5.2,2
		c-15.7,0-31.3,0-47,0C300.5,156.5,298.4,156.6,297.3,154.5z"/>
	<path class="st13" d="M328,162.2c-4.5,6.1-9.5,11.6-15,16.8c-0.3,0.3-0.7,0.5-1.2,0.6c-1.8,0.1-2.3-2.1-3.9-2.5
		c-0.2-0.4-0.6-0.8-0.7-1.3c-3.2-13.8-3.2-13.9,10.8-13.8C321.4,162,324.7,162.1,328,162.2z"/>
	<path class="st14" d="M312,179c0.3,0,0.6,0,1,0c1.6,1.8,3.1,3.7,4.9,5.4c2.1,2,0.3,2.6-0.9,3.4c0.4,1.6,1.9,2.2,3,3.2
		c1.1-1.5,2.2-2.9,4-0.6c1.9,2.4,4.1,4.6,6.2,6.9c-14,7.1-10.6,7.6-17.2-5.1c-1.7-3.2-3.1-6.6-3.7-10.2
		C309.8,180.7,310.1,179,312,179z"/>
	<path class="st15" d="M142,16.9c7.4,0.4,12.2,4.9,12.5,12.1c0.3,6.6,0.1,13.3,0.1,19.9c0,1.7,0.1,3.3-2.5,3.3
		c-2.7,0-2.2-1.9-2.2-3.4c0-5.6-0.1-11.3,0-16.9c0.1-4.6-1.4-8.1-5.8-10C141.3,21.1,139.7,19.8,142,16.9z"/>
	<path class="st16" d="M353.2,98.2c-12.6-8.8-23.9-1.7-35.5,2.9c-2.6-0.5-5-1.5-8.1-3.3c12.3-3.8,23.6-7.6,35.9-7.7
		C350.9,90.2,352.6,93.7,353.2,98.2z"/>
	<path class="st5" d="M332,217.8c0.4-1.6,1.8-2.3,3.1-2.9c6.7-3.2,12.7-7.5,18.6-11.9c0.9,14.4-2.5,17.6-16.4,15.9
		C335.5,218.7,333.8,218.2,332,217.8z"/>
	<path class="st7" d="M297.3,154.5c16,1,32,0.2,48,0.4c3.2,0,6.3-0.3,9.5-0.4c0.5,2.6-0.4,3.6-3.1,3.6c-17.1-0.1-34.1-0.1-51.2,0
		C297.7,158,296.7,157,297.3,154.5z"/>
	<path class="st17" d="M389,165.1c0,6.6,0,13.2,0,19.9c0,5,2.5,6.3,7,4c4.5-2.3,5.2-7,7-11c2.3,8.3-3.2,18-11.3,19.9
		c-1.5,0.4-3.3,0.8-3.3-1.5C388.6,185.9,387.4,175.5,389,165.1z"/>
	<path class="st18" d="M402.8,133.3c-2-7.2-4.9-13.6-12.6-16.6c-2.3-0.9-0.8-3.6-1.6-5.4c8.5-0.6,16.4,8.9,15.1,18.1
		C403.5,130.7,403.1,132,402.8,133.3z"/>
	<path class="st5" d="M394.9,148.1c5,0.6,7.6,3.4,7,7.5c-0.6,3.6-3.8,6-7.6,5.5c-4.1-0.5-5.8-3.4-5.2-8.3
		C392.1,152.4,393.2,149.9,394.9,148.1z"/>
	<path class="st19" d="M174.2,27.4c1.2,0,2.3,0,3.5,0c1.2,0,2.4,0.1,2.3,1.8c-0.1,1.4-0.3,2.7-2.1,2.8c-2.2,0.1-4.3,0-6.5,0.1
		c-1.9,0.1-2.8-1-2.9-2.6c-0.1-2.3,1.7-2,3.2-2C172.5,27.3,173.3,27.3,174.2,27.4C174.2,27.4,174.2,27.4,174.2,27.4z"/>
	<path class="st20" d="M384.6,154.6c0,1,0,2,0,3c0.1,1.8-0.7,2.7-2.7,2.6c-1.9,0-2.1-1.1-2.1-2.6c0-1.8,0-3.6,0-5.4
		c0-1.6-0.3-3.4,2.3-3.4c2.5,0,2.5,1.6,2.5,3.3C384.6,152.9,384.6,153.8,384.6,154.6C384.6,154.6,384.6,154.6,384.6,154.6z"/>
	<path class="st21" d="M52.4,200.3c1.6,1.1,3.2,2.4,5,3.3c2,1.1,2.5,2.1,1,4.2c-1.5,2.1-2.7,1.9-4.4,0.5c-1.8-1.4-3.8-2.7-5.7-4
		C48.6,202,50.2,200.8,52.4,200.3z"/>
	<path class="st22" d="M176,51.8c-2.8,1-4.5,0.5-4.2-2.9c0.2-3.3,0.2-6.6,0.3-9.8c1.3-1.1,2.7-1,4.1-0.1l0,0
		C176.7,43.2,176.9,47.5,176,51.8z"/>
	<path class="st23" d="M134.7,15.3c0,2.5,0.1,4.9,0.1,7.4c0,1.7-1.1,2.2-2.6,2.1c-1.4,0-2.1-0.7-2.1-2.1c0-2.3,0.1-4.6,0.1-6.9
		C131.5,14.4,133,14,134.7,15.3z"/>
	<path class="st24" d="M143.2,69.8c-0.9-2.5-2-5.1,0.3-7.4c0.9-0.9,2.4-0.8,3.2,0c2.1,2.3,1.4,4.8,0.3,7.3
		C145.8,69.8,144.5,69.8,143.2,69.8z"/>
	<path class="st25" d="M394.9,148.1c0.5,2.1,1,4.3-1.1,5.9c-2,1.6-3.3-0.1-4.7-1.3C389.8,149.6,391.7,148,394.9,148.1z"/>
	<path class="st26" d="M129.2,79.5c2.1,0.1,4.2,0.2,6.3,0.3c2,0.1,2.7,0.9,1.9,2.8c-2.5,0.2-4.9,0.4-7.4,0.4c-1,0-2.5,0.6-3-0.8
		C126.6,80.6,127.9,79.9,129.2,79.5z"/>
	<path class="st27" d="M333,113.9c-5.5-0.6-10.2-3.7-15.1-5.8c0.6-2,2-1.3,3.2-0.7C325.1,109.3,329.6,110.6,333,113.9z"/>
	<path class="st28" d="M334.1,115.8c0-0.6,0-1.1,0-1.7c5.2,1.6,10.1,3.9,14,7.8C343,120.8,339,117.3,334.1,115.8z"/>
	<path class="st29" d="M142,16.9c-0.3,2,0.4,3.7,2,5c-1.8-0.7-5,1.1-5.2-2.7C138.7,16.8,139.6,15.7,142,16.9z"/>
	<path class="st13" d="M301.8,169c-1.9-2.3-3.9-4.5-5.8-6.8C302.4,160.6,301.5,165.3,301.8,169z"/>
	<path class="st30" d="M312,179c-0.9,1-1.9,2-2.8,2.9c-0.7-1.5-1.4-3.1-1.3-4.8C310.8,174.5,310.7,178.3,312,179z"/>
	<path class="st31" d="M63.7,208.8c-0.7,1.3-1.3,3-3.2,3.2c-0.9,0.1-1.7-0.5-1.2-1.5c0.7-1.4,1.2-3.2,3.1-3.3
		C63.2,207,63.9,207.7,63.7,208.8z"/>
	<path class="st32" d="M52.4,200.3c-0.6,2.1-2,3.5-4.1,4.1c-2.8-1.8-0.2-3.1,0.5-4.4C50,197.9,51.2,199.7,52.4,200.3z"/>
	<path class="st33" d="M44.5,201.9c-1.9-2.7-0.2-4.3,1.3-5.8c0.5-0.5,1.5,0,1.6,0.6C47.9,199.2,46,200.3,44.5,201.9z"/>
	<path class="st34" d="M140.2,72.1c0,1.1,0,2.2-0.1,3.3c-1.7,0.4-3.6,0.8-3.6-1.7C136.4,71,138.7,72.1,140.2,72.1z"/>
	<path class="st35" d="M134.7,15.3c-1.5,0.2-3.1,0.3-4.6,0.5c-0.2-1.4-0.3-2.7,1.7-2.6C133.3,13.2,135,13,134.7,15.3z"/>
	<path class="st36" d="M176,51.8c0-4.3,0.1-8.6,0.1-12.9C177,43.2,177.1,47.5,176,51.8z"/>
	<path class="st36" d="M176.1,38.9c-1.4,0-2.7,0.1-4.1,0.1c-0.3-1.6,0.3-2.4,2-2.4C175.6,36.7,176.5,37.2,176.1,38.9z"/>
	<path class="st37" d="M272,154.8c-0.1,20.4-17,37.2-37.4,37.1c-20.5-0.1-37.2-16.8-37.1-37.2c0-20.5,16.6-37.3,37.1-37.4
		C255.1,117.1,272.1,134.2,272,154.8z"/>
	<path class="st37" d="M173,154.8c-0.1,20.4-17,37.1-37.4,37c-20.5-0.1-37.2-16.8-37.1-37.3c0-20.7,17.2-37.7,37.6-37.3
		C156.7,117.6,173.1,134.3,173,154.8z"/>
	<path class="st38" d="M77.5,140.2c1.1,0.2,1.8,0.8,1.8,2c0,1.4-0.8,2.1-2.2,2c-1.2-0.1-1.7-1-1.6-2.1
		C75.7,140.9,76.3,140.2,77.5,140.2z"/>
	<path class="st39" d="M79.4,168.7c-0.2,1.2-0.7,2.1-1.9,2c-1.4,0-2.2-1-2-2.3c0.1-1.1,0.9-1.8,2.1-1.6
		C78.8,167,79.4,167.6,79.4,168.7z"/>
	<path class="st40" d="M296.3,140.9c-1.1-0.1-1.8-0.9-1.9-1.9c0-1.4,0.8-2.1,2.2-1.9c1.2,0.1,1.6,1,1.5,2
		C298.1,140.2,297.5,140.9,296.3,140.9z"/>
	<path class="st41" d="M298.2,172.1c-0.1,1.2-0.6,1.9-1.8,1.9c-1.5-0.1-2.1-1.1-1.9-2.3c0.1-1,1-1.7,2.1-1.6
		C297.8,170.2,298.2,171,298.2,172.1z"/>
	<path class="st42" d="M303.8,115.6c0,1.2-0.6,2.1-1.6,2.3c-1.4,0.2-2.2-0.6-2.2-1.9c0-1.1,0.6-1.8,1.8-1.9
		C302.9,114,303.4,114.7,303.8,115.6z"/>
	<path class="st43" d="M70.3,115.9c1.5,0.3,3.2,0.9,2.4,2.8c-0.9,2-2.5,1.8-3.9,0.2C68.8,117.7,69.3,116.7,70.3,115.9z"/>
	<path class="st42" d="M72.9,192.6c0.1,1.2-0.6,1.9-1.6,2.1c-1.3,0.2-2.2-0.5-2.2-1.9c0-1.2,0.6-1.8,1.8-1.9
		C72,190.9,72.6,191.5,72.9,192.6z"/>
	<path class="st44" d="M59.8,164.5c1.3,0.2,2.1,0.8,2,2.2c-0.1,1.1-0.9,1.7-2,1.7c-1.3,0-2.1-0.8-2-2.2
		C58,165.2,58.7,164.6,59.8,164.5z"/>
	<path class="st45" d="M54.4,184.2c1.1,0.1,1.9,0.7,1.9,1.9c0.1,1.4-0.7,2.1-2.1,2.1c-1.2-0.1-1.7-0.9-1.7-2
		C52.6,185,53.2,184.3,54.4,184.2z"/>
	<path class="st46" d="M61.8,142c0,1.1-0.6,1.9-1.7,2c-1.1,0.2-2-0.3-2.2-1.5c-0.2-1.3,0.5-2.3,1.8-2.4
		C60.9,140.2,61.6,140.9,61.8,142z"/>
	<path class="st47" d="M52.6,121.6c0.5-0.4,1.1-0.8,1.6-1.1c1.3,0.4,2.5,0.9,2,2.6c-0.2,0.9-0.9,1.3-1.8,1.3
		C52.5,124.3,52.7,122.9,52.6,121.6z"/>
	<path class="st42" d="M301.7,196.9c-1.2-0.1-1.7-0.8-1.7-1.9c0-1.1,0.6-1.9,1.7-1.9c1.4,0,2.1,0.8,2,2.1
		C303.6,196.2,302.8,196.9,301.7,196.9z"/>
	<path class="st48" d="M319.9,191c-3,0.8-4.5,0.2-3-3.2C319.5,187.4,320.4,188.5,319.9,191z"/>
	<path class="st49" d="M311.7,142c-1.2-0.1-1.8-0.8-1.8-1.9c0-1.1,0.5-1.9,1.7-2c1.4-0.1,2.2,0.8,2.1,2.1
		C313.6,141.2,312.9,141.9,311.7,142z"/>
	<path class="st39" d="M318.6,121.2c-1.5-0.1-2.2-0.7-2.3-1.9c0-1.4,0.9-2.2,2.2-2c1.1,0.1,1.7,1,1.6,2.1
		C320.1,120.6,319.3,121,318.6,121.2z"/>
	<path class="st50" d="M311.7,170.8c-1.1-0.2-1.8-0.8-1.8-1.9c-0.1-1.2,0.5-1.9,1.7-1.9c1.4-0.1,2.2,0.6,2.1,2
		C313.6,170,312.8,170.6,311.7,170.8z"/>
	<path class="st10" d="M251.2,126.1c10.8,6.1,15.9,15.6,16.7,27.7c-2,1.8-4.3,0.7-6.5,0.9c-0.7-0.3-1.3-0.7-1.8-1.3
		c-1.7-2.2-1.4-5-2.4-7.5c-4.5-11.8-17.7-18.6-30-14.4c-1.8,0.6-3.7,1.5-5.8,0.4c-0.5-0.3-0.8-0.7-1.1-1.2c-0.4-1.5,0.2-2.8,1.1-4
		c6.2-4.3,13.1-4.8,20.2-3.5c2,0.4,4.2,0.6,6.1,1.7c0.1,0.3,0.2,0.7,0.3,1C249.1,127.4,250.2,126.9,251.2,126.1z"/>
	<path class="st5" d="M216.8,182.1c-8-4.9-12.7-12-14.6-21.1c0.7-1.6,0.1-3.2,0.2-4.8c1.3-1.4,1.6-2.9,0.7-4.6
		c1.5-9.8,5.5-17.9,14.7-22.7c1.5,0,2.5,0.8,3.2,2.1L221,131c1.8,2.4,0,3.7-1.5,4.9c-11.6,9-12.2,28.1,0.1,37.3
		c1.1,0.8,2,1.8,2.4,3.1c0.1,0.5,0.1,1,0,1.5c-1,1.7-2.3,3.1-3.7,4.5C217.7,182.5,217.2,182.4,216.8,182.1z"/>
	<path class="st10" d="M221,178.1c0-0.3,0-0.6,0-0.9c2.2-2.1,4.3-0.3,6.3,0.4c1.7,0.6,3.2,1.7,5.1,1.5c5,1.4,10.1,2.2,14.9-0.7
		c1.7,0.1,2.7,2,4.5,1.9c0.7,0.4,1,1,1,1.7c-10.6,7.8-25.4,7.8-36.1,0.1c0.4,0,0.9-0.1,1.3-0.1C219.3,180.9,220.3,179.6,221,178.1z"
		/>
	<path class="st51" d="M252.9,181.9c-0.3-0.4-0.6-0.7-0.9-1.1c-1.3-0.7-1.9-1.8-1.5-3.2c7.9-5.4,9.9-13.7,10.8-22.5
		c2.2-0.8,4.5-1.2,6.7,0C267.2,166.5,262.8,175.8,252.9,181.9z"/>
	<path class="st18" d="M218,130.1c-7.4,5.7-12.8,12.7-14,22.4c0.9,1.5,0.5,2.6-0.8,3.5c-0.4,1.6,0.4,3.5-1,5
		c-2-15.9,4.6-29.7,16.8-35.1c0.4,0.3,0.6,0.7,0.8,1.2C219.9,128.5,219,129.3,218,130.1z"/>
	<path class="st52" d="M219,126.6c0-0.3,0-0.5,0-0.8c8.5-5.7,21.2-6.1,28.9-0.9c-8.8-1.2-17.6-1.6-25.8,2.9
		C220.8,128.1,219.5,128.3,219,126.6z"/>
	<path class="st53" d="M251.2,126.1c-0.1,1.5,1.2,3.2-0.6,4.4c-0.8,0.5-1.6,0.5-2.2-0.1c-1.6-1.4-0.4-3-0.3-4.5
		C249.2,126,250.2,126.1,251.2,126.1z"/>
	<path class="st54" d="M267.9,155.1c-1.9,0.1-3.7,3-5.7,0.2c-0.5-0.5-0.5-1-0.1-1.5c1.9-2.8,3.9,0,5.8,0
		C267.9,154.3,267.9,154.7,267.9,155.1z"/>
	<path class="st5" d="M117.8,182.1c-7.7-4.6-12.1-11.5-14.4-20.1c0.2-1.9,0-3.8,0.1-5.6c1-1.5,1.7-3,0.6-4.7
		c1.5-9.8,5.6-17.9,14.8-22.8c1.5-0.1,2.7,0.5,3.6,1.6c0.3,0.5,0.5,1,0.5,1.5c0,2.5-2,3.8-3.6,5.1c-10.5,8.6-10.6,27.1,0.8,35.8
		c1.2,0.9,2.3,1.9,2.7,3.5c0.1,0.5,0.1,1,0,1.5c-1,1.7-2.3,3.1-3.7,4.5C118.7,182.5,118.2,182.4,117.8,182.1z"/>
	<path class="st55" d="M152,126.2c11.3,5.7,16,15.5,16.9,27.6c-1.8,1.9-4.1,0.6-6.2,1c-0.7-0.3-1.4-0.6-1.9-1.2
		c-1.1-1.5-1.4-3.3-1.8-5.1c-1.2-4.9-3.6-9.2-7.6-12.5c-1.3-1.1-2.7-1.9-3.1-3.7c-0.1-0.5-0.1-1,0.1-1.4c0.7-1.4,2.6-2,2.7-3.8
		C151.3,126.9,151.7,126.5,152,126.2z"/>
	<path class="st56" d="M122,178.1c0-0.3,0-0.6,0-0.9c1.8-1.9,3.7-0.6,5.3,0c2.1,0.7,4.3,1.3,6.5,1.7c4.9,1.8,9.8,2.2,14.6-0.5
		c1.7,0.1,2.6,2.1,4.5,1.9c0.6,0.4,1,1,1,1.7c-10.6,7.8-25.4,7.8-36.1,0.1c0.4,0,0.9-0.1,1.3-0.1C120.3,180.9,121.3,179.6,122,178.1
		z"/>
	<path class="st57" d="M153.9,181.9c-0.3-0.4-0.6-0.7-0.9-1.1c-1.3-0.7-1.8-1.8-1.3-3.2c6.8-5.2,10-12.1,10-20.6
		c0-0.7,0.2-1.3,0.7-1.8c2.2-0.8,4.5-1.2,6.7,0C168.2,166.5,163.8,175.8,153.9,181.9z"/>
	<path class="st58" d="M152,126.2c0,0.2,0,0.5,0,0.7c-0.9,1.3-1.6,2.8-2.9,3.9c0,0.3-0.1,0.6-0.1,0.9c-1.2,1.5-2.6,1.1-4,0.5
		c-6.1-2.7-12.2-2.2-18.4-0.1c-1.6,0.5-3.1,1.2-4.7-0.2c0-0.3,0-0.6,0-1c-0.8-1.4-0.5-2.7,0.4-4c6.8-5.4,14.5-4.7,22.4-3.5
		c1.1,0.2,2.1,1.1,3.3,0.6C149.4,124.8,150.7,125.5,152,126.2z"/>
	<path class="st59" d="M119,130.1c-7.3,5.8-12.8,12.7-14,22.4c0.9,1.5,0.4,2.6-0.9,3.6c-0.2,2-0.5,4-0.7,6c-2.7-16,4-30.6,16.5-36.1
		c0.4,0.3,0.6,0.7,0.8,1.2C120.8,128.5,120,129.3,119,130.1z"/>
	<path class="st52" d="M120,126.6c0-0.3,0-0.5,0-0.8c9-5.7,18.4-5.9,28.1-1.8c-2.4,1.4-4.8-0.1-7.2-0.2c-6.3-0.1-12.2,1-17.8,3.9
		C121.8,128.1,120.5,128.3,120,126.6z"/>
	<path class="st60" d="M168.9,155.1c-1.9,0.1-3.7,3.1-5.7,0.2c-0.5-0.4-0.5-0.9-0.1-1.4c1.9-2.8,3.8,0,5.8,0
		C168.9,154.3,168.9,154.7,168.9,155.1z"/>
	<path class="st0" d="M232.1,181.1c-4.2,0.2-7.3-2.9-11.1-3.9c-17.9-12.5-14.6-34.6-2-43.6c0.9-0.7,2-1.3,2-2.6
		c4.9-0.4,9.4-3,14.5-2.7c13,0.8,22.3,8.9,24.9,21.8c0.2,1,0.5,1.9,0.7,2.9c1.4,11.1-3.2,20.2-12.7,25.1
		C243.3,181,237.9,182.2,232.1,181.1z"/>
	<path class="st61" d="M248,177.3c8.8-5.7,13-13.9,13.1-24.3c0.4,0.3,0.7,0.6,1.1,0.9c0,0.5,0,1,0.1,1.5c0.4,9.7-2.6,17.8-11.3,23.1
		c-0.9,0.7-1.7,0.7-2.6,0.1c-0.3-0.2-0.5-0.4-0.4-0.7C247.9,177.5,247.9,177.3,248,177.3z"/>
	<path class="st62" d="M219,126.6c1,0.4,2.1,0.8,3.1,1.2c-0.4,1.1-0.7,2.1-1.1,3.2c-1-0.3-2-0.6-3-0.9
		C217.8,128.8,217.7,127.5,219,126.6z"/>
	<path class="st63" d="M203.2,156c-0.3-1.3-0.3-2.6,0.8-3.5c1.9,0,3.5,0.6,2.8,2.8C206.2,157.2,204.6,156.6,203.2,156z"/>
	<path class="st64" d="M221,178.1c2.1,3.5,0.4,4.3-2.9,3.9C217.5,179.5,218.4,178.2,221,178.1z"/>
	<path class="st65" d="M248,177.3c0,0.3,0.1,0.7,0.1,1c0.2,0.5,0,0.9-0.5,1.1c-4.9,3.6-10.2,3.3-15.6,1.6
		C237.6,180.7,243,180,248,177.3z"/>
	<path class="st66" d="M247.7,179.4c0.2-0.4,0.3-0.7,0.5-1.1c0.9,0,1.9,0,2.8,0c0.3,0.8,0.7,1.7,1,2.5
		C249.8,182.6,248.1,182.9,247.7,179.4z"/>
	<path class="st0" d="M122,131.9c9-4.5,18-4.7,27-0.2c7.9,4.9,11.8,12.3,13.1,21.3c1.1,10.8-2.3,19.4-12,25
		c-5.5,2.4-11,4.7-17.2,2.8c-3.7-1.1-7.5-1.8-10.9-3.7c-16.9-12-14.3-31.2-5.6-40.3C118.1,135.1,120.1,133.6,122,131.9z"/>
	<path class="st63" d="M104.2,156c-0.3-1.3-0.3-2.6,0.9-3.6c1.8,0.1,3.5,0.6,2.8,2.8C107.2,157.2,105.6,156.7,104.2,156z"/>
	<path class="st67" d="M120,126.6c1,0.4,2,0.8,3,1.2c-0.4,1-0.7,2.1-1.1,3.1c-1-0.3-2-0.6-3-0.9C118.9,128.8,118.8,127.5,120,126.6z
		"/>
	<path class="st68" d="M122,178.1c2.1,3.5,0.4,4.3-2.9,3.9C118.5,179.5,119.4,178.2,122,178.1z"/>
	<path class="st69" d="M150,176.9c8-5.9,12.2-13.9,12.2-23.9c0.3,0.3,0.7,0.6,1,0.9c0,0.5,0.1,0.9,0.1,1.4
		c0.3,9.7-2.5,17.9-11.3,23.1c-0.7,0.4-1.4,0.3-2.1-0.2C149.6,177.8,149.6,177.3,150,176.9z"/>
	<path class="st70" d="M149.1,130.8c-1-2.8-0.2-4.1,2.9-3.9C153.3,129.9,152.3,131.2,149.1,130.8z"/>
	<path class="st65" d="M150,176.9c0,0.4,0,0.7,0,1.1c-0.1,0.8-0.5,1.3-1.3,1.5c-5,3.6-10.3,3.6-15.7,1.4
		C139,181.1,144.6,179.6,150,176.9z"/>
	<path class="st66" d="M148.7,179.4c0.4-0.5,0.9-1,1.3-1.5c0.6,0.1,1.3,0.3,1.9,0.4c0.3,0.8,0.7,1.7,1,2.5
		C150.8,182.6,149.1,182.9,148.7,179.4z"/>
	<path class="st71" d="M230.2,176.3c-4.8-1.3-9-3.6-12.3-7.4c-0.4-2.2,0.9-3.7,2.4-5.2c7.9-7.8,15.7-15.7,23.5-23.6
		c1.5-1.5,3-2.6,5.2-2.5c4.5,3.6,6.8,8.4,7.9,13.9c-0.8,3.3-2.6,6-5.1,8.4c-4.4,4.3-8.6,8.7-13.1,13
		C236.3,175.3,233.6,176.8,230.2,176.3z"/>
	<path class="st71" d="M238.8,132.7c2.4,0.8,5,1,6.8,3.1c0.7,2.2-0.9,3.4-2.2,4.7c-7.6,7.6-15.3,15.3-22.9,22.9
		c-1.5,1.5-3,3.3-5.5,1.7c-0.8-2.4-1.6-4.8-2.4-7.2c-0.7-2.1,0.4-3.7,1.4-5.4c5.3-6.3,11.7-11.6,17.1-17.8
		C233.6,133.2,235.9,131.9,238.8,132.7z"/>
	<path class="st72" d="M230.2,176.3c2.3,0,3.4-1.8,4.8-3.2c7.3-7.2,14.5-14.4,21.8-21.5C257.8,167.5,244.9,179.5,230.2,176.3z"/>
	<path class="st73" d="M215.1,165.1c2.1-0.1,3-1.8,4.3-3.1c8.8-8.7,17.5-17.4,26.3-26.1c1.1,0.6,2.2,1.2,3.3,1.9
		c-10.7,10.1-21.2,20.3-31.1,31.2C216.9,167.6,216,166.3,215.1,165.1z"/>
	<path class="st74" d="M238.8,132.7c-3.1-0.6-4.4,2.1-6.5,3.4c-7.7,3.8-13.1,9.9-17.2,17.2c-0.9,1.5-2.5,2.5-2.4,4.5
		C209.9,143.5,224.7,129.3,238.8,132.7z"/>
	<path class="st71" d="M149.9,137.7c4.6,3.5,6.8,8.4,7.9,13.9c-0.8,3.3-2.6,6-5.1,8.4c-4.4,4.3-8.6,8.7-13.1,13
		c-2.3,2.3-5,3.8-8.5,3.3c-4.8-1.3-9-3.6-12.3-7.4c-0.4-2.2,0.9-3.7,2.4-5.2c7.9-7.8,15.7-15.7,23.5-23.6
		C146.2,138.7,147.7,137.6,149.9,137.7z"/>
	<path class="st71" d="M139.8,132.7c2.4,0.8,5,1,6.8,3.1c0.7,2.2-0.9,3.4-2.2,4.7c-7.6,7.6-15.3,15.3-22.9,22.9
		c-1.5,1.5-3,3.3-5.5,1.6c-0.8-2.4-1.6-4.8-2.4-7.2c-0.7-2.1,0.4-3.7,1.4-5.4c5.3-6.3,11.7-11.7,17.1-17.8
		C134.6,133.2,136.9,131.9,139.8,132.7z"/>
	<path class="st72" d="M131.2,176.3c2.3,0,3.4-1.8,4.8-3.2c7.3-7.2,14.5-14.4,21.8-21.5C158.8,167.5,145.9,179.5,131.2,176.3z"/>
	<path class="st73" d="M116.1,165c2.1-0.1,3.1-1.9,4.3-3.1c8.8-8.7,17.5-17.4,26.2-26.1c1.1,0.6,2.2,1.2,3.3,1.9
		c-10.7,10.1-21.2,20.3-31.1,31.2C117.9,167.6,117,166.3,116.1,165z"/>
	<path class="st74" d="M139.8,132.7c-3.1-0.6-4.4,2.1-6.5,3.4c-7.7,3.8-13.1,9.9-17.2,17.2c-0.9,1.4-2.4,2.6-2.4,4.5
		C111,143.7,125.9,129.4,139.8,132.7z"/>
	<path class="st75" d="M215.1,153.3c1.8-8.9,9.2-16.3,17.2-17.2C226.9,142.2,221.1,147.9,215.1,153.3z"/>
	<path class="st75" d="M116.1,153.3c1-7.9,9.4-16.3,17.2-17.2C127.9,142.1,122.2,147.9,116.1,153.3z"/>
</g>
</svg>
