<?xml version="1.0" encoding="utf-8"?>
<!-- Generator: Adobe Illustrator 22.1.0, SVG Export Plug-In . SVG Version: 6.00 Build 0)  -->
<svg version="1.1" id="Laag_1" xmlns="http://www.w3.org/2000/svg" xmlns:xlink="http://www.w3.org/1999/xlink" x="0px" y="0px"
	 viewBox="0 0 695 242" style="enable-background:new 0 0 695 242;" xml:space="preserve">
<style type="text/css">
	.st0{fill:#004787;}
	.st1{fill:#0F2B56;}
	.st2{fill:#181D32;}
	.st3{fill:none;}
</style>
<path class="st0" d="M659.9,75.1c-4.3,1.4-9.3,0.4-14.6-2c-0.4-0.2-0.8-0.4-1.3-0.6c0,0,0,0,0,0c-15.3-7.4-32.7-25.1-43.5-26
	c-3.9-0.3-8.6,1.5-14.1,4.5c0,0,0,0,0,0c-15.3,8.3-36,25.4-57.9,29.1c-3.2,0.5-6.1,0.7-8.8,0.6h0c-22.9-0.7-32.6-20.9-64.3-24
	c-33.7-3.3-74.6,29.6-89.3,44.7c-0.8,0.8-1.4,1.5-2.1,2.2l12.1,1.4L695,140.9V42.3C682.4,57,668.5,72.3,659.9,75.1z"/>
<path class="st1" d="M695,22.2c-0.8-0.2-1.4-0.3-2-0.2c-2.5,0.4-8.4,6.8-15.6,15.1c0,0,0,0,0,0c-6.7,7.8-14.6,17.3-22,25
	c0,0-0.1,0.1-0.1,0.1c-4,4.2-7.9,7.8-11.3,10.3c0,0,0,0,0,0c-2.2,1.7-4.2,2.8-6,3.4c-14.8,4.9-38.5-23.4-51.6-24.9c0,0,0,0,0,0
	c-0.1,0-0.3,0-0.4,0c-13-1-37,25-63,29.4c-1.1,0.2-2.2,0.3-3.3,0.4h0c-23.3,2.1-31-18-60.7-20.8c-31-3-69,29-80,41l1.5,0.2l1,0.1h0
	L695,136.5V96.1V42.3c0.7-0.8,1.5-1.7,2.2-2.5L695,22.2z"/>
<path class="st2" d="M697.2,39.8c-0.7,0.8-1.4,1.7-2.2,2.5v106.3L369,112c1.7-1.9,4.1-4.3,7.1-6.9c1.3-1.2,2.8-2.5,4.3-3.8
	c0.1,0,0.1-0.1,0.2-0.1C397.2,87.1,425.2,68.7,449,71c31,3,38,24.8,64,20.4C539,87,563,61,576,62s37,30,52,25
	c4.5-1.5,10.7-6.9,17.3-13.8c3.3-3.4,6.6-7.2,10-11c0,0,0.1-0.1,0.1-0.1c8.4-9.6,16.5-19.5,22-25c0,0,0,0,0,0
	c2.5-2.4,4.4-3.9,5.6-4.1c2.5-0.4,7.1,2,12,5.3C695.7,38.8,696.4,39.3,697.2,39.8z"/>
<path class="st0" d="M326.3,102.2c-9.3-4.2-18.7-6.9-28.1-7.4c-18.5-0.9-31.7,3.8-43.5,8.6c-13.2,5.4-24.6,11.1-39.5,9.3
	c-1.6-0.2-3.3-0.5-5-0.8c-1.8-0.4-3.7-0.9-5.6-1.5c-1.8-0.6-3.5-1.2-5.2-1.9c-2.8-1.2-5.6-2.5-8.4-4h0c-20.3-10.9-37.9-29.5-52-40
	c-6.1-4.6-11.6-7.6-16.4-8c-13.3-0.9-37.8,17.7-57.8,24c-7.5,2.4-14.4,3.1-19.9,0.3C32.7,74.8,14.5,45.2,0,22.3v133.1l401.7,13
	C391.5,153.4,360.5,117.7,326.3,102.2z"/>
<path class="st1" d="M383.8,162.3L29.3,150.9L0,150V13.5c5.9-2.6,11.1-4.3,13.8-3.5c7.4,2.2,33,52.6,50.9,70.5
	c2.4,2.4,4.7,4.2,6.8,5.3c0.3,0.2,0.7,0.3,1,0.5c3.5,1.4,7.7,1.4,12.2,0.4c17.9-3.9,41.5-22.5,54.3-22.2c0.2,0,0.3,0,0.5,0
	c13.3,0.9,32.5,25.7,56.3,39.9h0c5,3,10.2,5.5,15.6,7.2c1.3,0.4,2.6,0.8,3.8,1.1c18.1,4.3,29.9-3.6,45.7-9.4
	c8.9-3.3,19.1-5.9,32.4-5.3c6.6,0.3,13.2,1.9,19.7,4.4C344.8,114.6,374.4,148.5,383.8,162.3z"/>
<path class="st2" d="M210.2,111.8c-3.5-1.1-7.1-2.3-10.8-3.4c-4.3-1.3-8.7-2.6-13.3-3.9h0c-30.5-8.6-66.5-16.1-101.4-17.9
	c-4.1-0.2-8.1-0.3-12.2-0.4c-8.2-0.1-16.4,0.2-24.3,0.9C29,88.8,13.5,91.7,0,95.1v58.6l29.3-2.8l226.3-21.7
	C246.5,124.9,230.4,118.5,210.2,111.8z"/>
<line class="st3" x1="695" y1="136.5" x2="695" y2="96.1"/>
<polygon class="st2" points="0,155.4 0,242 695,242 695,148.6 695,140.9 695,136.5 695,96.1 381.6,101.3 381.6,101.3 380.3,101.3 
	366.1,101.5 347.5,101.8 326.3,102.2 313,102.4 260.9,103.3 254.7,103.4 195.8,104.4 195.8,104.4 191,104.4 191,104.4 186.1,104.5 
	186.1,104.5 0,107.6 0,150 0,153.7 "/>
</svg>
