<?xml version="1.0" encoding="utf-8"?>
<!-- Generator: Adobe Illustrator 22.1.0, SVG Export Plug-In . SVG Version: 6.00 Build 0)  -->
<svg version="1.1" xmlns="http://www.w3.org/2000/svg" xmlns:xlink="http://www.w3.org/1999/xlink" x="0px" y="0px"
	 viewBox="0 0 566.9 566.9" style="enable-background:new 0 0 566.9 566.9;" xml:space="preserve">
<style type="text/css">
	.st0{fill:#033045;}
	.st1{fill:#04908C;}
	.st2{fill:none;stroke:#04908C;stroke-width:3;stroke-miterlimit:10;}
	.st3{display:none;}
	.st4{display:inline;fill:none;stroke:#04908C;stroke-width:3;stroke-miterlimit:10;}
	.st5{fill:none;stroke:#04908C;stroke-width:2;stroke-miterlimit:10;}
	.st6{fill:url(#SVGID_1_);stroke:url(#SVGID_2_);stroke-miterlimit:10;}
</style>
<g id="Laag_1">
	<g id="XMLID_2_">
		<g>
			<path class="st0" d="M281.9,67.8c38.2,0,74,10.1,105,27.8l-25.2,46.3L281.9,67.8z"/>
			<polygon class="st0" points="361.8,141.8 361.5,142.2 281.9,168.9 281.9,67.8 			"/>
			<polygon class="st0" points="361.5,142.2 331.5,197.5 281.9,168.9 			"/>
			<polygon class="st0" points="362,142.1 381.1,226.2 331.5,197.5 361.5,142.2 			"/>
			<path class="st0" d="M465.3,173L362,142.1l-0.3-0.2l25.2-46.3C419.4,114,446.4,140.8,465.3,173z"/>
			<polygon class="st0" points="465.3,173 381.1,226.2 362,142.1 			"/>
			<path class="st0" d="M494.3,280.1h-51l22-107.1C483.7,204.4,494.3,241.1,494.3,280.1z"/>
			<polygon class="st0" points="465.3,173 465.3,173 443.3,280.1 381.1,226.2 465.3,173 			"/>
			<polygon class="st0" points="443.3,280.1 381.1,280.1 381.1,226.2 			"/>
			<polygon class="st0" points="443.3,280.1 381.1,340.8 381.1,280.1 			"/>
			<path class="st0" d="M494.3,280.1c0,39.1-10.6,75.7-29,107.1l-22-107.1H494.3z"/>
			<polygon class="st0" points="443.3,280.1 465.3,387.2 381.1,340.8 			"/>
			<polygon class="st0" points="381.1,340.8 362,421.6 331.3,369.5 			"/>
			<path class="st0" d="M362,421.6l103.3-34.4c-18.8,32.1-45.7,58.8-78,77.3l-0.1-0.2L362,421.6z"/>
			<polygon class="st0" points="465.3,387.2 362,421.6 381.1,340.8 			"/>
			<polygon class="st0" points="331.3,369.5 362,421.6 281.9,398.1 			"/>
			<path class="st0" d="M387.2,464.4l0.1,0.2c-31.1,17.8-67,28-105.4,28l80.1-70.9L387.2,464.4z"/>
			<polygon class="st0" points="362,421.6 281.9,492.5 281.9,398.1 			"/>
			<polygon class="st0" points="281.9,398.1 201.8,421.6 232.6,369.6 			"/>
			<polygon class="st0" points="281.9,398.1 281.9,492.5 201.8,421.6 			"/>
			<path class="st0" d="M281.9,492.5c-38.4,0-74.4-10.2-105.4-28l0.1-0.1l25.2-42.8L281.9,492.5z"/>
			<polygon class="st0" points="232.6,369.6 201.8,421.6 182.7,340.8 			"/>
			<path class="st0" d="M201.8,421.6l-25.2,42.8l-0.1,0.1c-32.3-18.5-59.2-45.2-78-77.3l0,0L201.8,421.6z"/>
			<polygon class="st0" points="182.7,340.8 201.8,421.6 98.5,387.2 			"/>
			<polygon class="st0" points="182.7,226.2 182.7,280.1 120.5,280.1 			"/>
			<polygon class="st0" points="182.7,280.1 182.7,340.8 120.5,280.1 			"/>
			<polygon class="st0" points="182.7,340.8 98.5,387.2 120.5,280.1 			"/>
			<path class="st0" d="M120.5,280.1l-22,107.1l0,0c-18.4-31.5-29-68-29-107.1H120.5z"/>
			<path class="st0" d="M98.5,173l22,107.1h-51C69.6,241.1,80.1,204.4,98.5,173z"/>
			<polygon class="st0" points="182.7,226.2 120.5,280.1 98.5,173 			"/>
			<polygon class="st0" points="201.8,142.1 182.7,226.2 98.5,173 			"/>
			<polygon class="st0" points="202.3,142.2 232.3,197.5 182.7,226.2 201.8,142.1 			"/>
			<polygon class="st0" points="281.9,168.9 232.3,197.5 202.3,142.2 			"/>
			<polygon class="st0" points="281.9,67.8 281.9,168.9 202.3,142.2 202.1,141.8 			"/>
			<path class="st0" d="M202.1,141.8l-0.3,0.2L98.5,173c18.8-32.2,45.9-59,78.4-77.5L202.1,141.8z"/>
			<path class="st0" d="M281.9,67.8l-79.8,74.1l-25.2-46.3C207.9,77.9,243.7,67.8,281.9,67.8z"/>
			<polygon class="st1" points="331.3,369.5 281.9,398.1 232.6,369.6 182.7,340.8 182.7,280.1 182.7,226.2 232.3,197.5 281.9,168.9 
				331.5,197.5 381.1,226.2 381.1,280.1 381.1,340.8 			"/>
		</g>
		<g>
			<path class="st2" d="M465.3,173c18.4,31.4,29,68.1,29,107.1s-10.6,75.7-29,107.1c-18.8,32.1-45.7,58.8-78,77.3
				c-31.1,17.8-67,28-105.4,28s-74.4-10.2-105.4-28c-32.3-18.5-59.2-45.2-78-77.3c-18.4-31.5-29-68-29-107.1
				c0-39.1,10.6-75.7,29-107.1c18.8-32.2,45.9-59,78.4-77.5c31-17.7,66.8-27.8,105-27.8s74,10.1,105,27.8
				C419.4,114,446.4,140.8,465.3,173"/>
			<polyline class="st2" points="281.9,168.9 361.5,142.2 362,142.1 361.8,141.8 281.9,67.8 			"/>
			<polyline class="st2" points="386.9,95.5 361.8,141.8 361.5,142.2 331.5,197.5 			"/>
			<polyline class="st2" points="465.3,173 465.3,173 362,142.1 381.1,226.2 465.3,173 			"/>
			<polyline class="st2" points="494.3,280.1 443.3,280.1 381.1,280.1 			"/>
			<polyline class="st2" points="465.3,173 465.3,173 443.3,280.1 			"/>
			<polyline class="st2" points="331.2,369.4 331.3,369.5 362,421.6 387.2,464.4 			"/>
			<polyline class="st2" points="281.9,492.5 362,421.6 465.3,387.2 381.1,340.8 			"/>
			<polyline class="st2" points="381.1,226.2 443.3,280.1 381.1,340.8 362,421.6 281.9,398.1 			"/>
			<polygon class="st2" points="281.9,67.8 281.9,168.9 202.3,142.2 201.8,142.1 202.1,141.8 			"/>
			<polyline class="st2" points="176.9,95.5 202.1,141.8 202.3,142.2 232.3,197.5 			"/>
			<polygon class="st2" points="201.8,142.1 182.7,226.2 98.5,173 			"/>
			<polyline class="st2" points="69.6,280.1 120.5,280.1 182.7,280.1 			"/>
			<line class="st2" x1="98.5" y1="173" x2="120.5" y2="280.1"/>
			<polyline class="st2" points="232.6,369.4 232.6,369.6 201.8,421.6 176.6,464.4 			"/>
			<polyline class="st2" points="182.7,226.2 120.5,280.1 182.7,340.8 201.8,421.6 281.9,398.1 281.9,492.5 201.8,421.6 98.5,387.2 
				182.7,340.8 			"/>
			<line class="st2" x1="443.3" y1="280.1" x2="465.3" y2="387.2"/>
			<line class="st2" x1="98.5" y1="387.2" x2="120.5" y2="280.1"/>
		</g>
	</g>
</g>
<g id="Laag_2" class="st3">
	<rect x="278.5" y="32.1" class="st4" width="7.3" height="20.6"/>
	
		<rect x="515.7" y="272" transform="matrix(-1.836970e-16 1 -1 -1.836970e-16 801.6965 -237.0993)" class="st4" width="7.3" height="20.6"/>
	
		<rect x="489" y="160.5" transform="matrix(0.4373 0.8993 -0.8993 0.4373 430.8368 -346.9252)" class="st4" width="7.3" height="20.6"/>
	<rect x="402.6" y="67.4" transform="matrix(0.866 0.5 -0.5 0.866 93.2675 -192.7106)" class="st4" width="7.3" height="20.6"/>
	
		<rect x="40.5" y="272" transform="matrix(-4.492070e-11 1 -1 -4.492070e-11 326.4339 238.1633)" class="st4" width="7.3" height="20.6"/>
	
		<rect x="67.2" y="160.5" transform="matrix(-0.4373 0.8993 -0.8993 -0.4373 255.5042 181.785)" class="st4" width="7.3" height="20.6"/>
	<rect x="153.6" y="67.4" transform="matrix(-0.866 0.5 -0.5 -0.866 332.3615 66.3123)" class="st4" width="7.3" height="20.6"/>
	<rect x="278.7" y="507.5" class="st4" width="7.3" height="20.6"/>
	
		<rect x="489.2" y="379.1" transform="matrix(0.4373 -0.8993 0.8993 0.4373 -72.8761 662.3915)" class="st4" width="7.3" height="20.6"/>
	<rect x="402.8" y="472.3" transform="matrix(0.866 -0.5 0.5 0.866 -186.8297 267.8898)" class="st4" width="7.3" height="20.6"/>
	
		<rect x="67.5" y="379.1" transform="matrix(-0.4373 -0.8993 0.8993 -0.4373 -248.0009 623.6923)" class="st4" width="7.3" height="20.6"/>
	<rect x="153.9" y="472.3" transform="matrix(-0.866 -0.5 0.5 -0.866 52.676 979.2623)" class="st4" width="7.3" height="20.6"/>
</g>
<g id="Laag_3">
	<g id="XMLID_1_">
		<g>
			<polygon class="st0" points="295.5,31 282.4,53.8 269.2,31 			"/>
		</g>
		<g>
			<polygon class="st2" points="282.4,53.8 295.5,31 269.2,31 			"/>
		</g>
	</g>
	<g>
		<g id="XMLID_3_">
			<g>
				<polygon class="st0" points="530.8,267 530.8,293.3 508,280.1 				"/>
				<polygon class="st0" points="282.4,505.8 295.5,528.5 269.2,528.5 				"/>
				<polygon class="st0" points="55.8,280.1 33,293.3 33,267 				"/>
			</g>
			<g>
				<polygon class="st2" points="282.4,505.8 295.5,528.5 269.2,528.5 				"/>
				<polygon class="st2" points="508,280.1 530.8,293.3 530.8,267 				"/>
				<polygon class="st2" points="55.8,280.1 33,293.3 33,267 				"/>
			</g>
		</g>
	</g>
	<circle class="st5" cx="394.7" cy="78.3" r="6.2"/>
	<circle class="st5" cx="482" cy="166.8" r="6.2"/>
	<circle class="st5" cx="164.2" cy="78.3" r="6.2"/>
	<circle class="st5" cx="76.9" cy="166.8" r="6.2"/>
	<circle class="st5" cx="394.7" cy="481.9" r="6.2"/>
	<circle class="st5" cx="482" cy="393.4" r="6.2"/>
	<circle class="st5" cx="164.2" cy="481.9" r="6.2"/>
	<circle class="st5" cx="76.9" cy="393.4" r="6.2"/>
</g>
<g id="Laag_4">
	<linearGradient id="SVGID_1_" gradientUnits="userSpaceOnUse" x1="264.9878" y1="134.4731" x2="298.9289" y2="134.4731">
		<stop  offset="0" style="stop-color:#FCEA10"/>
		<stop  offset="0.277" style="stop-color:#E0AA41"/>
		<stop  offset="0.6324" style="stop-color:#DEDC00"/>
		<stop  offset="0.9779" style="stop-color:#DFA743"/>
	</linearGradient>
	<linearGradient id="SVGID_2_" gradientUnits="userSpaceOnUse" x1="264.3926" y1="134.7416" x2="299.5241" y2="134.7416">
		<stop  offset="0" style="stop-color:#FCEA10"/>
		<stop  offset="0.7328" style="stop-color:#E5DF04"/>
		<stop  offset="1" style="stop-color:#DEDC00"/>
	</linearGradient>
	<polygon class="st6" points="282,162.3 265,123.6 282,106.7 298.9,123.6 	"/>
</g>
</svg>
