<svg xmlns="http://www.w3.org/2000/svg" xmlns:xlink="http://www.w3.org/1999/xlink" viewBox="0 0 1023.55 775.86"><defs><style>.cls-1{isolation:isolate;}.cls-2{fill:url(#linear-gradient);}.cls-13,.cls-15,.cls-3,.cls-4,.cls-51{fill:none;}.cls-28,.cls-29,.cls-30,.cls-31,.cls-32,.cls-33,.cls-34,.cls-35,.cls-36,.cls-37,.cls-38,.cls-4,.cls-5,.cls-6,.cls-7,.cls-8{mix-blend-mode:multiply;}.cls-5{fill:url(#linear-gradient-2);}.cls-6{fill:url(#linear-gradient-3);}.cls-7{fill:url(#linear-gradient-4);}.cls-8{fill:url(#linear-gradient-5);}.cls-19,.cls-20,.cls-9{fill:#fff56a;}.cls-17,.cls-26,.cls-49,.cls-9{opacity:0.5;}.cls-10{mix-blend-mode:lighten;}.cls-11{fill:#e32c71;}.cls-11,.cls-12,.cls-46{opacity:0.2;}.cls-12{fill:#e8336f;}.cls-13,.cls-14,.cls-47{opacity:0.3;}.cls-14{fill:#e94a6a;}.cls-15,.cls-16,.cls-48{opacity:0.4;}.cls-16{fill:#e67564;}.cls-17{fill:#ec8a65;}.cls-18{fill:#fdfa6f;}.cls-20,.cls-38{opacity:0.6;}.cls-21{fill:#260931;}.cls-22{fill:#08262b;}.cls-23{fill:#060a11;}.cls-24{fill:url(#radial-gradient);}.cls-25{fill:url(#radial-gradient-2);}.cls-27{fill:#fff;}.cls-28{fill:url(#linear-gradient-6);}.cls-29{fill:url(#linear-gradient-7);}.cls-30{fill:url(#linear-gradient-8);}.cls-31{fill:url(#linear-gradient-9);}.cls-32{fill:url(#linear-gradient-10);}.cls-33{fill:url(#linear-gradient-11);}.cls-34{fill:url(#linear-gradient-12);}.cls-35{fill:url(#linear-gradient-13);}.cls-36{fill:url(#linear-gradient-14);}.cls-37{fill:url(#linear-gradient-15);}.cls-39{fill:url(#linear-gradient-16);}.cls-40{fill:url(#linear-gradient-17);}.cls-41{fill:url(#linear-gradient-18);}.cls-42{fill:url(#linear-gradient-19);}.cls-43{fill:url(#linear-gradient-20);}.cls-44{mix-blend-mode:luminosity;}.cls-45{fill:#966f84;opacity:0.1;}.cls-45,.cls-46,.cls-47,.cls-48,.cls-49{mix-blend-mode:screen;}.cls-46{fill:#ac7d90;}.cls-47{fill:#bc8d99;}.cls-48{fill:#c798a0;}.cls-49{fill:#d2a6a9;}.cls-50{fill:#ffe2da;mix-blend-mode:color-dodge;}.cls-51{stroke:#000;stroke-miterlimit:10;}</style><linearGradient id="linear-gradient" x1="252.77" y1="579.77" x2="929.53" y2="-96.98" gradientTransform="translate(92.77 -99.34) rotate(11.8)" gradientUnits="userSpaceOnUse"><stop offset="0" stop-color="#f4c551"/><stop offset="1" stop-color="#a8135a"/></linearGradient><linearGradient id="linear-gradient-2" x1="704.04" y1="560.41" x2="704.04" y2="419.74" gradientTransform="translate(965.94 899.08) rotate(-168.61)" gradientUnits="userSpaceOnUse"><stop offset="0" stop-color="#127ca6" stop-opacity="0"/><stop offset="0.99" stop-color="#773f10"/></linearGradient><linearGradient id="linear-gradient-3" x1="722.28" y1="546.39" x2="719.81" y2="348.9" xlink:href="#linear-gradient-2"/><linearGradient id="linear-gradient-4" x1="830.55" y1="495.06" x2="829.01" y2="371.4" xlink:href="#linear-gradient-2"/><linearGradient id="linear-gradient-5" x1="438.71" y1="591" x2="439.82" y2="308.1" gradientTransform="translate(965.94 899.08) rotate(-168.61)" gradientUnits="userSpaceOnUse"><stop offset="0" stop-color="#127ca6" stop-opacity="0"/><stop offset="0.99" stop-color="#93e247"/></linearGradient><radialGradient id="radial-gradient" cx="248.37" cy="408.65" r="0.02" gradientTransform="translate(965.94 899.08) rotate(-168.61)" gradientUnits="userSpaceOnUse"><stop offset="0" stop-color="#127ca6"/><stop offset="1" stop-color="#2b2b7d"/></radialGradient><radialGradient id="radial-gradient-2" cx="550.52" cy="379.54" r="505.99" xlink:href="#radial-gradient"/><linearGradient id="linear-gradient-6" x1="531.96" y1="379.59" x2="531.96" y2="332.86" gradientTransform="translate(965.94 899.08) rotate(-168.61)" gradientUnits="userSpaceOnUse"><stop offset="0" stop-color="#127ca6" stop-opacity="0"/><stop offset="1" stop-color="#2b2b7d"/></linearGradient><linearGradient id="linear-gradient-7" x1="248.37" y1="408.64" x2="248.37" y2="408.61" xlink:href="#linear-gradient-6"/><linearGradient id="linear-gradient-8" x1="352.37" y1="376.44" x2="352.37" y2="236.73" xlink:href="#linear-gradient-6"/><linearGradient id="linear-gradient-9" x1="248.37" y1="408.61" x2="248.37" y2="408.64" gradientTransform="translate(965.94 899.08) rotate(-168.61)" gradientUnits="userSpaceOnUse"><stop offset="0" stop-color="#d5d5fa"/><stop offset="1" stop-color="#127ca6" stop-opacity="0"/></linearGradient><linearGradient id="linear-gradient-10" x1="277.11" y1="236.57" x2="277.11" y2="356.01" xlink:href="#linear-gradient-9"/><linearGradient id="linear-gradient-11" x1="443.19" y1="408.6" x2="443.19" y2="408.6" xlink:href="#linear-gradient-6"/><linearGradient id="linear-gradient-12" x1="429.33" y1="390.25" x2="447.44" y2="390.25" xlink:href="#linear-gradient-9"/><linearGradient id="linear-gradient-13" x1="727.3" y1="366.77" x2="727.3" y2="185.14" xlink:href="#linear-gradient-6"/><linearGradient id="linear-gradient-14" x1="803.21" y1="322.54" x2="863.81" y2="322.54" xlink:href="#linear-gradient-9"/><linearGradient id="linear-gradient-15" x1="703.64" y1="293.56" x2="746.06" y2="293.56" xlink:href="#linear-gradient-9"/><linearGradient id="linear-gradient-16" x1="248.39" y1="274.56" x2="248.39" y2="372.88" xlink:href="#linear-gradient-6"/><linearGradient id="linear-gradient-17" x1="248.37" y1="264.66" x2="248.37" y2="556.57" xlink:href="#linear-gradient-6"/><linearGradient id="linear-gradient-18" x1="271.37" y1="262.99" x2="271.37" y2="582.7" xlink:href="#linear-gradient-6"/><linearGradient id="linear-gradient-19" x1="271.85" y1="262.19" x2="271.85" y2="583.9" xlink:href="#linear-gradient-6"/><linearGradient id="linear-gradient-20" x1="289.08" y1="243.03" x2="289.08" y2="365.38" xlink:href="#linear-gradient-6"/></defs><title>Artboard 1</title><g class="cls-1"><g id="Layer_1" data-name="Layer 1"><path class="cls-2" d="M704.88,429.38a3.45,3.45,0,0,1-.28.26l.66-.19L812.45,451a314.88,314.88,0,0,0,6.11-54.24C822.09,255.69,729.29,127.48,591,88.6l-45-9.18a309.59,309.59,0,0,0-72.5-.91l-3,.32q-7.08.8-14.07,1.93Q448.13,82.1,440,83.87c-7.14,1.56-14.21,3.34-21.2,5.41,0,0,0,0,0,0a311.33,311.33,0,0,0-31,10.83h0q-10.17,4.17-20,9h0q-7.5,3.72-14.78,7.82-4.2,2.35-8.3,4.84c-.77.46-1.54.92-2.3,1.39-.53.32-1.06.66-1.57,1A314,314,0,0,0,291.7,162q-7.95,7.5-15.41,15.57a311.19,311.19,0,0,0-55.93,85.19h0a313.63,313.63,0,0,0-20.57,64.89Z"/><path class="cls-3" d="M830.57,393.33l0-.7c-.47-.09-.42-.41-.29-1.13a17.23,17.23,0,0,0,.1-2.18,11.64,11.64,0,0,0-.69,4.26l-11.15,3.22C822.09,255.69,729.29,127.48,591,88.6"/><line class="cls-3" x1="843.07" y1="457.2" x2="842.99" y2="457.19"/><path class="cls-3" d="M276.29,177.57a310.22,310.22,0,0,0-29.09,36.71"/><path class="cls-3" d="M470.51,78.83l3-.32"/><path class="cls-4" d="M247.2,214.28a308.62,308.62,0,0,0-26.84,48.48"/><path class="cls-5" d="M199.79,327.66a313.63,313.63,0,0,1,20.57-64.89h0a308.62,308.62,0,0,1,26.84-48.48l45.67,53,54.21-20.52,166.11,144Z"/><polygon class="cls-6" points="314.82 350.82 292.87 267.32 347.08 246.8 397.22 362.9 402.06 368.39 314.82 350.82"/><path class="cls-4" d="M220.36,262.76h0a313.63,313.63,0,0,0-20.57,64.89"/><path class="cls-7" d="M267.24,341.25l-67.45-13.59a313.63,313.63,0,0,1,20.57-64.89L246.3,325.6Z"/><path class="cls-8" d="M466.76,350l41.49-19.41L538,356.11l122.89-61.93L778.29,408.4l-7,2,0,0-1.49.43-5.31,1.53-.57.16-1.58.46-.54.15-1.33.39L755.31,415l-5.24,1.51-7.53,2.18-.21.06-1.09.3-17.28,5-1.62.46-.46.14-2,.57-.15,0-1,.28-13.5,3.89-.66.19a3.5,3.5,0,0,0,.28-.27l-191.2-38.5Z"/><path class="cls-9" d="M451.78,159l210.73,41.1s-23.84-8.68-34.22-9.36c0,0-11.72-5.12-17.85-4,0,0-10.68-6.43-22.1-4.9,0,0-5.89-6-20.76-6.39,0,0-3.1-5.1-15.23-7.34a54.7,54.7,0,0,0-22,.46s-10.53-5-18.2-3c0,0-11-3.21-15.88-.54A22.49,22.49,0,0,0,485,163.46Z"/><path class="cls-9" d="M523,134.79l91.34,17.81s-10.33-3.76-14.83-4.06c0,0-5.08-2.22-7.74-1.71,0,0-4.63-2.8-9.58-2.13,0,0-2.55-2.59-9-2.77,0,0-1.34-2.22-6.6-3.18a23.62,23.62,0,0,0-9.54.2s-4.56-2.17-7.88-1.29c0,0-4.79-1.4-6.89-.24a9.71,9.71,0,0,0-4.87-.68Z"/><g class="cls-10"><path class="cls-11" d="M345.1,171.82a80.47,80.47,0,0,0,150.37-4.35c.28-.8.55-1.61.81-2.44h0q1.18-3.86,2-7.87a80.44,80.44,0,0,0-27.79-78.32q-7.08.8-14.07,1.93Q448.13,82.1,440,83.87c-7.14,1.56-14.21,3.34-21.2,5.41,0,0,0,0,0,0a311.33,311.33,0,0,0-31,10.83h0q-10.17,4.17-20,9h0q-7.5,3.72-14.78,7.82-4.2,2.35-8.3,4.84c-.77.46-1.54.92-2.3,1.39-.53.32-1.06.66-1.57,1-.07.26-.12.51-.17.78A80,80,0,0,0,345.1,171.82Z"/><path class="cls-12" d="M350.17,126.92A70.44,70.44,0,0,1,353,117q7.28-4.11,14.78-7.82h0q9.83-4.84,20-9h0a311.33,311.33,0,0,1,31-10.83s0,0,0,0c7-2.07,14.06-3.85,21.2-5.41q8.18-1.78,16.48-3.11a70.73,70.73,0,1,1-106.27,46.16Z"/><path class="cls-13" d="M431.6,81.53A59.91,59.91,0,0,1,440,83.87c-7.14,1.56-14.21,3.34-21.2,5.41,0,0,0,0,0,0a51.61,51.61,0,0,0-31,10.83h0q-10.17,4.17-20,9"/><path class="cls-14" d="M359.94,128.91a60.72,60.72,0,0,1,7.8-19.75h0q9.83-4.84,20-9h0a311.33,311.33,0,0,1,31-10.83s0,0,0,0c7-2.07,14.06-3.85,21.2-5.41a60.75,60.75,0,1,1-80,45Z"/><path class="cls-15" d="M418.73,89.28a311.33,311.33,0,0,0-31,10.83"/><path class="cls-16" d="M368.73,130.7a51.5,51.5,0,0,1,19-30.58h0a311.33,311.33,0,0,1,31-10.83s0,0,0,0a51.78,51.78,0,1,1-50,41.42Z"/><path class="cls-17" d="M461.06,149.54A42.46,42.46,0,1,1,428,99.45,42.45,42.45,0,0,1,461.06,149.54Z"/><path class="cls-18" d="M452,147.69a33.2,33.2,0,1,1-25.9-39.17A33.2,33.2,0,0,1,452,147.69Z"/></g><path class="cls-19" d="M276.29,177.57q7.44-8.07,15.41-15.57a18.71,18.71,0,0,1,8.71,4.64s11.42-10.26,23.63-8.41,13.85,14.13,13.85,14.13a20.81,20.81,0,0,1,7.21-.54c9.89,1.12,12.84,10.4,12.84,10.4a17.53,17.53,0,0,1,3-1.47c11.12-4.23,19,7,19,7l.37-.25c6.93-4.44,17.38,4.74,17.38,4.74,7.19-1.08,19.54,5.08,27,9.34h0c3.81,2.17,6.38,3.85,6.38,3.85l-57.21-10.31-16.59-3Z"/><path class="cls-20" d="M341.06,123c.21-1,.44-1.91.69-2.84,1.06.6,2,1.16,2.91,1.68,2.55,1.51,4.16,2.56,4.16,2.56l-6.46-1.17Z"/><path class="cls-21" d="M769.67,410.72c.06-.14.11-.26.2-.45.18.53.39.26.6.08a.69.69,0,0,1-.05-.24c.28.09.56.2.86.31l-1.49.43Zm-50.35,13.62c.16.36.3.66.42.94l-1,.28C719,425.16,719.13,424.75,719.32,424.34Zm-11.51-35c.05-.24.11-.48.17-.72a1.69,1.69,0,0,1,.45.53c.47,1,.82,2.31,1.66,2,.53-.19.64.69.27,2C709.52,391.91,708.67,390.63,707.81,389.36Zm.55,7,1.69-.22C709.55,397.26,709.06,397.53,708.36,396.36Zm4-7.58c0-2.06.83-3.66,1.82-3.33C713.59,386.53,713,387.61,712.35,388.78Zm2.52,25.9c.84,3.07,1.69,1.15,2.52,0,.09,1.83-.19,2.91-.75,2.81a10.35,10.35,0,0,1-2.49-.89c-.2-.09-.37-.64-.55-1C714.63,416,714.63,416,714.87,414.68Zm-5.13-8.36-.09,4.14-.3-.08c.08-1.36.14-2.72.19-4.09ZM691,420a3.57,3.57,0,0,1,.13,2,2.23,2.23,0,0,0-.24-.2q-.64,2.31-1.29,4.56L698,428a.38.38,0,0,1,0-.15c0-.2-.31-.61-.29-.88.06-.87.2-1.7.36-2.87l-.91-1.33a1.59,1.59,0,0,1-.17.18c-.22-1.43-.43-2.86-.65-4.49-.24.76-.37,1.21-.54,1.75-.22-.65-.4-1.13-.58-1.62h.18c0-.59.07-1.19.12-1.78l-1.09,0c0-.44-.1-1.1-.16-1.81-.39.28-.74.54-1.14.81l-.56-.37c-.05.16-.09.32-.14.48.17.66.34,1.32.57,2.19-.24.05-.5.26-.68.11-.83-.61-1-.42-1.38,1.57C691,419.81,691,419.91,691,420Zm-27.33-3.25c.25.58.53,1.16.78,1.72l-1,1.3c.64.94,1.33,0,1.93.5a2.56,2.56,0,0,0-.93,1l4.61.93c.16-.63-.31-.72-.4-1.27.26-.8.56-1.6.83-2.47a9.22,9.22,0,0,0,0-1.09c-.15.05-.31,0-.45.18a9.12,9.12,0,0,0-.58.76c-.16-.56-.26-.93-.36-1.29-.13.37-.27.75-.39,1.15,0,.18,0,.43-.07.62-.14.85-.28,1.69-.43,2.52a1.15,1.15,0,0,1-.16-.63,10.29,10.29,0,0,1,.69-4.35,4.67,4.67,0,0,0,.53-2.8c-.42.85-.78,1.59-1.16,2.33a.4.4,0,0,0-.1-.12l.13-5.43c-.91,1.05-.45,3.16-.86,4.74-.27-1-.43-2.17-1.11-1.89.31,2.46,1.56,3.95,1.06,7.1-.3-1.2-.61-2.4-.91-3.6a1.49,1.49,0,0,0-.12.14c0,.32-.07.64-.09.88-.46-.45-.91-.9-1.36-1.32C663.77,416.44,663.73,416.57,663.71,416.7Zm38.6-8.16c-.52-.46-1-1-1.59-1.38-.19-.15-.59-.18-.62,0-.26,1.35-.75.83-1.16,1s-.58.32-.89.5c.28,2.23,1.09,1.34,1.69,1.77-.14.35-.28.64-.42,1l1.26,1.1-.45,1.1a4.31,4.31,0,0,0,.11.49l2.2-2c-.53,1.19-.92,2.05-1.29,2.9l.15.57,1.4-1.44c.23-.23.43-.47.66-.7,0,.57.12,1.13.12,1.69,0,1.25.14,1.59.68,1a13.22,13.22,0,0,0,1-1.49,10.07,10.07,0,0,0,.15,1.07,1.74,1.74,0,0,0,.67-.48c.34-.35.65-.75,1-1.13,0,.17.08.34.14.52a5.63,5.63,0,0,1-.5,1.39c-.86,1-1.76,1.86-2.64,2.81-1.57,1.7-2.44-1.29-3.58-2.45l.26,1.24c-.2.59-.34,1-.5,1.5l-1.65-2.18c.09.74.13,1.18.19,1.78l-1.87,0c0,.13,0,.29-.06.44.53.64,1.07,1.3,1.65,2-.06.42-.11.88-.18,1.28.73,1.15,1.2-.7,1.92-1-.2.79-.35,1.31-.49,1.85l.34.47c-.08.46-.14.89-.24,1.51.43-.19.76-.35,1.12-.5-.06,1.25.34,3.09.71,3.09.52,0,1.08-.15,1.27-1.61.61,2.32,1.14-.14,1.72-.23,0,.53.09,1.07.13,1.77.82-1.07,1.63-1.69,2.59-1.26a13.75,13.75,0,0,1-2.38,3,3.45,3.45,0,0,1-.28.26l.66-.19L812.45,451a314.88,314.88,0,0,0,6.11-54.24L814.34,398c-.07-.21-.13-.41-.2-.6s-.09-.4-.15-.6a1.92,1.92,0,0,0-.31.11c-.59.24-1.19.55-1.79.73a2.87,2.87,0,0,1-.92,0l-1.16,0c0-.1,0-.2-.07-.29a5.71,5.71,0,0,1,.58-.89,2.22,2.22,0,0,1,.75-.33c-.16-.52-.73-.24-.54-1.15a2.14,2.14,0,0,1,.36.12c.09-.38.17-.74.25-1.14l.6.36c-.29-.65-.56-1.24-.83-1.82a.67.67,0,0,1,.09-.14l.59.2a1.17,1.17,0,0,1,.07-.25,2.42,2.42,0,0,0-.35-.46c-.37-.31-.75-.59-1.13-.88a.33.33,0,0,1-.12-.23c.08-.69-.29-.59-.46-.82s-.33-.23-.39-.44a5.1,5.1,0,0,1-.05-1,1.62,1.62,0,0,1,.41.27c.22.28.37.78.62.34l.57.67a.78.78,0,0,1,.08-.23c-.18-.22-.36-.42-.52-.65-.29-.45-.12-.66.21-.79-.35-.57-.65-1.05-1-1.58l.86-.57c-.38-.1-.66-.05-.85-.26a3.51,3.51,0,0,1-.31-1.09l1.47.5c-.26-.34-.58-.49-.8-.85-.34-.6-.67-1.15-1.21-1,.07-.66.13-1.21.18-1.8l.85-.52c0-.1,0-.21,0-.3l-.64.07s0,.08,0,.12l.23.1c0,.05,0,.1,0,.17l-.42.06c-.22-1.08.41-1.57.47-2.45l-.55-.48c.53-.41.2-1.4.42-2.05l-.22.45c0-.33,0-.53,0-.92-.1.87-.17,1.53-.24,2.26l-.57-.77a10.72,10.72,0,0,1,.54,3c0,.75-.09,1-.53.94-.19,0-.38-.09-.57-.13a2.09,2.09,0,0,0,0,.25l.43,0c.5-.05.6.14.51,1-.35.24-.69.46-1,.72a.76.76,0,0,0-.14.46.36.36,0,0,0,.19.28,1.07,1.07,0,0,0,.41-.07c0,.13,0,.35,0,.39-.34.35-.67.65-1,1,0,0,0,.07.07.1-.18.4-.35.8-.52,1.21a1.93,1.93,0,0,0,.13.24l1.16-1.46c0,.37.06.74.07,1.05-.42.36-.84.7-1.29,1.06l.4.3c-.59.41-.77,1.65-1.45,1.55-.22,0-.47.28-.71.44l0,.23c.24,0,.48.08.64.11.2.26.35.45.55.73-.19.45-.38.92-.6,1.43.27,0,.47,0,.63.09s.16.36.23.55a1.46,1.46,0,0,1-.3.34.32.32,0,0,1-.31-.05c-.49-.31-1-.65-1.48-.95a9.64,9.64,0,0,1-1.2-.68,1.86,1.86,0,0,0-1.47-.46,2.68,2.68,0,0,0-.05.3c.48.16,1,.32,1.41.49,0,.67-.07,1.27-.09,1.88l.14.06c.28-.52.18-1.8.92-1.52-.28.89-.55,1.69-.76,2.36l1.18-.07c0,.33-.07.62-.11.91-.36.52-.73,1.08-1.25.74,0,0-.16.22-.25.34.27.24.46.42.71.63l.49-.73a10.34,10.34,0,0,1-.17,1.71c-.11.33-.41.44-.67.69a3.27,3.27,0,0,1,.58.34,7.55,7.55,0,0,1,.48.64l0,.06c.15.22.36.41.34.52a1.71,1.71,0,0,0,0,.72L786.8,406l-.44-.58c.16-.09.29-.11.35-.22.25-.52.49-1.07.74-1.62a1.22,1.22,0,0,0,.1-.34.64.64,0,0,0,0-.28c0-.05-.1-.06-.12,0-.16.32-.29.67-.45,1a1.5,1.5,0,0,1-.36.43,2.66,2.66,0,0,1-.12-.56c0-.65,0-1.3,0-2,0-.14-.18-.29-.21-.45,0,0-.2.05-.2.06l-.06,2.74c-.11-.41-.13-.74-.25-1.1,0,.51.06.9.06,1.28a.12.12,0,0,1,0,.05c0,.32.07.64.11,1.13l-.79-.23a1.38,1.38,0,0,1-.28.38c-.54.32-1.08.62-1.62.92a5,5,0,0,1-.6.38c-.39.15-.78.23-1.17.34l.1.17-3.32,1-7,2-.18-.29c.35.2.23-.38.42-.52l-.31-.24c0-.1.07-.19.07-.22-.06-.22-.13-.43-.2-.65a2.8,2.8,0,0,1-.23.33l0,0,.09-.46s0,0,0,0l-.2.59c0-.33,0-.6,0-.9-.11.35-.22.67-.32,1l0,0c0-.33,0-.66,0-1-.34.43-.42.44-.53,0,0,.21-.08.4-.13.58,0-.09-.09-.16-.14-.27-.1.47-.17.87-.26,1.33,0-.2,0-.3-.07-.47-.22.21-.43.38-.69.61l.18-.54c-.29.06-.58.13-.85.17-.06-.09-.13-.19-.21-.29-.05.13-.09.27-.16.45,0-.2-.07-.39-.1-.53-.31-.2-.45-.73-.66-1.16.2-.72.43-1.47.67-2.27l-.49.23,0-.16.41-.43a.52.52,0,0,0,.13-.13c-.05-.39.18-.36.29-.58a.87.87,0,0,0-.21,0v-.18l1.09-.32-.19,0c.08-.05.14-.07.14-.09,0-.5.14-.27.26-.24a7.69,7.69,0,0,0,.78.11s.09-.15.15-.25l-.36-.07a.65.65,0,0,0,0-.14c.24,0,.48-.06.68-.1.18-.84-.22-.92-.4-1.27-.05-.08-.09-.19-.14-.29l-.57.91c.06-.3.12-.56.2-.86l-.33.6,0-.05c0-.25.1-.49.14-.75,0,0,0,0,0,0-.07.2-.12.41-.18.61l0,0c0-.17,0-.34.06-.61-.11.33-.21.57-.32.86,0-.18-.05-.27-.07-.48a3.56,3.56,0,0,1-.2.59c-.16.27-.19.78-.47.88s-.25.29-.38.45l-.2.24a2.42,2.42,0,0,0-.1-.36c-.1.13-.1.14-.33-.05h-.06a.11.11,0,0,0,0-.06h0v-.22c.09-.06.19-.2.28-.27a.31.31,0,0,1,0-.09h-.43l.14-.5c-.09.05-.15.06-.21.09a4.53,4.53,0,0,1,.7-1h-.48c.14-.6.19-.48.27-.6-.16-.17-.31-.43-.46-.59.08-.18.16-.38.23-.55s.05-.25.07-.36-.08-.09-.1-.06a.73.73,0,0,0-.18.24c.07.33-.1.36-.17.51s-.17.34-.27.56l-1.11.44c.07.21.12.39.21.64a2.45,2.45,0,0,1-.3-.11c.11.19.19.29.25.41s.11.28-.13,1h-.06c0-.1,0-.2,0-.26,0,.14-.05.32-.08.53-.11-.19-.35-.13-.26-.58,0,0-.06-.12-.1-.18s-.12-.23-.11-.32c0-.36-.15-.32-.24-.42a.72.72,0,0,0-.25-.12c0,.09,0,.21,0,.36-.07-.14-.12-.32-.19-.34s-.2.09-.14.35c-.12,0-.08.5-.29.26,0,0-.17.08-.22.19a2.45,2.45,0,0,0-.1.57l.27-.1a4.84,4.84,0,0,1-.14.49,1.45,1.45,0,0,1-.06.3c.07,0,.14.09.22.08.23,0,.45-.05.75-.09-.13.18-.19.28-.25.37l.23.14c0,.21-.09.39-.13.65l.54-.14a4.88,4.88,0,0,0-.22.5c.1.05.28.08.29.16a1.72,1.72,0,0,0,.32.81,1,1,0,0,1,.1.46,1.48,1.48,0,0,1-.21.47l.09.21a3.48,3.48,0,0,0-.08.63c0,.33.08.66.14,1-.16,0-.28-.07-.38-.11-.28-.09-.45-.32-.43-.9a1.52,1.52,0,0,0-.11-.32l0,.06c0,.14,0,.28,0,.42h-.08c0-.3,0-.59,0-.91h0c0,.11,0,.23,0,.34l-.08.08c0-.3-.11-.6-.17-.88l-.08.19c0-.25-.18-.51-.18-.77h-.25v.56c-.08-.42-.13-.84-.21-1.26-.14.29-.23.58-.37.92-.07-.24-.09-.37-.13-.49a.3.3,0,0,1-.31-.14,2.66,2.66,0,0,1-.19-.44l-.26.14c0,.25,0,.46,0,.71a.44.44,0,0,1-.08.1c.21.1.39.2.57.3v.08l-.2.12a.59.59,0,0,0,0,.23l-.39,0a.61.61,0,0,1,0,.14l.75-.06c.08,0,.19-.05.24,0a3.32,3.32,0,0,1,.17.53c0,.07-.07.21-.13.39.27-.16.27-.13.35.81l.4-.39a4.53,4.53,0,0,1,.2.49l-.27.12.44.31-.3.1c.52.27.65.41.71.82,0,0,.11-.15.13-.15.22.21.44.44.63.63,0,.19-.1.35-.16.56l-.22.09v.18l.14.29c.08,0,.21,0,.23,0a1.9,1.9,0,0,1,0,.34l-.57.16c0-.06,0-.14,0-.21h0l.09-.46s0-.06,0-.08a.73.73,0,0,1-.06-.14.47.47,0,0,0-.09.12l0,0c0-.07,0-.12-.07-.2-.07.15-.13.3-.19.45,0-.49.06-.94.1-1.38l-.41.74c0-.48-.07-.89-.39-.92,0,.14-.06.32-.09.5-.16-.5-.33,0-.52,0,0,.14.06.25.1.39l-.29-.22c.07.17.12.26.15.36a1.88,1.88,0,0,0-.19.2c.09.1.14.18.21.26-.1.05-.18.17-.25.22s0-.05,0,.15h.14v.09a.51.51,0,0,1,.32-.09h0s0,.11,0,.13-.31.14-.45.2a.29.29,0,0,0,0,.13l.38.15-.13.12-.54.16a3.5,3.5,0,0,1-.4-1.39c0-.15,0-.25-.16-.2s-.21-.08-.26-.19a6.38,6.38,0,0,1-.31-.83l-.07,1-.06,0c-.08-.17-.17-.37-.25-.57l-.06.27c-.09-.3-.15-.58-.22-.82a3.54,3.54,0,0,0-.46.53,5,5,0,0,0-.15.68h.05c0,.23,0,.48-.05.62l1,.42c-.13.48.17.47.26.76l-.16.12L755.31,415l.38-.27a2.48,2.48,0,0,0-1.12,0,2.75,2.75,0,0,1-2.9-.78c-.07-.05-.08-.29-.12-.43.29-.11.58-.36.85-.3a6.2,6.2,0,0,1,1.21.65,2.73,2.73,0,0,0-.56-.84c-.35-.42-.35-.42-.26-1,.41.91.6-.15.87-.36.14.19.27.38.49.67-.06-.44-.09-.66-.13-.86l.41-.28a4.62,4.62,0,0,1-.18-.62.73.73,0,0,1,.09-.42c.3,0,.62-.14.89.24.06.09.14.1.22.14l.06-.18c-.19-.28-.38-.54-.5-.71.38-1,1-1.21,1.62-.85l0-.24-.3,0c-.12-.4-.21-.65-.29-.91s-.09-.36-.14-.55l-.27.1c-.54.22-1.05.48-1.59.64a2.52,2.52,0,0,1-.82,0l-1,0c0-.07,0-.15-.06-.25a3.7,3.7,0,0,1,.52-.77,2.17,2.17,0,0,1,.65-.31c-.14-.46-.64-.21-.46-1l.31.1c.07-.34.15-.65.22-1l.53.32c-.25-.57-.5-1.1-.74-1.62a.57.57,0,0,0,.08-.13l.52.18a1.72,1.72,0,0,0,.07-.21,1.69,1.69,0,0,0-.31-.41c-.33-.27-.67-.52-1-.79a.41.41,0,0,1-.09-.2c.06-.61-.27-.51-.41-.72s-.28-.21-.35-.4a4.73,4.73,0,0,1,0-.86,1.23,1.23,0,0,1,.36.23c.19.26.33.7.55.3.18.22.35.41.51.59a1,1,0,0,1,.08-.19,6.15,6.15,0,0,1-.46-.58c-.26-.39-.12-.59.18-.71l-.88-1.39.76-.51c-.33-.09-.58,0-.76-.24a3.14,3.14,0,0,1-.26-1l1.3.45c-.24-.31-.52-.44-.72-.75-.29-.53-.59-1-1.07-.93,0-.29.06-.56.08-.81-.27.19-.39.38-.67.61l.13.64s0,0-.07,0l-.57,21.14-7.52,2.18c-.06-.08-.11-.17-.17-.24,0,.09,0,.2,0,.3l-1.08.31c-.07-.24-.14-.51-.21-.75-1.11,1.21-1.11,1.21-1.83-.9l1.9,0c0-.13,0-.28.06-.43l-.59-.75c.29-.4.6-.78.9-1.17,0-.17-.05-.34-.07-.51l-1.85.42c0-.32,0-.47,0-.61,1.67-.41,1.58-4.4,2.44-6.58-.37.4-.73.81-1.21,1.35.15-1.43.26-2.58.39-4-.79.55-1.44,1-2.09,1.42-.08-.11-.14-.24-.22-.35.4-1.35.81-2.71,1.07-3.55,0-2.23,0-4.06,0-5.89l-.24-.1c-.27,1.28-.55,2.55-.85,3.94-.25-1-.45-1.74-.53-2,0-2.75,0-5.14-.08-7.52l-.32-.22c-.15,1-.31,2-.47,3.05l-.92-.12c.52-1.49,1.22-2.79.79-5,.15-.34.39-.9.63-1.48-1.19-1.63-1.83-4.13-2.42-6.76a22,22,0,0,0-.87-3.06c-.5-1.21-.94-.8-1.2.86a73.28,73.28,0,0,1-1.6,9.21,35.6,35.6,0,0,0-1,4.49c-.4.38-.74.51-.92,1a5.4,5.4,0,0,0,.07,1.61c.12.93.26,1.82.45,3l-1.11-.31c0,.91-.06,1.67-.06,2.42s.21,1.74-.44,1.82a6.35,6.35,0,0,0-.24,1.49c-.07,1.16.36,2.65-.48,3.29a18.15,18.15,0,0,0,.32,1.89c.17.7.4,1.31.6,2l-.2.37c-.19-.35-.39-.72-.47-.88l-.83.92c-.14-.82-.3-1.64-.45-2.46l.17-.1c-.27-.42-.52-.83-.82-1.28l-.56,1.36c.16.91.33,1.85.61,3.41l-.92-1.16a2.46,2.46,0,0,0-.19.32c.37,1.49.75,3,1.14,4.54l-1.56-1.06a38.48,38.48,0,0,1,1.28,4.26,10.71,10.71,0,0,1-.14,3.45c-.52-1.73-1-3.46-1.64-5.43a18.59,18.59,0,0,0-.18,1.86c0,1.87-.52,3.85-.24,5.71l-1.62.46c-.1-.3-.2-.64-.29-1-.08.15-.15.32-.23.47s0,.45.07.67l-2,.57a4.74,4.74,0,0,1,2.55-2.65c-.06-.51-.09-.93-.11-1.13l1.74-2c0-.19-.06-.39-.08-.6l-2.21.53c.08-.78.13-1.4.23-2.53-.75,1-1.35,1.81-1.92,2.58-.51-1.74.13-2.7.52-3.82-.85-.45-1.61-1.4-2.46.31a5.89,5.89,0,0,1,0-1.74,3.85,3.85,0,0,1,1.13-.89,3.58,3.58,0,0,0,.08.43c0-.47.1-.92.14-1.35l.74-.1c-.07-2.07.72-.68,1-1.49-.07-.38-.15-.76-.16-.86.24-.5.39-.85.55-1.2a5.51,5.51,0,0,0-.66-1.24c-.15-.14-.38.2-.58.27-.5.2-1,.29-.89-1.4l-2.09,1.24c.14-.81.25-1.39.34-2a2.39,2.39,0,0,1-.13-.28c-.64.62-1.27,1.3-1.92,1.87-.22.21-.53.46-.68.24-1.09-1.59-2.17-3.22-3.2-5a8.85,8.85,0,0,1-.4-2.05l.16-.17c.54,2,1,2.7,1.69,3s1.59.28,2.06,2.09c0,.12.14.14.27.26,0-.51.1-.92.14-1.38.12.15.19.31.27.34.28.07.58.11.87.17a14.62,14.62,0,0,0-.42-1.62c-.24-.6-.54-1.08-.81-1.61a31,31,0,0,1,2.23,2.35c.09.09.33-.16.41-.41a19.33,19.33,0,0,0,.51-2c-.28-.5-.58-1-.9-1.58,0-.13.09-.24.13-.37.26.39.5.8.76,1.18a7.49,7.49,0,0,0,1,1.28c.14.13.43-.12.51-.41a3.29,3.29,0,0,0-.13-1.15,5.16,5.16,0,0,0-.34-.76c.78-.37,1.56-.7,2.34-1.16.14-.08.23-.64.35-1-.14-.18-.27-.47-.43-.53-.56-.24-1.13-.4-1.58-.55a8.4,8.4,0,0,0-.13-1.82c-.2-.19-.5,0-.74.22s-.33.57-.51.77c-.83.9-1.65,1.76-2.47,2.63l-.07-.39c.28-.54.58-1.08.9-1.68-.47-1-.91-.41-1.22.09-1.31,2.14-2.7,1.83-4.09,1.37-.5-.15-.61-.69-.38-1.67l.38-1.63c.15,1.91.72,2,1.24,2.1a10.88,10.88,0,0,0,.27-1.53c.36.11.77.23,1.15.36,0-.18.05-.35.07-.52L714.2,393c.31-.1.54.12.77.29s.55.5.64.29c.49-1,1-.82,1.51-.57.2.09.5-.64.76-1a4.67,4.67,0,0,0-.47-1,4.94,4.94,0,0,0-1.11-.72c.7-1,.86-3.13,1.81-3.05.29,0,.23-.89,0-1.21a4.25,4.25,0,0,0-.74-.65,4.69,4.69,0,0,0,1-3.81c-.76,1-1.46,1.8-2.14,2.67-.44.56-.9,1.47-1.3-.08-.07-.24-.3-.22-.46-.33.36-1.24,1.14-1.81,1-3.89L714,381.37c0-1.06.09-1.86.13-2.67a3.54,3.54,0,0,1,.11.44c.37-.09.89.12,1.09-.34.45-1.18-.34-1.27-.49-2.14.38-1.13.82-2.3,1.18-3.55a8.47,8.47,0,0,0,.06-1.56c-.21.08-.43.07-.62.27a9.45,9.45,0,0,0-.84,1.08c-.23-.81-.39-1.33-.55-1.85-.17.54-.37,1.08-.53,1.66-.07.25,0,.6-.1.89-.2,1.21-.41,2.41-.61,3.61a1.73,1.73,0,0,1-.26-.9,15,15,0,0,1,1-6.25,6.85,6.85,0,0,0,.75-4c-.6,1.21-1.14,2.28-1.65,3.34l-.16-.18.2-7.78c-1.32,1.5-.65,4.53-1.26,6.8-.39-1.51-.62-3.09-1.59-2.71.46,3.52,2.23,5.67,1.52,10.2l-1.3-5.17a1.19,1.19,0,0,1-.19.2c0,.46-.07.92-.12,1.27-.67-.66-1.3-1.29-1.94-1.91,0,.17-.09.35-.14.54.39.83.76,1.67,1.13,2.47-.5.62-.93,1.18-1.47,1.87.91,1.35,1.89,0,2.77.71a4.82,4.82,0,0,0-2,3.29c.16.17.29.42.38.38.55-.23,1,0,1.35,1,0,.08.34-.2.42-.48a5.48,5.48,0,0,0,.06-1.12c.9.32,1.18,1.41,1,3.39-.15,1.44-.24,2.91-.36,4.37,0,.49-.06,1-.12,1.84a11.52,11.52,0,0,1-2.26-5.32c-.2-1.3-.51-2.54-.79-3.95-.36.71-.58,1.11-.83,1.6-.34-.76-.65-1.52-1-2.18-.13-.24-.34-.22-.51-.31a7.38,7.38,0,0,0,0,1.25c.15.8.37,1.53.55,2.29-.51.19-1,.33-1.51.52l1.46,3.37a4,4,0,0,0-.11.47,5,5,0,0,0-1.08.63,1.78,1.78,0,0,0-.32.88c0,.14.18.44.29.63.4.68.82,1.34,1.26,2.07,1-.93,1-.87,1,1.12-.62.29-1.27.57-1.9.84,0,.19,0,.36,0,.54.39.5.79,1,1.22,1.54,0,.21-.08.58-.13,1,.28.34.53.67.79,1l-.1.51a5.67,5.67,0,0,0-1.08-1c-.34-.17-.73,0-1.09,0,0,.54,0,1.08.06,1.88a6.15,6.15,0,0,0-3.16,3.46c.7,1.72,1.93,2.25,2.7,1.05.09.49.24.93.28,1.41.07,1.26.34,1.36.71.62s.83-1.86,1.26-2.84l.49.81c-.09.6-.19,1.13-.27,1.67.83.36,1.06,0,1.73-2.36,0,.33,0,.65.09.91.12.47.24.91.36,1.36a3.36,3.36,0,0,0,.59-1c.21-.88.35-1.86.52-2.82.06-.36.07-.74.11-1.12a1.51,1.51,0,0,0,.26.18c-.19,1.29-.35,2.61-.6,3.86-.53,2.78-1.73,1.23-2.65,2.15.17.66.3,1.19.47,1.8-.63.75-1.27,1.31-1.92.51s-1.1-1.51-1.68-2.33c-.07.59-.1,1-.14,1.48L703,406C702.76,406.94,702.54,407.71,702.31,408.54Zm10.07-24.83a8.3,8.3,0,0,1,1.25-5.58C713.24,379.87,712.86,381.6,712.38,383.71Z"/><path class="cls-3" d="M843,457.19,812.45,451a314.88,314.88,0,0,0,6.11-54.24l11.15-3.22a11.64,11.64,0,0,1,.69-4.26,17.23,17.23,0,0,1-.1,2.18c-.13.72-.18,1,.29,1.13l0,.7"/><path id="_Pad_" data-name="&lt;Pad&gt;" class="cls-22" d="M518.42,192.22a.08.08,0,0,1-.1-.08.71.71,0,0,0-.14-.42,12,12,0,0,1-1.71-2.2.1.1,0,0,0-.18,0,1.71,1.71,0,0,0,.09.48s-.82-1.72-1.3-2.8a.09.09,0,0,0-.17.06,5.13,5.13,0,0,0,1,2.35,15.45,15.45,0,0,1-1.84-2.83.09.09,0,0,0-.17,0,4.59,4.59,0,0,0,.55,1.77.1.1,0,0,1-.14.12l-1.42-1.13a.09.09,0,0,0-.13.12l.28.39a.09.09,0,0,1-.1.14l-.2-.07a.09.09,0,0,0-.12.12l.21.52,0,0,.28.21a.09.09,0,0,1-.06.16h0a.11.11,0,0,0-.1.1,2.17,2.17,0,0,0,.24.87c.2.23-.09.19.14.61s.11.53.24.79.27.58.4.77a1.27,1.27,0,0,0,.49.55,6.11,6.11,0,0,0,.94.41.09.09,0,0,1,0,.17,29.59,29.59,0,0,1-3.81.32.09.09,0,0,0-.06.17l.14.07a13.47,13.47,0,0,0,2.24.14.09.09,0,0,1,.09.08c0,.11.08.31.19.3s.61.32.72.3.64,0,.84,0a.11.11,0,0,1,.08.05c0,.06.11.16.39.19a3,3,0,0,0,.92-.07h0c.1,0,1.7-.19,2.19-.28h0a6.78,6.78,0,0,0,1.24.13h0l.62.31c.07,0,.16,0,.12-.11a2.67,2.67,0,0,0-.28-.53,3,3,0,0,1-.28-.66v0l-.2-.29c0-.06,0-.13,0-.14.35-.11,1.36-.41,1.65-.54a4.27,4.27,0,0,0,2-1.13.1.1,0,0,0-.12-.14l0,0a.09.09,0,0,1-.12-.12,6.89,6.89,0,0,0,.4-1.47.09.09,0,0,0-.17-.06l-.25.44a.09.09,0,0,1-.17,0l0-.52a.09.09,0,0,0-.16-.05l-.62.78a.09.09,0,0,1-.16,0l0-.11a.09.09,0,0,0-.12,0l-2.75,1.16-.4.15a.09.09,0,0,0,0,.11l0,.16a.1.1,0,0,1-.14.11l0,0h-.05Z"/><path id="_Pad_2" data-name="&lt;Pad&gt;" class="cls-23" d="M545.45,251.89l-2.37-2.57-.05-.06-1.81-2.67-.09-.1-1.74-1.5a.79.79,0,0,1-.12-.15l-1.06-2a.53.53,0,0,0-.21-.21l-4.36-2.48-.09-.07L528.94,236a.12.12,0,0,1-.05,0L526.35,233l-.14-.11a42.87,42.87,0,0,1-4.19-2.72c-.26-.36-6.12-5-7-5.72a.63.63,0,0,1-.17-.23l-1.14-2.84a.46.46,0,0,0-.13-.2l-6.1-5.58a.48.48,0,0,1-.17-.3l-.4-2.15a.53.53,0,0,0-1,0,15.89,15.89,0,0,0-.53,2.56.54.54,0,0,1-1,.15h0a.54.54,0,0,0-1,.23c.09,3,.3,7.52.78,8.87a47.31,47.31,0,0,0,3.88,7.25c.38.42,7.17,7.32,10.31,8.83s12.12,11.35,11.83,12.9c-.27,1.38-3.79,1.59-6.53,3.53a.54.54,0,0,0,.21,1l.35.07a.54.54,0,0,1,.29.15c.59.6,3.39,3.32,6.39,4.1a78,78,0,0,0,10.37,1.33.5.5,0,0,1,.38.19c1.23,1.47,9.83,11.72,11.35,12.65s16.8,12.47,29.85,15.4a.54.54,0,0,0,.63-.7c-.29-.82-1.13-2.09-3.49-3.15a.55.55,0,0,1-.3-.64,1.53,1.53,0,0,0-.74-1.95c-1.46-.74-5.28-7.07-6.17-7.81s-5-4.84-6-5.72-3.25-3.93-4-4.41-2.58-3.24-4-4.31c-.74-.57-1.9-1.57-2.81-2.38a.55.55,0,0,1,.46-.94l12.22,2.24a.53.53,0,0,0,.62-.65,2,2,0,0,0-.67-1.19c-.7-.53-2.57-2.16-3-2.56a.49.49,0,0,0-.25-.12l-1.06-.21a.54.54,0,0,1-.31-.88l.68-.82a.54.54,0,0,0-.1-.78c-.94-.67-3-2.15-3.43-2.58s-4.5-3.45-4.95-3.78l-.09,0-2.08-1a.56.56,0,0,0-.53,0c-1.14.76-5.82,3.84-7.44,4.12A.53.53,0,0,1,545.45,251.89Z"/><path class="cls-24" d="M803.14,449.46s0,0,0,0S803.15,449.41,803.14,449.46Z"/><path class="cls-25" d="M199.73,328l603.36,121.5h0l9.28,1.87a310.91,310.91,0,0,1-67.82,140l.55,2.24-1.58-1c-71.27,83.09-184.17,126.22-299.11,103.08A312.36,312.36,0,0,1,198.6,334Q199.13,331,199.73,328Z"/><g class="cls-26"><path class="cls-27" d="M552.5,657c-3-.61-4,4.06-.94,4.66s4-4.06.94-4.66Z"/><path class="cls-27" d="M683.24,610.45c-3-.61-4,4.06-.94,4.66s4-4.06.94-4.66Z"/><path class="cls-27" d="M359.76,529.12c-3-.6-3.95,4.06-.94,4.67s3.95-4.06.94-4.67Z"/><path class="cls-27" d="M497.5,561.09c-3-.6-3.95,4.06-.94,4.67s3.95-4.06.94-4.67Z"/><path class="cls-27" d="M356.88,656.59c-3-.6-3.95,4.06-.94,4.67s3.95-4.06.94-4.67Z"/><path class="cls-27" d="M615.93,660.2c-3-.6-3.95,4.06-.94,4.67s4-4.06.94-4.67Z"/><path class="cls-27" d="M309.36,591.18c-3-.6-3.95,4.06-.94,4.67s3.95-4.06.94-4.67Z"/><path class="cls-27" d="M612.38,521.1c-3-.6-4,4.06-.94,4.67s3.95-4.06.94-4.67Z"/><path class="cls-27" d="M420.88,616.07c-3-.61-3.95,4.06-.94,4.66s3.95-4.06.94-4.66Z"/><path class="cls-27" d="M509.72,500.43c-3-.61-4,4.06-.94,4.67s4-4.06.94-4.67Z"/><path class="cls-27" d="M411.27,470.9c-3-.61-3.95,4.06-.94,4.66s3.95-4.06.94-4.66Z"/><path class="cls-27" d="M602,584.57c-3-.61-3.95,4.06-.94,4.66s3.94-4.05.94-4.66Z"/><path class="cls-27" d="M582.14,442.18c-3-.6-3.94,4.06-.94,4.67s3.95-4.06.94-4.67Z"/><path class="cls-27" d="M298.74,582.69c-3-.61-3.95,4.06-.94,4.66s3.95-4.06.94-4.66Z"/><path class="cls-27" d="M622.88,669.1a1.19,1.19,0,0,0-.47,2.33,1.19,1.19,0,0,0,.47-2.33Z"/><path class="cls-27" d="M576.6,609.61a1.19,1.19,0,0,0-.47,2.33,1.19,1.19,0,0,0,.47-2.33Z"/><path class="cls-27" d="M464.26,621a1.19,1.19,0,0,0-.47,2.33,1.19,1.19,0,0,0,.47-2.33Z"/><path class="cls-27" d="M376.91,580.22a1.19,1.19,0,0,0-.47,2.34,1.19,1.19,0,0,0,.47-2.34Z"/><path class="cls-27" d="M400.09,525.42a1.19,1.19,0,0,0-.47,2.33,1.19,1.19,0,0,0,.47-2.33Z"/><path class="cls-27" d="M542.89,455.55a1.19,1.19,0,0,0-.47,2.33,1.19,1.19,0,0,0,.47-2.33Z"/><path class="cls-27" d="M617.91,428.58a1.19,1.19,0,0,0-.47,2.33,1.19,1.19,0,0,0,.47-2.33Z"/><path class="cls-27" d="M659.13,545.31a1.19,1.19,0,0,0-.47,2.33,1.19,1.19,0,0,0,.47-2.33Z"/><path class="cls-27" d="M722.52,608.24a1.19,1.19,0,0,0-.47,2.34,1.19,1.19,0,0,0,.47-2.34Z"/><path class="cls-27" d="M484.72,680.11a1.19,1.19,0,0,0-.47,2.34,1.19,1.19,0,0,0,.47-2.34Z"/><path class="cls-27" d="M374.35,609.34a1.19,1.19,0,0,0-.47,2.33,1.19,1.19,0,0,0,.47-2.33Z"/></g><polygon class="cls-28" points="467.52 381.9 586.1 405.78 560.68 430.08 546.32 398.73 491.39 446.54 463.15 386.11 463.19 386.06 467.44 381.88 467.52 381.9"/><path class="cls-29" d="M803.14,449.46s0,0,0,0S803.15,449.41,803.14,449.46Z"/><path class="cls-30" d="M590,406.56l213.13,42.92h0l9.28,1.87a310.91,310.91,0,0,1-67.82,140l.55,2.24-1.58-1-33.17-21.31-25.63-61.7-28.56,15.76-34.65-90.77L606.8,447.4Z"/><path class="cls-4" d="M737.52,436.27l65.58,13.21h0s0-.06,0,0,0,0,0,0h0l40.24,8.1"/><path class="cls-31" d="M803.14,449.46s0,0,0,0S803.15,449.41,803.14,449.46Z"/><path class="cls-4" d="M745.12,593.62l-.55-2.24a310.91,310.91,0,0,0,67.82-140l31,6.23-17.71,88"/><path class="cls-32" d="M737.52,436.27l65.57,13.21h0l9.28,1.87a310.91,310.91,0,0,1-67.82,140l-10.18-41.91,12.57-26-15.41-34.55,9.65-48Z"/><line class="cls-33" x1="614.83" y1="411.57" x2="609.44" y2="410.48"/><polygon class="cls-34" points="609.51 414.06 609.44 410.48 614.84 411.57 621.53 434.58 606.8 447.4 608.73 430.85 605.65 421.74 609.51 414.06"/><path class="cls-4" d="M199.73,328q-.6,3-1.13,6"/><path class="cls-35" d="M199.73,328,467.52,381.9l-4.34,4.16,0,.05L324.65,519.36,289.8,477.53l-59.2,59.26A311.71,311.71,0,0,1,198.6,334Q199.13,331,199.73,328Z"/><path class="cls-36" d="M198.6,334l36.55,7.36L247.3,399l-29.83,67.22L219.76,492l-5.83,8.21A310.72,310.72,0,0,1,198.6,334Z"/><polygon class="cls-37" points="324.65 519.35 330.31 491.24 321.39 478.92 326.28 454.63 335.54 423.8 289.8 477.53 324.65 519.35"/><g class="cls-38"><path class="cls-39" d="M803.1,449.48h0Z"/><path class="cls-40" d="M803.11,449.47s0-.06,0,0S803.12,449.47,803.11,449.47Z"/><path class="cls-41" d="M777.45,460.36a.18.18,0,0,0,0,.07l-.12.19C777.4,460.53,777.43,460.44,777.45,460.36Z"/><path class="cls-42" d="M776.15,464.35h0a1.7,1.7,0,0,0,0,.22h0C776.16,464.5,776.16,464.42,776.15,464.35Z"/><path class="cls-43" d="M761.51,450h0Z"/></g><g class="cls-44"><circle class="cls-45" cx="551.26" cy="583.87" r="86.43" transform="matrix(0.99, -0.15, 0.15, 0.99, -79.62, 87.1)"/><path class="cls-46" d="M476.8,568.88a76,76,0,1,1,59.47,89.45A76,76,0,0,1,476.8,568.88Z"/><circle class="cls-47" cx="551.26" cy="583.87" r="65.25"/><circle class="cls-48" cx="551.26" cy="583.87" r="55.61" transform="translate(-198.95 870.18) rotate(-67.53)"/><path class="cls-49" d="M506.55,574.87a45.61,45.61,0,1,1,35.71,53.71A45.6,45.6,0,0,1,506.55,574.87Z"/><path class="cls-50" d="M516.3,576.83a35.67,35.67,0,1,1,27.92,42A35.66,35.66,0,0,1,516.3,576.83Z"/></g><line class="cls-51" x1="467.44" y1="381.88" x2="467.52" y2="381.9"/><line class="cls-51" x1="803.1" y1="449.48" x2="803.11" y2="449.48"/></g></g></svg>