<svg xmlns="http://www.w3.org/2000/svg" xmlns:xlink="http://www.w3.org/1999/xlink" viewBox="0 0 1023.55 775.86"><defs><style>.cls-1{isolation:isolate;}.cls-2{fill:url(#linear-gradient);}.cls-13,.cls-15,.cls-3,.cls-4,.cls-51{fill:none;}.cls-28,.cls-29,.cls-30,.cls-31,.cls-32,.cls-33,.cls-34,.cls-35,.cls-36,.cls-37,.cls-38,.cls-4,.cls-5,.cls-6,.cls-7,.cls-8{mix-blend-mode:multiply;}.cls-5{fill:url(#linear-gradient-2);}.cls-6{fill:url(#linear-gradient-3);}.cls-7{fill:url(#linear-gradient-4);}.cls-8{fill:url(#linear-gradient-5);}.cls-19,.cls-20,.cls-9{fill:#fff56a;}.cls-17,.cls-26,.cls-49,.cls-9{opacity:0.5;}.cls-10{mix-blend-mode:lighten;}.cls-11{fill:#e32c71;}.cls-11,.cls-12,.cls-46{opacity:0.2;}.cls-12{fill:#e8336f;}.cls-13,.cls-14,.cls-47{opacity:0.3;}.cls-14{fill:#e94a6a;}.cls-15,.cls-16,.cls-48{opacity:0.4;}.cls-16{fill:#e67564;}.cls-17{fill:#ec8a65;}.cls-18{fill:#fdfa6f;}.cls-20,.cls-38{opacity:0.6;}.cls-21{fill:#260931;}.cls-22{fill:#08262b;}.cls-23{fill:#060a11;}.cls-24{fill:url(#radial-gradient);}.cls-25{fill:url(#radial-gradient-2);}.cls-27{fill:#fff;}.cls-28{fill:url(#linear-gradient-6);}.cls-29{fill:url(#linear-gradient-7);}.cls-30{fill:url(#linear-gradient-8);}.cls-31{fill:url(#linear-gradient-9);}.cls-32{fill:url(#linear-gradient-10);}.cls-33{fill:url(#linear-gradient-11);}.cls-34{fill:url(#linear-gradient-12);}.cls-35{fill:url(#linear-gradient-13);}.cls-36{fill:url(#linear-gradient-14);}.cls-37{fill:url(#linear-gradient-15);}.cls-39{fill:url(#linear-gradient-16);}.cls-40{fill:url(#linear-gradient-17);}.cls-41{fill:url(#linear-gradient-18);}.cls-42{fill:url(#linear-gradient-19);}.cls-43{fill:url(#linear-gradient-20);}.cls-44{mix-blend-mode:luminosity;}.cls-45{fill:#966f84;opacity:0.1;}.cls-45,.cls-46,.cls-47,.cls-48,.cls-49{mix-blend-mode:screen;}.cls-46{fill:#ac7d90;}.cls-47{fill:#bc8d99;}.cls-48{fill:#c798a0;}.cls-49{fill:#d2a6a9;}.cls-50{fill:#ffe2da;mix-blend-mode:color-dodge;}.cls-51{stroke:#000;stroke-miterlimit:10;}</style><linearGradient id="linear-gradient" x1="258.59" y1="578.55" x2="935.35" y2="-98.2" gradientTransform="translate(92.77 -99.34) rotate(11.8)" gradientUnits="userSpaceOnUse"><stop offset="0" stop-color="#f4c551"/><stop offset="1" stop-color="#a8135a"/></linearGradient><linearGradient id="linear-gradient-2" x1="698.21" y1="561.58" x2="698.21" y2="420.91" gradientTransform="translate(965.94 899.08) rotate(-168.61)" gradientUnits="userSpaceOnUse"><stop offset="0" stop-color="#127ca6" stop-opacity="0"/><stop offset="0.99" stop-color="#773f10"/></linearGradient><linearGradient id="linear-gradient-3" x1="716.45" y1="547.57" x2="713.98" y2="350.07" xlink:href="#linear-gradient-2"/><linearGradient id="linear-gradient-4" x1="824.73" y1="496.23" x2="823.18" y2="372.57" xlink:href="#linear-gradient-2"/><linearGradient id="linear-gradient-5" x1="432.88" y1="592.17" x2="433.99" y2="309.27" gradientTransform="translate(965.94 899.08) rotate(-168.61)" gradientUnits="userSpaceOnUse"><stop offset="0" stop-color="#127ca6" stop-opacity="0"/><stop offset="0.99" stop-color="#93e247"/></linearGradient><radialGradient id="radial-gradient" cx="242.55" cy="409.82" r="0.02" gradientTransform="translate(965.94 899.08) rotate(-168.61)" gradientUnits="userSpaceOnUse"><stop offset="0" stop-color="#127ca6"/><stop offset="1" stop-color="#2b2b7d"/></radialGradient><radialGradient id="radial-gradient-2" cx="544.69" cy="380.72" r="505.99" xlink:href="#radial-gradient"/><linearGradient id="linear-gradient-6" x1="526.13" y1="380.77" x2="526.13" y2="334.04" gradientTransform="translate(965.94 899.08) rotate(-168.61)" gradientUnits="userSpaceOnUse"><stop offset="0" stop-color="#127ca6" stop-opacity="0"/><stop offset="1" stop-color="#2b2b7d"/></linearGradient><linearGradient id="linear-gradient-7" x1="242.55" y1="409.82" x2="242.55" y2="409.78" xlink:href="#linear-gradient-6"/><linearGradient id="linear-gradient-8" x1="346.54" y1="377.62" x2="346.54" y2="237.91" xlink:href="#linear-gradient-6"/><linearGradient id="linear-gradient-9" x1="242.55" y1="409.78" x2="242.55" y2="409.81" gradientTransform="translate(965.94 899.08) rotate(-168.61)" gradientUnits="userSpaceOnUse"><stop offset="0" stop-color="#d5d5fa"/><stop offset="1" stop-color="#127ca6" stop-opacity="0"/></linearGradient><linearGradient id="linear-gradient-10" x1="271.28" y1="237.75" x2="271.28" y2="357.18" xlink:href="#linear-gradient-9"/><linearGradient id="linear-gradient-11" x1="437.36" y1="409.78" x2="437.36" y2="409.78" xlink:href="#linear-gradient-6"/><linearGradient id="linear-gradient-12" x1="423.5" y1="391.42" x2="441.61" y2="391.42" xlink:href="#linear-gradient-9"/><linearGradient id="linear-gradient-13" x1="721.47" y1="367.95" x2="721.47" y2="186.31" xlink:href="#linear-gradient-6"/><linearGradient id="linear-gradient-14" x1="797.39" y1="323.71" x2="857.98" y2="323.71" xlink:href="#linear-gradient-9"/><linearGradient id="linear-gradient-15" x1="697.81" y1="294.74" x2="740.23" y2="294.74" xlink:href="#linear-gradient-9"/><linearGradient id="linear-gradient-16" x1="242.56" y1="275.73" x2="242.56" y2="374.06" xlink:href="#linear-gradient-6"/><linearGradient id="linear-gradient-17" x1="242.55" y1="265.83" x2="242.55" y2="557.74" xlink:href="#linear-gradient-6"/><linearGradient id="linear-gradient-18" x1="265.55" y1="264.17" x2="265.55" y2="583.87" xlink:href="#linear-gradient-6"/><linearGradient id="linear-gradient-19" x1="266.02" y1="263.37" x2="266.02" y2="585.07" xlink:href="#linear-gradient-6"/><linearGradient id="linear-gradient-20" x1="283.25" y1="244.21" x2="283.25" y2="366.56" xlink:href="#linear-gradient-6"/></defs><title>Artboard 1</title><g class="cls-1"><g id="Layer_1" data-name="Layer 1"><path class="cls-2" d="M710.83,429.38l-.28.26.66-.19L818.4,451a314.88,314.88,0,0,0,6.11-54.24C828,255.69,735.24,127.48,596.94,88.6l-45-9.18a309.5,309.5,0,0,0-72.49-.91l-3,.32q-7.06.8-14.06,1.93-8.31,1.33-16.48,3.11c-7.14,1.56-14.22,3.34-21.21,5.41,0,0,0,0,0,0a310.44,310.44,0,0,0-30.95,10.83h0q-10.17,4.17-20,9h0c-5,2.48-9.93,5.08-14.77,7.82q-4.2,2.35-8.31,4.84l-2.29,1.39-1.58,1A314.4,314.4,0,0,0,297.65,162c-5.3,5-10.46,10.19-15.41,15.57a310.58,310.58,0,0,0-55.93,85.19h0a313,313,0,0,0-20.57,64.89Z"/><path class="cls-3" d="M836.52,393.33v-.7c-.47-.09-.42-.41-.28-1.13a17.23,17.23,0,0,0,.1-2.18,11.87,11.87,0,0,0-.7,4.26l-11.14,3.22C828,255.69,735.24,127.48,596.94,88.6"/><line class="cls-3" x1="849.02" y1="457.2" x2="848.93" y2="457.19"/><path class="cls-3" d="M282.24,177.57a310.29,310.29,0,0,0-29.1,36.71"/><path class="cls-3" d="M476.45,78.83l3-.32"/><path class="cls-4" d="M253.14,214.28a308.57,308.57,0,0,0-26.83,48.48"/><path class="cls-5" d="M205.74,327.66a313,313,0,0,1,20.57-64.89h0a308.57,308.57,0,0,1,26.83-48.48l45.68,53L353,246.81l166.1,144Z"/><polygon class="cls-6" points="320.77 350.82 298.82 267.32 353.02 246.8 403.17 362.9 408.01 368.39 320.77 350.82"/><path class="cls-4" d="M226.31,262.76h0a313,313,0,0,0-20.57,64.89"/><path class="cls-7" d="M273.19,341.25l-67.45-13.59a313,313,0,0,1,20.57-64.89l25.93,62.83Z"/><path class="cls-8" d="M472.7,350l41.5-19.41,29.74,25.51,122.89-61.93L784.23,408.4l-7,2,0,0-1.49.43-5.31,1.53-.57.16-1.58.46-.55.15-1.33.39L761.26,415,756,416.53l-7.53,2.18-.21.06-1.09.3-17.29,5-1.62.46-.45.14-2,.57-.14,0-1,.28-13.49,3.89-.67.19a2.37,2.37,0,0,0,.28-.27l-191.2-38.5Z"/><path class="cls-9" d="M457.73,159l210.73,41.1s-23.85-8.68-34.22-9.36c0,0-11.72-5.12-17.85-4,0,0-10.68-6.43-22.1-4.9,0,0-5.89-6-20.76-6.39,0,0-3.11-5.1-15.24-7.34a54.63,54.63,0,0,0-22,.46s-10.54-5-18.2-3c0,0-11.05-3.21-15.88-.54A22.53,22.53,0,0,0,491,163.46Z"/><path class="cls-9" d="M529,134.79l91.34,17.81s-10.34-3.76-14.84-4.06c0,0-5.08-2.22-7.73-1.71,0,0-4.63-2.8-9.58-2.13,0,0-2.55-2.59-9-2.77,0,0-1.35-2.22-6.6-3.18a23.62,23.62,0,0,0-9.54.2s-4.57-2.17-7.89-1.29c0,0-4.78-1.4-6.88-.24a9.71,9.71,0,0,0-4.87-.68Z"/><g class="cls-10"><path class="cls-11" d="M351,171.82a80.47,80.47,0,0,0,150.37-4.35c.29-.8.55-1.61.82-2.44h0c.8-2.57,1.46-5.19,2-7.87a80.44,80.44,0,0,0-27.79-78.32q-7.06.8-14.06,1.93-8.31,1.33-16.48,3.11c-7.14,1.56-14.22,3.34-21.21,5.41,0,0,0,0,0,0a310.44,310.44,0,0,0-30.95,10.83h0q-10.17,4.17-20,9h0c-5,2.48-9.93,5.08-14.77,7.82q-4.2,2.35-8.31,4.84l-2.29,1.39-1.58,1c-.06.26-.11.51-.17.78A80,80,0,0,0,351,171.82Z"/><path class="cls-12" d="M356.12,126.92a70.44,70.44,0,0,1,2.79-9.94c4.84-2.74,9.78-5.34,14.77-7.82h0q9.81-4.84,20-9h0a310.44,310.44,0,0,1,30.95-10.83s0,0,0,0c7-2.07,14.07-3.85,21.21-5.41q8.18-1.78,16.48-3.11a70.73,70.73,0,1,1-106.27,46.16Z"/><path class="cls-13" d="M437.55,81.53a60.69,60.69,0,0,1,8.36,2.34c-7.14,1.56-14.22,3.34-21.21,5.41,0,0,0,0,0,0a51.61,51.61,0,0,0-30.95,10.83h0q-10.17,4.17-20,9"/><path class="cls-14" d="M365.88,128.91a60.94,60.94,0,0,1,7.8-19.75h0q9.81-4.84,20-9h0a310.44,310.44,0,0,1,30.95-10.83s0,0,0,0c7-2.07,14.07-3.85,21.21-5.41a60.75,60.75,0,1,1-80,45Z"/><path class="cls-15" d="M424.68,89.28a310.44,310.44,0,0,0-30.95,10.83"/><path class="cls-16" d="M374.68,130.7a51.5,51.5,0,0,1,19-30.58h0a310.44,310.44,0,0,1,30.95-10.83s0,0,0,0a51.78,51.78,0,1,1-50,41.42Z"/><path class="cls-17" d="M467,149.54a42.47,42.47,0,1,1-33.12-50.09A42.47,42.47,0,0,1,467,149.54Z"/><path class="cls-18" d="M457.94,147.69A33.2,33.2,0,1,1,432,108.52,33.21,33.21,0,0,1,457.94,147.69Z"/></g><path class="cls-19" d="M282.24,177.57c4.95-5.38,10.11-10.57,15.41-15.57a18.78,18.78,0,0,1,8.71,4.64s11.42-10.26,23.62-8.41,13.85,14.13,13.85,14.13a20.83,20.83,0,0,1,7.21-.54c9.9,1.12,12.85,10.4,12.85,10.4a16.84,16.84,0,0,1,3-1.47c11.12-4.23,19,7,19,7l.36-.25c6.93-4.44,17.38,4.74,17.38,4.74,7.2-1.08,19.55,5.08,27,9.34h0c3.8,2.17,6.37,3.85,6.37,3.85l-57.2-10.31-16.6-3Z"/><path class="cls-20" d="M347,123c.22-1,.45-1.91.7-2.84,1.06.6,2,1.16,2.9,1.68,2.56,1.51,4.16,2.56,4.16,2.56l-6.45-1.17Z"/><path class="cls-21" d="M775.61,410.72c.07-.14.12-.26.2-.45.19.53.39.26.6.08a2,2,0,0,1,0-.24l.87.31-1.49.43A1.59,1.59,0,0,0,775.61,410.72Zm-50.35,13.62c.17.36.31.66.43.94l-1,.28C724.9,425.16,725.08,424.75,725.26,424.34Zm-11.5-35c0-.24.11-.48.17-.72a1.8,1.8,0,0,1,.44.53c.48,1,.83,2.31,1.67,2,.52-.19.63.69.27,2C715.46,391.91,714.62,390.63,713.76,389.36Zm.54,7,1.7-.22C715.5,397.26,715,397.53,714.3,396.36Zm4-7.58c0-2.06.82-3.66,1.82-3.33C719.54,386.53,718.94,387.61,718.3,388.78Zm2.52,25.9c.83,3.07,1.68,1.15,2.52,0,.08,1.83-.2,2.91-.75,2.81a10.06,10.06,0,0,1-2.49-.89c-.21-.09-.37-.64-.56-1C720.58,416,720.58,416,720.82,414.68Zm-5.13-8.36-.09,4.14-.3-.08c.07-1.36.13-2.72.18-4.09ZM697,420a3.48,3.48,0,0,1,.12,2,2.4,2.4,0,0,0-.23-.2l-1.3,4.56L704,428a.77.77,0,0,1,0-.15c0-.2-.32-.61-.3-.88.06-.87.21-1.7.37-2.87-.17-.24-.5-.72-.91-1.33,0,.05-.18.18-.18.18-.21-1.43-.42-2.86-.65-4.49-.24.76-.36,1.21-.54,1.75-.22-.65-.39-1.13-.57-1.62h.17c0-.59.08-1.19.12-1.78l-1.08,0c0-.44-.1-1.1-.16-1.81l-1.14.81-.57-.37c0,.16-.09.32-.13.48l.56,2.19c-.23.05-.49.26-.67.11-.83-.61-1-.42-1.38,1.57A.93.93,0,0,0,697,420Zm-27.34-3.25.78,1.72-1,1.3c.63.94,1.33,0,1.92.5a2.71,2.71,0,0,0-.93,1l4.61.93c.17-.63-.3-.72-.39-1.27.26-.8.56-1.6.82-2.47a9.08,9.08,0,0,0,0-1.09c-.15.05-.31,0-.45.18a7.36,7.36,0,0,0-.58.76c-.16-.56-.27-.93-.37-1.29-.12.37-.26.75-.38,1.15-.05.18,0,.43-.08.62-.13.85-.27,1.69-.43,2.52a1.36,1.36,0,0,1-.16-.63,10.45,10.45,0,0,1,.7-4.35,4.74,4.74,0,0,0,.53-2.8l-1.16,2.33a.63.63,0,0,0-.1-.12l.13-5.43c-.91,1.05-.45,3.16-.87,4.74-.26-1-.43-2.17-1.11-1.89.32,2.46,1.56,3.95,1.06,7.1-.29-1.2-.6-2.4-.9-3.6l-.13.14c0,.32-.06.64-.09.88-.46-.45-.91-.9-1.36-1.32C669.72,416.44,669.68,416.57,669.65,416.7Zm38.61-8.16c-.52-.46-1-1-1.59-1.38-.2-.15-.59-.18-.62,0-.26,1.35-.76.83-1.17,1s-.58.32-.89.5c.29,2.23,1.1,1.34,1.7,1.77l-.42,1,1.26,1.1c-.2.46-.32.78-.45,1.1,0,.16.06.33.1.49.68-.61,1.34-1.24,2.2-2-.53,1.19-.91,2.05-1.28,2.9,0,.19.1.38.14.57q.72-.72,1.41-1.44l.65-.7c0,.57.13,1.13.13,1.69,0,1.25.14,1.59.67,1a12,12,0,0,0,1-1.49,7.89,7.89,0,0,0,.15,1.07,1.82,1.82,0,0,0,.67-.48c.33-.35.65-.75,1-1.13,0,.17.08.34.13.52a5.66,5.66,0,0,1-.49,1.39c-.87,1-1.77,1.86-2.65,2.81-1.57,1.7-2.43-1.29-3.57-2.45.1.48.19.95.26,1.24-.21.59-.34,1-.5,1.5l-1.65-2.18c.08.74.12,1.18.19,1.78l-1.87,0c0,.13-.05.29-.07.44.54.64,1.08,1.3,1.66,2-.06.42-.12.88-.18,1.28.73,1.15,1.2-.7,1.92-1-.21.79-.35,1.31-.5,1.85l.35.47c-.08.46-.14.89-.24,1.51.42-.19.75-.35,1.11-.5,0,1.25.34,3.09.72,3.09s1.08-.15,1.26-1.61c.61,2.32,1.15-.14,1.73-.23,0,.53.08,1.07.13,1.77.82-1.07,1.63-1.69,2.58-1.26a13.73,13.73,0,0,1-2.37,3l-.28.26.66-.19L818.4,451a314.88,314.88,0,0,0,6.11-54.24L820.28,398c-.07-.21-.13-.41-.19-.6s-.1-.4-.16-.6a1.82,1.82,0,0,0-.3.11c-.59.24-1.19.55-1.79.73a2.86,2.86,0,0,1-.92,0l-1.16,0c0-.1,0-.2-.07-.29a5.07,5.07,0,0,1,.58-.89,2.17,2.17,0,0,1,.74-.33c-.15-.52-.73-.24-.53-1.15a2.32,2.32,0,0,1,.35.12c.09-.38.18-.74.26-1.14l.6.36c-.29-.65-.56-1.24-.84-1.82a.71.71,0,0,1,.1-.14l.58.2a2.41,2.41,0,0,1,.08-.25,2.42,2.42,0,0,0-.35-.46c-.37-.31-.76-.59-1.14-.88a.32.32,0,0,1-.11-.23c.07-.69-.3-.59-.46-.82s-.33-.23-.39-.44a5.06,5.06,0,0,1-.06-1,1.46,1.46,0,0,1,.41.27c.22.28.37.78.62.34l.57.67c0-.09.06-.16.08-.23-.18-.22-.35-.42-.52-.65-.28-.45-.11-.66.21-.79l-1-1.58.85-.57c-.38-.1-.65-.05-.85-.26a3.54,3.54,0,0,1-.3-1.09l1.46.5c-.25-.34-.57-.49-.79-.85-.34-.6-.67-1.15-1.22-1,.07-.66.13-1.21.19-1.8l.84-.52a2.72,2.72,0,0,0,0-.3l-.64.07a.25.25,0,0,1,0,.12l.23.1c0,.05,0,.1,0,.17l-.41.06c-.22-1.08.4-1.57.47-2.45l-.56-.48c.54-.41.21-1.4.43-2.05-.06.13-.12.24-.23.45,0-.33,0-.53,0-.92-.1.87-.17,1.53-.24,2.26-.24-.33-.41-.55-.58-.77a10.72,10.72,0,0,1,.55,3c0,.75-.1,1-.53.94-.19,0-.38-.09-.57-.13,0,.09,0,.16,0,.25l.43,0c.5-.05.6.14.52,1-.35.24-.69.46-1,.72a.7.7,0,0,0-.14.46.36.36,0,0,0,.19.28,1,1,0,0,0,.4-.07c0,.13,0,.35,0,.39-.33.35-.67.65-1,1,0,0,0,.07.07.1-.19.4-.35.8-.52,1.21,0,.08.08.15.12.24l1.16-1.46c0,.37.07.74.08,1.05-.42.36-.84.7-1.29,1.06l.4.3c-.6.41-.77,1.65-1.45,1.55-.22,0-.47.28-.72.44l0,.23c.25,0,.49.08.64.11l.56.73-.6,1.43c.27,0,.46,0,.63.09s.15.36.23.55a1.48,1.48,0,0,1-.31.34.3.3,0,0,1-.3-.05c-.49-.31-1-.65-1.49-.95a9.54,9.54,0,0,1-1.19-.68,1.86,1.86,0,0,0-1.47-.46,2.68,2.68,0,0,0,0,.3c.48.16,1,.32,1.4.49,0,.67-.06,1.27-.09,1.88a.84.84,0,0,1,.14.06c.28-.52.19-1.8.92-1.52l-.75,2.36,1.18-.07c0,.33-.08.62-.11.91-.37.52-.73,1.08-1.25.74,0,0-.17.22-.26.34l.72.63.48-.73a9.35,9.35,0,0,1-.17,1.71c-.1.33-.4.44-.66.69a3.68,3.68,0,0,1,.58.34,6,6,0,0,1,.47.64v.06c.15.22.36.41.34.52a1.56,1.56,0,0,0,.05.72L792.74,406l-.43-.58c.15-.09.28-.11.34-.22.26-.52.49-1.07.74-1.62a1,1,0,0,0,.11-.34.64.64,0,0,0-.06-.28c0-.05-.1-.06-.12,0-.15.32-.28.67-.44,1a1.91,1.91,0,0,1-.36.43,2.68,2.68,0,0,1-.13-.56c0-.65.05-1.3.06-2,0-.14-.18-.29-.21-.45,0,0-.2.05-.2.06l-.07,2.74c-.1-.41-.12-.74-.24-1.1,0,.51.06.9.06,1.28,0,0,0,0,0,.05,0,.32.07.64.11,1.13l-.78-.23a1.39,1.39,0,0,1-.29.38c-.54.32-1.07.62-1.61.92a5.91,5.91,0,0,1-.6.38c-.4.15-.79.23-1.17.34l.1.17-3.33,1-7,2c-.06-.09-.1-.15-.18-.29.35.2.23-.38.42-.52l-.32-.24c0-.1.08-.19.07-.22,0-.22-.12-.43-.19-.65-.11.17-.17.25-.23.33l0,0,.09-.46s0,0,0,0c-.06.18-.12.35-.21.59,0-.33,0-.6,0-.9l-.31,1,0,0c0-.33,0-.66,0-1-.34.43-.41.44-.52,0,0,.21-.08.4-.13.58-.05-.09-.1-.16-.15-.27-.09.47-.16.87-.25,1.33,0-.2,0-.3-.07-.47-.22.21-.43.38-.69.61.08-.24.14-.42.17-.54-.28.06-.57.13-.85.17a2.17,2.17,0,0,0-.2-.29c0,.13-.09.27-.17.45,0-.2-.07-.39-.09-.53-.31-.2-.45-.73-.67-1.16.21-.72.44-1.47.67-2.27l-.48.23,0-.16.42-.43s.12-.1.12-.13c0-.39.19-.36.29-.58l-.2,0v-.18l1.09-.32-.2,0c.09-.05.14-.07.15-.09,0-.5.14-.27.26-.24a7,7,0,0,0,.78.11s.09-.15.15-.25l-.36-.07v-.14c.23,0,.48-.06.67-.1.18-.84-.21-.92-.39-1.27,0-.08-.09-.19-.15-.29-.18.3-.38.6-.57.91.06-.3.13-.56.2-.86l-.32.6-.05-.05c.05-.25.1-.49.14-.75,0,0,0,0,0,0-.06.2-.12.41-.17.61l0,0c0-.17,0-.34.06-.61-.12.33-.22.57-.33.86,0-.18,0-.27-.06-.48a2.72,2.72,0,0,1-.21.59c-.15.27-.18.78-.46.88s-.25.29-.38.45l-.2.24c0-.12-.07-.24-.1-.36-.1.13-.11.14-.33-.05h-.06a.21.21,0,0,0,0-.06h0a1.28,1.28,0,0,0,0-.22c.1-.06.19-.2.28-.27a.31.31,0,0,1,0-.09h-.42c0-.14.08-.29.13-.5-.08.05-.15.06-.2.09a4.15,4.15,0,0,1,.69-1h-.47c.13-.6.18-.48.27-.6-.17-.17-.31-.43-.47-.59.09-.18.17-.38.24-.55s0-.25.07-.36-.08-.09-.1-.06a.66.66,0,0,0-.19.24c.07.33-.1.36-.16.51s-.17.34-.28.56l-1.1.44c.07.21.12.39.21.64-.14-.05-.2-.06-.31-.11.12.19.2.29.26.41s.11.28-.13,1c0,0,0,0-.06,0l-.05-.26c0,.14,0,.32-.08.53-.12-.19-.35-.13-.26-.58a1.19,1.19,0,0,0-.1-.18c0-.11-.12-.23-.11-.32,0-.36-.15-.32-.25-.42a.72.72,0,0,0-.25-.12,3.21,3.21,0,0,1,0,.36c-.07-.14-.13-.32-.2-.34s-.19.09-.13.35c-.13,0-.09.5-.29.26,0,0-.18.08-.23.19a4.34,4.34,0,0,0-.1.57l.27-.1c-.05.18-.08.34-.13.49a1.45,1.45,0,0,1-.06.3c.07,0,.14.09.22.08s.45-.05.74-.09c-.12.18-.18.28-.25.37l.24.14c-.05.21-.09.39-.13.65l.54-.14c-.11.23-.18.38-.23.5.1.05.29.08.3.16a1.62,1.62,0,0,0,.32.81,1.19,1.19,0,0,1,.1.46,1.75,1.75,0,0,1-.21.47l.08.21a4.69,4.69,0,0,0-.08.63c0,.33.09.66.15,1l-.39-.11c-.28-.09-.44-.32-.43-.9a1.11,1.11,0,0,0-.11-.32l0,.06c0,.14,0,.28,0,.42h-.08c0-.3,0-.59,0-.91h0c0,.11,0,.23,0,.34a.6.6,0,0,1-.08.08c-.05-.3-.12-.6-.17-.88l-.08.19c0-.25-.19-.51-.18-.77h-.25l0,.56c-.07-.42-.13-.84-.21-1.26-.13.29-.23.58-.37.92-.06-.24-.09-.37-.13-.49a.31.31,0,0,1-.31-.14,3.73,3.73,0,0,1-.18-.44l-.27.14c0,.25,0,.46,0,.71a.44.44,0,0,1-.08.1l.56.3a.11.11,0,0,1,0,.08l-.2.12a1.57,1.57,0,0,0,0,.23l-.38,0s0,.09,0,.14c.24,0,.5-.05.75-.06.07,0,.19-.05.23,0a2.55,2.55,0,0,1,.17.53c0,.07-.07.21-.13.39.27-.16.28-.13.35.81l.41-.39a4.53,4.53,0,0,1,.2.49,2.86,2.86,0,0,0-.27.12l.43.31-.29.1c.52.27.64.41.71.82,0,0,.1-.15.13-.15.22.21.44.44.62.63,0,.19-.09.35-.16.56l-.22.09a1,1,0,0,1,0,.18l.14.29c.07,0,.2,0,.23,0s0,.22,0,.34l-.57.16a.86.86,0,0,1,0-.21h0l.1-.46v-.08a1,1,0,0,0-.06-.14l-.09.12v0l-.08-.2c-.06.15-.12.3-.19.45,0-.49.07-.94.11-1.38l-.42.74c0-.48-.07-.89-.39-.92a3.82,3.82,0,0,1-.09.5c-.16-.5-.33,0-.51,0,0,.14.06.25.09.39l-.28-.22c.07.17.11.26.14.36l-.19.2c.09.1.14.18.21.26-.1.05-.17.17-.24.22s0-.05,0,.15h.14v.09a.49.49,0,0,1,.32-.09h0a.83.83,0,0,1,0,.13c-.14.05-.3.14-.45.2a.57.57,0,0,0,0,.13c.11,0,.22.09.38.15a.67.67,0,0,0-.12.12l-.55.16a3.5,3.5,0,0,1-.39-1.39c0-.15,0-.25-.16-.2s-.21-.08-.26-.19a6.38,6.38,0,0,1-.31-.83c0,.42-.06.7-.08,1l-.06,0c-.07-.17-.16-.37-.24-.57l-.06.27c-.09-.3-.16-.58-.22-.82-.18.22-.36.32-.46.53a5,5,0,0,0-.15.68h0c0,.23,0,.48,0,.62l1,.42c-.14.48.16.47.26.76l-.17.12L761.26,415l.38-.27c-.44,0-.8-.15-1.13,0a2.75,2.75,0,0,1-2.9-.78c-.06-.05-.08-.29-.11-.43.28-.11.57-.36.85-.3a6.83,6.83,0,0,1,1.21.65,2.73,2.73,0,0,0-.56-.84c-.35-.42-.35-.42-.27-1,.42.91.61-.15.88-.36.13.19.27.38.49.67-.06-.44-.1-.66-.13-.86l.41-.28a2.82,2.82,0,0,1-.18-.62.73.73,0,0,1,.09-.42c.29,0,.61-.14.89.24.05.09.14.1.22.14l.06-.18c-.19-.28-.38-.54-.51-.71.39-1,1-1.21,1.63-.85l0-.24-.3,0c-.12-.4-.21-.65-.3-.91s-.09-.36-.14-.55l-.27.1c-.53.22-1,.48-1.58.64a2.51,2.51,0,0,1-.82,0l-1,0c0-.07,0-.15-.06-.25a4.14,4.14,0,0,1,.52-.77,2.44,2.44,0,0,1,.65-.31c-.13-.46-.63-.21-.46-1l.32.1c.07-.34.14-.65.22-1l.52.32c-.25-.57-.49-1.1-.74-1.62a.38.38,0,0,0,.09-.13l.52.18a1.66,1.66,0,0,0,.06-.21,1.45,1.45,0,0,0-.3-.41l-1-.79a.42.42,0,0,1-.1-.2c.06-.61-.26-.51-.4-.72s-.29-.21-.35-.4a4,4,0,0,1,0-.86,1.32,1.32,0,0,1,.35.23c.19.26.34.7.56.3l.5.59c0-.06.06-.12.08-.19-.16-.2-.32-.37-.46-.58-.26-.39-.12-.59.18-.71-.31-.5-.59-.93-.87-1.39l.75-.51c-.33-.09-.58,0-.75-.24a3.11,3.11,0,0,1-.27-1l1.3.45c-.24-.31-.51-.44-.71-.75-.3-.53-.6-1-1.08-.93q0-.44.09-.81c-.28.19-.39.38-.67.61l.13.64s0,0-.08,0L756,416.53l-7.53,2.18c-.06-.08-.1-.17-.16-.24,0,.09,0,.2-.05.3l-1.09.31c-.06-.24-.14-.51-.2-.75-1.12,1.21-1.12,1.21-1.83-.9l1.89,0c0-.13.05-.28.06-.43l-.58-.75c.29-.4.59-.78.9-1.17,0-.17,0-.34-.08-.51l-1.85.42c0-.32,0-.47,0-.61,1.67-.41,1.57-4.4,2.44-6.58-.37.4-.73.81-1.21,1.35.14-1.43.25-2.58.39-4-.79.55-1.44,1-2.09,1.42-.08-.11-.14-.24-.22-.35.4-1.35.81-2.71,1.06-3.55,0-2.23,0-4.06,0-5.89l-.25-.1c-.27,1.28-.55,2.55-.84,3.94-.25-1-.45-1.74-.53-2,0-2.75-.06-5.14-.09-7.52l-.32-.22-.46,3.05-.93-.12c.53-1.49,1.23-2.79.8-5l.62-1.48c-1.18-1.63-1.82-4.13-2.42-6.76a20.69,20.69,0,0,0-.86-3.06c-.51-1.21-.94-.8-1.2.86a75.14,75.14,0,0,1-1.6,9.21,35.78,35.78,0,0,0-1,4.49c-.4.38-.74.51-.92,1a5.45,5.45,0,0,0,.08,1.61c.11.93.26,1.82.44,3l-1.1-.31c0,.91-.06,1.67-.06,2.42s.21,1.74-.44,1.82a5.85,5.85,0,0,0-.24,1.49c-.07,1.16.36,2.65-.49,3.29.1.63.18,1.31.32,1.89s.4,1.31.61,2l-.2.37c-.19-.35-.4-.72-.48-.88-.3.35-.56.63-.82.92-.15-.82-.31-1.64-.46-2.46.06,0,.12-.06.17-.1-.26-.42-.52-.83-.82-1.28-.12.3-.34.84-.56,1.36.17.91.33,1.85.62,3.41l-.92-1.16a2.46,2.46,0,0,0-.19.32c.36,1.49.74,3,1.14,4.54l-1.57-1.06a36.7,36.7,0,0,1,1.29,4.26,10.73,10.73,0,0,1-.15,3.45c-.51-1.73-1-3.46-1.63-5.43-.07.73-.19,1.31-.19,1.86,0,1.87-.51,3.85-.23,5.71l-1.63.46c-.1-.3-.19-.64-.28-1-.08.15-.15.32-.24.47s0,.45.07.67l-2,.57a4.68,4.68,0,0,1,2.55-2.65c-.06-.51-.09-.93-.11-1.13l1.74-2c0-.19-.06-.39-.08-.6l-2.21.53c.08-.78.13-1.4.23-2.53L726,419.45c-.52-1.74.13-2.7.52-3.82-.85-.45-1.61-1.4-2.46.31a5.56,5.56,0,0,1,0-1.74,3.85,3.85,0,0,1,1.13-.89c0,.14,0,.28.07.43q.08-.71.15-1.35l.73-.1c-.07-2.07.73-.68,1-1.49-.08-.38-.15-.76-.17-.86.24-.5.4-.85.56-1.2a6,6,0,0,0-.67-1.24c-.14-.14-.38.2-.58.27-.49.2-1,.29-.88-1.4l-2.09,1.24c.14-.81.24-1.39.33-2,0-.09-.09-.18-.13-.28-.64.62-1.26,1.3-1.92,1.87-.21.21-.53.46-.67.24-1.1-1.59-2.17-3.22-3.21-5a9.41,9.41,0,0,1-.4-2.05l.16-.17c.54,2,1,2.7,1.69,3s1.6.28,2.06,2.09c0,.12.15.14.28.26.05-.51.09-.92.13-1.38.13.15.19.31.27.34.29.07.58.11.87.17-.14-.55-.24-1.17-.41-1.62-.24-.6-.55-1.08-.82-1.61a31.08,31.08,0,0,1,2.24,2.35c.09.09.33-.16.4-.41a19.13,19.13,0,0,0,.52-2c-.28-.5-.58-1-.9-1.58,0-.13.09-.24.12-.37.26.39.51.8.77,1.18a8,8,0,0,0,.95,1.28c.14.13.43-.12.51-.41a2.88,2.88,0,0,0-.13-1.15,4.46,4.46,0,0,0-.33-.76c.77-.37,1.55-.7,2.33-1.16.15-.08.23-.64.35-1-.14-.18-.27-.47-.43-.53-.55-.24-1.12-.4-1.58-.55a8.67,8.67,0,0,0-.12-1.82c-.2-.19-.51,0-.74.22s-.33.57-.51.77c-.83.9-1.66,1.76-2.47,2.63l-.07-.39c.28-.54.58-1.08.9-1.68-.48-1-.91-.41-1.22.09-1.31,2.14-2.7,1.83-4.1,1.37-.49-.15-.6-.69-.38-1.67l.38-1.63c.16,1.91.73,2,1.25,2.1a10.88,10.88,0,0,0,.27-1.53l1.15.36c0-.18,0-.35.07-.52l-.66-1.75c.3-.1.54.12.76.29s.55.5.65.29c.48-1,1-.82,1.5-.57.21.09.51-.64.76-1a4.28,4.28,0,0,0-.46-1,5.17,5.17,0,0,0-1.11-.72c.7-1,.86-3.13,1.8-3.05.3,0,.23-.89,0-1.21a4.18,4.18,0,0,0-.73-.65,4.7,4.7,0,0,0,1-3.81c-.75,1-1.45,1.8-2.14,2.67-.44.56-.9,1.47-1.3-.08-.06-.24-.29-.22-.46-.33.37-1.24,1.14-1.81,1-3.89l-1.49,1.48c.05-1.06.1-1.86.14-2.67,0,.15.08.29.11.44.37-.09.89.12,1.08-.34.45-1.18-.33-1.27-.48-2.14.38-1.13.81-2.3,1.18-3.55a9.45,9.45,0,0,0,.06-1.56c-.22.08-.44.07-.63.27a8.28,8.28,0,0,0-.83,1.08c-.24-.81-.4-1.33-.55-1.85-.18.54-.37,1.08-.54,1.66-.06.25,0,.6-.09.89-.21,1.21-.41,2.41-.62,3.61a1.81,1.81,0,0,1-.25-.9,15,15,0,0,1,1-6.25,6.86,6.86,0,0,0,.74-4c-.59,1.21-1.13,2.28-1.64,3.34a1.41,1.41,0,0,1-.17-.18l.2-7.78c-1.31,1.5-.65,4.53-1.25,6.8-.39-1.51-.62-3.09-1.6-2.71.47,3.52,2.24,5.67,1.53,10.2l-1.3-5.17c-.07.07-.12.14-.19.2,0,.46-.08.92-.12,1.27l-2-1.91c0,.17-.08.35-.13.54.38.83.75,1.67,1.13,2.47-.5.62-.94,1.18-1.48,1.87.92,1.35,1.9,0,2.78.71a4.86,4.86,0,0,0-2,3.29c.17.17.29.42.39.38.55-.23,1,0,1.34,1,0,.08.35-.2.43-.48a6.3,6.3,0,0,0,.06-1.12c.9.32,1.18,1.41,1,3.39-.15,1.44-.25,2.91-.37,4.37,0,.49-.06,1-.12,1.84a11.52,11.52,0,0,1-2.26-5.32c-.2-1.3-.5-2.54-.78-3.95-.37.71-.59,1.11-.84,1.6-.33-.76-.64-1.52-1-2.18-.13-.24-.35-.22-.52-.31a8.6,8.6,0,0,0,0,1.25c.16.8.37,1.53.56,2.29-.52.19-1,.33-1.51.52.55,1.29,1,2.34,1.45,3.37,0,.15-.08.32-.11.47a5.22,5.22,0,0,0-1.08.63,1.79,1.79,0,0,0-.31.88c0,.14.17.44.29.63.4.68.82,1.34,1.26,2.07,1-.93,1.05-.87,1,1.12-.63.29-1.27.57-1.9.84l0,.54c.38.5.79,1,1.21,1.54,0,.21-.08.58-.13,1,.28.34.53.67.79,1l-.1.51a5.35,5.35,0,0,0-1.07-1c-.34-.17-.73,0-1.1,0,0,.54,0,1.08.06,1.88a6.14,6.14,0,0,0-3.15,3.46c.69,1.72,1.93,2.25,2.69,1.05.09.49.24.93.28,1.41.08,1.26.34,1.36.72.62s.82-1.86,1.26-2.84l.49.81-.28,1.67c.83.36,1.06,0,1.73-2.36,0,.33.05.65.09.91.12.47.25.91.37,1.36a3.14,3.14,0,0,0,.58-1c.22-.88.35-1.86.52-2.82.06-.36.07-.74.11-1.12a2.11,2.11,0,0,0,.27.18c-.2,1.29-.35,2.61-.6,3.86-.54,2.78-1.73,1.23-2.65,2.15.16.66.3,1.19.46,1.8-.63.75-1.26,1.31-1.92.51s-1.1-1.51-1.67-2.33c-.07.59-.11,1-.15,1.48L709,406Zm10.07-24.83a8.25,8.25,0,0,1,1.25-5.58C719.19,379.87,718.81,381.6,718.33,383.71Z"/><path class="cls-3" d="M848.93,457.19,818.4,451a314.88,314.88,0,0,0,6.11-54.24l11.14-3.22a11.87,11.87,0,0,1,.7-4.26,17.23,17.23,0,0,1-.1,2.18c-.14.72-.19,1,.28,1.13v.7"/><path id="_Pad_" data-name="&lt;Pad&gt;" class="cls-22" d="M524.36,192.22a.08.08,0,0,1-.09-.08.71.71,0,0,0-.14-.42,12.35,12.35,0,0,1-1.72-2.2.09.09,0,0,0-.17,0,1.2,1.2,0,0,0,.09.48s-.83-1.72-1.3-2.8a.09.09,0,0,0-.17.06,5,5,0,0,0,1,2.35,15.45,15.45,0,0,1-1.84-2.83.09.09,0,0,0-.18,0,4.77,4.77,0,0,0,.55,1.77c0,.09-.06.18-.13.12l-1.42-1.13c-.09-.07-.2,0-.14.12l.29.39a.09.09,0,0,1-.1.14l-.21-.07a.09.09,0,0,0-.11.12l.21.52s0,0,0,0l.28.21a.09.09,0,0,1-.06.16h0a.1.1,0,0,0-.1.1,2,2,0,0,0,.24.87c.2.23-.09.19.14.61s.11.53.24.79.27.58.39.77a1.38,1.38,0,0,0,.5.55,5.7,5.7,0,0,0,.94.41.09.09,0,0,1,0,.17,29.76,29.76,0,0,1-3.82.32.09.09,0,0,0,0,.17l.14.07a13.47,13.47,0,0,0,2.24.14.08.08,0,0,1,.08.08c0,.11.08.31.19.3s.62.32.73.3.64,0,.83,0a.13.13,0,0,1,.09.05c0,.06.11.16.39.19a3.09,3.09,0,0,0,.92-.07h0c.1,0,1.69-.19,2.19-.28h0a7,7,0,0,0,1.25.13h0l.61.31a.09.09,0,0,0,.13-.11,3.19,3.19,0,0,0-.29-.53,4.48,4.48,0,0,1-.28-.66v0l-.2-.29c0-.06,0-.13,0-.14.35-.11,1.36-.41,1.65-.54a4.2,4.2,0,0,0,2-1.13.09.09,0,0,0-.11-.14l0,0a.09.09,0,0,1-.12-.12,7.47,7.47,0,0,0,.41-1.47.09.09,0,0,0-.17-.06l-.25.44a.09.09,0,0,1-.17,0l0-.52a.09.09,0,0,0-.16-.05l-.62.78a.09.09,0,0,1-.16,0l0-.11a.09.09,0,0,0-.12,0l-2.74,1.16-.4.15a.1.1,0,0,0-.06.11l.05.16a.09.09,0,0,1-.13.11l-.05,0h0Z"/><path id="_Pad_2" data-name="&lt;Pad&gt;" class="cls-23" d="M551.39,251.89,549,249.32l0-.06-1.82-2.67a.28.28,0,0,0-.09-.1l-1.73-1.5-.13-.15-1.06-2a.47.47,0,0,0-.21-.21l-4.35-2.48-.09-.07L534.88,236l0,0L532.29,233a.69.69,0,0,0-.13-.11,44.31,44.31,0,0,1-4.2-2.72c-.25-.36-6.12-5-7-5.72a.53.53,0,0,1-.17-.23l-1.14-2.84a.58.58,0,0,0-.13-.2l-6.11-5.58a.52.52,0,0,1-.16-.3l-.4-2.15a.54.54,0,0,0-1.05,0,14.94,14.94,0,0,0-.52,2.56.54.54,0,0,1-1,.15h0a.54.54,0,0,0-1,.23c.1,3,.31,7.52.79,8.87a47.31,47.31,0,0,0,3.88,7.25c.37.42,7.17,7.32,10.31,8.83S536.3,252.35,536,253.9c-.26,1.38-3.79,1.59-6.53,3.53a.54.54,0,0,0,.21,1l.36.07a.51.51,0,0,1,.28.15c.6.6,3.4,3.32,6.4,4.1a78,78,0,0,0,10.37,1.33.52.52,0,0,1,.38.19c1.23,1.47,9.82,11.72,11.34,12.65s16.81,12.47,29.85,15.4a.53.53,0,0,0,.63-.7c-.29-.82-1.12-2.09-3.49-3.15a.53.53,0,0,1-.29-.64,1.53,1.53,0,0,0-.75-1.95c-1.46-.74-5.28-7.07-6.16-7.81s-5-4.84-6-5.72-3.25-3.93-4-4.41-2.59-3.24-4-4.31c-.74-.57-1.89-1.57-2.8-2.38a.54.54,0,0,1,.46-.94l12.22,2.24a.54.54,0,0,0,.62-.65,2,2,0,0,0-.68-1.19c-.69-.53-2.56-2.16-3-2.56a.52.52,0,0,0-.26-.12l-1.05-.21a.54.54,0,0,1-.32-.88l.69-.82a.53.53,0,0,0-.11-.78c-.94-.67-3-2.15-3.42-2.58s-4.5-3.45-5-3.78l-.09,0-2.09-1a.56.56,0,0,0-.53,0c-1.14.76-5.82,3.84-7.44,4.12A.54.54,0,0,1,551.39,251.89Z"/><path class="cls-24" d="M809.08,449.46s0,0,0,0S809.09,449.41,809.08,449.46Z"/><path class="cls-25" d="M205.67,328,809,449.48h0l9.28,1.87a310.9,310.9,0,0,1-67.81,140l.55,2.24-1.59-1c-71.26,83.09-184.16,126.22-299.1,103.08A311.88,311.88,0,0,1,236.54,536.79a316.57,316.57,0,0,1-16.67-36.58A310.72,310.72,0,0,1,204.54,334C204.9,332,205.27,330,205.67,328Z"/><g class="cls-26"><path class="cls-27" d="M558.44,657c-3-.61-4,4.06-.94,4.66s4-4.06.94-4.66Z"/><path class="cls-27" d="M689.18,610.45c-3-.61-3.95,4.06-.94,4.66s4-4.06.94-4.66Z"/><path class="cls-27" d="M365.71,529.12c-3-.6-3.95,4.06-.94,4.67s3.94-4.06.94-4.67Z"/><path class="cls-27" d="M503.45,561.09c-3-.6-3.95,4.06-.94,4.67s3.95-4.06.94-4.67Z"/><path class="cls-27" d="M362.83,656.59c-3-.6-3.95,4.06-.94,4.67s3.95-4.06.94-4.67Z"/><path class="cls-27" d="M621.87,660.2c-3-.6-4,4.06-.94,4.67s4-4.06.94-4.67Z"/><path class="cls-27" d="M315.31,591.18c-3-.6-3.95,4.06-.94,4.67s3.94-4.06.94-4.67Z"/><path class="cls-27" d="M618.32,521.1c-3-.6-3.94,4.06-.94,4.67s4-4.06.94-4.67Z"/><path class="cls-27" d="M426.83,616.07c-3-.61-3.95,4.06-.94,4.66s3.95-4.06.94-4.66Z"/><path class="cls-27" d="M515.67,500.43c-3-.61-3.95,4.06-.94,4.67s3.94-4.06.94-4.67Z"/><path class="cls-27" d="M417.22,470.9c-3-.61-4,4.06-.94,4.66s4-4.06.94-4.66Z"/><path class="cls-27" d="M608,584.57c-3-.61-4,4.06-.94,4.66s4-4.05.94-4.66Z"/><path class="cls-27" d="M588.09,442.18c-3-.6-4,4.06-.94,4.67s4-4.06.94-4.67Z"/><path class="cls-27" d="M304.69,582.69c-3-.61-3.95,4.06-.94,4.66s3.94-4.06.94-4.66Z"/><path class="cls-27" d="M628.82,669.1a1.19,1.19,0,0,0-.47,2.33,1.19,1.19,0,0,0,.47-2.33Z"/><path class="cls-27" d="M582.54,609.61a1.19,1.19,0,0,0-.47,2.33,1.19,1.19,0,0,0,.47-2.33Z"/><path class="cls-27" d="M470.21,621a1.19,1.19,0,0,0-.47,2.33,1.19,1.19,0,0,0,.47-2.33Z"/><path class="cls-27" d="M382.86,580.22a1.19,1.19,0,0,0-.47,2.34,1.19,1.19,0,0,0,.47-2.34Z"/><path class="cls-27" d="M406,525.42a1.19,1.19,0,0,0-.47,2.33,1.19,1.19,0,0,0,.47-2.33Z"/><path class="cls-27" d="M548.83,455.55a1.19,1.19,0,0,0-.47,2.33,1.19,1.19,0,0,0,.47-2.33Z"/><path class="cls-27" d="M623.85,428.58a1.19,1.19,0,0,0-.47,2.33,1.19,1.19,0,0,0,.47-2.33Z"/><path class="cls-27" d="M665.08,545.31a1.19,1.19,0,0,0-.47,2.33,1.19,1.19,0,0,0,.47-2.33Z"/><path class="cls-27" d="M728.47,608.24a1.19,1.19,0,0,0-.47,2.34,1.19,1.19,0,0,0,.47-2.34Z"/><path class="cls-27" d="M490.66,680.11a1.19,1.19,0,0,0-.47,2.34,1.19,1.19,0,0,0,.47-2.34Z"/><path class="cls-27" d="M380.3,609.34a1.19,1.19,0,0,0-.47,2.33,1.19,1.19,0,0,0,.47-2.33Z"/></g><polygon class="cls-28" points="473.47 381.9 592.05 405.78 566.63 430.08 552.26 398.73 497.33 446.54 469.1 386.11 469.13 386.06 473.38 381.88 473.47 381.9"/><path class="cls-29" d="M809.08,449.46s0,0,0,0S809.09,449.41,809.08,449.46Z"/><path class="cls-30" d="M595.91,406.56,809,449.48h0l9.28,1.87a310.9,310.9,0,0,1-67.81,140l.55,2.24-1.59-1-33.17-21.31-25.62-61.7-28.56,15.76-34.65-90.77L612.75,447.4Z"/><path class="cls-4" d="M743.47,436.27,809,449.48h0s0-.06,0,0,0,0,0,0h0l40.23,8.1"/><path class="cls-31" d="M809.08,449.46s0,0,0,0S809.09,449.41,809.08,449.46Z"/><path class="cls-4" d="M751.07,593.62l-.55-2.24a310.9,310.9,0,0,0,67.81-140l31,6.23-17.72,88"/><path class="cls-32" d="M743.47,436.27,809,449.48h0l9.28,1.87a310.9,310.9,0,0,1-67.81,140l-10.19-41.91,12.57-26-15.41-34.55,9.66-48Z"/><line class="cls-33" x1="620.78" y1="411.57" x2="615.39" y2="410.48"/><polygon class="cls-34" points="615.46 414.06 615.39 410.48 620.78 411.57 627.48 434.58 612.75 447.4 614.68 430.85 611.59 421.74 615.46 414.06"/><path class="cls-4" d="M205.67,328c-.4,2-.77,4-1.13,6"/><path class="cls-35" d="M205.67,328,473.46,381.9l-4.33,4.16,0,.05L330.59,519.36l-34.85-41.83-59.2,59.26a316.57,316.57,0,0,1-16.67-36.58A310.72,310.72,0,0,1,204.54,334C204.9,332,205.27,330,205.67,328Z"/><path class="cls-36" d="M204.54,334l36.56,7.36L253.25,399l-29.83,67.22L225.71,492l-5.84,8.21A310.72,310.72,0,0,1,204.54,334Z"/><polygon class="cls-37" points="330.59 519.35 336.26 491.24 327.33 478.92 332.22 454.63 341.48 423.8 295.75 477.53 330.59 519.35"/><g class="cls-38"><path class="cls-39" d="M809,449.48h0Z"/><path class="cls-40" d="M809.06,449.47s0-.06,0,0S809.07,449.47,809.06,449.47Z"/><path class="cls-41" d="M783.39,460.36l.05.07-.12.19C783.35,460.53,783.37,460.44,783.39,460.36Z"/><path class="cls-42" d="M782.1,464.35h0a1.55,1.55,0,0,1,0,.22h0A1.64,1.64,0,0,1,782.1,464.35Z"/><path class="cls-43" d="M767.45,450a0,0,0,0,0,0,0h0Z"/></g><g class="cls-44"><circle class="cls-45" cx="557.21" cy="583.87" r="86.43" transform="matrix(0.99, -0.15, 0.15, 0.99, -79.56, 87.97)"/><path class="cls-46" d="M482.75,568.88a76,76,0,1,1,59.46,89.45A75.95,75.95,0,0,1,482.75,568.88Z"/><circle class="cls-47" cx="557.21" cy="583.87" r="65.25"/><circle class="cls-48" cx="557.21" cy="583.87" r="55.61" transform="translate(-195.28 875.68) rotate(-67.53)"/><path class="cls-49" d="M512.5,574.87a45.61,45.61,0,1,1,35.7,53.71A45.6,45.6,0,0,1,512.5,574.87Z"/><path class="cls-50" d="M522.25,576.83a35.66,35.66,0,1,1,27.92,42A35.65,35.65,0,0,1,522.25,576.83Z"/></g><line class="cls-51" x1="473.38" y1="381.88" x2="473.47" y2="381.9"/><line class="cls-51" x1="809.04" y1="449.48" x2="809.06" y2="449.48"/></g></g></svg>