<svg xmlns="http://www.w3.org/2000/svg" viewBox="0 0 1023.55 775.86"><defs><style>.cls-1{isolation:isolate;}.cls-2,.cls-3{fill:none;stroke-miterlimit:10;}.cls-2{stroke:#040015;stroke-width:2px;}.cls-3{stroke:#ffe2da;mix-blend-mode:color-dodge;}</style></defs><title>Artboard 1</title><g class="cls-1"><g id="Laag_2" data-name="Laag 2"><rect class="cls-2" x="508.58" y="87.63" width="8.86" height="24.95"/><rect class="cls-2" x="796.1" y="378.3" width="8.86" height="24.95" transform="translate(1191.31 -409.76) rotate(90)"/><rect class="cls-2" x="763.7" y="243.23" width="8.86" height="24.95" transform="translate(662.17 -546.9) rotate(64.07)"/><rect class="cls-2" x="658.99" y="130.37" width="8.86" height="24.95" transform="translate(160.3 -312.57) rotate(30)"/><rect class="cls-3" x="220.23" y="378.3" width="8.86" height="24.95" transform="translate(615.43 166.11) rotate(90)"/><rect class="cls-2" x="252.64" y="243.23" width="8.86" height="24.95" transform="translate(599.44 136.34) rotate(115.93)"/><rect class="cls-2" x="357.35" y="130.37" width="8.86" height="24.95" transform="translate(746.51 85.66) rotate(150)"/><rect class="cls-3" x="508.87" y="663.7" width="8.86" height="24.95"/><rect class="cls-3" x="763.98" y="508.11" width="8.86" height="24.95" transform="translate(-35.79 983.97) rotate(-64.07)"/><rect class="cls-3" x="659.28" y="620.97" width="8.86" height="24.95" transform="translate(-227.8 416.72) rotate(-30)"/><rect class="cls-3" x="252.93" y="508.11" width="8.86" height="24.95" transform="translate(-98.27 979.69) rotate(-115.93)"/><rect class="cls-3" x="357.64" y="620.97" width="8.86" height="24.95" transform="translate(358.9 1363.06) rotate(-150)"/></g></g></svg>