<svg xmlns="http://www.w3.org/2000/svg" viewBox="0 0 1023.55 775.86"><defs><style>.cls-1{isolation:isolate;}.cls-2,.cls-3{fill:none;stroke-miterlimit:10;}.cls-2{stroke:#040015;stroke-width:2px;}.cls-3{stroke:#ffe2da;mix-blend-mode:color-dodge;}</style></defs><title>Artboard 1</title><g class="cls-1"><g id="Laag_2" data-name="Laag 2"><rect class="cls-2" x="502.64" y="87.63" width="8.86" height="24.95"/><rect class="cls-2" x="790.16" y="378.3" width="8.86" height="24.95" transform="translate(1185.36 -403.81) rotate(90)"/><rect class="cls-2" x="757.75" y="243.23" width="8.86" height="24.95" transform="translate(658.83 -541.55) rotate(64.07)"/><rect class="cls-2" x="653.04" y="130.37" width="8.86" height="24.95" transform="translate(159.51 -309.6) rotate(30)"/><rect class="cls-3" x="214.29" y="378.3" width="8.86" height="24.95" transform="translate(609.49 172.06) rotate(90)"/><rect class="cls-2" x="246.69" y="243.23" width="8.86" height="24.95" transform="translate(590.9 141.68) rotate(115.93)"/><rect class="cls-2" x="351.4" y="130.37" width="8.86" height="24.95" transform="translate(735.41 88.63) rotate(150)"/><rect class="cls-3" x="502.92" y="663.7" width="8.86" height="24.95"/><rect class="cls-3" x="758.04" y="508.11" width="8.86" height="24.95" transform="translate(-39.13 978.62) rotate(-64.07)"/><rect class="cls-3" x="653.33" y="620.97" width="8.86" height="24.95" transform="translate(-228.6 413.74) rotate(-30)"/><rect class="cls-3" x="246.98" y="508.11" width="8.86" height="24.95" transform="translate(-106.81 974.34) rotate(-115.93)"/><rect class="cls-3" x="351.69" y="620.97" width="8.86" height="24.95" transform="translate(347.81 1360.08) rotate(-150)"/></g></g></svg>