<?xml version="1.0" encoding="utf-8"?>
<!-- Generator: Adobe Illustrator 22.1.0, SVG Export Plug-In . SVG Version: 6.00 Build 0)  -->
<svg version="1.1" id="Capa_1" xmlns="http://www.w3.org/2000/svg" xmlns:xlink="http://www.w3.org/1999/xlink" x="0px" y="0px"
	 viewBox="0 0 480 480" style="enable-background:new 0 0 480 480;" xml:space="preserve">
<style type="text/css">
	.st0{fill:#FFFFFF;stroke:#000000;stroke-width:6;stroke-miterlimit:10;}
</style>
<g>
	<g>
		<path class="st0" d="M250.4,470l156-140.4c3.3-3,5.2-7.2,5.2-11.6l0-93.6c0-6.1-3.6-11.7-9.2-14.3c-5.6-2.5-12.2-1.5-16.8,2.7
			L240,343.8l-145.5-131c-4.6-4.1-11.2-5.2-16.8-2.7c-5.6,2.5-9.3,8.1-9.3,14.3l0,93.6c0,4.4,1.9,8.6,5.1,11.6l156,140.4
			C235.5,475.3,244.5,475.3,250.4,470z"/>
	</g>
</g>
<g>
	<g>
		<path class="st0" d="M250.4,267.2l156-140.4c3.3-3,5.2-7.2,5.2-11.6l0-93.6c0-6.1-3.6-11.7-9.2-14.3c-5.6-2.5-12.2-1.5-16.8,2.7
			L240,141L94.5,10c-4.6-4.1-11.2-5.2-16.8-2.7c-5.6,2.5-9.3,8.1-9.3,14.3l0,93.6c0,4.4,1.9,8.6,5.1,11.6l156,140.4
			C235.5,272.6,244.5,272.6,250.4,267.2z"/>
	</g>
</g>
</svg>
