<svg xmlns="http://www.w3.org/2000/svg" viewBox="0 0 566.93 566.93"><defs><style>.cls-1{fill:#04908c;}.cls-2,.cls-3{fill:none;stroke:#04908c;stroke-miterlimit:10;}.cls-2{stroke-width:3px;}.cls-3{stroke-width:2px;}</style></defs><title>Tekengebied 1</title><g id="Laag_1" data-name="Laag 1"><polygon class="cls-1" points="381.15 226.17 281.91 168.87 182.67 226.17 182.67 340.76 281.91 398.06 381.15 340.76 381.15 226.17"/><circle class="cls-2" cx="281.91" cy="280.13" r="212.35"/><polygon class="cls-2" points="281.91 67.78 281.91 168.87 362 142.06 281.91 67.78"/><line class="cls-2" x1="386.92" y1="95.53" x2="331.5" y2="197.5"/><polygon class="cls-2" points="362 142.06 381.15 226.17 465.29 173 362 142.06"/><line class="cls-2" x1="494.26" y1="280.13" x2="381.15" y2="280.13"/><line class="cls-2" x1="465.29" y1="173" x2="443.29" y2="280.13"/><line class="cls-2" x1="331.2" y1="369.42" x2="387.23" y2="464.36"/><polyline class="cls-2" points="381.15 226.17 443.29 280.13 381.15 340.76 362 421.61 281.91 398.06 281.91 492.48 362 421.61 465.29 387.24 381.15 340.76"/><polygon class="cls-2" points="281.91 67.78 281.91 168.87 201.82 142.06 281.91 67.78"/><line class="cls-2" x1="176.9" y1="95.53" x2="232.32" y2="197.5"/><polygon class="cls-2" points="201.82 142.06 182.67 226.17 98.53 173 201.82 142.06"/><line class="cls-2" x1="69.56" y1="280.13" x2="182.67" y2="280.13"/><line class="cls-2" x1="98.54" y1="173" x2="120.53" y2="280.13"/><line class="cls-2" x1="232.63" y1="369.42" x2="176.59" y2="464.36"/><polyline class="cls-2" points="182.67 226.17 120.53 280.13 182.67 340.76 201.82 421.61 281.91 398.06 281.91 492.48 201.82 421.61 98.53 387.24 182.67 340.76"/><line class="cls-2" x1="443.29" y1="280.13" x2="465.29" y2="387.24"/><line class="cls-2" x1="98.54" y1="387.24" x2="120.53" y2="280.13"/></g><g id="Laag_3" data-name="Laag 3"><polygon class="cls-2" points="282.35 53.79 295.48 31.05 269.22 31.05 282.35 53.79"/><polygon class="cls-2" points="282.35 505.78 295.48 528.52 269.22 528.52 282.35 505.78"/><polygon class="cls-2" points="508.03 280.13 530.77 293.26 530.77 267 508.03 280.13"/><polygon class="cls-2" points="55.8 280.13 33.05 293.26 33.05 267 55.8 280.13"/><circle class="cls-3" cx="394.69" cy="78.31" r="6.19"/><circle class="cls-3" cx="482.02" cy="166.81" r="6.19"/><circle class="cls-3" cx="164.2" cy="78.31" r="6.19"/><circle class="cls-3" cx="76.87" cy="166.81" r="6.19"/><circle class="cls-3" cx="394.69" cy="481.92" r="6.19"/><circle class="cls-3" cx="482.02" cy="393.43" r="6.19"/><circle class="cls-3" cx="164.2" cy="481.92" r="6.19"/><circle class="cls-3" cx="76.87" cy="393.43" r="6.19"/></g></svg>