<svg xmlns="http://www.w3.org/2000/svg" viewBox="0 0 566.93 566.93"><defs><style>.cls-1{fill:#033045;}.cls-2{fill:#04908c;}.cls-3,.cls-4{fill:none;stroke:#04908c;stroke-miterlimit:10;}.cls-3{stroke-width:3px;}.cls-4{stroke-width:2px;}</style></defs><title>Tekengebied 1</title><g id="Laag_1" data-name="Laag 1"><polygon class="cls-1" points="182.67 226.17 120.53 280.13 98.54 173 182.67 226.17"/><path class="cls-1" d="M98.54,173l22,107.13h-51A211.15,211.15,0,0,1,98.54,173Z"/><polygon class="cls-1" points="182.67 226.17 182.67 280.13 120.53 280.13 182.67 226.17"/><polygon class="cls-1" points="182.67 280.13 182.67 340.76 120.53 280.13 182.67 280.13"/><path class="cls-1" d="M120.53,280.13l-22,107.11h0a211.26,211.26,0,0,1-29-107.12Z"/><polygon class="cls-1" points="182.67 340.76 98.54 387.24 120.53 280.13 182.67 340.76"/><polygon class="cls-1" points="182.67 340.76 201.82 421.61 98.54 387.24 182.67 340.76"/><path class="cls-1" d="M201.82,421.61l-25.23,42.75-.08.14a213.25,213.25,0,0,1-78-77.25h0Z"/><polygon class="cls-1" points="232.55 369.56 201.82 421.61 182.67 340.76 232.55 369.56"/><polygon class="cls-1" points="281.91 398.06 201.82 421.61 232.55 369.56 281.91 398.06"/><path class="cls-1" d="M281.91,492.48a211.18,211.18,0,0,1-105.4-28l.08-.14,25.23-42.75Z"/><polygon class="cls-1" points="281.91 398.06 281.91 492.48 201.82 421.61 281.91 398.06"/><polygon class="cls-1" points="331.28 369.55 362 421.61 281.91 398.06 331.28 369.55"/><polygon class="cls-1" points="362 421.61 281.91 492.48 281.91 398.06 362 421.61"/><path class="cls-1" d="M387.23,464.36l.08.15a211.3,211.3,0,0,1-105.4,28L362,421.61Z"/><path class="cls-1" d="M362,421.61l103.29-34.37a213.15,213.15,0,0,1-78,77.27l-.08-.15Z"/><polygon class="cls-1" points="381.15 340.76 362 421.61 331.28 369.55 381.15 340.76"/><polygon class="cls-1" points="465.29 387.24 362 421.61 381.15 340.76 465.29 387.24"/><path class="cls-1" d="M443.29,280.13h51a211.2,211.2,0,0,1-29,107.11Z"/><polygon class="cls-1" points="443.29 280.13 465.29 387.24 381.15 340.76 443.29 280.13"/><polygon class="cls-1" points="443.29 280.13 381.15 340.76 381.15 280.13 443.29 280.13"/><polygon class="cls-1" points="443.29 280.13 381.15 280.13 381.15 226.17 443.29 280.13"/><path class="cls-1" d="M494.26,280.13h-51l22-107.12A211.23,211.23,0,0,1,494.26,280.13Z"/><polygon class="cls-1" points="465.29 173 465.29 173.01 443.29 280.13 381.15 226.17 465.28 173 465.29 173"/><path class="cls-1" d="M465.28,173,362,142.06l-.25-.23,25.17-46.3A213.2,213.2,0,0,1,465.28,173Z"/><polygon class="cls-1" points="465.28 173 381.15 226.17 362 142.06 465.28 173"/><polygon class="cls-1" points="362 142.06 381.15 226.17 331.5 197.5 361.55 142.21 362 142.06"/><polygon class="cls-1" points="361.55 142.21 331.5 197.5 281.91 168.87 361.55 142.21"/><polygon class="cls-1" points="361.75 141.83 361.55 142.21 281.91 168.87 281.91 67.78 361.75 141.83"/><path class="cls-1" d="M281.91,67.78a211.32,211.32,0,0,1,105,27.75l-25.17,46.3Z"/><polygon class="cls-1" points="202.27 142.21 232.32 197.5 182.67 226.17 201.82 142.06 202.27 142.21"/><polygon class="cls-1" points="281.91 168.87 232.32 197.5 202.27 142.21 281.91 168.87"/><polygon class="cls-1" points="281.91 67.78 281.91 168.87 202.27 142.21 202.07 141.83 281.91 67.78"/><path class="cls-1" d="M281.91,67.78l-79.84,74.05L176.9,95.53A211.32,211.32,0,0,1,281.91,67.78Z"/><path class="cls-1" d="M202.07,141.83l-.25.23L98.54,173A213.13,213.13,0,0,1,176.9,95.53Z"/><polygon class="cls-1" points="201.82 142.06 182.67 226.17 98.54 173 201.82 142.06"/><polygon class="cls-2" points="331.28 369.55 281.91 398.06 232.55 369.56 182.67 340.76 182.67 280.13 182.67 226.17 232.32 197.5 281.91 168.87 331.5 197.5 381.15 226.17 381.15 280.13 381.15 340.76 331.28 369.55"/><path class="cls-3" d="M465.29,173a212.26,212.26,0,1,1-78.37-77.48A211.23,211.23,0,0,1,465.29,173"/><polyline class="cls-3" points="281.91 168.87 361.55 142.21 362 142.06 361.75 141.83 281.91 67.78"/><polyline class="cls-3" points="386.92 95.53 361.75 141.83 361.55 142.21 331.5 197.5"/><polyline class="cls-3" points="465.29 173 465.28 173 362 142.06 381.15 226.17 465.28 173"/><polyline class="cls-3" points="494.26 280.13 443.29 280.13 381.15 280.13"/><polyline class="cls-3" points="465.29 173 465.29 173.01 443.29 280.13"/><polyline class="cls-3" points="331.2 369.42 331.28 369.55 362 421.61 387.23 464.36"/><polyline class="cls-3" points="281.91 492.48 362 421.61 465.29 387.24 381.15 340.76"/><polyline class="cls-3" points="381.15 226.17 443.29 280.13 381.15 340.76 362 421.61 281.91 398.06"/><polygon class="cls-3" points="281.91 67.78 281.91 168.87 202.27 142.21 201.82 142.06 202.07 141.83 281.91 67.78"/><polyline class="cls-3" points="176.9 95.53 202.07 141.83 202.27 142.21 232.32 197.5"/><polygon class="cls-3" points="201.82 142.06 182.67 226.17 98.54 173 201.82 142.06"/><polyline class="cls-3" points="69.56 280.13 120.53 280.13 182.67 280.13"/><line class="cls-3" x1="98.54" y1="173" x2="120.53" y2="280.13"/><polyline class="cls-3" points="232.63 369.42 232.55 369.56 201.82 421.61 176.59 464.36"/><polyline class="cls-3" points="182.67 226.17 120.53 280.13 182.67 340.76 201.82 421.61 281.91 398.06 281.91 492.48 201.82 421.61 98.54 387.24 182.67 340.76"/><line class="cls-3" x1="443.29" y1="280.13" x2="465.29" y2="387.24"/><line class="cls-3" x1="98.54" y1="387.24" x2="120.53" y2="280.13"/></g><g id="Laag_3" data-name="Laag 3"><polygon class="cls-1" points="282.35 505.78 295.48 528.52 269.22 528.52 282.35 505.78"/><polygon class="cls-1" points="530.77 267 530.77 293.26 508.03 280.13 530.77 267"/><polygon class="cls-1" points="295.48 31.05 282.35 53.79 269.22 31.05 295.48 31.05"/><polygon class="cls-1" points="55.8 280.13 33.05 293.26 33.05 267 55.8 280.13"/><polygon class="cls-3" points="282.35 53.79 295.48 31.05 269.22 31.05 282.35 53.79"/><polygon class="cls-3" points="282.35 505.78 295.48 528.52 269.22 528.52 282.35 505.78"/><polygon class="cls-3" points="508.03 280.13 530.77 293.26 530.77 267 508.03 280.13"/><polygon class="cls-3" points="55.8 280.13 33.05 293.26 33.05 267 55.8 280.13"/><path class="cls-4" d="M400.87,78.31a6.19,6.19,0,1,1-6.18-6.18A6.19,6.19,0,0,1,400.87,78.31Z"/><circle class="cls-4" cx="482.02" cy="166.81" r="6.19"/><path class="cls-4" d="M158,78.31a6.19,6.19,0,1,0,6.19-6.18A6.19,6.19,0,0,0,158,78.31Z"/><path class="cls-4" d="M70.68,166.81a6.19,6.19,0,1,0,6.19-6.19A6.19,6.19,0,0,0,70.68,166.81Z"/><path class="cls-4" d="M400.87,481.92a6.19,6.19,0,1,0-6.18,6.19A6.18,6.18,0,0,0,400.87,481.92Z"/><path class="cls-4" d="M488.21,393.43a6.19,6.19,0,1,0-6.19,6.18A6.19,6.19,0,0,0,488.21,393.43Z"/><path class="cls-4" d="M158,481.92a6.19,6.19,0,1,1,6.19,6.19A6.19,6.19,0,0,1,158,481.92Z"/><path class="cls-4" d="M70.68,393.43a6.19,6.19,0,1,1,6.19,6.18A6.19,6.19,0,0,1,70.68,393.43Z"/></g></svg>