<?xml version="1.0" encoding="utf-8"?>
<!-- Generator: Adobe Illustrator 22.1.0, SVG Export Plug-In . SVG Version: 6.00 Build 0)  -->
<svg version="1.1" id="Capa_1" xmlns="http://www.w3.org/2000/svg" xmlns:xlink="http://www.w3.org/1999/xlink" x="0px" y="0px"
	 viewBox="0 0 480 480" style="enable-background:new 0 0 480 480;" xml:space="preserve">
<style type="text/css">
	.st0{fill:#FFFFFF;}
</style>
<g>
	<g>
		<path class="st0" d="M229.6,10l-156,140.4c-3.3,3-5.2,7.2-5.2,11.6l0,93.6c0,6.1,3.6,11.7,9.2,14.3c5.6,2.5,12.2,1.5,16.8-2.7
			l145.6-131l145.5,131c4.6,4.1,11.2,5.2,16.8,2.7c5.6-2.5,9.3-8.1,9.3-14.3l0-93.6c0-4.4-1.9-8.6-5.1-11.6L250.5,10
			C244.5,4.7,235.5,4.7,229.6,10z"/>
	</g>
</g>
<g>
	<g>
		<path class="st0" d="M229.6,212.8l-156,140.4c-3.3,3-5.2,7.2-5.2,11.6l0,93.6c0,6.1,3.6,11.7,9.2,14.3c5.6,2.5,12.2,1.5,16.8-2.7
			L240,339l145.5,131c4.6,4.1,11.2,5.2,16.8,2.7c5.6-2.5,9.3-8.1,9.3-14.3l0-93.6c0-4.4-1.9-8.6-5.1-11.6l-156-140.4
			C244.5,207.5,235.5,207.5,229.6,212.8z"/>
	</g>
</g>
</svg>
